<?xml version="1.0" standalone="no"?>
<!DOCTYPE svg PUBLIC "-//W3C//DTD SVG 1.1//EN" "http://www.w3.org/Graphics/SVG/1.1/DTD/svg11.dtd" >
<svg>
<metadata>
Created by FontForge 20090914 at Mon Nov  8 15:57:21 2021
 By www-data
Copyright &#194;&#169; 2017 by Oliver Jeschke. All rights reserved.
</metadata>
<defs>
<font id="Sequel100Black-55" horiz-adv-x="788" >
  <font-face 
    font-family="Sequel100Black-55"
    font-weight="400"
    font-stretch="extra-expanded"
    units-per-em="1000"
    panose-1="2 11 5 3 5 0 0 2 0 4"
    ascent="789"
    descent="-211"
    x-height="539"
    cap-height="714"
    bbox="-242 -439 1523 1069"
    underline-thickness="50"
    underline-position="-100"
    unicode-range="U+000D-U+FB02"
  />
<missing-glyph horiz-adv-x="690" 
d="M649 -439h-609v1508h609v-1508zM118 -373h453v1377h-453v-1377zM158 391c6.66699 101.333 67.6689 152 183.002 152c52.667 0 95.5 -11.833 128.5 -35.5s49.5 -57.167 49.5 -100.5c0 -26 -6.16699 -46 -18.5 -60s-29.833 -27 -52.5 -39
c-20.667 -10.667 -34.5 -19.167 -41.5 -25.5s-10.5 -14.833 -10.5 -25.5v-3h-118v16c0 24.667 5.16699 44 15.5 58s29.5 29.333 57.5 46c10.667 6.66699 18.667 13 24 19s8 13.333 8 22c0 9.33301 -3.66699 17 -11 23s-18 9 -32 9c-14.667 0 -26.334 -4.83301 -35.001 -14.5
s-13.334 -23.5 -14.001 -41.5h-133zM267.002 216h140v-123h-140v123z" />
    <glyph glyph-name="fi" unicode="fi" horiz-adv-x="767" 
d="M310.5 616.5c-17.667 -11.667 -26.498 -32.167 -26.498 -61.5l1 -16h174v-102h-174v-437h-155v437h-110v102h110v37c0 62.667 20.667 106.667 62 132s103.666 38 186.999 38c33.333 0 64.666 -2.33301 93.999 -7v-110c-28.667 3.33301 -51 5 -67 5
c-46 0 -77.833 -5.83301 -95.5 -17.5zM545.002 539h155v-539h-155v539zM543.002 728h159v-108h-159v108z" />
    <glyph glyph-name="fl" unicode="fl" horiz-adv-x="791" 
d="M310.5 616.5c-17.667 -11.667 -26.498 -32.167 -26.498 -61.5l1 -16h174v-102h-174v-437h-155v437h-110v102h110v37c0 62.667 20.667 106.667 62 132s103.666 38 186.999 38c33.333 0 64.666 -2.33301 93.999 -7v-110c-28.667 3.33301 -51 5 -67 5
c-46 0 -77.833 -5.83301 -95.5 -17.5zM569.002 724h155v-724h-155v724z" />
    <glyph glyph-name="f_f" unicode="ff" horiz-adv-x="922" 
d="M310.5 616.5c-17.667 -11.667 -26.498 -32.167 -26.498 -61.5l1 -16h174v-102h-174v-437h-155v437h-110v102h110v37c0 62.667 20.667 106.667 62 132s103.666 38 186.999 38c33.333 0 64.666 -2.33301 93.999 -7v-110c-28.667 3.33301 -51 5 -67 5
c-46 0 -77.833 -5.83301 -95.5 -17.5zM731.502 616.5c-17.667 -11.667 -26.498 -32.167 -26.498 -61.5l1 -16h174v-102h-174v-437h-155v437h-110v102h110v37c0 62.667 20.667 106.667 62 132s103.666 38 186.999 38c33.333 0 64.666 -2.33301 93.999 -7v-110
c-28.667 3.33301 -51 5 -67 5c-46 0 -77.833 -5.83301 -95.5 -17.5z" />
    <glyph glyph-name="f_f_i" unicode="ffi" horiz-adv-x="1188" 
d="M310.5 616.5c-17.667 -11.667 -26.498 -32.167 -26.498 -61.5l1 -16h174v-102h-174v-437h-155v437h-110v102h110v37c0 62.667 20.667 106.667 62 132s103.666 38 186.999 38c33.333 0 64.666 -2.33301 93.999 -7v-110c-28.667 3.33301 -51 5 -67 5
c-46 0 -77.833 -5.83301 -95.5 -17.5zM731.502 616.5c-17.667 -11.667 -26.498 -32.167 -26.498 -61.5l1 -16h174v-102h-174v-437h-155v437h-110v102h110v37c0 62.667 20.667 106.667 62 132s103.666 38 186.999 38c33.333 0 64.666 -2.33301 93.999 -7v-110
c-28.667 3.33301 -51 5 -67 5c-46 0 -77.833 -5.83301 -95.5 -17.5zM966.004 539h155v-539h-155v539zM964.004 728h159v-108h-159v108z" />
    <glyph glyph-name=".notdef" horiz-adv-x="690" 
d="M649 -439h-609v1508h609v-1508zM118 -373h453v1377h-453v-1377zM158 391c6.66699 101.333 67.6689 152 183.002 152c52.667 0 95.5 -11.833 128.5 -35.5s49.5 -57.167 49.5 -100.5c0 -26 -6.16699 -46 -18.5 -60s-29.833 -27 -52.5 -39
c-20.667 -10.667 -34.5 -19.167 -41.5 -25.5s-10.5 -14.833 -10.5 -25.5v-3h-118v16c0 24.667 5.16699 44 15.5 58s29.5 29.333 57.5 46c10.667 6.66699 18.667 13 24 19s8 13.333 8 22c0 9.33301 -3.66699 17 -11 23s-18 9 -32 9c-14.667 0 -26.334 -4.83301 -35.001 -14.5
s-13.334 -23.5 -14.001 -41.5h-133zM267.002 216h140v-123h-140v123z" />
    <glyph glyph-name="nonmarkingreturn" unicode="&#xd;" horiz-adv-x="142" 
 />
    <glyph glyph-name="space" unicode=" " horiz-adv-x="344" 
 />
    <glyph glyph-name="exclam" unicode="!" horiz-adv-x="340" 
d="M110 226l-24 326v162h169v-162l-25 -326h-120zM83 157h175v-157h-175v157z" />
    <glyph glyph-name="quotedbl" unicode="&#x22;" horiz-adv-x="442" 
d="M40 399v315h131v-315h-131zM271 399v315h131v-315h-131z" />
    <glyph glyph-name="numbersign" unicode="#" horiz-adv-x="693" 
d="M538 420l-31 -141h115l-22 -88h-112l-42 -191h-106l42 191h-141l-43 -191h-105l42 191h-112l20 88h111l31 141h-113l20 89h113l42 192h106l-42 -192h141l43 192h105l-42 -192h112l-21 -89h-111zM433 420h-142l-31 -141h142z" />
    <glyph glyph-name="dollar" unicode="$" horiz-adv-x="850" 
d="M714.5 43.5c-61.667 -34.333 -152.834 -52.499 -273.501 -54.499v-107h-63v108c-112.667 3.33301 -198.5 23.5 -257.5 60.5s-89.833 99.5 -92.5 187.5h170c3.33301 -45.333 20 -78 50 -98s73.333 -31.667 130 -35v196l-108 10c-71.333 6.66699 -125.833 24.5 -163.5 53.5
s-56.5 74.167 -56.5 135.5c0 134 109.333 204.333 328 211v82h63v-82c106.667 -3.33301 189.834 -22.5 249.501 -57.5s90.5 -91.167 92.5 -168.5h-169c-2.66699 38 -18.667 65.5 -48 82.5s-71 26.833 -125 29.5v-170l145 -13c72 -6.66699 126.833 -25.334 164.5 -56.001
s56.5 -79 56.5 -145c0 -78.667 -30.833 -135.167 -92.5 -169.5zM378 433.001v164c-104.667 -4 -157 -33.333 -157 -88c0 -24 8.5 -41 25.5 -51s43.833 -16.667 80.5 -20zM632 203.001c0 28.667 -8.83301 48.833 -26.5 60.5s-43.5 19.167 -77.5 22.5l-87 9v-191
c127.333 3.33301 191 36.333 191 99z" />
    <glyph glyph-name="percent" unicode="%" horiz-adv-x="1091" 
d="M407 663.5c35.333 -34.333 53 -84.5 53 -150.5s-17.667 -116.167 -53 -150.5s-87.333 -51.5 -156 -51.5s-120.667 17.167 -156 51.5s-53 84.5 -53 150.5s17.833 116.167 53.5 150.5s87.5 51.5 155.5 51.5c68.667 0 120.667 -17.167 156 -51.5zM817 701l-431 -701h-112
l431 701h112zM343 513c0 74.667 -30.667 112 -92 112c-60.667 0 -91 -37.333 -91 -112c0 -76 30.333 -114 91 -114c61.333 0 92 38 92 114zM995 338.5c35.333 -34.333 53 -84.5 53 -150.5s-17.667 -116.167 -53 -150.5s-87.333 -51.5 -156 -51.5s-120.667 17.167 -156 51.5
s-53 84.5 -53 150.5s17.667 116.167 53 150.5s87.333 51.5 156 51.5s120.667 -17.167 156 -51.5zM931 188c0 75.333 -30.667 113 -92 113c-60.667 0 -91 -37.667 -91 -113s30.333 -113 91 -113c61.333 0 92 37.667 92 113z" />
    <glyph glyph-name="ampersand" unicode="&#x26;" horiz-adv-x="935" 
d="M712 0l-60 52c-70 -43.333 -157 -65 -261 -65s-187.167 17.333 -249.5 52s-93.5 87 -93.5 157c0 95.333 49.667 159.666 149 192.999l49 17l-6 4c-31.333 27.333 -53.833 52.333 -67.5 75s-20.5 48.667 -20.5 78c0 53.333 23 94.5 69 123.5s114 43.5 204 43.5
c91.333 0 160 -14.5 206 -43.5s69 -70.167 69 -123.5c0 -67.333 -45.333 -118.333 -136 -153l-81 -32l160 -138c18 40 27 86 27 138h147c0 -91.333 -21.667 -168.666 -65 -231.999l170 -146h-210zM393 455l74 25c47.333 16 71 41 71 75c0 21.333 -8.83301 38.833 -26.5 52.5
s-46.5 20.5 -86.5 20.5c-39.333 0 -67.833 -6.83301 -85.5 -20.5s-26.5 -31.5 -26.5 -53.5c0 -12 5 -24.167 15 -36.5s25.667 -27.833 47 -46.5zM553 138l-213 186l-36 -14c-26 -10 -46.667 -24.667 -62 -44s-23 -41 -23 -65c0 -32 14.833 -57.333 44.5 -76
s72.167 -28 127.5 -28c64 0 118 13.667 162 41z" />
    <glyph glyph-name="quotesingle" unicode="'" horiz-adv-x="211" 
d="M40 399v315h131v-315h-131z" />
    <glyph glyph-name="parenleft" unicode="(" horiz-adv-x="389" 
d="M226.5 72.5c21 -63 45.667 -115.17 74 -156.503s54.5 -70.666 78.5 -87.999h-140c-51.333 40.667 -99.5 97 -144.5 169s-67.5 167.333 -67.5 286s22.5 213.834 67.5 285.501s93.167 127.834 144.5 168.501h140c-24 -18 -50.167 -47.333 -78.5 -88s-53 -92.5 -74 -155.5
s-31.5 -133.167 -31.5 -210.5s10.5 -147.5 31.5 -210.5z" />
    <glyph glyph-name="parenright" unicode=")" horiz-adv-x="389" 
d="M162.5 72.5c-21 -63 -45.667 -115.17 -74 -156.503s-54.5 -70.666 -78.5 -87.999h140c51.333 40.667 99.5 97 144.5 169s67.5 167.333 67.5 286s-22.5 213.834 -67.5 285.501s-93.167 127.834 -144.5 168.501h-140c24 -18 50.167 -47.333 78.5 -88s53 -92.5 74 -155.5
s31.5 -133.167 31.5 -210.5s-10.5 -147.5 -31.5 -210.5z" />
    <glyph glyph-name="asterisk" unicode="*" horiz-adv-x="492" 
d="M327 500l131 -80l-57 -79l-106 76l2 -131h-103l3 131l-106 -76l-57 79l131 80l-131 79l57 79l106 -75l-3 131h103l-2 -131l106 75l57 -79z" />
    <glyph glyph-name="plus" unicode="+" horiz-adv-x="680" 
d="M604 269h-204v-207h-120v207h-204v114h204v207h120v-207h204v-114z" />
    <glyph glyph-name="comma" unicode="," horiz-adv-x="322" 
d="M250 36c0 -79.333 -13.999 -135.831 -41.999 -169.498s-73 -50.834 -135 -51.501v64c27.333 0.666992 47.166 10.667 59.499 30s18.5 49.666 18.5 90.999h-79v160h178v-124z" />
    <glyph glyph-name="hyphen" unicode="-" horiz-adv-x="445" 
d="M52 228v119h340v-119h-340z" />
    <glyph glyph-name="period" unicode="." horiz-adv-x="322" 
d="M72 160h178v-160h-178v160z" />
    <glyph glyph-name="slash" unicode="/" horiz-adv-x="467" 
d="M441 714l-283 -714h-132l283 714h132z" />
    <glyph glyph-name="zero" unicode="0" horiz-adv-x="901" 
d="M750 621.5c68.667 -62.333 103 -153.5 103 -273.5c0 -119.333 -34.333 -210.333 -103 -273s-168.667 -94 -300 -94s-231.166 31.333 -299.499 94s-102.5 153.667 -102.5 273c0 120 34.167 211.167 102.5 273.5s168.166 93.5 299.499 93.5s231.333 -31.167 300 -93.5z
M690 348c0 162.667 -80 244 -240 244c-159.333 0 -239 -81.333 -239 -244s79.667 -244 239 -244c160 0 240 81.333 240 244z" />
    <glyph glyph-name="one" unicode="1" horiz-adv-x="477" 
d="M397 0h-156.999v475h-220v111h45c60 0 104.667 8.66699 134 26s50.666 45.333 63.999 84h134v-696z" />
    <glyph glyph-name="two" unicode="2" horiz-adv-x="836" 
d="M258.5 163c-20.333 -14.667 -33.166 -29 -38.499 -43h561v-120h-742v23c0 78.667 23 139.667 69 183s106.667 79 182 107l182 71c46 17.333 79.833 34.5 101.5 51.5s32.5 38.5 32.5 64.5c0 35.333 -15.167 60.166 -45.5 74.499s-73.833 21.5 -130.5 21.5
c-134 0 -204.333 -47.667 -211 -143h-175c4 92.667 39.167 159.5 105.5 200.5s158.166 61.5 275.499 61.5c115.333 0 202.833 -15.833 262.5 -47.5s89.5 -86.167 89.5 -163.5c0 -42.667 -9.5 -78.167 -28.5 -106.5s-44.167 -51.166 -75.5 -68.499s-71 -34 -119 -50l-214 -76
c-34 -12 -61.167 -25.333 -81.5 -40z" />
    <glyph glyph-name="three" unicode="3" horiz-adv-x="839" 
d="M796 195c0 -52.667 -13.1689 -94.5 -39.502 -125.5s-67.166 -53.5 -122.499 -67.5s-129 -21 -221 -21c-128 0 -223 19.333 -285 58s-94.667 102.334 -98 191.001h174c4 -46.667 23 -79.834 57 -99.501s85.333 -29.5 154 -29.5c70 0 122.167 7.33301 156.5 22
s51.5 40 51.5 76c0 37.333 -13 64 -39 80s-67.333 24 -124 24h-136v110h145c48 0 82.833 7.5 104.5 22.5s32.5 39.167 32.5 72.5c0 32 -17 54.833 -51 68.5s-81.333 20.5 -142 20.5c-58 0 -103.333 -8.66699 -136 -26s-51 -46 -55 -86h-170c8 153.333 128.333 230 361 230
c120.667 0 210.834 -15.333 270.501 -46s89.5 -82 89.5 -154c0 -40 -9.33301 -72.833 -28 -98.5s-44.667 -42.167 -78 -49.5v-4c86 -18 129 -74 129 -168z" />
    <glyph glyph-name="four" unicode="4" horiz-adv-x="830" 
d="M23 160v122l459 414h189v-421h128v-115h-128v-160h-152v160h-496zM519 561h-4l-314 -281v-5h318v286z" />
    <glyph glyph-name="five" unicode="5" horiz-adv-x="828" 
d="M732 579h-510.002l-8 -144h5c24.667 16 54 28.5 88 37.5s75.667 13.5 125 13.5c118 0 206.167 -20 264.5 -60s87.5 -103.667 87.5 -191c0 -88 -30.333 -152.333 -91 -193s-154 -61 -280 -61c-122 0 -213.167 18.5 -273.5 55.5s-92.166 92.5 -95.499 166.5h176
c4.66699 -34.667 22.334 -60.334 53.001 -77.001s77.334 -25 140.001 -25c68 0 118.333 10.167 151 30.5s49 54.5 49 102.5s-16.167 82.167 -48.5 102.5s-81.5 30.5 -147.5 30.5c-51.333 0 -90.833 -4.66699 -118.5 -14s-52.834 -21.666 -75.501 -36.999h-162l21 380h650
v-117z" />
    <glyph glyph-name="six" unicode="6" horiz-adv-x="861" 
d="M728 397c58.667 -39.333 88.001 -97.334 88.001 -174.001c0 -161.333 -125 -242 -375 -242c-92 0 -166.833 12.5 -224.5 37.5s-100.167 64.333 -127.5 118s-41 123.834 -41 210.501c0 122 31.5 213.833 94.5 275.5s162.167 92.5 297.5 92.5
c124 0 213.833 -20.333 269.5 -61s86.5 -89.667 92.5 -147h-173c-6 27.333 -24.5 49.333 -55.5 66s-72.167 25 -123.5 25c-74.667 0 -131.834 -15 -171.501 -45s-61.5 -83.667 -65.5 -161h5c28 22 62 38.167 102 48.5s88 15.5 144 15.5c117.333 0 205.333 -19.667 264 -59z
M228.001 220.999c0 -82 70.3311 -122.999 210.998 -122.999c68.667 0 120.334 10.333 155.001 31s52 51 52 91c0 39.333 -17.167 69.166 -51.5 89.499s-86.166 30.5 -155.499 30.5c-140.667 0 -211 -39.667 -211 -119z" />
    <glyph glyph-name="seven" unicode="7" horiz-adv-x="787" 
d="M756 696l-0.00292969 -65.9971c0 -19.333 -2.5 -36.833 -7.5 -52.5s-12.833 -31.834 -23.5 -48.501c-13.333 -22.667 -28.166 -44.5 -44.499 -65.5s-39.166 -48.5 -68.499 -82.5c-39.333 -45.333 -71.166 -84.333 -95.499 -117s-45.833 -71.334 -64.5 -116.001
s-30.334 -94 -35.001 -148h-190c6 64.667 20.833 123.167 44.5 175.5s50.5 97.5 80.5 135.5s68.667 81.667 116 131l65 68.5c16.667 18.333 31.334 37.166 44.001 56.499v4h-558v125h737z" />
    <glyph glyph-name="eight" unicode="8" horiz-adv-x="864" 
d="M715 667.5c60 -31.667 90 -82.5 90 -152.5c0 -37.333 -10.333 -68.666 -31 -93.999s-49.667 -43.333 -87 -54v-4c86 -18 129 -75 129 -171c0 -50.667 -13.333 -91.334 -40 -122.001s-68 -53.167 -124 -67.5s-129.333 -21.5 -220 -21.5s-164 7.16699 -220 21.5
s-97.333 36.833 -124 67.5s-40 71.334 -40 122.001c0 96 43 153 129 171v4c-37.333 10.667 -66.333 28.667 -87 54s-31 56.666 -31 93.999c0 70 30 120.833 90 152.5s154.333 47.5 283 47.5s223 -15.833 283 -47.5zM277 575.5c-34 -14.333 -51 -37.833 -51 -70.5
s17 -56.167 51 -70.5s85.667 -21.5 155 -21.5s121 7.16699 155 21.5s51 37.833 51 70.5s-17 56.167 -51 70.5s-85.667 21.5 -155 21.5s-121 -7.16699 -155 -21.5zM594 121.5c32.667 15 49 41.5 49 79.5s-16.333 64.667 -49 80s-86.667 23 -162 23
s-129.333 -7.66699 -162 -23s-49 -42 -49 -80s16.333 -64.5 49 -79.5s86.667 -22.5 162 -22.5s129.333 7.5 162 22.5z" />
    <glyph glyph-name="nine" unicode="9" horiz-adv-x="862" 
d="M133 299c-58.667 39.333 -88.001 97.334 -88.001 174.001c0 161.333 125.333 242 376 242c92 0 166.833 -12.5 224.5 -37.5s100.167 -64.333 127.5 -118s41 -123.834 41 -210.501c0 -122.667 -31.667 -214.667 -95 -276s-162.666 -92 -297.999 -92
c-124 0 -213.667 20.333 -269 61s-86 89.667 -92 147h173c6 -27.333 24.333 -49.333 55 -66s71.667 -25 123 -25c75.333 0 132.833 15 172.5 45s61.167 83.667 64.5 161h-4c-28.667 -22 -63 -38.167 -103 -48.5s-88 -15.5 -144 -15.5c-117.333 0 -205.333 19.667 -264 59z
M632.999 475.001c0 82 -70.333 122.999 -211 122.999c-68 0 -119.333 -10.333 -154 -31s-52 -51 -52 -91c0 -39.333 17 -69.166 51 -89.499s85.667 -30.5 155 -30.5c140.667 0 211 39.667 211 119z" />
    <glyph glyph-name="colon" unicode=":" horiz-adv-x="319" 
d="M72 512h175v-157h-175v157zM72 157h175v-157h-175v157z" />
    <glyph glyph-name="semicolon" unicode=";" horiz-adv-x="319" 
d="M72 512h175v-157h-175v157zM247 36c0 -78.667 -13.832 -134.999 -41.499 -168.999s-71.834 -51.333 -132.501 -52v64c26 1.33301 45 11.666 57 30.999s18 49.333 18 90h-76v157h175v-121z" />
    <glyph glyph-name="less" unicode="&#x3c;" horiz-adv-x="680" 
d="M76 273l528 -220v122l-355 145v5l355 145v123l-528 -221v-99z" />
    <glyph glyph-name="equal" unicode="=" horiz-adv-x="680" 
d="M604 374h-528v115h528v-115zM604 160h-528v114h528v-114z" />
    <glyph glyph-name="greater" unicode="&#x3e;" horiz-adv-x="680" 
d="M604 273l-528 -220v122l355 145v5l-355 145v123l528 -221v-99z" />
    <glyph glyph-name="question" unicode="?" horiz-adv-x="736" 
d="M28 482c2 87.333 33.667 150.336 95 189.003s146.666 58 255.999 58c105.333 0 186.333 -16.333 243 -49s85 -81.334 85 -146.001c0 -44 -10.5 -78.333 -31.5 -103s-52.167 -47.334 -93.5 -68.001l-58 -30c-29.333 -15.333 -48.833 -30 -58.5 -44
s-14.834 -32.333 -15.501 -55v-8h-151v24c0 28 4.16699 51.5 12.5 70.5s20.666 35.5 36.999 49.5s38.5 29.333 66.5 46l54 30c24.667 14 42.334 27 53.001 39s16 27.667 16 47c0 27.333 -13.667 47.666 -41 60.999s-66.333 20 -117 20
c-53.333 0 -96.666 -9.66699 -129.999 -29s-51.666 -53.333 -54.999 -102h-167zM287 155.003h175v-155h-175v155z" />
    <glyph glyph-name="at" unicode="@" horiz-adv-x="1067" 
d="M773 492l-61.9961 -323c-2 -8 -3 -14.667 -3 -20c0 -8.66699 2.16699 -15.167 6.5 -19.5s11.833 -6.5 22.5 -6.5c27.333 0 53.833 7.5 79.5 22.5s47 38.833 64 71.5s25.5 74.334 25.5 125.001c0 60.667 -14.333 114.334 -43 161.001s-70.334 83 -125.001 109
s-119.667 39 -195 39c-70 0 -134.167 -17.5 -192.5 -52.5s-104.5 -83.333 -138.5 -145s-51 -131.167 -51 -208.5c0 -75.333 15.667 -139.166 47 -191.499s74.166 -91.666 128.499 -117.999s116.166 -39.5 185.499 -39.5c52.667 0 99.667 6.5 141 19.5s82.333 32.5 123 58.5
h136c-38.667 -51.333 -94 -92.5 -166 -123.5s-151.333 -46.5 -238 -46.5c-90 0 -170.5 17.667 -241.5 53s-126.833 86.666 -167.5 153.999s-61 147.666 -61 240.999c0 92 22 175.667 66 251s104.167 134.666 180.5 177.999s160.5 65 252.5 65
c92.667 0 174.834 -17.333 246.501 -52s127.167 -81.5 166.5 -140.5s59 -123.5 59 -193.5c0 -72 -14.667 -131.833 -44 -179.5s-66.833 -82.667 -112.5 -105s-93.834 -33.5 -144.501 -33.5c-32 0 -57.167 5.66699 -75.5 17s-28.833 27.666 -31.5 48.999h-4
c-18.667 -23.333 -40.5 -40.166 -65.5 -50.499s-54.167 -15.5 -87.5 -15.5c-54.667 0 -98 16.167 -130 48.5s-48 76.166 -48 131.499c0 38.667 6.83301 76.167 20.5 112.5s33.5 68.5 59.5 96.5c44 47.333 98.333 71 163 71c31.333 0 57.666 -5.83301 78.999 -17.5
s36.333 -26.5 45 -44.5h5l10 52h115zM445.004 366c-16 -19.333 -28.167 -41.167 -36.5 -65.5s-12.5 -48.833 -12.5 -73.5c0 -31.333 7.66699 -55.333 23 -72s36.666 -25 63.999 -25c36 0 67.333 16 94 48c16 19.333 28 41.333 36 66s12 49 12 73
c0 31.333 -7.66699 55.333 -23 72s-36.666 25 -63.999 25c-36 0 -67 -16 -93 -48z" />
    <glyph glyph-name="A" unicode="A" horiz-adv-x="947" 
d="M686 145h-428l-72 -145h-173l364 714h195l362 -714h-176zM624 270l-150 302h-4l-150 -302h304z" />
    <glyph glyph-name="B" unicode="B" horiz-adv-x="917" 
d="M838.5 325.5c19.667 -27 29.5 -67.167 29.5 -120.5c0 -69.333 -19.667 -120.833 -59 -154.5s-101.333 -50.5 -186 -50.5h-546v714h535c154 0 231 -61.333 231 -184c0 -38 -7.33301 -69 -22 -93s-35.667 -40.667 -63 -50v-5c34 -10.667 60.833 -29.5 80.5 -56.5z
M647.5 445.5c15.667 13.667 23.5 34.834 23.5 63.501c0 29.333 -7.83301 50.666 -23.5 63.999s-40.167 20 -73.5 20h-339v-168h339c33.333 0 57.833 6.83301 73.5 20.5zM668.5 144c17.667 15.333 26.5 39.667 26.5 73s-8.83301 57.833 -26.5 73.5s-45.834 23.5 -84.501 23.5
h-349v-193h349c38.667 0 66.834 7.66699 84.501 23z" />
    <glyph glyph-name="C" unicode="C" horiz-adv-x="962" 
d="M659 558c-40 29.333 -96.668 44 -170.001 44c-83.333 0 -148.666 -20.833 -195.999 -62.5s-71 -102.5 -71 -182.5s23.667 -140.833 71 -182.5s112.666 -62.5 195.999 -62.5c75.333 0 132.833 15.333 172.5 46s61.167 71.334 64.5 122.001h188
c-1.33301 -62 -19.166 -115.5 -53.499 -160.5s-83 -79.5 -146 -103.5s-138.167 -36 -225.5 -36c-88 0 -165.167 14 -231.5 42s-117.833 70.167 -154.5 126.5s-55 125.833 -55 208.5s18.333 152.167 55 208.5s88.167 98.5 154.5 126.5s143.5 42 231.5 42
c86.667 0 161.167 -11.667 223.5 -35s110.333 -56.5 144 -99.5s52.167 -93.167 55.5 -150.5h-186c-4.66699 43.333 -27 79.666 -67 108.999z" />
    <glyph glyph-name="D" unicode="D" horiz-adv-x="939" 
d="M793 628c65.333 -57.333 98 -147.668 98 -271.001s-32.667 -213.666 -98 -270.999s-160.333 -86 -285 -86h-431v714h431c124.667 0 219.667 -28.667 285 -86zM235 585.998v-458h239c162 0 243 76.333 243 229s-81 229 -243 229h-239z" />
    <glyph glyph-name="E" unicode="E" horiz-adv-x="847" 
d="M235 430h523v-120h-523v-184h554v-126h-712v714h699v-126h-541v-158z" />
    <glyph glyph-name="F" unicode="F" horiz-adv-x="829" 
d="M235 584v-177h523v-124h-523v-283h-158v714h701v-130h-543z" />
    <glyph glyph-name="G" unicode="G" horiz-adv-x="1002" 
d="M926 0h-123v99c-30.667 -40.667 -70.5 -70.667 -119.5 -90s-107.5 -29 -175.5 -29c-143.333 0 -255.833 31.667 -337.5 95s-122.5 157.333 -122.5 282s40 218.667 120 282s190.667 95 332 95c133.333 0 234.5 -23.667 303.5 -71s108.167 -110 117.5 -188h-185
c-8 34.667 -30 64.5 -66 89.5s-92.667 37.5 -170 37.5c-88 0 -156.333 -20.667 -205 -62s-73 -102.333 -73 -183c0 -82 24.667 -143.833 74 -185.5s120 -62.5 212 -62.5c76 0 133.167 14.833 171.5 44.5s60.5 68.167 66.5 115.5h-226v117h406v-386z" />
    <glyph glyph-name="H" unicode="H" horiz-adv-x="952" 
d="M875 714v-714h-158v301h-482v-301h-158v714h158v-282h482v282h158z" />
    <glyph glyph-name="I" unicode="I" horiz-adv-x="312" 
d="M77 0v714h158v-714h-158z" />
    <glyph glyph-name="J" unicode="J" horiz-adv-x="860" 
d="M783 285c0 -106.667 -33.1689 -184.167 -99.502 -232.5s-158.166 -72.5 -275.499 -72.5s-208.666 24.167 -273.999 72.5s-98 125.833 -98 232.5v63h158v-63c0 -59.333 19 -103 57 -131s90.333 -42 157 -42c67.333 0 120.333 14 159 42s58 71.667 58 131v429h158v-429z
" />
    <glyph glyph-name="K" unicode="K" horiz-adv-x="917" 
d="M903 0h-201l-276 366l-191 -154v-212h-158v714h158v-332l401 332h220l-308 -249z" />
    <glyph glyph-name="L" unicode="L" horiz-adv-x="836" 
d="M77 0v714h158v-582h552v-132h-710z" />
    <glyph glyph-name="M" unicode="M" horiz-adv-x="1107" 
d="M1031 0h-158v562h-5l-250 -562h-131l-254 570h-5v-570h-151v714h254l220 -506h4l218 506h258v-714z" />
    <glyph glyph-name="N" unicode="N" horiz-adv-x="951" 
d="M874 714v-714h-180l-462 521h-5v-521h-150v714h185l457 -515h5v515h150z" />
    <glyph glyph-name="O" unicode="O" horiz-adv-x="1000" 
d="M831 638.5c80.667 -63.667 121 -157.5 121 -281.5s-40.333 -217.833 -121 -281.5s-191 -95.5 -331 -95.5s-250.333 31.833 -331 95.5s-121 157.5 -121 281.5s40.333 217.833 121 281.5s191 95.5 331 95.5s250.333 -31.833 331 -95.5zM705 174
c48.667 41.333 73 102.333 73 183s-24.333 141.667 -73 183s-117 62 -205 62s-156.333 -20.667 -205 -62s-73 -102.333 -73 -183s24.333 -141.667 73 -183s117 -62 205 -62s156.333 20.667 205 62z" />
    <glyph glyph-name="P" unicode="P" horiz-adv-x="901" 
d="M800.5 660.5c41 -35.667 61.5 -91.833 61.5 -168.5c0 -77.333 -20.333 -133.833 -61 -169.5s-106 -53.5 -196 -53.5h-370v-269h-158v714h528c89.333 0 154.5 -17.833 195.5 -53.5zM661.5 413.501c18.333 15.667 27.5 40.499 27.5 74.499
c0 34.667 -9.16699 59.834 -27.5 75.501s-47.166 23.5 -86.499 23.5h-340v-197h340c39.333 0 68.166 7.83301 86.499 23.5z" />
    <glyph glyph-name="Q" unicode="Q" horiz-adv-x="1000" 
d="M905.5 162.5c-31 -53.667 -75.499 -95.5 -133.499 -125.5l53 -90l-118 -49l-58 97c-44.667 -10 -94.334 -15 -149.001 -15c-140 0 -250.333 31.833 -331 95.5s-121 157.5 -121 281.5s40.333 217.833 121 281.5s191 95.5 331 95.5s250.333 -31.833 331 -95.5
s121 -157.5 121 -281.5c0 -76 -15.5 -140.833 -46.5 -194.5zM778.001 357c0 80.667 -24.333 141.666 -73 182.999s-117 62 -205 62s-156.333 -20.667 -205 -62s-73 -102.333 -73 -183s24.333 -141.667 73 -183s117 -62 205 -62c27.333 0 53 2 77 6l-64 107l118 50l64 -109
c55.333 42.667 83 106.334 83 191.001z" />
    <glyph glyph-name="R" unicode="R" horiz-adv-x="930" 
d="M895 0h-184l-164 272h-312v-272h-158v714h545c90 0 155.5 -17.5 196.5 -52.5s61.5 -90.5 61.5 -166.5c0 -61.333 -15 -107.5 -45 -138.5s-70 -51.167 -120 -60.5v-6zM679.5 420.5c17 15 25.5 38.167 25.5 69.5s-8.5 54.5 -25.5 69.5s-43.833 22.5 -80.5 22.5h-364v-184
h364c36.667 0 63.5 7.5 80.5 22.5z" />
    <glyph glyph-name="S" unicode="S" horiz-adv-x="884" 
d="M578.5 589c-37 17.333 -89.499 26.001 -157.499 26.001c-127.333 0 -191 -30.667 -191 -92c0 -24.667 8.66699 -42.334 26 -53.001s45.333 -18 84 -22l270 -24c74.667 -6.66699 131.667 -26.167 171 -58.5s59 -82.833 59 -151.5
c0 -85.333 -34.333 -145.666 -103 -180.999s-170 -53 -304 -53c-130 0 -229.333 19.167 -298 57.5s-104.334 105.833 -107.001 202.5h177c4 -53.333 25.5 -89.833 64.5 -109.5s95.5 -29.5 169.5 -29.5c146 0 219 34 219 102c0 29.333 -9.16699 50.333 -27.5 63
s-45.166 20.667 -80.499 24l-269 27c-75.333 7.33301 -132.5 26 -171.5 56s-58.5 76.667 -58.5 140c0 147.333 124.667 221 374 221c121.333 0 216.166 -18 284.499 -54s103.833 -96.667 106.5 -182h-177c-3.33301 43.333 -23.5 73.666 -60.5 90.999z" />
    <glyph glyph-name="T" unicode="T" horiz-adv-x="874" 
d="M839 581h-323v-581h-158v581h-322v133h803v-133z" />
    <glyph glyph-name="U" unicode="U" horiz-adv-x="948" 
d="M871 714v-430c0 -106 -35 -183.167 -105 -231.5s-167.333 -72.5 -292 -72.5s-222 24.167 -292 72.5s-105 125.5 -105 231.5v430h158v-426c0 -61.333 21 -106.166 63 -134.499s100.667 -42.5 176 -42.5s134 14.167 176 42.5s63 73.166 63 134.499v426h158z" />
    <glyph glyph-name="V" unicode="V" horiz-adv-x="894" 
d="M446 179h5l254 535h181l-354 -714h-170l-354 714h183z" />
    <glyph glyph-name="W" unicode="W" horiz-adv-x="1191" 
d="M756 0l-158 520h-5l-159 -520h-189l-231 714h172l157 -526h4l161 526h177l161 -526h5l156 526h170l-232 -714h-189z" />
    <glyph glyph-name="X" unicode="X" horiz-adv-x="905" 
d="M894 0h-210l-233 266l-232 -266h-209l339 377l-307 337h204l207 -235l210 235h200l-307 -337z" />
    <glyph glyph-name="Y" unicode="Y" horiz-adv-x="887" 
d="M523 258v-258h-158v256l-358 458h194l243 -321l246 321h189z" />
    <glyph glyph-name="Z" unicode="Z" horiz-adv-x="867" 
d="M294 133h515v-133h-756v125l513 456h-484v133h725v-125z" />
    <glyph glyph-name="bracketleft" unicode="[" horiz-adv-x="401" 
d="M230 -63h138v-109h-291v909h291v-109h-138v-691z" />
    <glyph glyph-name="backslash" unicode="\" horiz-adv-x="467" 
d="M441 0h-132l-283 714h132z" />
    <glyph glyph-name="bracketright" unicode="]" horiz-adv-x="401" 
d="M171 -63h-138v-109h291v909h-291v-109h138v-691z" />
    <glyph glyph-name="asciicircum" unicode="^" horiz-adv-x="573" 
d="M539 353h-117l-133 240h-5l-133 -240h-117l195 348h115z" />
    <glyph glyph-name="underscore" unicode="_" horiz-adv-x="886" 
d="M888 -165h-890v60h890v-60z" />
    <glyph glyph-name="grave" unicode="`" horiz-adv-x="458" 
d="M295 748l87 -153h-135l-170 153h218z" />
    <glyph glyph-name="a" unicode="a" horiz-adv-x="761" 
d="M697 37c2 -13.333 5.99805 -23.668 11.998 -31.001v-6h-152c-10 10 -15 30.333 -15 61v17c-26.667 -32.667 -61.667 -57 -105 -73s-96.666 -24 -159.999 -24c-71.333 0 -129 14.5 -173 43.5s-66 72.167 -66 129.5c0 54.667 15.167 95.334 45.5 122.001
s70.833 42.334 121.5 47.001l262 24c22.667 1.33301 39.167 5.66602 49.5 12.999s15.5 19 15.5 35c0 18 -10.667 31.5 -32 40.5s-56.666 13.5 -105.999 13.5s-87 -5.5 -113 -16.5s-40.667 -29.167 -44 -54.5h-166c2 66 30.833 112.333 86.5 139s133.167 40 232.5 40
c102 0 178.167 -11.5 228.5 -34.5s75.5 -65.5 75.5 -127.5v-308c0 -20 1 -36.667 3 -50zM538.998 264.998c-8 -6 -23.667 -10.333 -47 -13l-209 -24c-26.667 -3.33301 -47.167 -10.5 -61.5 -21.5s-21.5 -27.833 -21.5 -50.5c0 -25.333 9.83301 -43.5 29.5 -54.5
s48.5 -16.5 86.5 -16.5c61.333 0 113.833 12 157.5 36s65.5 62.667 65.5 116v28z" />
    <glyph glyph-name="b" unicode="b" horiz-adv-x="812" 
d="M450 552c100.667 0 178.833 -24.832 234.5 -74.499s83.5 -119.834 83.5 -210.501s-28 -161 -84 -211s-134 -75 -234 -75s-175.333 30 -226 90h-5v-71h-152v724h155v-256h5c52.667 56 127 84 223 84zM605.999 267.001c0 111.333 -64 167 -192 167
c-62.667 0 -111 -15 -145 -45s-51 -70.667 -51 -122s17 -92 51 -122s82.333 -45 145 -45c128 0 192 55.667 192 167z" />
    <glyph glyph-name="c" unicode="c" horiz-adv-x="793" 
d="M526.5 128.5c26.333 19 42.501 44.501 48.501 76.501h175c-18.667 -149.333 -136.334 -224 -353.001 -224c-115.333 0 -203 25 -263 75s-90 121 -90 213s29.833 163 89.5 213s147.5 75 263.5 75c214 0 331 -73.333 351 -220h-173c-7.33301 31.333 -24 56.166 -50 74.499
s-68.667 27.5 -128 27.5c-63.333 0 -111 -14.333 -143 -43s-48 -71 -48 -127c0 -55.333 16 -97.333 48 -126s79.667 -43 143 -43c60 0 103.167 9.5 129.5 28.5z" />
    <glyph glyph-name="d" unicode="d" horiz-adv-x="812" 
d="M590 468l-0.000976562 255.999h155v-724h-152v71h-5c-50.667 -60 -126 -90 -226 -90s-178 25 -234 75s-84 120.333 -84 211s27.833 160.834 83.5 210.501s133.834 74.5 234.501 74.5c96 0 170.333 -28 223 -84h5zM542.999 144.999c34 30 51 70.667 51 122s-17 92 -51 122
s-82.333 45 -145 45c-128 0 -192 -55.667 -192 -167s64 -167 192 -167c62.667 0 111 15 145 45z" />
    <glyph glyph-name="e" unicode="e" horiz-adv-x="793" 
d="M747 232l-540.999 -0.000976562c4.66699 -48 23.167 -83.667 55.5 -107s79.166 -35 140.499 -35c54.667 0 95 8 121 24s41.333 34.333 46 55h174c-6.66699 -55.333 -36.167 -100.5 -88.5 -135.5s-136.5 -52.5 -252.5 -52.5c-118 0 -207.167 25 -267.5 75
s-90.5 121 -90.5 213s29.833 163 89.5 213s147.167 75 262.5 75s203 -25 263 -75s90 -121 90 -213c0 -11.333 -0.666992 -23.666 -2 -36.999zM211.001 334.999h371.001c-9.33301 38 -29.5 66.333 -60.5 85s-72.833 28 -125.5 28c-104.667 0 -166.334 -37.667 -185.001 -113z
" />
    <glyph glyph-name="f" unicode="f" horiz-adv-x="502" 
d="M310.5 616.5c-17.667 -11.667 -26.498 -32.167 -26.498 -61.5l1 -16h174v-102h-174v-437h-155v437h-110v102h110v37c0 62.667 20.667 106.667 62 132s103.666 38 186.999 38c33.333 0 64.666 -2.33301 93.999 -7v-110c-28.667 3.33301 -51 5 -67 5
c-46 0 -77.833 -5.83301 -95.5 -17.5z" />
    <glyph glyph-name="g" unicode="g" horiz-adv-x="803" 
d="M736 539v-513.002c0 -56 -8.5 -99.833 -25.5 -131.5s-49.5 -55.334 -97.5 -71.001s-119 -23.5 -213 -23.5c-90 0 -159.333 7.83301 -208 23.5s-82 36.834 -100 63.501s-28 60.334 -30 101.001h172c2.66699 -16 8.5 -29.5 17.5 -40.5s25.333 -20 49 -27
s57.5 -10.5 101.5 -10.5c50 0 87.833 4 113.5 12s43 20 52 36s13.5 38.667 13.5 68v89h-5c-53.333 -53.333 -127 -80 -221 -80c-98 0 -174.333 22.333 -229 67s-82 108.334 -82 191.001s27.333 146.5 82 191.5s131 67.5 229 67.5s172.667 -28 224 -84h5v71h152zM534 189.998
c33.333 25.333 50 59.667 50 103c0 44 -16.5 78.667 -49.5 104s-80.167 38 -141.5 38c-124.667 0 -187 -47.333 -187 -142c0 -94 62.333 -141 187 -141c60.667 0 107.667 12.667 141 38z" />
    <glyph glyph-name="h" unicode="h" 
d="M650.5 503.5c47 -32.333 70.5 -81.5 70.5 -147.5v-356h-155v304c0 43.333 -13.333 74.833 -40 94.5s-66.334 29.5 -119.001 29.5c-50.667 0 -94.167 -12.5 -130.5 -37.5s-54.5 -64.167 -54.5 -117.5v-273h-155v724h155v-254h5c54.667 54.667 133.334 82 236.001 82
c78 0 140.5 -16.167 187.5 -48.5z" />
    <glyph glyph-name="i" unicode="i" horiz-adv-x="289" 
d="M67 539h155v-539h-155v539zM65 728h159v-108h-159v108z" />
    <glyph glyph-name="j" unicode="j" horiz-adv-x="290" 
d="M47.5 -60.5c13.667 7.66699 20.498 22.167 20.498 43.5v556h155v-593c0 -37.333 -6.83301 -66.5 -20.5 -87.5s-35.667 -36 -66 -45s-72.166 -13.5 -125.499 -13.5c-18.667 0 -37.167 0.5 -55.5 1.5s-34.166 2.5 -47.499 4.5v126c10.667 -1.33301 23 -2.33301 37 -3
s25.667 -1 35 -1c31.333 0 53.833 3.83301 67.5 11.5zM65.998 728h159v-108h-159v108z" />
    <glyph glyph-name="k" unicode="k" horiz-adv-x="729" 
d="M716 0h-193l-206 242l-95 -75v-167h-155v724h155v-398l264 213h206l-261 -207z" />
    <glyph glyph-name="l" unicode="l" horiz-adv-x="289" 
d="M67 724h155v-724h-155v724z" />
    <glyph glyph-name="m" unicode="m" horiz-adv-x="1187" 
d="M219 468l5.00098 -0.000976562c23.333 28.667 54.166 49.834 92.499 63.501s79.833 20.5 124.5 20.5c102.667 0 172 -28.667 208 -86c26 29.333 59.667 51 101 65s87 21 137 21c69.333 0 125.5 -16 168.5 -48s64.5 -80.667 64.5 -146v-358h-155v316
c0 38.667 -12 67 -36 85s-57.333 27 -100 27c-42 0 -78.833 -11.5 -110.5 -34.5s-47.5 -58.167 -47.5 -105.5v-288h-155v316c0 38.667 -12 67 -36 85s-57.333 27 -100 27c-42 0 -78.833 -11.5 -110.5 -34.5s-47.5 -58.167 -47.5 -105.5v-288h-155v539h152v-71z" />
    <glyph glyph-name="n" unicode="n" 
d="M219 470h5.00098c57.333 54.667 137 82 239 82c78 0 140.5 -16.167 187.5 -48.5s70.5 -81.5 70.5 -147.5v-356h-155v304c0 43.333 -13.333 74.833 -40 94.5s-66.334 29.5 -119.001 29.5c-50.667 0 -94.167 -12.5 -130.5 -37.5s-54.5 -64.167 -54.5 -117.5v-273h-155v539
h152v-69z" />
    <glyph glyph-name="o" unicode="o" horiz-adv-x="802" 
d="M667.5 482c60.333 -50 90.5 -121 90.5 -213s-30.167 -163 -90.5 -213s-149.166 -75 -266.499 -75s-206.166 25 -266.499 75s-90.5 121 -90.5 213s30.167 163 90.5 213s149.166 75 266.499 75s206.166 -25 266.499 -75zM547 143c32.667 28.667 49 70.667 49 126
s-16.333 97.5 -49 126.5s-81.334 43.5 -146.001 43.5s-113.334 -14.5 -146.001 -43.5s-49 -71.167 -49 -126.5s16.333 -97.333 49 -126s81.334 -43 146.001 -43s113.334 14.333 146.001 43z" />
    <glyph glyph-name="p" unicode="p" horiz-adv-x="812" 
d="M222 66v-251.999h-155v725h152v-77h5c50.667 60 126 90 226 90c100.667 0 178.834 -24.833 234.501 -74.5s83.5 -119.834 83.5 -210.501c0 -91.333 -27.833 -161.833 -83.5 -211.5s-133.834 -74.5 -234.501 -74.5c-96.667 0 -171 28.333 -223 85h-5zM269 389.001
c-34 -30 -51 -70.667 -51 -122s17 -92 51 -122s82 -45 144 -45c128.667 0 193 55.667 193 167s-64.333 167 -193 167c-62 0 -110 -15 -144 -45z" />
    <glyph glyph-name="q" unicode="q" horiz-adv-x="812" 
d="M362 -19c-100.667 0 -178.834 24.832 -234.501 74.499s-83.5 120.167 -83.5 211.5c0 90.667 27.833 160.834 83.5 210.501s133.834 74.5 234.501 74.5c100 0 175.333 -30 226 -90h5v77h152v-725h-155v252h-5c-52 -56.667 -126.333 -85 -223 -85zM206 266.999
c0 -111.333 64.333 -167 193 -167c62 0 110 15 144 45s51 70.667 51 122s-17 92 -51 122s-82 45 -144 45c-128.667 0 -193 -55.667 -193 -167z" />
    <glyph glyph-name="r" unicode="r" horiz-adv-x="575" 
d="M219 539l-0.00195312 -72h5c30 28.667 64.833 50.167 104.5 64.5s87.834 21.5 144.501 21.5c28 0 52.333 -2.33301 73 -7v-148c-31.333 6 -62.333 9 -93 9c-67.333 0 -122.666 -12.833 -165.999 -38.5s-65 -73.167 -65 -142.5v-226h-155v539h152z" />
    <glyph glyph-name="s" unicode="s" horiz-adv-x="748" 
d="M472 436c-27.333 11.333 -67.3359 17 -120.003 17c-50 0 -86 -4.83301 -108 -14.5s-33 -23.834 -33 -42.501c0 -15.333 5.83301 -26.5 17.5 -33.5s31.167 -11.5 58.5 -13.5l236 -21c59.333 -5.33301 104.666 -20.166 135.999 -44.499s47 -64.5 47 -120.5
c0 -47.333 -12.833 -84.333 -38.5 -111s-62.667 -45.167 -111 -55.5s-110.166 -15.5 -185.499 -15.5c-73.333 0 -134.5 5.33301 -183.5 16s-87.667 30.5 -116 59.5s-43.166 69.833 -44.499 122.5h168c4 -34.667 20.667 -58.667 50 -72s73.333 -20 132 -20
c56 0 96.667 5.5 122 16.5s38 27.833 38 50.5c0 18 -5.83301 30.833 -17.5 38.5s-31.167 12.834 -58.5 15.501l-225 23c-61.333 6 -108.166 20.667 -140.499 44s-48.5 61 -48.5 113c0 62.667 26 106.5 78 131.5s128.667 37.5 230 37.5c103.333 0 183.5 -13.333 240.5 -40
s86.833 -73.334 89.5 -140.001h-167c-3.33301 28 -18.666 47.667 -45.999 59z" />
    <glyph glyph-name="t" unicode="t" horiz-adv-x="498" 
d="M456 125l-0.000976562 -124.998c-13.333 -2.66699 -31.166 -4.83398 -53.499 -6.50098s-43.5 -2.5 -63.5 -2.5c-54.667 0 -97.167 5 -127.5 15s-52 26.167 -65 48.5s-19.5 53.166 -19.5 92.499v290h-110v102h110v148h155v-148h176v-102h-176v-264c0 -20.667 6 -35 18 -43
s31.667 -12 59 -12c40.667 0 73 2.33301 97 7z" />
    <glyph glyph-name="u" unicode="u" 
d="M569 69h-5.00098c-57.333 -54.667 -137 -82 -239 -82c-78 0 -140.5 16.167 -187.5 48.5s-70.5 81.5 -70.5 147.5v356h155v-304c0 -43.333 13.333 -74.833 40 -94.5s66.334 -29.5 119.001 -29.5c50.667 0 94.167 12.5 130.5 37.5s54.5 63.833 54.5 116.5v274h155v-539
h-152v69z" />
    <glyph glyph-name="v" unicode="v" horiz-adv-x="762" 
d="M746 539l-278 -539h-174l-278 539h176l186 -382h5l187 382h176z" />
    <glyph glyph-name="w" unicode="w" horiz-adv-x="1139" 
d="M887 0h-166l-146 373h-5l-146 -373h-167l-237 539h171l151 -373h4l145 370h161l147 -371h5l144 374h171z" />
    <glyph glyph-name="x" unicode="x" horiz-adv-x="769" 
d="M749 0h-202l-162 183l-164 -183h-201l264 283l-236 256h198l139 -160l138 160h197l-235 -256z" />
    <glyph glyph-name="y" unicode="y" horiz-adv-x="762" 
d="M449 -37c-22 -42.667 -44.833 -75.668 -68.5 -99.001s-51 -39.666 -82 -48.999s-70.167 -14 -117.5 -14c-54 0 -91.333 1 -112 3v130c28 -3.33301 60 -5 96 -5c26.667 0 48.5 3.5 65.5 10.5s30.5 19.833 40.5 38.5l18 36l-273 525h176l186 -382h5l187 382h176z" />
    <glyph glyph-name="z" unicode="z" horiz-adv-x="719" 
d="M36 0v120l394 304h-372v115h613v-119l-394 -305h394v-115h-635z" />
    <glyph glyph-name="braceleft" unicode="{" horiz-adv-x="409" 
d="M248.5 322.5c-15.667 -19.667 -36.834 -32.165 -63.501 -37.498v-5c26.667 -5.33301 47.834 -17.833 63.501 -37.5s23.5 -47.834 23.5 -84.501v-153c0 -24 3.66699 -41.333 11 -52s23.333 -16 48 -16h45v-109h-104c-50 0 -87.833 10.333 -113.5 31s-38.5 52.667 -38.5 96
v173c0 36 -7.33301 61 -22 75s-36.334 21 -65.001 21v118c28.667 0 50.334 6.83301 65.001 20.5s22 38.5 22 74.5v174c0 84 50.667 126 152 126h104v-109h-45c-24.667 0 -40.667 -5.33301 -48 -16s-11 -27.667 -11 -51v-154c0 -36.667 -7.83301 -64.834 -23.5 -84.501z" />
    <glyph glyph-name="bar" unicode="|" horiz-adv-x="300" 
d="M223 -227h-146v1025h146v-1025z" />
    <glyph glyph-name="braceright" unicode="}" horiz-adv-x="409" 
d="M160.5 322.5c15.667 -19.667 36.834 -32.165 63.501 -37.498v-5c-26.667 -5.33301 -47.834 -17.833 -63.501 -37.5s-23.5 -47.834 -23.5 -84.501v-153c0 -24 -3.66699 -41.333 -11 -52s-23.333 -16 -48 -16h-45v-109h104c50 0 87.833 10.333 113.5 31
s38.5 52.667 38.5 96v173c0 36 7.33301 61 22 75s36.334 21 65.001 21v118c-28.667 0 -50.334 6.83301 -65.001 20.5s-22 38.5 -22 74.5v174c0 84 -50.667 126 -152 126h-104v-109h45c24.667 0 40.667 -5.33301 48 -16s11 -27.667 11 -51v-154
c0 -36.667 7.83301 -64.834 23.5 -84.501z" />
    <glyph glyph-name="asciitilde" unicode="~" horiz-adv-x="680" 
d="M541.5 352.5c19.667 13 40.498 31.501 62.498 55.501v-120c-38.667 -44 -80.334 -66 -125.001 -66c-21.333 0 -40.333 2.66699 -57 8s-34 12.666 -52 21.999l-72 36c-18 9.33301 -34.167 16.5 -48.5 21.5s-30.5 7.5 -48.5 7.5c-19.333 0 -39.666 -6.83301 -60.999 -20.5
s-42.666 -35.5 -63.999 -65.5v120c18 26 37.667 45.167 59 57.5s43.333 18.5 66 18.5c19.333 0 36.833 -2.66699 52.5 -8s31.834 -12.333 48.501 -21l72 -36c18.667 -8.66699 35.667 -15.667 51 -21s33.333 -8 54 -8c22 0 42.833 6.5 62.5 19.5z" />
    <glyph glyph-name="uni00A0" unicode="&#xa0;" horiz-adv-x="142" 
 />
    <glyph glyph-name="exclamdown" unicode="&#xa1;" horiz-adv-x="340" 
d="M258 539v-157h-175v157h175zM255 -13v-162h-169v162l24 325h120z" />
    <glyph glyph-name="cent" unicode="&#xa2;" horiz-adv-x="793" 
d="M430 -18v-105.004h-64v105c-106 4.66699 -186.167 31.834 -240.5 81.501s-81.5 118.167 -81.5 205.5c0 88 27.167 156.833 81.5 206.5s134.5 76.834 240.5 81.501v85h64v-85c193.333 -7.33301 299.333 -80.666 318 -219.999h-173c-6.66699 28 -20.667 51 -42 69
s-55.666 28.667 -102.999 32v-337c48 4 82.833 15 104.5 33s35.167 41.667 40.5 71h175c-18.667 -141.333 -125.334 -215.666 -320.001 -222.999zM246 150.496c26.667 -28.333 66.667 -44.833 120 -49.5v337c-106.667 -10 -160 -66.333 -160 -169
c0 -50.667 13.333 -90.167 40 -118.5z" />
    <glyph glyph-name="sterling" unicode="&#xa3;" horiz-adv-x="785" 
d="M678.5 128.5c26.333 5.66699 52.1689 17.835 77.502 36.502v-147c-33.333 -19.333 -80.666 -29 -141.999 -29c-43.333 0 -84.5 7.16699 -123.5 21.5s-80.167 33.833 -123.5 58.5c-16 -26 -39 -45.833 -69 -59.5s-64.667 -20.5 -104 -20.5
c-49.333 0 -87.5 10.333 -114.5 31s-40.5 51.334 -40.5 92.001c0 40 12.667 69.833 38 89.5s58.333 29.5 99 29.5c26.667 0 52.667 -5.33301 78 -16c-4 28 -15 53.333 -33 76h-185v72h128c-25.333 24.667 -45 48.667 -59 72s-21 48.666 -21 75.999
c0 69.333 28.667 120 86 152s134.333 48 231 48c100 0 181 -17.833 243 -53.5s94 -94.834 96 -177.501h-165c-4 41.333 -20.5 70.833 -49.5 88.5s-69.167 26.5 -120.5 26.5c-50.667 0 -89.334 -8 -116.001 -24s-40 -39.667 -40 -71c0 -19.333 5.66699 -38.333 17 -57
s32.333 -45.334 63 -80.001h247v-72h-194c18 -25.333 27 -52.333 27 -81c0 -16.667 -1.33301 -30.667 -4 -42c40.667 -16 75.167 -28 103.5 -36s56.166 -12 83.499 -12c31.333 0 60.166 2.83301 86.499 8.5zM232.003 83.501c11.333 10.333 18.667 25.834 22 46.501
c-24 15.333 -45.333 23 -64 23c-16.667 0 -29.5 -4 -38.5 -12s-13.5 -18.333 -13.5 -31s4.66699 -22.834 14 -30.501s22.333 -11.5 39 -11.5c16 0 29.667 5.16699 41 15.5z" />
    <glyph glyph-name="currency" unicode="&#xa4;" horiz-adv-x="675" 
d="M557 224l62 -60l-74 -67l-61 58c-44.667 -28.667 -93.667 -43 -147 -43c-54 0 -102.667 14.333 -146 43l-61 -58l-74 67l62 60c-30.667 43.333 -46 91.333 -46 144s15.333 100.667 46 144l-62 60l74 67l61 -58c43.333 28.667 92 43 146 43
c53.333 0 102.333 -14.333 147 -43l61 58l74 -67l-62 -60c30.667 -43.333 46 -91.333 46 -144s-15.333 -100.667 -46 -144zM414 231.5c23.333 13 41.833 31.333 55.5 55s20.5 50.834 20.5 81.501s-6.83301 57.834 -20.5 81.501s-32.167 42.167 -55.5 55.5s-49 20 -77 20
s-53.667 -6.66699 -77 -20s-41.833 -31.833 -55.5 -55.5s-20.5 -50.834 -20.5 -81.501s6.83301 -57.834 20.5 -81.501s32.167 -42 55.5 -55s49 -19.5 77 -19.5s53.667 6.5 77 19.5z" />
    <glyph glyph-name="yen" unicode="&#xa5;" horiz-adv-x="870" 
d="M640 415h120v-72h-177l-48 -62h225v-72h-247v-209h-155v209h-247v72h223l-48 62h-175v72h119l-223 285h190l238 -314l242 314h185z" />
    <glyph glyph-name="brokenbar" unicode="&#xa6;" horiz-adv-x="300" 
d="M223 361h-146v437h146v-437zM223 -227h-146v437h146v-437z" />
    <glyph glyph-name="section" unicode="&#xa7;" horiz-adv-x="851" 
d="M716 83c10.667 -22.667 16 -46.999 16 -72.999c0 -72.667 -27.667 -124.334 -83 -155.001s-134.333 -46 -237 -46c-100 0 -177.333 16.667 -232 50s-83 92 -85 176h155c2 -45.333 17.5 -76.333 46.5 -93s68.833 -25 119.5 -25c48.667 0 86.5 6.83301 113.5 20.5
s40.5 34.167 40.5 61.5c-0.666992 21.333 -7.16699 36.833 -19.5 46.5s-29.833 17.5 -52.5 23.5l-309 84c-52.667 14 -92.667 33 -120 57s-41 60.333 -41 109c0 68 36 116 108 144c-12 19.333 -18 44.666 -18 75.999c0 67.333 26 115.833 78 145.5s122.333 44.5 211 44.5
c88 0 158.833 -15.667 212.5 -47s81.5 -83.666 83.5 -156.999h-155c-4 66 -52.333 99 -145 99c-39.333 0 -70.166 -6.5 -92.499 -19.5s-33.5 -31.833 -33.5 -56.5c0 -19.333 5.16699 -33.5 15.5 -42.5s25.166 -16.167 44.499 -21.5l307 -80
c50 -12 89.833 -31.167 119.5 -57.5s44.5 -66.833 44.5 -121.5c0 -66 -30.667 -113.333 -92 -142zM567 183.001c30 -7.33301 53.001 -16 69.001 -26c15.333 13.333 23 30.666 23 51.999c0 24.667 -7.66699 42.5 -23 53.5s-37 20.167 -65 27.5l-292 79
c-22.667 6 -43.334 13.333 -62.001 22c-28.667 -12 -43 -32.333 -43 -61c0 -17.333 6.66699 -30.666 20 -39.999s32 -17 56 -23z" />
    <glyph glyph-name="dieresis" unicode="&#xa8;" horiz-adv-x="567" 
d="M77 728h152v-108h-152v108zM338 728h153v-108h-153v108z" />
    <glyph glyph-name="copyright" unicode="&#xa9;" horiz-adv-x="870" 
d="M241 34c-59.333 33.333 -106.333 78.666 -141 135.999s-52 119.666 -52 186.999s17.333 129.666 52 186.999s81.667 102.666 141 135.999s124 50 194 50s134.667 -16.667 194 -50s106.333 -78.666 141 -135.999s52 -119.666 52 -186.999s-17.333 -129.666 -52 -186.999
s-81.667 -102.666 -141 -135.999s-124 -50 -194 -50s-134.667 16.667 -194 50zM596.5 88c49 28 88 65.667 117 113s43.5 99.333 43.5 156s-14.5 108.667 -43.5 156s-68 85 -117 113s-102.833 42 -161.5 42s-112.5 -14 -161.5 -42s-88 -65.667 -117 -113
s-43.5 -99.333 -43.5 -156s14.5 -108.667 43.5 -156s68 -85 117 -113s102.833 -42 161.5 -42s112.5 14 161.5 42zM611.5 220c-15.667 -24.667 -38.335 -44.334 -68.002 -59.001s-65.5 -22 -107.5 -22c-63.333 0 -114.333 18.833 -153 56.5s-58 91.834 -58 162.501
c0 69.333 19.333 122.833 58 160.5s89.667 56.5 153 56.5c40.667 0 75.334 -6.66699 104.001 -20s50.667 -30.833 66 -52.5s24 -45.167 26 -70.5h-99c-7.33301 43.333 -39.666 65 -96.999 65c-34 0 -61.167 -11.333 -81.5 -34s-30.5 -57.667 -30.5 -105
c0 -48 10.167 -83.5 30.5 -106.5s47.5 -34.5 81.5 -34.5c62 0 96.333 28 103 84h99c-2 -29.333 -10.833 -56.333 -26.5 -81z" />
    <glyph glyph-name="ordfeminine" unicode="&#xaa;" horiz-adv-x="498" 
d="M451 391l0.000976562 -2.99902h-110c-6 6 -9 17.667 -9 35v11c-15.333 -19.333 -35.833 -34 -61.5 -44s-54.834 -15 -87.501 -15c-38 0 -70.333 9 -97 27s-40 44.333 -40 79c0 62 35 96.333 105 103l136 14c14 1.33301 24 4 30 8s9 10.333 9 19s-5.66699 15.667 -17 21
s-28.666 8 -51.999 8c-20.667 0 -37.834 -3.33301 -51.501 -10s-21.167 -16.334 -22.5 -29.001h-116c1.33301 39.333 19.333 67.5 54 84.5s79.667 25.5 135 25.5c59.333 0 105 -7.33301 137 -22s48 -40.667 48 -78v-185c0 -24.667 3.33301 -41 10 -49zM330.001 544.001
c-4 -2.66699 -9.49902 -4.5 -16.499 -5.5s-11.5 -1.83301 -13.5 -2.5l-94 -14c-14.667 -2 -25.834 -6 -33.501 -12s-11.5 -15.333 -11.5 -28c0 -25.333 18.667 -38 56 -38c28.667 0 54.667 7 78 21s35 35.667 35 65v14zM463.002 105.001v-105h-428v105h428z" />
    <glyph glyph-name="guillemotleft" unicode="&#xab;" horiz-adv-x="516" 
d="M236 510v-148l-112 -87v-5l112 -87v-147l-190 152v169zM469 510v-148l-111 -87v-5l111 -87v-147l-190 152v169z" />
    <glyph glyph-name="logicalnot" unicode="&#xac;" horiz-adv-x="680" 
d="M604 154h-120v159h-408v114h528v-273z" />
    <glyph glyph-name="registered" unicode="&#xae;" horiz-adv-x="870" 
d="M629 680c59.333 -33.333 106.333 -78.666 141 -135.999s52 -119.666 52 -186.999s-17.333 -129.666 -52 -186.999s-81.667 -102.666 -141 -135.999s-124 -50 -194 -50s-134.667 16.667 -194 50s-106.333 78.666 -141 135.999s-52 119.666 -52 186.999
s17.333 129.666 52 186.999s81.667 102.666 141 135.999s124 50 194 50s134.667 -16.667 194 -50zM596 88c49.333 28 88.5 65.833 117.5 113.5s43.5 99.5 43.5 155.5s-14.5 107.833 -43.5 155.5s-68.167 85.5 -117.5 113.5s-103 42 -161 42s-111.667 -14 -161 -42
s-88.5 -65.833 -117.5 -113.5s-43.5 -99.5 -43.5 -155.5s14.5 -107.833 43.5 -155.5s68.167 -85.5 117.5 -113.5s103 -42 161 -42s111.667 14 161 42zM600 353c-15.333 -21.333 -37.666 -36.333 -66.999 -45l101 -160h-110l-92 151h-82v-151h-96v418h213
c49.333 0 87.666 -11.833 114.999 -35.5s41 -56.167 41 -97.5c0 -32 -7.66699 -58.667 -23 -80zM350 370h99c24.667 0 43.5 5.5 56.5 16.5s19.5 26.5 19.5 46.5c0 18.667 -6.5 33.5 -19.5 44.5s-31.833 16.5 -56.5 16.5h-99v-124z" />
    <glyph glyph-name="macron" unicode="&#xaf;" horiz-adv-x="565" 
d="M77 619v101h411v-101h-411z" />
    <glyph glyph-name="degree" unicode="&#xb0;" horiz-adv-x="375" 
d="M110 426c-23.333 12.667 -41.833 30.5 -55.5 53.5s-20.5 49.5 -20.5 79.5s6.83301 56.5 20.5 79.5s32.167 40.833 55.5 53.5s49.333 19 78 19s54.667 -6.33301 78 -19s41.833 -30.5 55.5 -53.5s20.5 -49.5 20.5 -79.5s-6.83301 -56.5 -20.5 -79.5
s-32.167 -40.833 -55.5 -53.5s-49.333 -19 -78 -19s-54.667 6.33301 -78 19zM247 497.5c14.667 15.667 22 36.167 22 61.5s-7.33301 46 -22 62s-34.334 24 -59.001 24s-44.334 -8 -59.001 -24s-22 -36.667 -22 -62s7.33301 -45.833 22 -61.5s34.334 -23.5 59.001 -23.5
s44.334 7.83301 59.001 23.5z" />
    <glyph glyph-name="plusminus" unicode="&#xb1;" horiz-adv-x="680" 
d="M604 311h-204v-169h-120v169h-204v110h204v169h120v-169h204v-110zM604 107v-107h-528v107h528z" />
    <glyph glyph-name="uni00B2" unicode="&#xb2;" horiz-adv-x="557" 
d="M186 400.5c-12 -8.33301 -20.001 -16.1699 -24.001 -23.5029h339v-79h-462v14c0 50.667 14.833 89.334 44.5 116.001s68.834 48.334 117.501 65.001l103 37c27.333 10 47 19.5 59 28.5s18 20.833 18 35.5c0 18.667 -8.5 31.834 -25.5 39.501s-41.167 11.5 -72.5 11.5
c-74 0 -113.333 -26 -118 -78h-122c2.66699 55.333 24 95.166 64 119.499s97 36.5 171 36.5s129.667 -9.5 167 -28.5s56 -51.5 56 -97.5c0 -37.333 -12 -65.666 -36 -84.999s-59.333 -36 -106 -50l-126 -40c-19.333 -6 -35 -13.167 -47 -21.5z" />
    <glyph glyph-name="uni00B3" unicode="&#xb3;" horiz-adv-x="550" 
d="M507 415c0 -31.333 -7.99805 -56.502 -23.998 -75.502s-41.333 -32.667 -76 -41s-81 -12.5 -139 -12.5c-82 0 -141.667 11.333 -179 34s-57 60.667 -59 114h120c2.66699 -24.667 13.667 -42.334 33 -53.001s48.333 -16 87 -16c39.333 0 68.5 4 87.5 12
s28.5 21.667 28.5 41c0 20.667 -7 35.167 -21 43.5s-37 12.5 -69 12.5h-84v72h89c26.667 0 46.167 4 58.5 12s18.5 21 18.5 39c0 17.333 -9.5 29.833 -28.5 37.5s-46.167 11.5 -81.5 11.5c-32.667 0 -58.167 -4.66699 -76.5 -14s-28.833 -25 -31.5 -47h-117
c3.33301 48.667 23.666 83.834 60.999 105.501s92 32.5 164 32.5c77.333 0 134.166 -9.16699 170.499 -27.5s54.5 -49.166 54.5 -92.499c0 -24 -5.66699 -43.333 -17 -58s-27.333 -24 -48 -28v-5c52.667 -9.33301 79 -41.666 79 -96.999z" />
    <glyph glyph-name="acute" unicode="&#xb4;" horiz-adv-x="458" 
d="M212 595h-135l87 153h218z" />
    <glyph glyph-name="paragraph" unicode="&#xb6;" horiz-adv-x="714" 
d="M637 -184h-114.999v796h-96v-796h-115v456h-15c-86.667 0 -152 19 -196 57s-66 92.667 -66 164s22.167 126 66.5 164s110.166 57 197.499 57h339v-898z" />
    <glyph glyph-name="periodcentered" unicode="&#xb7;" horiz-adv-x="279" 
d="M61 254c-18 16.667 -27 40 -27 70c0 30.667 9 54.167 27 70.5s44 24.5 78 24.5s60.167 -8.16699 78.5 -24.5s27.5 -39.833 27.5 -70.5c0 -30 -9.16699 -53.333 -27.5 -70s-44.5 -25 -78.5 -25s-60 8.33301 -78 25z" />
    <glyph glyph-name="cedilla" unicode="&#xb8;" horiz-adv-x="475" 
d="M229 -44c10 2 23.334 3 40.001 3c36 0 66.5 -7.33301 91.5 -22s37.5 -39 37.5 -73c0 -36 -15.833 -61.833 -47.5 -77.5s-78.167 -23.5 -139.5 -23.5c-52 0 -96.667 5 -134 15v73h5c41.333 -13.333 81.666 -20 120.999 -20c20 0 35.333 2.5 46 7.5s16 13.5 16 25.5
c0 22 -20.667 33 -62 33c-10.667 0 -24.5 -0.833008 -41.5 -2.5s-28.5 -3.5 -34.5 -5.5h-5v40l77 104h87z" />
    <glyph glyph-name="uni00B9" unicode="&#xb9;" horiz-adv-x="343" 
d="M263 298h-109v270h-134v74h28c37.333 0 65 5.5 83 16.5s31.333 28.5 40 52.5h92v-413z" />
    <glyph glyph-name="ordmasculine" unicode="&#xba;" horiz-adv-x="498" 
d="M408.5 679.5c36.333 -30.333 54.5 -73.5 54.5 -129.5c0 -55.333 -18.167 -98.333 -54.5 -129s-89.5 -46 -159.5 -46s-123.167 15.167 -159.5 45.5s-54.5 73.5 -54.5 129.5s18.167 99.167 54.5 129.5s89.5 45.5 159.5 45.5s123.167 -15.167 159.5 -45.5zM322 480.5
c16.667 16.333 25 39.5 25 69.5s-8.33301 53.167 -25 69.5s-41 24.5 -73 24.5s-56.5 -8.16699 -73.5 -24.5s-25.5 -39.5 -25.5 -69.5s8.5 -53.167 25.5 -69.5s41.5 -24.5 73.5 -24.5s56.333 8.16699 73 24.5zM463 105v-105h-428v105h428z" />
    <glyph glyph-name="guillemotright" unicode="&#xbb;" horiz-adv-x="516" 
d="M280 510v-148l112 -87v-5l-112 -87v-147l190 152v169zM47 510v-148l111 -87v-5l-111 -87v-147l190 152v169z" />
    <glyph glyph-name="questiondown" unicode="&#xbf;" horiz-adv-x="736" 
d="M449 384h-175v155h175v-155zM708 57c-3.33301 -165.333 -120.334 -248 -351.001 -248c-105.333 0 -186.333 16.5 -243 49.5s-85 81.833 -85 146.5c0 43.333 10.5 77.333 31.5 102s52.167 47.667 93.5 69l58 30c29.333 14.667 48.833 29.167 58.5 43.5
s14.834 32.833 15.501 55.5v7h151v-24c0 -40 -8.83301 -71.5 -26.5 -94.5s-47.5 -46.5 -89.5 -70.5l-54 -30c-24 -14 -41.5 -27.167 -52.5 -39.5s-16.5 -27.833 -16.5 -46.5c0 -27.333 13.667 -47.833 41 -61.5s66.333 -20.5 117 -20.5c117.333 0 179 44 185 132h167z" />
    <glyph glyph-name="Agrave" unicode="&#xc0;" horiz-adv-x="947" 
d="M686 145h-428l-72 -145h-173l364 714h195l362 -714h-176zM624 270l-150 302h-4l-150 -302h304zM455 926l87 -153h-135l-170 153h218z" />
    <glyph glyph-name="Aacute" unicode="&#xc1;" horiz-adv-x="947" 
d="M686 145h-428l-72 -145h-173l364 714h195l362 -714h-176zM624 270l-150 302h-4l-150 -302h304zM541 773h-135l87 153h218z" />
    <glyph glyph-name="Acircumflex" unicode="&#xc2;" horiz-adv-x="947" 
d="M686 145h-428l-72 -145h-173l364 714h195l362 -714h-176zM624 270l-150 302h-4l-150 -302h304zM476 855h-5l-67 -82h-172l140 153h203l141 -153h-172z" />
    <glyph glyph-name="Atilde" unicode="&#xc3;" horiz-adv-x="947" 
d="M686 145h-428l-72 -145h-173l364 714h195l362 -714h-176zM624 270l-150 302h-4l-150 -302h304zM522 767.5c-18 5.66699 -38.668 13.834 -62.001 24.501c-18 8 -32.5 13.833 -43.5 17.5s-20.833 5.5 -29.5 5.5c-11.333 0 -19.166 -3.33301 -23.499 -10
s-6.5 -18.667 -6.5 -36h-114c0 53.333 13 92.666 39 117.999s56.333 38 91 38c16 0 32.333 -2.66699 49 -8s38.334 -13.666 65.001 -24.999c18 -8 32.5 -13.833 43.5 -17.5s20.833 -5.5 29.5 -5.5c11.333 0 19.166 3.16699 23.499 9.5s6.5 18.166 6.5 35.499h114
c0 -53.333 -13 -92.5 -39 -117.5s-56.333 -37.5 -91 -37.5c-16.667 0 -34 2.83301 -52 8.5z" />
    <glyph glyph-name="Adieresis" unicode="&#xc4;" horiz-adv-x="947" 
d="M686 145h-428l-72 -145h-173l364 714h195l362 -714h-176zM624 270l-150 302h-4l-150 -302h304zM267 887h152v-108h-152v108zM528 887h153v-108h-153v108z" />
    <glyph glyph-name="Aring" unicode="&#xc5;" horiz-adv-x="947" 
d="M686 145h-428l-72 -145h-173l364 714h195l362 -714h-176zM624 270l-150 302h-4l-150 -302h304zM364.5 780.5c-29.667 23 -44.5 53.167 -44.5 90.5c0 38 14.833 68.5 44.5 91.5s66.5 34.5 110.5 34.5s80.833 -11.5 110.5 -34.5s44.5 -53.5 44.5 -91.5
c0 -37.333 -14.833 -67.5 -44.5 -90.5s-66.5 -34.5 -110.5 -34.5s-80.833 11.5 -110.5 34.5zM515.5 836c11 8.66699 16.5 20.334 16.5 35.001s-5.5 26.5 -16.5 35.5s-24.5 13.5 -40.5 13.5s-29.5 -4.5 -40.5 -13.5s-16.5 -20.833 -16.5 -35.5s5.5 -26.334 16.5 -35.001
s24.5 -13 40.5 -13s29.5 4.33301 40.5 13z" />
    <glyph glyph-name="AE" unicode="&#xc6;" horiz-adv-x="1440" 
d="M1382 129v-129h-681v145h-399l-102 -145h-187l513 714h842v-129h-515v-154h498v-123h-498v-179h529zM701 270v315h-90l-221 -315h311z" />
    <glyph glyph-name="Ccedilla" unicode="&#xc7;" horiz-adv-x="962" 
d="M812.5 70.5c-65 -52.333 -155.498 -81.834 -271.498 -88.501l-20 -26c10 2 23.333 3 40 3c36 0 66.5 -7.33301 91.5 -22s37.5 -39 37.5 -73c0 -36 -15.833 -61.833 -47.5 -77.5s-78.167 -23.5 -139.5 -23.5c-52 0 -96.667 5 -134 15v73h5
c41.333 -13.333 81.666 -20 120.999 -20c20 0 35.333 2.5 46 7.5s16 13.5 16 25.5c0 22 -20.667 33 -62 33c-10.667 0 -24.5 -0.833008 -41.5 -2.5s-28.5 -3.5 -34.5 -5.5h-5v40l39 52c-124.667 6 -223.334 40.667 -296.001 104s-109 154 -109 272
c0 82.667 18.333 152.167 55 208.5s88.167 98.5 154.5 126.5s143.5 42 231.5 42c86.667 0 161.167 -11.667 223.5 -35s110.333 -56.5 144 -99.5s52.167 -93.167 55.5 -150.5h-186c-4.66699 43.333 -27 79.666 -67 108.999s-96.667 44 -170 44
c-83.333 0 -148.666 -20.833 -195.999 -62.5s-71 -102.5 -71 -182.5s23.667 -140.833 71 -182.5s112.666 -62.5 195.999 -62.5c75.333 0 132.833 15.333 172.5 46s61.167 71.334 64.5 122.001h188c-2.66699 -87.333 -36.5 -157.166 -101.5 -209.499z" />
    <glyph glyph-name="Egrave" unicode="&#xc8;" horiz-adv-x="847" 
d="M235 430h523v-120h-523v-184h554v-126h-712v714h699v-126h-541v-158zM407 926l87 -153h-135l-170 153h218z" />
    <glyph glyph-name="Eacute" unicode="&#xc9;" horiz-adv-x="847" 
d="M235 430h523v-120h-523v-184h554v-126h-712v714h699v-126h-541v-158zM494 773h-135l87 153h218z" />
    <glyph glyph-name="Ecircumflex" unicode="&#xca;" horiz-adv-x="847" 
d="M235 430h523v-120h-523v-184h554v-126h-712v714h699v-126h-541v-158zM429 855h-5l-67 -82h-172l140 153h203l141 -153h-172z" />
    <glyph glyph-name="Edieresis" unicode="&#xcb;" horiz-adv-x="847" 
d="M235 430h523v-120h-523v-184h554v-126h-712v714h699v-126h-541v-158zM220 887h152v-108h-152v108zM481 887h153v-108h-153v108z" />
    <glyph glyph-name="Igrave" unicode="&#xcc;" horiz-adv-x="312" 
d="M77 0v714h158v-714h-158zM136 926l87 -153h-135l-170 153h218z" />
    <glyph glyph-name="Iacute" unicode="&#xcd;" horiz-adv-x="312" 
d="M77 0v714h158v-714h-158zM223 773h-135l87 153h218z" />
    <glyph glyph-name="Icircumflex" unicode="&#xce;" horiz-adv-x="312" 
d="M77 0v714h158v-714h-158zM158 855h-5l-67 -82h-172l140 153h203l141 -153h-172z" />
    <glyph glyph-name="Idieresis" unicode="&#xcf;" horiz-adv-x="312" 
d="M77 0v714h158v-714h-158zM-51 887h152v-108h-152v108zM210 887h153v-108h-153v108z" />
    <glyph glyph-name="Eth" unicode="&#xd0;" horiz-adv-x="939" 
d="M793 628c65.333 -57.333 98 -147.668 98 -271.001s-32.667 -213.666 -98 -270.999s-160.333 -86 -285 -86h-431v304h-72v107h72v303h431c124.667 0 219.667 -28.667 285 -86zM717 356.998c0 152.667 -81 229 -243 229h-239v-175h203v-107h-203v-176h239
c162 0 243 76.333 243 229z" />
    <glyph glyph-name="Ntilde" unicode="&#xd1;" horiz-adv-x="951" 
d="M874 714v-714h-180l-462 521h-5v-521h-150v714h185l457 -515h5v515h150zM524 767.5c-18 5.66699 -38.668 13.834 -62.001 24.501c-18 8 -32.5 13.833 -43.5 17.5s-20.833 5.5 -29.5 5.5c-11.333 0 -19.166 -3.33301 -23.499 -10s-6.5 -18.667 -6.5 -36h-114
c0 53.333 13 92.666 39 117.999s56.333 38 91 38c16 0 32.333 -2.66699 49 -8s38.334 -13.666 65.001 -24.999c18 -8 32.5 -13.833 43.5 -17.5s20.833 -5.5 29.5 -5.5c11.333 0 19.166 3.16699 23.499 9.5s6.5 18.166 6.5 35.499h114c0 -53.333 -13 -92.5 -39 -117.5
s-56.333 -37.5 -91 -37.5c-16.667 0 -34 2.83301 -52 8.5z" />
    <glyph glyph-name="Ograve" unicode="&#xd2;" horiz-adv-x="1000" 
d="M831 638.5c80.667 -63.667 121 -157.5 121 -281.5s-40.333 -217.833 -121 -281.5s-191 -95.5 -331 -95.5s-250.333 31.833 -331 95.5s-121 157.5 -121 281.5s40.333 217.833 121 281.5s191 95.5 331 95.5s250.333 -31.833 331 -95.5zM705 174
c48.667 41.333 73 102.333 73 183s-24.333 141.667 -73 183s-117 62 -205 62s-156.333 -20.667 -205 -62s-73 -102.333 -73 -183s24.333 -141.667 73 -183s117 -62 205 -62s156.333 20.667 205 62zM480 926l87 -153h-135l-170 153h218z" />
    <glyph glyph-name="Oacute" unicode="&#xd3;" horiz-adv-x="1000" 
d="M831 638.5c80.667 -63.667 121 -157.5 121 -281.5s-40.333 -217.833 -121 -281.5s-191 -95.5 -331 -95.5s-250.333 31.833 -331 95.5s-121 157.5 -121 281.5s40.333 217.833 121 281.5s191 95.5 331 95.5s250.333 -31.833 331 -95.5zM705 174
c48.667 41.333 73 102.333 73 183s-24.333 141.667 -73 183s-117 62 -205 62s-156.333 -20.667 -205 -62s-73 -102.333 -73 -183s24.333 -141.667 73 -183s117 -62 205 -62s156.333 20.667 205 62zM567 773h-135l87 153h218z" />
    <glyph glyph-name="Ocircumflex" unicode="&#xd4;" horiz-adv-x="1000" 
d="M831 638.5c80.667 -63.667 121 -157.5 121 -281.5s-40.333 -217.833 -121 -281.5s-191 -95.5 -331 -95.5s-250.333 31.833 -331 95.5s-121 157.5 -121 281.5s40.333 217.833 121 281.5s191 95.5 331 95.5s250.333 -31.833 331 -95.5zM705 174
c48.667 41.333 73 102.333 73 183s-24.333 141.667 -73 183s-117 62 -205 62s-156.333 -20.667 -205 -62s-73 -102.333 -73 -183s24.333 -141.667 73 -183s117 -62 205 -62s156.333 20.667 205 62zM502 855h-5l-67 -82h-172l140 153h203l141 -153h-172z" />
    <glyph glyph-name="Otilde" unicode="&#xd5;" horiz-adv-x="1000" 
d="M831 638.5c80.667 -63.667 121 -157.5 121 -281.5s-40.333 -217.833 -121 -281.5s-191 -95.5 -331 -95.5s-250.333 31.833 -331 95.5s-121 157.5 -121 281.5s40.333 217.833 121 281.5s191 95.5 331 95.5s250.333 -31.833 331 -95.5zM705 174
c48.667 41.333 73 102.333 73 183s-24.333 141.667 -73 183s-117 62 -205 62s-156.333 -20.667 -205 -62s-73 -102.333 -73 -183s24.333 -141.667 73 -183s117 -62 205 -62s156.333 20.667 205 62zM548 767.5c-18 5.66699 -38.668 13.834 -62.001 24.501
c-18 8 -32.5 13.833 -43.5 17.5s-20.833 5.5 -29.5 5.5c-11.333 0 -19.166 -3.33301 -23.499 -10s-6.5 -18.667 -6.5 -36h-114c0 53.333 13 92.666 39 117.999s56.333 38 91 38c16 0 32.333 -2.66699 49 -8s38.334 -13.666 65.001 -24.999c18 -8 32.5 -13.833 43.5 -17.5
s20.833 -5.5 29.5 -5.5c11.333 0 19.166 3.16699 23.499 9.5s6.5 18.166 6.5 35.499h114c0 -53.333 -13 -92.5 -39 -117.5s-56.333 -37.5 -91 -37.5c-16.667 0 -34 2.83301 -52 8.5z" />
    <glyph glyph-name="Odieresis" unicode="&#xd6;" horiz-adv-x="1000" 
d="M831 638.5c80.667 -63.667 121 -157.5 121 -281.5s-40.333 -217.833 -121 -281.5s-191 -95.5 -331 -95.5s-250.333 31.833 -331 95.5s-121 157.5 -121 281.5s40.333 217.833 121 281.5s191 95.5 331 95.5s250.333 -31.833 331 -95.5zM705 174
c48.667 41.333 73 102.333 73 183s-24.333 141.667 -73 183s-117 62 -205 62s-156.333 -20.667 -205 -62s-73 -102.333 -73 -183s24.333 -141.667 73 -183s117 -62 205 -62s156.333 20.667 205 62zM293 887h152v-108h-152v108zM554 887h153v-108h-153v108z" />
    <glyph glyph-name="multiply" unicode="&#xd7;" horiz-adv-x="647" 
d="M405 326l166 -166l-81 -82l-166 166l-167 -166l-81 82l166 166l-166 166l81 82l167 -166l166 166l81 -82z" />
    <glyph glyph-name="Oslash" unicode="&#xd8;" horiz-adv-x="1000" 
d="M952 357c0 -124 -40.334 -217.833 -121.001 -281.5s-191 -95.5 -331 -95.5c-116 0 -212 22 -288 66l-96 -86l-65 52l95 85c-65.333 63.333 -98 150 -98 260c0 124 40.333 217.833 121 281.5s191 95.5 331 95.5c116.667 0 212.334 -22 287.001 -66l97 86l65 -52l-95 -85
c65.333 -63.333 98 -150 98 -260zM294.999 540c-48.667 -41.333 -73 -102.333 -73 -183c0 -61.333 15 -112.333 45 -153l403 360c-44 25.333 -100.667 38 -170 38c-88 0 -156.333 -20.667 -205 -62zM704.999 174c48.667 41.333 73 102.333 73 183
c0 61.333 -15 112.333 -45 153l-403 -360c44 -25.333 100.667 -38 170 -38c88 0 156.333 20.667 205 62z" />
    <glyph glyph-name="Ugrave" unicode="&#xd9;" horiz-adv-x="948" 
d="M871 714v-430c0 -106 -35 -183.167 -105 -231.5s-167.333 -72.5 -292 -72.5s-222 24.167 -292 72.5s-105 125.5 -105 231.5v430h158v-426c0 -61.333 21 -106.166 63 -134.499s100.667 -42.5 176 -42.5s134 14.167 176 42.5s63 73.166 63 134.499v426h158zM454 926
l87 -153h-135l-170 153h218z" />
    <glyph glyph-name="Uacute" unicode="&#xda;" horiz-adv-x="948" 
d="M871 714v-430c0 -106 -35 -183.167 -105 -231.5s-167.333 -72.5 -292 -72.5s-222 24.167 -292 72.5s-105 125.5 -105 231.5v430h158v-426c0 -61.333 21 -106.166 63 -134.499s100.667 -42.5 176 -42.5s134 14.167 176 42.5s63 73.166 63 134.499v426h158zM541 773h-135
l87 153h218z" />
    <glyph glyph-name="Ucircumflex" unicode="&#xdb;" horiz-adv-x="948" 
d="M871 714v-430c0 -106 -35 -183.167 -105 -231.5s-167.333 -72.5 -292 -72.5s-222 24.167 -292 72.5s-105 125.5 -105 231.5v430h158v-426c0 -61.333 21 -106.166 63 -134.499s100.667 -42.5 176 -42.5s134 14.167 176 42.5s63 73.166 63 134.499v426h158zM476 855h-5
l-67 -82h-172l140 153h203l141 -153h-172z" />
    <glyph glyph-name="Udieresis" unicode="&#xdc;" horiz-adv-x="948" 
d="M871 714v-430c0 -106 -35 -183.167 -105 -231.5s-167.333 -72.5 -292 -72.5s-222 24.167 -292 72.5s-105 125.5 -105 231.5v430h158v-426c0 -61.333 21 -106.166 63 -134.499s100.667 -42.5 176 -42.5s134 14.167 176 42.5s63 73.166 63 134.499v426h158zM267 887h152
v-108h-152v108zM528 887h153v-108h-153v108z" />
    <glyph glyph-name="Yacute" unicode="&#xdd;" horiz-adv-x="887" 
d="M523 258v-258h-158v256l-358 458h194l243 -321l246 321h189zM513 773h-135l87 153h218z" />
    <glyph glyph-name="Thorn" unicode="&#xde;" horiz-adv-x="901" 
d="M801 546c40.667 -35.333 61 -91.667 61 -169s-20.333 -133.833 -61 -169.5s-106 -53.5 -196 -53.5h-370v-154h-158v714h158v-115h370c90 0 155.333 -17.667 196 -53zM661.5 298.999c18.333 16 27.5 41 27.5 75s-9.16699 58.833 -27.5 74.5s-47.166 23.5 -86.499 23.5
h-340v-197h340c39.333 0 68.166 8 86.499 24z" />
    <glyph glyph-name="germandbls" unicode="&#xdf;" horiz-adv-x="816" 
d="M621 407c52 -12.667 90.165 -34.1699 114.498 -64.5029s36.5 -73.833 36.5 -130.5c0 -51.333 -10 -93.666 -30 -126.999s-53.333 -58.666 -100 -75.999s-109 -26 -187 -26c-28 0 -52.667 1.66699 -74 5s-44.666 8 -69.999 14v122c45.333 -14.667 88.333 -22 129 -22
c55.333 0 97.5 8.66699 126.5 26s43.5 46.333 43.5 87c0 42.667 -13.667 73.167 -41 91.5s-70 27.5 -128 27.5h-130v104h119c34 0 62.167 8 84.5 24s33.5 39.667 33.5 71c0 58 -48.333 87 -145 87c-55.333 0 -99 -10.833 -131 -32.5s-48 -62.167 -48 -121.5v-466h-157v474
c0 64 12.167 115.167 36.5 153.5s61 66 110 83s112.167 25.5 189.5 25.5c108.667 0 187.167 -15.833 235.5 -47.5s72.5 -78.5 72.5 -140.5c0 -33.333 -7.66699 -61.666 -23 -84.999s-37.666 -40.333 -66.999 -51v-5z" />
    <glyph glyph-name="agrave" unicode="&#xe0;" horiz-adv-x="761" 
d="M697 37c2 -13.333 5.99805 -23.668 11.998 -31.001v-6h-152c-10 10 -15 30.333 -15 61v17c-26.667 -32.667 -61.667 -57 -105 -73s-96.666 -24 -159.999 -24c-71.333 0 -129 14.5 -173 43.5s-66 72.167 -66 129.5c0 54.667 15.167 95.334 45.5 122.001
s70.833 42.334 121.5 47.001l262 24c22.667 1.33301 39.167 5.66602 49.5 12.999s15.5 19 15.5 35c0 18 -10.667 31.5 -32 40.5s-56.666 13.5 -105.999 13.5s-87 -5.5 -113 -16.5s-40.667 -29.167 -44 -54.5h-166c2 66 30.833 112.333 86.5 139s133.167 40 232.5 40
c102 0 178.167 -11.5 228.5 -34.5s75.5 -65.5 75.5 -127.5v-308c0 -20 1 -36.667 3 -50zM538.998 264.998c-8 -6 -23.667 -10.333 -47 -13l-209 -24c-26.667 -3.33301 -47.167 -10.5 -61.5 -21.5s-21.5 -27.833 -21.5 -50.5c0 -25.333 9.83301 -43.5 29.5 -54.5
s48.5 -16.5 86.5 -16.5c61.333 0 113.833 12 157.5 36s65.5 62.667 65.5 116v28zM369.998 748.998l87 -153h-135l-170 153h218z" />
    <glyph glyph-name="aacute" unicode="&#xe1;" horiz-adv-x="761" 
d="M697 37c2 -13.333 5.99805 -23.668 11.998 -31.001v-6h-152c-10 10 -15 30.333 -15 61v17c-26.667 -32.667 -61.667 -57 -105 -73s-96.666 -24 -159.999 -24c-71.333 0 -129 14.5 -173 43.5s-66 72.167 -66 129.5c0 54.667 15.167 95.334 45.5 122.001
s70.833 42.334 121.5 47.001l262 24c22.667 1.33301 39.167 5.66602 49.5 12.999s15.5 19 15.5 35c0 18 -10.667 31.5 -32 40.5s-56.666 13.5 -105.999 13.5s-87 -5.5 -113 -16.5s-40.667 -29.167 -44 -54.5h-166c2 66 30.833 112.333 86.5 139s133.167 40 232.5 40
c102 0 178.167 -11.5 228.5 -34.5s75.5 -65.5 75.5 -127.5v-308c0 -20 1 -36.667 3 -50zM538.998 264.998c-8 -6 -23.667 -10.333 -47 -13l-209 -24c-26.667 -3.33301 -47.167 -10.5 -61.5 -21.5s-21.5 -27.833 -21.5 -50.5c0 -25.333 9.83301 -43.5 29.5 -54.5
s48.5 -16.5 86.5 -16.5c61.333 0 113.833 12 157.5 36s65.5 62.667 65.5 116v28zM456.998 595.998h-135l87 153h218z" />
    <glyph glyph-name="acircumflex" unicode="&#xe2;" horiz-adv-x="761" 
d="M697 37c2 -13.333 5.99805 -23.668 11.998 -31.001v-6h-152c-10 10 -15 30.333 -15 61v17c-26.667 -32.667 -61.667 -57 -105 -73s-96.666 -24 -159.999 -24c-71.333 0 -129 14.5 -173 43.5s-66 72.167 -66 129.5c0 54.667 15.167 95.334 45.5 122.001
s70.833 42.334 121.5 47.001l262 24c22.667 1.33301 39.167 5.66602 49.5 12.999s15.5 19 15.5 35c0 18 -10.667 31.5 -32 40.5s-56.666 13.5 -105.999 13.5s-87 -5.5 -113 -16.5s-40.667 -29.167 -44 -54.5h-166c2 66 30.833 112.333 86.5 139s133.167 40 232.5 40
c102 0 178.167 -11.5 228.5 -34.5s75.5 -65.5 75.5 -127.5v-308c0 -20 1 -36.667 3 -50zM538.998 264.998c-8 -6 -23.667 -10.333 -47 -13l-209 -24c-26.667 -3.33301 -47.167 -10.5 -61.5 -21.5s-21.5 -27.833 -21.5 -50.5c0 -25.333 9.83301 -43.5 29.5 -54.5
s48.5 -16.5 86.5 -16.5c61.333 0 113.833 12 157.5 36s65.5 62.667 65.5 116v28zM391.998 676.998h-5l-67 -82h-172l140 153h203l141 -153h-172z" />
    <glyph glyph-name="atilde" unicode="&#xe3;" horiz-adv-x="761" 
d="M697 37c2 -13.333 5.99805 -23.668 11.998 -31.001v-6h-152c-10 10 -15 30.333 -15 61v17c-26.667 -32.667 -61.667 -57 -105 -73s-96.666 -24 -159.999 -24c-71.333 0 -129 14.5 -173 43.5s-66 72.167 -66 129.5c0 54.667 15.167 95.334 45.5 122.001
s70.833 42.334 121.5 47.001l262 24c22.667 1.33301 39.167 5.66602 49.5 12.999s15.5 19 15.5 35c0 18 -10.667 31.5 -32 40.5s-56.666 13.5 -105.999 13.5s-87 -5.5 -113 -16.5s-40.667 -29.167 -44 -54.5h-166c2 66 30.833 112.333 86.5 139s133.167 40 232.5 40
c102 0 178.167 -11.5 228.5 -34.5s75.5 -65.5 75.5 -127.5v-308c0 -20 1 -36.667 3 -50zM538.998 264.998c-8 -6 -23.667 -10.333 -47 -13l-209 -24c-26.667 -3.33301 -47.167 -10.5 -61.5 -21.5s-21.5 -27.833 -21.5 -50.5c0 -25.333 9.83301 -43.5 29.5 -54.5
s48.5 -16.5 86.5 -16.5c61.333 0 113.833 12 157.5 36s65.5 62.667 65.5 116v28zM439.998 588.998c-16 5.33301 -37.667 13.667 -65 25c-18 8 -32.5 13.833 -43.5 17.5s-20.833 5.5 -29.5 5.5c-11.333 0 -19.166 -3.16699 -23.499 -9.5s-6.5 -18.166 -6.5 -35.499h-114
c0 53.333 12.833 92.5 38.5 117.5s56.167 37.5 91.5 37.5c16.667 0 34 -3 52 -9s38.667 -14 62 -24c18 -8 32.5 -13.833 43.5 -17.5s20.833 -5.5 29.5 -5.5c11.333 0 19.166 3.16699 23.499 9.5s6.5 18.166 6.5 35.499h114c0 -53.333 -13 -92.5 -39 -117.5
s-56.333 -37.5 -91 -37.5c-16.667 0 -33 2.66699 -49 8z" />
    <glyph glyph-name="adieresis" unicode="&#xe4;" horiz-adv-x="761" 
d="M697 37c2 -13.333 5.99805 -23.668 11.998 -31.001v-6h-152c-10 10 -15 30.333 -15 61v17c-26.667 -32.667 -61.667 -57 -105 -73s-96.666 -24 -159.999 -24c-71.333 0 -129 14.5 -173 43.5s-66 72.167 -66 129.5c0 54.667 15.167 95.334 45.5 122.001
s70.833 42.334 121.5 47.001l262 24c22.667 1.33301 39.167 5.66602 49.5 12.999s15.5 19 15.5 35c0 18 -10.667 31.5 -32 40.5s-56.666 13.5 -105.999 13.5s-87 -5.5 -113 -16.5s-40.667 -29.167 -44 -54.5h-166c2 66 30.833 112.333 86.5 139s133.167 40 232.5 40
c102 0 178.167 -11.5 228.5 -34.5s75.5 -65.5 75.5 -127.5v-308c0 -20 1 -36.667 3 -50zM538.998 264.998c-8 -6 -23.667 -10.333 -47 -13l-209 -24c-26.667 -3.33301 -47.167 -10.5 -61.5 -21.5s-21.5 -27.833 -21.5 -50.5c0 -25.333 9.83301 -43.5 29.5 -54.5
s48.5 -16.5 86.5 -16.5c61.333 0 113.833 12 157.5 36s65.5 62.667 65.5 116v28zM182.998 728.998h152v-108h-152v108zM443.998 728.998h153v-108h-153v108z" />
    <glyph glyph-name="aring" unicode="&#xe5;" horiz-adv-x="761" 
d="M697 37c2 -13.333 5.99805 -23.668 11.998 -31.001v-6h-152c-10 10 -15 30.333 -15 61v17c-26.667 -32.667 -61.667 -57 -105 -73s-96.666 -24 -159.999 -24c-71.333 0 -129 14.5 -173 43.5s-66 72.167 -66 129.5c0 54.667 15.167 95.334 45.5 122.001
s70.833 42.334 121.5 47.001l262 24c22.667 1.33301 39.167 5.66602 49.5 12.999s15.5 19 15.5 35c0 18 -10.667 31.5 -32 40.5s-56.666 13.5 -105.999 13.5s-87 -5.5 -113 -16.5s-40.667 -29.167 -44 -54.5h-166c2 66 30.833 112.333 86.5 139s133.167 40 232.5 40
c102 0 178.167 -11.5 228.5 -34.5s75.5 -65.5 75.5 -127.5v-308c0 -20 1 -36.667 3 -50zM538.998 264.998c-8 -6 -23.667 -10.333 -47 -13l-209 -24c-26.667 -3.33301 -47.167 -10.5 -61.5 -21.5s-21.5 -27.833 -21.5 -50.5c0 -25.333 9.83301 -43.5 29.5 -54.5
s48.5 -16.5 86.5 -16.5c61.333 0 113.833 12 157.5 36s65.5 62.667 65.5 116v28zM279.498 622.498c-29.667 23 -44.5 53.5 -44.5 91.5c0 37.333 14.833 67.5 44.5 90.5s66.5 34.5 110.5 34.5s80.833 -11.5 110.5 -34.5s44.5 -53.167 44.5 -90.5
c0 -38 -14.833 -68.5 -44.5 -91.5s-66.5 -34.5 -110.5 -34.5s-80.833 11.5 -110.5 34.5zM430.498 678.498c11 9 16.5 20.833 16.5 35.5s-5.5 26.334 -16.5 35.001s-24.5 13 -40.5 13s-29.5 -4.33301 -40.5 -13s-16.5 -20.334 -16.5 -35.001s5.5 -26.5 16.5 -35.5
s24.5 -13.5 40.5 -13.5s29.5 4.5 40.5 13.5z" />
    <glyph glyph-name="ae" unicode="&#xe6;" horiz-adv-x="1250" 
d="M1204 232l-516.998 -0.00195312c10.667 -94.667 71.667 -142 183 -142c50 0 87.5 8.16699 112.5 24.5s39.5 34.5 43.5 54.5h174c-6.66699 -54.667 -35.5 -99.667 -86.5 -135s-132.167 -53 -243.5 -53c-63.333 0 -118.166 10.167 -164.499 30.5s-82.5 49.833 -108.5 88.5
c-27.333 -40.667 -67.5 -70.667 -120.5 -90s-113.167 -29 -180.5 -29c-80 0 -143 14.5 -189 43.5s-69 72.167 -69 129.5c0 54.667 15 95.334 45 122.001s70.333 42.334 121 47.001l259 24c20.667 1.33301 36 5.66602 46 12.999s15 18.666 15 33.999
c0 18 -10.5 31.667 -31.5 41s-55.5 14 -103.5 14c-47.333 0 -83.833 -5.66699 -109.5 -17s-39.834 -29.333 -42.501 -54h-166c2 66 30.667 112.333 86 139s131.666 40 228.999 40c63.333 0 116 -5.66699 158 -17s73 -31.333 93 -60c53.333 51.333 129.666 77 228.999 77
c109.333 0 193.333 -25.167 252 -75.5s88 -121.166 88 -212.499c0 -11.333 -0.666992 -23.666 -2 -36.999zM692.002 334.998h347.001c-18.667 75.333 -76.334 113 -173.001 113c-97.333 0 -155.333 -37.667 -174 -113zM531.003 263.998c-8 -6 -23.667 -10.333 -47 -13
l-202 -23c-27.333 -3.33301 -47.833 -10.5 -61.5 -21.5s-20.5 -27.833 -20.5 -50.5c0 -25.333 9.5 -43.5 28.5 -54.5s47.167 -16.5 84.5 -16.5c60 0 111.333 12 154 36s64 62.667 64 116v27z" />
    <glyph glyph-name="ccedilla" unicode="&#xe7;" horiz-adv-x="793" 
d="M444 -18l-20 -25.999c10 2 23.333 3 40 3c36 0 66.5 -7.33301 91.5 -22s37.5 -39 37.5 -73c0 -36 -16 -61.833 -48 -77.5s-78.333 -23.5 -139 -23.5c-52 0 -96.667 5 -134 15v73h4c42 -13.333 82.667 -20 122 -20c20 0 35.333 2.5 46 7.5s16 13.5 16 25.5
c0 22 -20.667 33 -62 33c-10.667 0 -24.5 -0.833008 -41.5 -2.5s-28.833 -3.5 -35.5 -5.5h-4v40l40 53c-102.667 6 -180.5 33.833 -233.5 83.5s-79.5 117.5 -79.5 203.5c0 92 29.833 163 89.5 213s147.5 75 263.5 75c214 0 331 -73.333 351 -220h-173
c-7.33301 31.333 -24 56.166 -50 74.499s-68.667 27.5 -128 27.5c-63.333 0 -111 -14.333 -143 -43s-48 -71 -48 -127c0 -55.333 16 -97.333 48 -126s79.667 -43 143 -43c60 0 103.167 9.5 129.5 28.5s42.5 44.5 48.5 76.5h175c-17.333 -138 -119.333 -212.333 -306 -223z
" />
    <glyph glyph-name="egrave" unicode="&#xe8;" horiz-adv-x="793" 
d="M747 232l-540.999 -0.000976562c4.66699 -48 23.167 -83.667 55.5 -107s79.166 -35 140.499 -35c54.667 0 95 8 121 24s41.333 34.333 46 55h174c-6.66699 -55.333 -36.167 -100.5 -88.5 -135.5s-136.5 -52.5 -252.5 -52.5c-118 0 -207.167 25 -267.5 75
s-90.5 121 -90.5 213s29.833 163 89.5 213s147.167 75 262.5 75s203 -25 263 -75s90 -121 90 -213c0 -11.333 -0.666992 -23.666 -2 -36.999zM211.001 334.999h371.001c-9.33301 38 -29.5 66.333 -60.5 85s-72.833 28 -125.5 28c-104.667 0 -166.334 -37.667 -185.001 -113z
M377.002 748.999l87 -153h-135l-170 153h218z" />
    <glyph glyph-name="eacute" unicode="&#xe9;" horiz-adv-x="793" 
d="M747 232l-540.999 -0.000976562c4.66699 -48 23.167 -83.667 55.5 -107s79.166 -35 140.499 -35c54.667 0 95 8 121 24s41.333 34.333 46 55h174c-6.66699 -55.333 -36.167 -100.5 -88.5 -135.5s-136.5 -52.5 -252.5 -52.5c-118 0 -207.167 25 -267.5 75
s-90.5 121 -90.5 213s29.833 163 89.5 213s147.167 75 262.5 75s203 -25 263 -75s90 -121 90 -213c0 -11.333 -0.666992 -23.666 -2 -36.999zM211.001 334.999h371.001c-9.33301 38 -29.5 66.333 -60.5 85s-72.833 28 -125.5 28c-104.667 0 -166.334 -37.667 -185.001 -113z
M464.002 595.999h-135l87 153h218z" />
    <glyph glyph-name="ecircumflex" unicode="&#xea;" horiz-adv-x="793" 
d="M747 232l-540.999 -0.000976562c4.66699 -48 23.167 -83.667 55.5 -107s79.166 -35 140.499 -35c54.667 0 95 8 121 24s41.333 34.333 46 55h174c-6.66699 -55.333 -36.167 -100.5 -88.5 -135.5s-136.5 -52.5 -252.5 -52.5c-118 0 -207.167 25 -267.5 75
s-90.5 121 -90.5 213s29.833 163 89.5 213s147.167 75 262.5 75s203 -25 263 -75s90 -121 90 -213c0 -11.333 -0.666992 -23.666 -2 -36.999zM211.001 334.999h371.001c-9.33301 38 -29.5 66.333 -60.5 85s-72.833 28 -125.5 28c-104.667 0 -166.334 -37.667 -185.001 -113z
M399.002 676.999h-5l-67 -82h-172l140 153h203l141 -153h-172z" />
    <glyph glyph-name="edieresis" unicode="&#xeb;" horiz-adv-x="793" 
d="M747 232l-540.999 -0.000976562c4.66699 -48 23.167 -83.667 55.5 -107s79.166 -35 140.499 -35c54.667 0 95 8 121 24s41.333 34.333 46 55h174c-6.66699 -55.333 -36.167 -100.5 -88.5 -135.5s-136.5 -52.5 -252.5 -52.5c-118 0 -207.167 25 -267.5 75
s-90.5 121 -90.5 213s29.833 163 89.5 213s147.167 75 262.5 75s203 -25 263 -75s90 -121 90 -213c0 -11.333 -0.666992 -23.666 -2 -36.999zM211.001 334.999h371.001c-9.33301 38 -29.5 66.333 -60.5 85s-72.833 28 -125.5 28c-104.667 0 -166.334 -37.667 -185.001 -113z
M190.002 728.999h152v-108h-152v108zM451.002 728.999h153v-108h-153v108z" />
    <glyph glyph-name="igrave" unicode="&#xec;" horiz-adv-x="289" 
d="M67 539h155v-539h-155v539zM125 749l87 -153h-135l-170 153h218z" />
    <glyph glyph-name="iacute" unicode="&#xed;" horiz-adv-x="289" 
d="M67 539h155v-539h-155v539zM212 596h-135l87 153h218z" />
    <glyph glyph-name="icircumflex" unicode="&#xee;" horiz-adv-x="289" 
d="M67 539h155v-539h-155v539zM147 678h-5l-67 -82h-172l140 153h203l141 -153h-172z" />
    <glyph glyph-name="idieresis" unicode="&#xef;" horiz-adv-x="289" 
d="M67 539h155v-539h-155v539zM-62 729h152v-108h-152v108zM199 729h153v-108h-153v108z" />
    <glyph glyph-name="eth" unicode="&#xf0;" horiz-adv-x="812" 
d="M710 501c38.667 -64 58.001 -135 58.001 -213c0 -104.667 -33.833 -182 -101.5 -232s-158.5 -75 -272.5 -75c-106 0 -190.833 19.833 -254.5 59.5s-95.5 103.5 -95.5 191.5c0 87.333 31 150.833 93 190.5s139.667 59.5 233 59.5c43.333 0 84.666 -5 123.999 -15
s72.333 -26.667 99 -50l5 2c-19.333 40 -45.833 73.5 -79.5 100.5s-76.5 49.5 -128.5 67.5l-143 -81l-77 50l106 60c-54 10 -114 18 -180 24l68 101c94 -7.33301 179 -22.333 255 -45l111 63l77 -50l-89 -50c89.333 -41.333 153.333 -94 192 -158zM596.001 232
c0 46.667 -17.332 80.833 -51.999 102.5s-82.334 32.5 -143.001 32.5s-108.334 -10.833 -143.001 -32.5s-52 -55.834 -52 -102.501c0 -47.333 17.333 -81.666 52 -102.999s82.334 -32 143.001 -32c130 0 195 45 195 135z" />
    <glyph glyph-name="ntilde" unicode="&#xf1;" 
d="M219 470h5.00098c57.333 54.667 137 82 239 82c78 0 140.5 -16.167 187.5 -48.5s70.5 -81.5 70.5 -147.5v-356h-155v304c0 43.333 -13.333 74.833 -40 94.5s-66.334 29.5 -119.001 29.5c-50.667 0 -94.167 -12.5 -130.5 -37.5s-54.5 -64.167 -54.5 -117.5v-273h-155v539
h152v-69zM445.001 589c-16 5.33301 -37.667 13.667 -65 25c-18 8 -32.5 13.833 -43.5 17.5s-20.833 5.5 -29.5 5.5c-11.333 0 -19.166 -3.16699 -23.499 -9.5s-6.5 -18.166 -6.5 -35.499h-114c0 53.333 12.833 92.5 38.5 117.5s56.167 37.5 91.5 37.5c16.667 0 34 -3 52 -9
s38.667 -14 62 -24c18 -8 32.5 -13.833 43.5 -17.5s20.833 -5.5 29.5 -5.5c11.333 0 19.166 3.16699 23.499 9.5s6.5 18.166 6.5 35.499h114c0 -53.333 -13 -92.5 -39 -117.5s-56.333 -37.5 -91 -37.5c-16.667 0 -33 2.66699 -49 8z" />
    <glyph glyph-name="ograve" unicode="&#xf2;" horiz-adv-x="802" 
d="M667.5 482c60.333 -50 90.5 -121 90.5 -213s-30.167 -163 -90.5 -213s-149.166 -75 -266.499 -75s-206.166 25 -266.499 75s-90.5 121 -90.5 213s30.167 163 90.5 213s149.166 75 266.499 75s206.166 -25 266.499 -75zM547 143c32.667 28.667 49 70.667 49 126
s-16.333 97.5 -49 126.5s-81.334 43.5 -146.001 43.5s-113.334 -14.5 -146.001 -43.5s-49 -71.167 -49 -126.5s16.333 -97.333 49 -126s81.334 -43 146.001 -43s113.334 14.333 146.001 43zM381 749l87 -153h-135l-170 153h218z" />
    <glyph glyph-name="oacute" unicode="&#xf3;" horiz-adv-x="802" 
d="M667.5 482c60.333 -50 90.5 -121 90.5 -213s-30.167 -163 -90.5 -213s-149.166 -75 -266.499 -75s-206.166 25 -266.499 75s-90.5 121 -90.5 213s30.167 163 90.5 213s149.166 75 266.499 75s206.166 -25 266.499 -75zM547 143c32.667 28.667 49 70.667 49 126
s-16.333 97.5 -49 126.5s-81.334 43.5 -146.001 43.5s-113.334 -14.5 -146.001 -43.5s-49 -71.167 -49 -126.5s16.333 -97.333 49 -126s81.334 -43 146.001 -43s113.334 14.333 146.001 43zM468 596h-135l87 153h218z" />
    <glyph glyph-name="ocircumflex" unicode="&#xf4;" horiz-adv-x="802" 
d="M667.5 482c60.333 -50 90.5 -121 90.5 -213s-30.167 -163 -90.5 -213s-149.166 -75 -266.499 -75s-206.166 25 -266.499 75s-90.5 121 -90.5 213s30.167 163 90.5 213s149.166 75 266.499 75s206.166 -25 266.499 -75zM547 143c32.667 28.667 49 70.667 49 126
s-16.333 97.5 -49 126.5s-81.334 43.5 -146.001 43.5s-113.334 -14.5 -146.001 -43.5s-49 -71.167 -49 -126.5s16.333 -97.333 49 -126s81.334 -43 146.001 -43s113.334 14.333 146.001 43zM403 677h-5l-67 -82h-172l140 153h203l141 -153h-172z" />
    <glyph glyph-name="otilde" unicode="&#xf5;" horiz-adv-x="802" 
d="M667.5 482c60.333 -50 90.5 -121 90.5 -213s-30.167 -163 -90.5 -213s-149.166 -75 -266.499 -75s-206.166 25 -266.499 75s-90.5 121 -90.5 213s30.167 163 90.5 213s149.166 75 266.499 75s206.166 -25 266.499 -75zM547 143c32.667 28.667 49 70.667 49 126
s-16.333 97.5 -49 126.5s-81.334 43.5 -146.001 43.5s-113.334 -14.5 -146.001 -43.5s-49 -71.167 -49 -126.5s16.333 -97.333 49 -126s81.334 -43 146.001 -43s113.334 14.333 146.001 43zM452 589c-16 5.33301 -37.667 13.667 -65 25c-18 8 -32.5 13.833 -43.5 17.5
s-20.833 5.5 -29.5 5.5c-11.333 0 -19.166 -3.16699 -23.499 -9.5s-6.5 -18.166 -6.5 -35.499h-114c0 53.333 12.833 92.5 38.5 117.5s56.167 37.5 91.5 37.5c16.667 0 34 -3 52 -9s38.667 -14 62 -24c18 -8 32.5 -13.833 43.5 -17.5s20.833 -5.5 29.5 -5.5
c11.333 0 19.166 3.16699 23.499 9.5s6.5 18.166 6.5 35.499h114c0 -53.333 -13 -92.5 -39 -117.5s-56.333 -37.5 -91 -37.5c-16.667 0 -33 2.66699 -49 8z" />
    <glyph glyph-name="odieresis" unicode="&#xf6;" horiz-adv-x="802" 
d="M667.5 482c60.333 -50 90.5 -121 90.5 -213s-30.167 -163 -90.5 -213s-149.166 -75 -266.499 -75s-206.166 25 -266.499 75s-90.5 121 -90.5 213s30.167 163 90.5 213s149.166 75 266.499 75s206.166 -25 266.499 -75zM547 143c32.667 28.667 49 70.667 49 126
s-16.333 97.5 -49 126.5s-81.334 43.5 -146.001 43.5s-113.334 -14.5 -146.001 -43.5s-49 -71.167 -49 -126.5s16.333 -97.333 49 -126s81.334 -43 146.001 -43s113.334 14.333 146.001 43zM194 729h152v-108h-152v108zM455 729h153v-108h-153v108z" />
    <glyph glyph-name="divide" unicode="&#xf7;" horiz-adv-x="680" 
d="M280 475.5c-16.667 17 -25 37.167 -25 60.5s8.33301 43.333 25 60s36.667 25 60 25s43.333 -8.33301 60 -25s25 -36.667 25 -60s-8.33301 -43.5 -25 -60.5s-36.667 -25.5 -60 -25.5s-43.333 8.5 -60 25.5zM604 269h-528v114h528v-114zM280 56.5
c-16.667 17 -25 37.167 -25 60.5s8.33301 43.333 25 60s36.667 25 60 25s43.333 -8.33301 60 -25s25 -36.667 25 -60s-8.33301 -43.5 -25 -60.5s-36.667 -25.5 -60 -25.5s-43.333 8.5 -60 25.5z" />
    <glyph glyph-name="oslash" unicode="&#xf8;" horiz-adv-x="802" 
d="M758 269c0 -92 -30.166 -163 -90.499 -213s-149.166 -75 -266.499 -75c-96.667 0 -175 17.667 -235 53l-64 -53l-54 40l66 54c-46.667 47.333 -70 112 -70 194c0 92 30.167 163 90.5 213s149.166 75 266.499 75c97.333 0 175.666 -17.333 234.999 -52l64 52l54 -39
l-66 -54c46.667 -47.333 70 -112.333 70 -195zM255.001 395.5c-32.667 -29 -48.998 -71.167 -48.998 -126.5c0 -38 8.33301 -70.667 25 -98l292 242c-30.667 17.333 -71.334 26 -122.001 26c-64.667 0 -113.334 -14.5 -146.001 -43.5zM547.003 143
c32.667 28.667 48.998 70.667 48.998 126c0 38.667 -8.33301 71.667 -25 99l-292 -242c30.667 -17.333 71.334 -26 122.001 -26c64.667 0 113.334 14.333 146.001 43z" />
    <glyph glyph-name="ugrave" unicode="&#xf9;" 
d="M569 69h-5.00098c-57.333 -54.667 -137 -82 -239 -82c-78 0 -140.5 16.167 -187.5 48.5s-70.5 81.5 -70.5 147.5v356h155v-304c0 -43.333 13.333 -74.833 40 -94.5s66.334 -29.5 119.001 -29.5c50.667 0 94.167 12.5 130.5 37.5s54.5 63.833 54.5 116.5v274h155v-539
h-152v69zM373.999 749l87 -153h-135l-170 153h218z" />
    <glyph glyph-name="uacute" unicode="&#xfa;" 
d="M569 69h-5.00098c-57.333 -54.667 -137 -82 -239 -82c-78 0 -140.5 16.167 -187.5 48.5s-70.5 81.5 -70.5 147.5v356h155v-304c0 -43.333 13.333 -74.833 40 -94.5s66.334 -29.5 119.001 -29.5c50.667 0 94.167 12.5 130.5 37.5s54.5 63.833 54.5 116.5v274h155v-539
h-152v69zM460.999 596h-135l87 153h218z" />
    <glyph glyph-name="ucircumflex" unicode="&#xfb;" 
d="M569 69h-5.00098c-57.333 -54.667 -137 -82 -239 -82c-78 0 -140.5 16.167 -187.5 48.5s-70.5 81.5 -70.5 147.5v356h155v-304c0 -43.333 13.333 -74.833 40 -94.5s66.334 -29.5 119.001 -29.5c50.667 0 94.167 12.5 130.5 37.5s54.5 63.833 54.5 116.5v274h155v-539
h-152v69zM395.999 678h-5l-67 -82h-172l140 153h203l141 -153h-172z" />
    <glyph glyph-name="udieresis" unicode="&#xfc;" 
d="M569 69h-5.00098c-57.333 -54.667 -137 -82 -239 -82c-78 0 -140.5 16.167 -187.5 48.5s-70.5 81.5 -70.5 147.5v356h155v-304c0 -43.333 13.333 -74.833 40 -94.5s66.334 -29.5 119.001 -29.5c50.667 0 94.167 12.5 130.5 37.5s54.5 63.833 54.5 116.5v274h155v-539
h-152v69zM186.999 729h152v-108h-152v108zM447.999 729h153v-108h-153v108z" />
    <glyph glyph-name="yacute" unicode="&#xfd;" horiz-adv-x="762" 
d="M449 -37c-22 -42.667 -44.833 -75.668 -68.5 -99.001s-51 -39.666 -82 -48.999s-70.167 -14 -117.5 -14c-54 0 -91.333 1 -112 3v130c28 -3.33301 60 -5 96 -5c26.667 0 48.5 3.5 65.5 10.5s30.5 19.833 40.5 38.5l18 36l-273 525h176l186 -382h5l187 382h176z
M448 595.999h-135l87 153h218z" />
    <glyph glyph-name="thorn" unicode="&#xfe;" horiz-adv-x="812" 
d="M222 66v-251.999h-155v910h155v-256h5c52.667 56 127 84 223 84c100.667 0 178.834 -24.833 234.501 -74.5s83.5 -119.834 83.5 -210.501c0 -91.333 -27.833 -161.833 -83.5 -211.5s-133.834 -74.5 -234.501 -74.5c-96.667 0 -171 28.333 -223 85h-5zM269 389.001
c-34 -30 -51 -70.667 -51 -122s17 -92 51 -122s82 -45 144 -45c128.667 0 193 55.667 193 167s-64.333 167 -193 167c-62 0 -110 -15 -144 -45z" />
    <glyph glyph-name="ydieresis" unicode="&#xff;" horiz-adv-x="762" 
d="M449 -37c-22 -42.667 -44.833 -75.668 -68.5 -99.001s-51 -39.666 -82 -48.999s-70.167 -14 -117.5 -14c-54 0 -91.333 1 -112 3v130c28 -3.33301 60 -5 96 -5c26.667 0 48.5 3.5 65.5 10.5s30.5 19.833 40.5 38.5l18 36l-273 525h176l186 -382h5l187 382h176z
M174 728.999h152v-108h-152v108zM435 728.999h153v-108h-153v108z" />
    <glyph glyph-name="Amacron" unicode="&#x100;" horiz-adv-x="947" 
d="M686 145h-428l-72 -145h-173l364 714h195l362 -714h-176zM624 270l-150 302h-4l-150 -302h304zM269 781v102h411v-102h-411z" />
    <glyph glyph-name="amacron" unicode="&#x101;" horiz-adv-x="761" 
d="M697 37c2 -13.333 5.99805 -23.668 11.998 -31.001v-6h-152c-10 10 -15 30.333 -15 61v17c-26.667 -32.667 -61.667 -57 -105 -73s-96.666 -24 -159.999 -24c-71.333 0 -129 14.5 -173 43.5s-66 72.167 -66 129.5c0 54.667 15.167 95.334 45.5 122.001
s70.833 42.334 121.5 47.001l262 24c22.667 1.33301 39.167 5.66602 49.5 12.999s15.5 19 15.5 35c0 18 -10.667 31.5 -32 40.5s-56.666 13.5 -105.999 13.5s-87 -5.5 -113 -16.5s-40.667 -29.167 -44 -54.5h-166c2 66 30.833 112.333 86.5 139s133.167 40 232.5 40
c102 0 178.167 -11.5 228.5 -34.5s75.5 -65.5 75.5 -127.5v-308c0 -20 1 -36.667 3 -50zM538.998 264.998c-8 -6 -23.667 -10.333 -47 -13l-209 -24c-26.667 -3.33301 -47.167 -10.5 -61.5 -21.5s-21.5 -27.833 -21.5 -50.5c0 -25.333 9.83301 -43.5 29.5 -54.5
s48.5 -16.5 86.5 -16.5c61.333 0 113.833 12 157.5 36s65.5 62.667 65.5 116v28zM183.998 618.998v101h411v-101h-411z" />
    <glyph glyph-name="Abreve" unicode="&#x102;" horiz-adv-x="947" 
d="M686 145h-428l-72 -145h-173l364 714h195l362 -714h-176zM624 270l-150 302h-4l-150 -302h304zM623 807c-41.333 -27.333 -91.001 -41 -149.001 -41s-107.5 13.667 -148.5 41s-61.833 67 -62.5 119h129c4.66699 -38 32 -57 82 -57c50.667 0 78.334 19 83.001 57h129
c-0.666992 -52 -21.667 -91.667 -63 -119z" />
    <glyph glyph-name="abreve" unicode="&#x103;" horiz-adv-x="761" 
d="M697 37c2 -13.333 5.99805 -23.668 11.998 -31.001v-6h-152c-10 10 -15 30.333 -15 61v17c-26.667 -32.667 -61.667 -57 -105 -73s-96.666 -24 -159.999 -24c-71.333 0 -129 14.5 -173 43.5s-66 72.167 -66 129.5c0 54.667 15.167 95.334 45.5 122.001
s70.833 42.334 121.5 47.001l262 24c22.667 1.33301 39.167 5.66602 49.5 12.999s15.5 19 15.5 35c0 18 -10.667 31.5 -32 40.5s-56.666 13.5 -105.999 13.5s-87 -5.5 -113 -16.5s-40.667 -29.167 -44 -54.5h-166c2 66 30.833 112.333 86.5 139s133.167 40 232.5 40
c102 0 178.167 -11.5 228.5 -34.5s75.5 -65.5 75.5 -127.5v-308c0 -20 1 -36.667 3 -50zM538.998 264.998c-8 -6 -23.667 -10.333 -47 -13l-209 -24c-26.667 -3.33301 -47.167 -10.5 -61.5 -21.5s-21.5 -27.833 -21.5 -50.5c0 -25.333 9.83301 -43.5 29.5 -54.5
s48.5 -16.5 86.5 -16.5c61.333 0 113.833 12 157.5 36s65.5 62.667 65.5 116v28zM537.998 629.998c-41.333 -27.333 -91.001 -41 -149.001 -41s-107.5 13.667 -148.5 41s-61.833 67 -62.5 119h129c4.66699 -38 32 -57 82 -57c50.667 0 78.334 19 83.001 57h129
c-0.666992 -52 -21.667 -91.667 -63 -119z" />
    <glyph glyph-name="Aogonek" unicode="&#x104;" horiz-adv-x="947" 
d="M686 145h-428l-72 -145h-173l364 714h195l362 -714h-176zM624 270l-150 302h-4l-150 -302h304zM935 -137v-86.001c-24 -5.33301 -54.667 -8 -92 -8c-60 0 -105.333 8.66699 -136 26s-46 43 -46 77c0 17.333 6.83301 35.666 20.5 54.999s34.167 36.833 61.5 52.5
s60 26.5 98 32.5l94 -12c-81.333 -27.333 -122 -62.666 -122 -105.999c0 -13.333 5.66699 -23.166 17 -29.499s25.333 -9.5 42 -9.5c22 0 43 2.66699 63 8z" />
    <glyph glyph-name="aogonek" unicode="&#x105;" horiz-adv-x="761" 
d="M697 37c2 -13.333 5.99805 -23.668 11.998 -31.001v-6h-152c-10 10 -15 30.333 -15 61v17c-26.667 -32.667 -61.667 -57 -105 -73s-96.666 -24 -159.999 -24c-71.333 0 -129 14.5 -173 43.5s-66 72.167 -66 129.5c0 54.667 15.167 95.334 45.5 122.001
s70.833 42.334 121.5 47.001l262 24c22.667 1.33301 39.167 5.66602 49.5 12.999s15.5 19 15.5 35c0 18 -10.667 31.5 -32 40.5s-56.666 13.5 -105.999 13.5s-87 -5.5 -113 -16.5s-40.667 -29.167 -44 -54.5h-166c2 66 30.833 112.333 86.5 139s133.167 40 232.5 40
c102 0 178.167 -11.5 228.5 -34.5s75.5 -65.5 75.5 -127.5v-308c0 -20 1 -36.667 3 -50zM538.998 264.998c-8 -6 -23.667 -10.333 -47 -13l-209 -24c-26.667 -3.33301 -47.167 -10.5 -61.5 -21.5s-21.5 -27.833 -21.5 -50.5c0 -25.333 9.83301 -43.5 29.5 -54.5
s48.5 -16.5 86.5 -16.5c61.333 0 113.833 12 157.5 36s65.5 62.667 65.5 116v28zM709.998 -137.002v-86.001c-24 -5.33301 -54.667 -8 -92 -8c-60 0 -105.333 8.66699 -136 26s-46 43 -46 77c0 17.333 6.83301 35.666 20.5 54.999s34.167 36.833 61.5 52.5s60 26.5 98 32.5
l94 -12c-81.333 -27.333 -122 -62.666 -122 -105.999c0 -13.333 5.66699 -23.166 17 -29.499s25.333 -9.5 42 -9.5c22 0 43 2.66699 63 8z" />
    <glyph glyph-name="Cacute" unicode="&#x106;" horiz-adv-x="962" 
d="M659 558c-40 29.333 -96.668 44 -170.001 44c-83.333 0 -148.666 -20.833 -195.999 -62.5s-71 -102.5 -71 -182.5s23.667 -140.833 71 -182.5s112.666 -62.5 195.999 -62.5c75.333 0 132.833 15.333 172.5 46s61.167 71.334 64.5 122.001h188
c-1.33301 -62 -19.166 -115.5 -53.499 -160.5s-83 -79.5 -146 -103.5s-138.167 -36 -225.5 -36c-88 0 -165.167 14 -231.5 42s-117.833 70.167 -154.5 126.5s-55 125.833 -55 208.5s18.333 152.167 55 208.5s88.167 98.5 154.5 126.5s143.5 42 231.5 42
c86.667 0 161.167 -11.667 223.5 -35s110.333 -56.5 144 -99.5s52.167 -93.167 55.5 -150.5h-186c-4.66699 43.333 -27 79.666 -67 108.999zM555.999 773h-135l87 153h218z" />
    <glyph glyph-name="cacute" unicode="&#x107;" horiz-adv-x="793" 
d="M526.5 128.5c26.333 19 42.501 44.501 48.501 76.501h175c-18.667 -149.333 -136.334 -224 -353.001 -224c-115.333 0 -203 25 -263 75s-90 121 -90 213s29.833 163 89.5 213s147.5 75 263.5 75c214 0 331 -73.333 351 -220h-173c-7.33301 31.333 -24 56.166 -50 74.499
s-68.667 27.5 -128 27.5c-63.333 0 -111 -14.333 -143 -43s-48 -71 -48 -127c0 -55.333 16 -97.333 48 -126s79.667 -43 143 -43c60 0 103.167 9.5 129.5 28.5zM465.001 596.001h-135l87 153h218z" />
    <glyph glyph-name="Ccircumflex" unicode="&#x108;" horiz-adv-x="962" 
d="M659 558c-40 29.333 -96.668 44 -170.001 44c-83.333 0 -148.666 -20.833 -195.999 -62.5s-71 -102.5 -71 -182.5s23.667 -140.833 71 -182.5s112.666 -62.5 195.999 -62.5c75.333 0 132.833 15.333 172.5 46s61.167 71.334 64.5 122.001h188
c-1.33301 -62 -19.166 -115.5 -53.499 -160.5s-83 -79.5 -146 -103.5s-138.167 -36 -225.5 -36c-88 0 -165.167 14 -231.5 42s-117.833 70.167 -154.5 126.5s-55 125.833 -55 208.5s18.333 152.167 55 208.5s88.167 98.5 154.5 126.5s143.5 42 231.5 42
c86.667 0 161.167 -11.667 223.5 -35s110.333 -56.5 144 -99.5s52.167 -93.167 55.5 -150.5h-186c-4.66699 43.333 -27 79.666 -67 108.999zM490.999 855h-5l-67 -82h-172l140 153h203l141 -153h-172z" />
    <glyph glyph-name="ccircumflex" unicode="&#x109;" horiz-adv-x="793" 
d="M526.5 128.5c26.333 19 42.501 44.501 48.501 76.501h175c-18.667 -149.333 -136.334 -224 -353.001 -224c-115.333 0 -203 25 -263 75s-90 121 -90 213s29.833 163 89.5 213s147.5 75 263.5 75c214 0 331 -73.333 351 -220h-173c-7.33301 31.333 -24 56.166 -50 74.499
s-68.667 27.5 -128 27.5c-63.333 0 -111 -14.333 -143 -43s-48 -71 -48 -127c0 -55.333 16 -97.333 48 -126s79.667 -43 143 -43c60 0 103.167 9.5 129.5 28.5zM400.001 677.001h-5l-67 -82h-172l140 153h203l141 -153h-172z" />
    <glyph glyph-name="Cdotaccent" unicode="&#x10a;" horiz-adv-x="962" 
d="M659 558c-40 29.333 -96.668 44 -170.001 44c-83.333 0 -148.666 -20.833 -195.999 -62.5s-71 -102.5 -71 -182.5s23.667 -140.833 71 -182.5s112.666 -62.5 195.999 -62.5c75.333 0 132.833 15.333 172.5 46s61.167 71.334 64.5 122.001h188
c-1.33301 -62 -19.166 -115.5 -53.499 -160.5s-83 -79.5 -146 -103.5s-138.167 -36 -225.5 -36c-88 0 -165.167 14 -231.5 42s-117.833 70.167 -154.5 126.5s-55 125.833 -55 208.5s18.333 152.167 55 208.5s88.167 98.5 154.5 126.5s143.5 42 231.5 42
c86.667 0 161.167 -11.667 223.5 -35s110.333 -56.5 144 -99.5s52.167 -93.167 55.5 -150.5h-186c-4.66699 43.333 -27 79.666 -67 108.999zM408.999 887h159v-108h-159v108z" />
    <glyph glyph-name="cdotaccent" unicode="&#x10b;" horiz-adv-x="793" 
d="M526.5 128.5c26.333 19 42.501 44.501 48.501 76.501h175c-18.667 -149.333 -136.334 -224 -353.001 -224c-115.333 0 -203 25 -263 75s-90 121 -90 213s29.833 163 89.5 213s147.5 75 263.5 75c214 0 331 -73.333 351 -220h-173c-7.33301 31.333 -24 56.166 -50 74.499
s-68.667 27.5 -128 27.5c-63.333 0 -111 -14.333 -143 -43s-48 -71 -48 -127c0 -55.333 16 -97.333 48 -126s79.667 -43 143 -43c60 0 103.167 9.5 129.5 28.5zM318.001 728.001h159v-108h-159v108z" />
    <glyph glyph-name="Ccaron" unicode="&#x10c;" horiz-adv-x="962" 
d="M659 558c-40 29.333 -96.668 44 -170.001 44c-83.333 0 -148.666 -20.833 -195.999 -62.5s-71 -102.5 -71 -182.5s23.667 -140.833 71 -182.5s112.666 -62.5 195.999 -62.5c75.333 0 132.833 15.333 172.5 46s61.167 71.334 64.5 122.001h188
c-1.33301 -62 -19.166 -115.5 -53.499 -160.5s-83 -79.5 -146 -103.5s-138.167 -36 -225.5 -36c-88 0 -165.167 14 -231.5 42s-117.833 70.167 -154.5 126.5s-55 125.833 -55 208.5s18.333 152.167 55 208.5s88.167 98.5 154.5 126.5s143.5 42 231.5 42
c86.667 0 161.167 -11.667 223.5 -35s110.333 -56.5 144 -99.5s52.167 -93.167 55.5 -150.5h-186c-4.66699 43.333 -27 79.666 -67 108.999zM730.999 926l-141 -153h-203l-140 153h172l67 -82h5l68 82h172z" />
    <glyph glyph-name="ccaron" unicode="&#x10d;" horiz-adv-x="793" 
d="M526.5 128.5c26.333 19 42.501 44.501 48.501 76.501h175c-18.667 -149.333 -136.334 -224 -353.001 -224c-115.333 0 -203 25 -263 75s-90 121 -90 213s29.833 163 89.5 213s147.5 75 263.5 75c214 0 331 -73.333 351 -220h-173c-7.33301 31.333 -24 56.166 -50 74.499
s-68.667 27.5 -128 27.5c-63.333 0 -111 -14.333 -143 -43s-48 -71 -48 -127c0 -55.333 16 -97.333 48 -126s79.667 -43 143 -43c60 0 103.167 9.5 129.5 28.5zM640.001 749.001l-141 -153h-203l-140 153h172l67 -82h5l68 82h172z" />
    <glyph glyph-name="Dcaron" unicode="&#x10e;" horiz-adv-x="939" 
d="M793 628c65.333 -57.333 98 -147.668 98 -271.001s-32.667 -213.666 -98 -270.999s-160.333 -86 -285 -86h-431v714h431c124.667 0 219.667 -28.667 285 -86zM235 585.998v-458h239c162 0 243 76.333 243 229s-81 229 -243 229h-239zM695 925.998l-141 -153h-203
l-140 153h172l67 -82h5l68 82h172z" />
    <glyph glyph-name="dcaron" unicode="&#x10f;" horiz-adv-x="967" 
d="M590 468l-0.000976562 255.999h155v-724h-152v71h-5c-50.667 -60 -126 -90 -226 -90s-178 25 -234 75s-84 120.333 -84 211s27.833 160.834 83.5 210.501s133.834 74.5 234.501 74.5c96 0 170.333 -28 223 -84h5zM964.999 627.999
c0 -32.667 -4.66699 -58.499 -14 -77.499s-26.333 -33.167 -51 -42.5s-60 -14 -106 -14v46c30 0.666992 51.5 6.16699 64.5 16.5s19.5 25.166 19.5 44.499h-85v123h172v-96zM542.999 145c34 30 51 70.667 51 122s-17 92 -51 122s-82.333 45 -145 45
c-128 0 -192 -55.667 -192 -167s64 -167 192 -167c62.667 0 111 15 145 45z" />
    <glyph glyph-name="Dcroat" unicode="&#x110;" horiz-adv-x="939" 
d="M793 628c65.333 -57.333 98 -147.668 98 -271.001s-32.667 -213.666 -98 -270.999s-160.333 -86 -285 -86h-431v304h-72v107h72v303h431c124.667 0 219.667 -28.667 285 -86zM717 356.998c0 152.667 -81 229 -243 229h-239v-175h203v-107h-203v-176h239
c162 0 243 76.333 243 229z" />
    <glyph glyph-name="dcroat" unicode="&#x111;" horiz-adv-x="814" 
d="M816 670l-0.000976562 -86.001h-71v-584h-152v71h-5c-50.667 -60 -126 -90 -226 -90s-178 25 -234 75s-84 120.333 -84 211s27.833 160.834 83.5 210.501s133.834 74.5 234.501 74.5c96 0 170.333 -28 223 -84h5v116h-191v86h191v54h155v-54h71zM542.999 144.999
c34 30 51 70.667 51 122s-17 92 -51 122s-82.333 45 -145 45c-128 0 -192 -55.667 -192 -167s64 -167 192 -167c62.667 0 111 15 145 45z" />
    <glyph glyph-name="Emacron" unicode="&#x112;" horiz-adv-x="847" 
d="M235 430h523v-120h-523v-184h554v-126h-712v714h699v-126h-541v-158zM221 781v102h411v-102h-411z" />
    <glyph glyph-name="emacron" unicode="&#x113;" horiz-adv-x="793" 
d="M747 232l-540.999 -0.000976562c4.66699 -48 23.167 -83.667 55.5 -107s79.166 -35 140.499 -35c54.667 0 95 8 121 24s41.333 34.333 46 55h174c-6.66699 -55.333 -36.167 -100.5 -88.5 -135.5s-136.5 -52.5 -252.5 -52.5c-118 0 -207.167 25 -267.5 75
s-90.5 121 -90.5 213s29.833 163 89.5 213s147.167 75 262.5 75s203 -25 263 -75s90 -121 90 -213c0 -11.333 -0.666992 -23.666 -2 -36.999zM211.001 334.999h371.001c-9.33301 38 -29.5 66.333 -60.5 85s-72.833 28 -125.5 28c-104.667 0 -166.334 -37.667 -185.001 -113z
M191.002 618.999v101h411v-101h-411z" />
    <glyph glyph-name="Ebreve" unicode="&#x114;" horiz-adv-x="847" 
d="M235 430h523v-120h-523v-184h554v-126h-712v714h699v-126h-541v-158zM575 807c-41.333 -27.333 -91.001 -41 -149.001 -41s-107.5 13.667 -148.5 41s-61.833 67 -62.5 119h129c4.66699 -38 32 -57 82 -57c50.667 0 78.334 19 83.001 57h129
c-0.666992 -52 -21.667 -91.667 -63 -119z" />
    <glyph glyph-name="ebreve" unicode="&#x115;" horiz-adv-x="793" 
d="M747 232l-540.999 -0.000976562c4.66699 -48 23.167 -83.667 55.5 -107s79.166 -35 140.499 -35c54.667 0 95 8 121 24s41.333 34.333 46 55h174c-6.66699 -55.333 -36.167 -100.5 -88.5 -135.5s-136.5 -52.5 -252.5 -52.5c-118 0 -207.167 25 -267.5 75
s-90.5 121 -90.5 213s29.833 163 89.5 213s147.167 75 262.5 75s203 -25 263 -75s90 -121 90 -213c0 -11.333 -0.666992 -23.666 -2 -36.999zM211.001 334.999h371.001c-9.33301 38 -29.5 66.333 -60.5 85s-72.833 28 -125.5 28c-104.667 0 -166.334 -37.667 -185.001 -113z
M545.002 629.999c-41.333 -27.333 -91.001 -41 -149.001 -41s-107.5 13.667 -148.5 41s-61.833 67 -62.5 119h129c4.66699 -38 32 -57 82 -57c50.667 0 78.334 19 83.001 57h129c-0.666992 -52 -21.667 -91.667 -63 -119z" />
    <glyph glyph-name="Edotaccent" unicode="&#x116;" horiz-adv-x="847" 
d="M235 430h523v-120h-523v-184h554v-126h-712v714h699v-126h-541v-158zM347 887h159v-108h-159v108z" />
    <glyph glyph-name="edotaccent" unicode="&#x117;" horiz-adv-x="793" 
d="M747 232l-540.999 -0.000976562c4.66699 -48 23.167 -83.667 55.5 -107s79.166 -35 140.499 -35c54.667 0 95 8 121 24s41.333 34.333 46 55h174c-6.66699 -55.333 -36.167 -100.5 -88.5 -135.5s-136.5 -52.5 -252.5 -52.5c-118 0 -207.167 25 -267.5 75
s-90.5 121 -90.5 213s29.833 163 89.5 213s147.167 75 262.5 75s203 -25 263 -75s90 -121 90 -213c0 -11.333 -0.666992 -23.666 -2 -36.999zM211.001 334.999h371.001c-9.33301 38 -29.5 66.333 -60.5 85s-72.833 28 -125.5 28c-104.667 0 -166.334 -37.667 -185.001 -113z
M317.002 727.999h159v-108h-159v108z" />
    <glyph glyph-name="Eogonek" unicode="&#x118;" horiz-adv-x="847" 
d="M235 430h523v-120h-523v-184h554v-126h-712v714h699v-126h-541v-158zM789 -137v-86.001c-24 -5.33301 -54.667 -8 -92 -8c-60 0 -105.333 8.66699 -136 26s-46 43 -46 77c0 17.333 6.83301 35.666 20.5 54.999s34.167 36.833 61.5 52.5s60 26.5 98 32.5l94 -12
c-81.333 -27.333 -122 -62.666 -122 -105.999c0 -13.333 5.66699 -23.166 17 -29.499s25.333 -9.5 42 -9.5c22 0 43 2.66699 63 8z" />
    <glyph glyph-name="eogonek" unicode="&#x119;" horiz-adv-x="793" 
d="M747 232l-540.999 -0.000976562c4.66699 -48 23.167 -83.667 55.5 -107s79.166 -35 140.499 -35c54.667 0 95 8 121 24s41.333 34.333 46 55h174c-10.667 -82.667 -65.667 -138.334 -165 -167.001c-36 -10.667 -66.5 -25 -91.5 -43s-37.5 -40.333 -37.5 -67
c0 -12.667 5.66699 -22 17 -28s25 -9 41 -9c22.667 0 44 2.66699 64 8v-86c-24 -5.33301 -54.667 -8 -92 -8c-60 0 -105.333 8.5 -136 25.5s-46 42.167 -46 75.5c0 17.333 7.16699 36.5 21.5 57.5s34.833 39.167 61.5 54.5c-110 2.66699 -193.5 28.834 -250.5 78.501
s-85.5 119.167 -85.5 208.5c0 92 29.833 163 89.5 213s147.167 75 262.5 75s203 -25 263 -75s90 -121 90 -213c0 -11.333 -0.666992 -23.666 -2 -36.999zM211.001 334.999h371.001c-9.33301 38 -29.5 66.333 -60.5 85s-72.833 28 -125.5 28
c-104.667 0 -166.334 -37.667 -185.001 -113z" />
    <glyph glyph-name="Ecaron" unicode="&#x11a;" horiz-adv-x="847" 
d="M235 430h523v-120h-523v-184h554v-126h-712v714h699v-126h-541v-158zM669 926l-141 -153h-203l-140 153h172l67 -82h5l68 82h172z" />
    <glyph glyph-name="ecaron" unicode="&#x11b;" horiz-adv-x="793" 
d="M747 232l-540.999 -0.000976562c4.66699 -48 23.167 -83.667 55.5 -107s79.166 -35 140.499 -35c54.667 0 95 8 121 24s41.333 34.333 46 55h174c-6.66699 -55.333 -36.167 -100.5 -88.5 -135.5s-136.5 -52.5 -252.5 -52.5c-118 0 -207.167 25 -267.5 75
s-90.5 121 -90.5 213s29.833 163 89.5 213s147.167 75 262.5 75s203 -25 263 -75s90 -121 90 -213c0 -11.333 -0.666992 -23.666 -2 -36.999zM211.001 334.999h371.001c-9.33301 38 -29.5 66.333 -60.5 85s-72.833 28 -125.5 28c-104.667 0 -166.334 -37.667 -185.001 -113z
M639.002 748.999l-141 -153h-203l-140 153h172l67 -82h5l68 82h172z" />
    <glyph glyph-name="Gcircumflex" unicode="&#x11c;" horiz-adv-x="1002" 
d="M926 0h-123v99c-30.667 -40.667 -70.5 -70.667 -119.5 -90s-107.5 -29 -175.5 -29c-143.333 0 -255.833 31.667 -337.5 95s-122.5 157.333 -122.5 282s40 218.667 120 282s190.667 95 332 95c133.333 0 234.5 -23.667 303.5 -71s108.167 -110 117.5 -188h-185
c-8 34.667 -30 64.5 -66 89.5s-92.667 37.5 -170 37.5c-88 0 -156.333 -20.667 -205 -62s-73 -102.333 -73 -183c0 -82 24.667 -143.833 74 -185.5s120 -62.5 212 -62.5c76 0 133.167 14.833 171.5 44.5s60.5 68.167 66.5 115.5h-226v117h406v-386zM502 855h-5l-67 -82h-172
l140 153h203l141 -153h-172z" />
    <glyph glyph-name="gcircumflex" unicode="&#x11d;" horiz-adv-x="803" 
d="M736 539v-513.002c0 -56 -8.5 -99.833 -25.5 -131.5s-49.5 -55.334 -97.5 -71.001s-119 -23.5 -213 -23.5c-90 0 -159.333 7.83301 -208 23.5s-82 36.834 -100 63.501s-28 60.334 -30 101.001h172c2.66699 -16 8.5 -29.5 17.5 -40.5s25.333 -20 49 -27
s57.5 -10.5 101.5 -10.5c50 0 87.833 4 113.5 12s43 20 52 36s13.5 38.667 13.5 68v89h-5c-53.333 -53.333 -127 -80 -221 -80c-98 0 -174.333 22.333 -229 67s-82 108.334 -82 191.001s27.333 146.5 82 191.5s131 67.5 229 67.5s172.667 -28 224 -84h5v71h152zM534 189.998
c33.333 25.333 50 59.667 50 103c0 44 -16.5 78.667 -49.5 104s-80.167 38 -141.5 38c-124.667 0 -187 -47.333 -187 -142c0 -94 62.333 -141 187 -141c60.667 0 107.667 12.667 141 38zM392 676.999h-5l-67 -82h-172l140 153h203l141 -153h-172z" />
    <glyph glyph-name="Gbreve" unicode="&#x11e;" horiz-adv-x="1002" 
d="M926 0h-123v99c-30.667 -40.667 -70.5 -70.667 -119.5 -90s-107.5 -29 -175.5 -29c-143.333 0 -255.833 31.667 -337.5 95s-122.5 157.333 -122.5 282s40 218.667 120 282s190.667 95 332 95c133.333 0 234.5 -23.667 303.5 -71s108.167 -110 117.5 -188h-185
c-8 34.667 -30 64.5 -66 89.5s-92.667 37.5 -170 37.5c-88 0 -156.333 -20.667 -205 -62s-73 -102.333 -73 -183c0 -82 24.667 -143.833 74 -185.5s120 -62.5 212 -62.5c76 0 133.167 14.833 171.5 44.5s60.5 68.167 66.5 115.5h-226v117h406v-386zM648 807
c-41.333 -27.333 -91.001 -41 -149.001 -41s-107.5 13.667 -148.5 41s-61.833 67 -62.5 119h129c4.66699 -38 32 -57 82 -57c50.667 0 78.334 19 83.001 57h129c-0.666992 -52 -21.667 -91.667 -63 -119z" />
    <glyph glyph-name="gbreve" unicode="&#x11f;" horiz-adv-x="803" 
d="M736 539v-513.002c0 -56 -8.5 -99.833 -25.5 -131.5s-49.5 -55.334 -97.5 -71.001s-119 -23.5 -213 -23.5c-90 0 -159.333 7.83301 -208 23.5s-82 36.834 -100 63.501s-28 60.334 -30 101.001h172c2.66699 -16 8.5 -29.5 17.5 -40.5s25.333 -20 49 -27
s57.5 -10.5 101.5 -10.5c50 0 87.833 4 113.5 12s43 20 52 36s13.5 38.667 13.5 68v89h-5c-53.333 -53.333 -127 -80 -221 -80c-98 0 -174.333 22.333 -229 67s-82 108.334 -82 191.001s27.333 146.5 82 191.5s131 67.5 229 67.5s172.667 -28 224 -84h5v71h152zM534 189.998
c33.333 25.333 50 59.667 50 103c0 44 -16.5 78.667 -49.5 104s-80.167 38 -141.5 38c-124.667 0 -187 -47.333 -187 -142c0 -94 62.333 -141 187 -141c60.667 0 107.667 12.667 141 38zM539 629.999c-41.333 -27.333 -91.001 -41 -149.001 -41s-107.5 13.667 -148.5 41
s-61.833 67 -62.5 119h129c4.66699 -38 32 -57 82 -57c50.667 0 78.334 19 83.001 57h129c-0.666992 -52 -21.667 -91.667 -63 -119z" />
    <glyph glyph-name="Gdotaccent" unicode="&#x120;" horiz-adv-x="1002" 
d="M926 0h-123v99c-30.667 -40.667 -70.5 -70.667 -119.5 -90s-107.5 -29 -175.5 -29c-143.333 0 -255.833 31.667 -337.5 95s-122.5 157.333 -122.5 282s40 218.667 120 282s190.667 95 332 95c133.333 0 234.5 -23.667 303.5 -71s108.167 -110 117.5 -188h-185
c-8 34.667 -30 64.5 -66 89.5s-92.667 37.5 -170 37.5c-88 0 -156.333 -20.667 -205 -62s-73 -102.333 -73 -183c0 -82 24.667 -143.833 74 -185.5s120 -62.5 212 -62.5c76 0 133.167 14.833 171.5 44.5s60.5 68.167 66.5 115.5h-226v117h406v-386zM420 887h159v-108h-159
v108z" />
    <glyph glyph-name="gdotaccent" unicode="&#x121;" horiz-adv-x="803" 
d="M736 539v-513.002c0 -56 -8.5 -99.833 -25.5 -131.5s-49.5 -55.334 -97.5 -71.001s-119 -23.5 -213 -23.5c-90 0 -159.333 7.83301 -208 23.5s-82 36.834 -100 63.501s-28 60.334 -30 101.001h172c2.66699 -16 8.5 -29.5 17.5 -40.5s25.333 -20 49 -27
s57.5 -10.5 101.5 -10.5c50 0 87.833 4 113.5 12s43 20 52 36s13.5 38.667 13.5 68v89h-5c-53.333 -53.333 -127 -80 -221 -80c-98 0 -174.333 22.333 -229 67s-82 108.334 -82 191.001s27.333 146.5 82 191.5s131 67.5 229 67.5s172.667 -28 224 -84h5v71h152zM534 189.998
c33.333 25.333 50 59.667 50 103c0 44 -16.5 78.667 -49.5 104s-80.167 38 -141.5 38c-124.667 0 -187 -47.333 -187 -142c0 -94 62.333 -141 187 -141c60.667 0 107.667 12.667 141 38zM311 727.999h159v-108h-159v108z" />
    <glyph glyph-name="Gcommaaccent" unicode="&#x122;" horiz-adv-x="1002" 
d="M926 0h-123v99c-30.667 -40.667 -70.5 -70.667 -119.5 -90s-107.5 -29 -175.5 -29c-143.333 0 -255.833 31.667 -337.5 95s-122.5 157.333 -122.5 282s40 218.667 120 282s190.667 95 332 95c133.333 0 234.5 -23.667 303.5 -71s108.167 -110 117.5 -188h-185
c-8 34.667 -30 64.5 -66 89.5s-92.667 37.5 -170 37.5c-88 0 -156.333 -20.667 -205 -62s-73 -102.333 -73 -183c0 -82 24.667 -143.833 74 -185.5s120 -62.5 212 -62.5c76 0 133.167 14.833 171.5 44.5s60.5 68.167 66.5 115.5h-226v117h406v-386zM586 -144
c0 -34.667 -3.66797 -61.1699 -11.001 -79.5029s-22.166 -32.166 -44.499 -41.499s-56.5 -14 -102.5 -14v47c28.667 0.666992 47.667 5.83398 57 15.501s14 24.834 14 45.501h-72v108h159v-81z" />
    <glyph glyph-name="gcommaaccent" unicode="&#x123;" horiz-adv-x="803" 
d="M304 677c0 32 4.66699 56.999 14 74.999s26.333 31.5 51 40.5s60 13.5 106 13.5v-41c-30 -0.666992 -51.5 -6.16699 -64.5 -16.5s-19.5 -25.166 -19.5 -44.499h85v-109h-172v82zM736 538.999v-513.002c0 -56 -8.5 -99.833 -25.5 -131.5s-49.5 -55.334 -97.5 -71.001
s-119 -23.5 -213 -23.5c-90 0 -159.333 7.83301 -208 23.5s-82 36.834 -100 63.501s-28 60.334 -30 101.001h172c2.66699 -16 8.5 -29.5 17.5 -40.5s25.333 -20 49 -27s57.5 -10.5 101.5 -10.5c50 0 87.833 4 113.5 12s43 20 52 36s13.5 38.667 13.5 68v89h-5
c-53.333 -53.333 -127 -80 -221 -80c-98 0 -174.333 22.333 -229 67s-82 108.334 -82 191.001s27.333 146.5 82 191.5s131 67.5 229 67.5s172.667 -28 224 -84h5v71h152zM534 189.997c33.333 25.333 50 59.667 50 103c0 44 -16.5 78.667 -49.5 104s-80.167 38 -141.5 38
c-124.667 0 -187 -47.333 -187 -142c0 -94 62.333 -141 187 -141c60.667 0 107.667 12.667 141 38z" />
    <glyph glyph-name="Hcircumflex" unicode="&#x124;" horiz-adv-x="952" 
d="M875 714v-714h-158v301h-482v-301h-158v714h158v-282h482v282h158zM479 855h-5l-67 -82h-172l140 153h203l141 -153h-172z" />
    <glyph glyph-name="hcircumflex" unicode="&#x125;" 
d="M650.5 503.5c47 -32.333 70.5 -81.5 70.5 -147.5v-356h-155v304c0 43.333 -13.333 74.833 -40 94.5s-66.334 29.5 -119.001 29.5c-50.667 0 -94.167 -12.5 -130.5 -37.5s-54.5 -64.167 -54.5 -117.5v-273h-155v724h155v-254h5c54.667 54.667 133.334 82 236.001 82
c78 0 140.5 -16.167 187.5 -48.5zM147 855h-5l-67 -82h-172l140 153h203l141 -153h-172z" />
    <glyph glyph-name="Hbar" unicode="&#x126;" horiz-adv-x="952" 
d="M946 519h-71v-519h-158v301h-482v-301h-158v519h-72v107h72v88h158v-88h482v88h158v-88h71v-107zM717 519h-482v-87h482v87z" />
    <glyph glyph-name="hbar" unicode="&#x127;" horiz-adv-x="790" 
d="M652.5 503.5c47 -32.333 70.5029 -81.5 70.5029 -147.5v-356h-155v304c0 43.333 -13.333 74.833 -40 94.5s-66.334 29.5 -119.001 29.5c-50.667 0 -94.167 -12.5 -130.5 -37.5s-54.5 -64.167 -54.5 -117.5v-273h-155v584h-71v86h71v54h155v-54h191v-86h-191v-114h5
c27.333 27.333 61.166 47.833 101.499 61.5s85.166 20.5 134.499 20.5c78 0 140.5 -16.167 187.5 -48.5z" />
    <glyph glyph-name="Itilde" unicode="&#x128;" horiz-adv-x="312" 
d="M77 0v714h158v-714h-158zM204 767.5c-18 5.66699 -38.668 13.834 -62.001 24.501c-18 8 -32.5 13.833 -43.5 17.5s-20.833 5.5 -29.5 5.5c-11.333 0 -19.166 -3.33301 -23.499 -10s-6.5 -18.667 -6.5 -36h-114c0 53.333 13 92.666 39 117.999s56.333 38 91 38
c16 0 32.333 -2.66699 49 -8s38.334 -13.666 65.001 -24.999c18 -8 32.5 -13.833 43.5 -17.5s20.833 -5.5 29.5 -5.5c11.333 0 19.166 3.16699 23.499 9.5s6.5 18.166 6.5 35.499h114c0 -53.333 -13 -92.5 -39 -117.5s-56.333 -37.5 -91 -37.5
c-16.667 0 -34 2.83301 -52 8.5z" />
    <glyph glyph-name="itilde" unicode="&#x129;" horiz-adv-x="289" 
d="M67 539h155v-539h-155v539zM195 589c-16 5.33301 -37.667 13.667 -65 25c-18 8 -32.5 13.833 -43.5 17.5s-20.833 5.5 -29.5 5.5c-11.333 0 -19.166 -3.16699 -23.499 -9.5s-6.5 -18.166 -6.5 -35.499h-114c0 53.333 12.833 92.5 38.5 117.5s56.167 37.5 91.5 37.5
c16.667 0 34 -3 52 -9s38.667 -14 62 -24c18 -8 32.5 -13.833 43.5 -17.5s20.833 -5.5 29.5 -5.5c11.333 0 19.166 3.16699 23.499 9.5s6.5 18.166 6.5 35.499h114c0 -53.333 -13 -92.5 -39 -117.5s-56.333 -37.5 -91 -37.5c-16.667 0 -33 2.66699 -49 8z" />
    <glyph glyph-name="Imacron" unicode="&#x12a;" horiz-adv-x="312" 
d="M77 0v714h158v-714h-158zM-50 781v102h411v-102h-411z" />
    <glyph glyph-name="imacron" unicode="&#x12b;" horiz-adv-x="289" 
d="M67 539h155v-539h-155v539zM-61 619v101h411v-101h-411z" />
    <glyph glyph-name="Ibreve" unicode="&#x12c;" horiz-adv-x="312" 
d="M77 0v714h158v-714h-158zM304 807c-41.333 -27.333 -91.001 -41 -149.001 -41s-107.5 13.667 -148.5 41s-61.833 67 -62.5 119h129c4.66699 -38 32 -57 82 -57c50.667 0 78.334 19 83.001 57h129c-0.666992 -52 -21.667 -91.667 -63 -119z" />
    <glyph glyph-name="ibreve" unicode="&#x12d;" horiz-adv-x="289" 
d="M67 539h155v-539h-155v539zM295 629.5c-40 -27 -90.332 -40.5 -150.999 -40.5s-110.834 13.5 -150.501 40.5s-59.834 66.833 -60.501 119.5h129c4.66699 -38 32 -57 82 -57c50.667 0 78.334 19 83.001 57h129c-0.666992 -52.667 -21 -92.5 -61 -119.5z" />
    <glyph glyph-name="Iogonek" unicode="&#x12e;" horiz-adv-x="312" 
d="M77 0v714h158v-714h-158zM235 -137v-86.001c-24 -5.33301 -54.667 -8 -92 -8c-60 0 -105.333 8.66699 -136 26s-46 43 -46 77c0 17.333 6.83301 35.666 20.5 54.999s34.167 36.833 61.5 52.5s60 26.5 98 32.5l94 -12c-81.333 -27.333 -122 -62.666 -122 -105.999
c0 -13.333 5.66699 -23.166 17 -29.499s25.333 -9.5 42 -9.5c22 0 43 2.66699 63 8z" />
    <glyph glyph-name="iogonek" unicode="&#x12f;" horiz-adv-x="289" 
d="M67 539h155v-539h-155v539zM65 728h159v-108h-159v108zM222 -137v-86.001c-24 -5.33301 -54.667 -8 -92 -8c-60 0 -105.333 8.66699 -136 26s-46 43 -46 77c0 17.333 6.83301 35.666 20.5 54.999s34.167 36.833 61.5 52.5s60 26.5 98 32.5l94 -12
c-81.333 -27.333 -122 -62.666 -122 -105.999c0 -13.333 5.66699 -23.166 17 -29.499s25.333 -9.5 42 -9.5c22 0 43 2.66699 63 8z" />
    <glyph glyph-name="Idotaccent" unicode="&#x130;" horiz-adv-x="312" 
d="M77 0v714h158v-714h-158zM76 887h159v-108h-159v108z" />
    <glyph glyph-name="dotlessi" unicode="&#x131;" horiz-adv-x="289" 
d="M67 539h155v-539h-155v539z" />
    <glyph glyph-name="IJ" unicode="&#x132;" horiz-adv-x="1171" 
d="M77 0v714h158v-714h-158zM1095 285c0 -106.667 -33.1689 -184.167 -99.502 -232.5s-158.166 -72.5 -275.499 -72.5s-208.666 24.167 -273.999 72.5s-98 125.833 -98 232.5v63h158v-63c0 -59.333 19 -103 57 -131s90.333 -42 157 -42c67.333 0 120.333 14 159 42
s58 71.667 58 131v429h158v-429z" />
    <glyph glyph-name="ij" unicode="&#x133;" horiz-adv-x="579" 
d="M67 539h155v-539h-155v539zM65 728h159v-108h-159v108zM336.5 -60.5c13.667 7.66699 20.498 22.167 20.498 43.5v556h155v-593c0 -37.333 -6.83301 -66.5 -20.5 -87.5s-35.667 -36 -66 -45s-72.166 -13.5 -125.499 -13.5c-18.667 0 -37.167 0.5 -55.5 1.5
s-34.166 2.5 -47.499 4.5v126c10.667 -1.33301 23 -2.33301 37 -3s25.667 -1 35 -1c31.333 0 53.833 3.83301 67.5 11.5zM354.998 728h159v-108h-159v108z" />
    <glyph glyph-name="Jcircumflex" unicode="&#x134;" horiz-adv-x="860" 
d="M783 285c0 -106.667 -33.1689 -184.167 -99.502 -232.5s-158.166 -72.5 -275.499 -72.5s-208.666 24.167 -273.999 72.5s-98 125.833 -98 232.5v63h158v-63c0 -59.333 19 -103 57 -131s90.333 -42 157 -42c67.333 0 120.333 14 159 42s58 71.667 58 131v429h158v-429z
M705.998 855h-5l-67 -82h-172l140 153h203l141 -153h-172z" />
    <glyph glyph-name="jcircumflex" unicode="&#x135;" horiz-adv-x="290" 
d="M47.5 -60.5c13.667 7.66699 20.498 22.167 20.498 43.5v556h155v-593c0 -37.333 -6.83301 -66.5 -20.5 -87.5s-35.667 -36 -66 -45s-72.166 -13.5 -125.499 -13.5c-18.667 0 -37.167 0.5 -55.5 1.5s-34.166 2.5 -47.499 4.5v126c10.667 -1.33301 23 -2.33301 37 -3
s25.667 -1 35 -1c31.333 0 53.833 3.83301 67.5 11.5zM147.998 678h-5l-67 -82h-172l140 153h203l141 -153h-172z" />
    <glyph glyph-name="Kcommaaccent" unicode="&#x136;" horiz-adv-x="917" 
d="M903 0h-201l-276 366l-191 -154v-212h-158v714h158v-332l401 332h220l-308 -249zM548 -144c0 -34.667 -3.66797 -61.1699 -11.001 -79.5029s-22.166 -32.166 -44.499 -41.499s-56.5 -14 -102.5 -14v47c28.667 0.666992 47.667 5.83398 57 15.501s14 24.834 14 45.501h-72
v108h159v-81z" />
    <glyph glyph-name="kcommaaccent" unicode="&#x137;" horiz-adv-x="729" 
d="M716 0h-193l-206 242l-95 -75v-167h-155v724h155v-398l264 213h206l-261 -207zM452 -144c0 -34.667 -3.66797 -61.1699 -11.001 -79.5029s-22.166 -32.166 -44.499 -41.499s-56.5 -14 -102.5 -14v47c28.667 0.666992 47.667 5.83398 57 15.501s14 24.834 14 45.501h-72
v108h159v-81z" />
    <glyph glyph-name="kgreenlandic" unicode="&#x138;" horiz-adv-x="729" 
d="M716 0h-193l-206 242l-95 -75v-167h-155v539h155v-213l264 213h206l-261 -207z" />
    <glyph glyph-name="Lacute" unicode="&#x139;" horiz-adv-x="836" 
d="M77 0v714h158v-582h552v-132h-710zM223 773h-135l87 153h218z" />
    <glyph glyph-name="lacute" unicode="&#x13a;" horiz-adv-x="289" 
d="M67 724h155v-724h-155v724zM212 773h-135l87 153h218z" />
    <glyph glyph-name="Lcommaaccent" unicode="&#x13b;" horiz-adv-x="836" 
d="M77 0v714h158v-582h552v-132h-710zM511 -144c0 -34.667 -3.66797 -61.1699 -11.001 -79.5029s-22.166 -32.166 -44.499 -41.499s-56.5 -14 -102.5 -14v47c28.667 0.666992 47.667 5.83398 57 15.501s14 24.834 14 45.501h-72v108h159v-81z" />
    <glyph glyph-name="lcommaaccent" unicode="&#x13c;" horiz-adv-x="289" 
d="M67 724h155v-724h-155v724zM224 -144c0 -34.667 -3.66797 -61.1699 -11.001 -79.5029s-22.166 -32.166 -44.499 -41.499s-56.5 -14 -102.5 -14v47c28.667 0.666992 47.667 5.83398 57 15.501s14 24.834 14 45.501h-72v108h159v-81z" />
    <glyph glyph-name="Lcaron" unicode="&#x13d;" horiz-adv-x="836" 
d="M521 620c0 -69.333 -12.833 -118.667 -38.5 -148s-67.834 -44 -126.501 -44v56c28.667 0.666992 48.834 9.16699 60.501 25.5s17.5 42.833 17.5 79.5h-78v135h165v-104zM77 -0.000976562v714h158v-582h552v-132h-710z" />
    <glyph glyph-name="lcaron" unicode="&#x13e;" horiz-adv-x="444" 
d="M67 724h155v-724h-155v724zM442 628c0 -32.667 -4.66699 -58.499 -14 -77.499s-26.333 -33.167 -51 -42.5s-60 -14 -106 -14v46c30 0.666992 51.5 6.16699 64.5 16.5s19.5 25.166 19.5 44.499h-85v123h172v-96z" />
    <glyph glyph-name="Ldot" unicode="&#x13f;" horiz-adv-x="833" 
d="M77 0v714h158v-580h549v-134h-707zM423.5 331c-17.667 16.667 -26.5 40 -26.5 70s8.83301 53.333 26.5 70s43.5 25 77.5 25s60.167 -8.33301 78.5 -25s27.5 -40 27.5 -70s-9.16699 -53.333 -27.5 -70s-44.5 -25 -78.5 -25s-59.833 8.33301 -77.5 25z" />
    <glyph glyph-name="ldot" unicode="&#x140;" horiz-adv-x="492" 
d="M67 724h155v-724h-155v724zM291 295c-18 16.667 -27 40 -27 70s9 53.333 27 70s43.667 25 77 25c34 0 60.333 -8.33301 79 -25s28 -40 28 -70s-9.33301 -53.333 -28 -70s-45 -25 -79 -25c-33.333 0 -59 8.33301 -77 25z" />
    <glyph glyph-name="Lslash" unicode="&#x141;" horiz-adv-x="839" 
d="M789 132v-132h-709v175l-72 -38v138l72 37v402h158v-319l295 155v-138l-295 -155v-125h551z" />
    <glyph glyph-name="lslash" unicode="&#x142;" horiz-adv-x="295" 
d="M297 427l-72 -45v-382h-155v282l-72 -45v120l72 46v321h155v-222l72 46v-121z" />
    <glyph glyph-name="Nacute" unicode="&#x143;" horiz-adv-x="951" 
d="M874 714v-714h-180l-462 521h-5v-521h-150v714h185l457 -515h5v515h150zM543 773h-135l87 153h218z" />
    <glyph glyph-name="nacute" unicode="&#x144;" 
d="M219 470h5.00098c57.333 54.667 137 82 239 82c78 0 140.5 -16.167 187.5 -48.5s70.5 -81.5 70.5 -147.5v-356h-155v304c0 43.333 -13.333 74.833 -40 94.5s-66.334 29.5 -119.001 29.5c-50.667 0 -94.167 -12.5 -130.5 -37.5s-54.5 -64.167 -54.5 -117.5v-273h-155v539
h152v-69zM461.001 596h-135l87 153h218z" />
    <glyph glyph-name="Ncommaaccent" unicode="&#x145;" horiz-adv-x="951" 
d="M874 714v-714h-180l-462 521h-5v-521h-150v714h185l457 -515h5v515h150zM555 -144c0 -34.667 -3.66797 -61.1699 -11.001 -79.5029s-22.166 -32.166 -44.499 -41.499s-56.5 -14 -102.5 -14v47c28.667 0.666992 47.667 5.83398 57 15.501s14 24.834 14 45.501h-72v108h159
v-81z" />
    <glyph glyph-name="ncommaaccent" unicode="&#x146;" 
d="M219 470h5.00098c57.333 54.667 137 82 239 82c78 0 140.5 -16.167 187.5 -48.5s70.5 -81.5 70.5 -147.5v-356h-155v304c0 43.333 -13.333 74.833 -40 94.5s-66.334 29.5 -119.001 29.5c-50.667 0 -94.167 -12.5 -130.5 -37.5s-54.5 -64.167 -54.5 -117.5v-273h-155v539
h152v-69zM473.001 -144c0 -34.667 -3.66797 -61.1699 -11.001 -79.5029s-22.166 -32.166 -44.499 -41.499s-56.5 -14 -102.5 -14v47c28.667 0.666992 47.667 5.83398 57 15.501s14 24.834 14 45.501h-72v108h159v-81z" />
    <glyph glyph-name="Ncaron" unicode="&#x147;" horiz-adv-x="951" 
d="M874 714v-714h-180l-462 521h-5v-521h-150v714h185l457 -515h5v515h150zM718 926l-141 -153h-203l-140 153h172l67 -82h5l68 82h172z" />
    <glyph glyph-name="ncaron" unicode="&#x148;" 
d="M219 470h5.00098c57.333 54.667 137 82 239 82c78 0 140.5 -16.167 187.5 -48.5s70.5 -81.5 70.5 -147.5v-356h-155v304c0 43.333 -13.333 74.833 -40 94.5s-66.334 29.5 -119.001 29.5c-50.667 0 -94.167 -12.5 -130.5 -37.5s-54.5 -64.167 -54.5 -117.5v-273h-155v539
h152v-69zM636.001 749l-141 -153h-203l-140 153h172l67 -82h5l68 82h172z" />
    <glyph glyph-name="napostrophe" unicode="&#x149;" horiz-adv-x="936" 
d="M191 628c0 -32.667 -4.66699 -58.499 -14 -77.499s-26.333 -33.167 -51 -42.5s-60 -14 -106 -14v46c30 0.666992 51.5 6.16699 64.5 16.5s19.5 25.166 19.5 44.499h-85v123h172v-96zM367 470.001h5c58.667 54.667 138.334 82 239.001 82
c78.667 0 141.5 -16.167 188.5 -48.5s70.5 -81.5 70.5 -147.5v-356h-156v304c0 43.333 -13.333 74.833 -40 94.5s-66.334 29.5 -119.001 29.5c-50.667 0 -94 -12.5 -130 -37.5s-54 -64.167 -54 -117.5v-273h-156v539h152v-69z" />
    <glyph glyph-name="Eng" unicode="&#x14a;" horiz-adv-x="951" 
d="M874 714v-705.001c0 -136.667 -100.667 -205 -302 -205c-98 0 -172.667 17.333 -224 52s-77 85 -77 151c0 6 0.333008 10.333 1 13h148v-12c0 -29.333 13 -51.666 39 -66.999s63.333 -23 112 -23c46 0 82 6.66699 108 20s40.333 33 43 59l-490 518h-5v-515h-150v714h180
l462 -488h5v488h150z" />
    <glyph glyph-name="eng" unicode="&#x14b;" 
d="M650.5 503.5c47 -32.333 70.502 -81.5 70.502 -147.5v-410c0 -37.333 -6.83301 -66.5 -20.5 -87.5s-35.667 -36 -66 -45s-72.166 -13.5 -125.499 -13.5c-18.667 0 -37.334 0.5 -56.001 1.5s-34.334 2.5 -47.001 4.5v126c26.667 -2.66699 50.667 -4 72 -4
c31.333 0 53.833 3.83301 67.5 11.5s20.5 22.167 20.5 43.5v321c0 43.333 -13.333 74.833 -40 94.5s-66.334 29.5 -119.001 29.5c-50.667 0 -94.167 -12.5 -130.5 -37.5s-54.5 -64.167 -54.5 -117.5v-273h-155v539h152v-69h5c57.333 54.667 137 82 239 82
c78 0 140.5 -16.167 187.5 -48.5z" />
    <glyph glyph-name="Omacron" unicode="&#x14c;" horiz-adv-x="1000" 
d="M831 638.5c80.667 -63.667 121 -157.5 121 -281.5s-40.333 -217.833 -121 -281.5s-191 -95.5 -331 -95.5s-250.333 31.833 -331 95.5s-121 157.5 -121 281.5s40.333 217.833 121 281.5s191 95.5 331 95.5s250.333 -31.833 331 -95.5zM705 174
c48.667 41.333 73 102.333 73 183s-24.333 141.667 -73 183s-117 62 -205 62s-156.333 -20.667 -205 -62s-73 -102.333 -73 -183s24.333 -141.667 73 -183s117 -62 205 -62s156.333 20.667 205 62zM294 781v102h411v-102h-411z" />
    <glyph glyph-name="omacron" unicode="&#x14d;" horiz-adv-x="802" 
d="M667.5 482c60.333 -50 90.5 -121 90.5 -213s-30.167 -163 -90.5 -213s-149.166 -75 -266.499 -75s-206.166 25 -266.499 75s-90.5 121 -90.5 213s30.167 163 90.5 213s149.166 75 266.499 75s206.166 -25 266.499 -75zM547 143c32.667 28.667 49 70.667 49 126
s-16.333 97.5 -49 126.5s-81.334 43.5 -146.001 43.5s-113.334 -14.5 -146.001 -43.5s-49 -71.167 -49 -126.5s16.333 -97.333 49 -126s81.334 -43 146.001 -43s113.334 14.333 146.001 43zM196 619v101h411v-101h-411z" />
    <glyph glyph-name="Obreve" unicode="&#x14e;" horiz-adv-x="1000" 
d="M831 638.5c80.667 -63.667 121 -157.5 121 -281.5s-40.333 -217.833 -121 -281.5s-191 -95.5 -331 -95.5s-250.333 31.833 -331 95.5s-121 157.5 -121 281.5s40.333 217.833 121 281.5s191 95.5 331 95.5s250.333 -31.833 331 -95.5zM705 174
c48.667 41.333 73 102.333 73 183s-24.333 141.667 -73 183s-117 62 -205 62s-156.333 -20.667 -205 -62s-73 -102.333 -73 -183s24.333 -141.667 73 -183s117 -62 205 -62s156.333 20.667 205 62zM648 807c-41.333 -27.333 -91.001 -41 -149.001 -41
s-107.5 13.667 -148.5 41s-61.833 67 -62.5 119h129c4.66699 -38 32 -57 82 -57c50.667 0 78.334 19 83.001 57h129c-0.666992 -52 -21.667 -91.667 -63 -119z" />
    <glyph glyph-name="obreve" unicode="&#x14f;" horiz-adv-x="802" 
d="M667.5 482c60.333 -50 90.5 -121 90.5 -213s-30.167 -163 -90.5 -213s-149.166 -75 -266.499 -75s-206.166 25 -266.499 75s-90.5 121 -90.5 213s30.167 163 90.5 213s149.166 75 266.499 75s206.166 -25 266.499 -75zM547 143c32.667 28.667 49 70.667 49 126
s-16.333 97.5 -49 126.5s-81.334 43.5 -146.001 43.5s-113.334 -14.5 -146.001 -43.5s-49 -71.167 -49 -126.5s16.333 -97.333 49 -126s81.334 -43 146.001 -43s113.334 14.333 146.001 43zM550 630c-41.333 -27.333 -91.001 -41 -149.001 -41s-107.5 13.667 -148.5 41
s-61.833 67 -62.5 119h129c4.66699 -38 32 -57 82 -57c50.667 0 78.334 19 83.001 57h129c-0.666992 -52 -21.667 -91.667 -63 -119z" />
    <glyph glyph-name="Ohungarumlaut" unicode="&#x150;" horiz-adv-x="1000" 
d="M831 638.5c80.667 -63.667 121 -157.5 121 -281.5s-40.333 -217.833 -121 -281.5s-191 -95.5 -331 -95.5s-250.333 31.833 -331 95.5s-121 157.5 -121 281.5s40.333 217.833 121 281.5s191 95.5 331 95.5s250.333 -31.833 331 -95.5zM705 174
c48.667 41.333 73 102.333 73 183s-24.333 141.667 -73 183s-117 62 -205 62s-156.333 -20.667 -205 -62s-73 -102.333 -73 -183s24.333 -141.667 73 -183s117 -62 205 -62s156.333 20.667 205 62zM442 773h-131l72 153h186zM689 773h-131l72 153h185z" />
    <glyph glyph-name="ohungarumlaut" unicode="&#x151;" horiz-adv-x="802" 
d="M667.5 482c60.333 -50 90.5 -121 90.5 -213s-30.167 -163 -90.5 -213s-149.166 -75 -266.499 -75s-206.166 25 -266.499 75s-90.5 121 -90.5 213s30.167 163 90.5 213s149.166 75 266.499 75s206.166 -25 266.499 -75zM547 143c32.667 28.667 49 70.667 49 126
s-16.333 97.5 -49 126.5s-81.334 43.5 -146.001 43.5s-113.334 -14.5 -146.001 -43.5s-49 -71.167 -49 -126.5s16.333 -97.333 49 -126s81.334 -43 146.001 -43s113.334 14.333 146.001 43zM343 595h-131l72 153h186zM590 595h-131l72 153h185z" />
    <glyph glyph-name="OE" unicode="&#x152;" horiz-adv-x="1472" 
d="M1414 129v-128.998h-657v88h-5c-30.667 -34.667 -70.834 -61.334 -120.501 -80.001s-103.167 -28 -160.5 -28c-80.667 0 -152.834 14 -216.501 42s-114 70.333 -151 127s-55.5 126 -55.5 208s18.5 151.333 55.5 208s87.333 99 151 127s135.834 42 216.501 42
c57.333 0 110.833 -9.33301 160.5 -28s89.834 -45.334 120.501 -80.001h5v88h644v-129h-493v-154h476v-123h-476v-179h506zM683.5 177.002c49 41.333 73.5 101.333 73.5 180s-24.5 138.667 -73.5 180s-113.833 62 -194.5 62s-145.334 -20.667 -194.001 -62
s-73 -101.333 -73 -180s24.333 -138.667 73 -180s113.334 -62 194.001 -62s145.5 20.667 194.5 62z" />
    <glyph glyph-name="oe" unicode="&#x153;" horiz-adv-x="1296" 
d="M1250 232l-516.999 -0.000976562c10 -94.667 71 -142 183 -142c50 0 87.5 8.16699 112.5 24.5s39.5 34.5 43.5 54.5h174c-6 -54.667 -34.5 -99.667 -85.5 -135s-131.833 -53 -242.5 -53c-124.667 0 -213.334 36.333 -266.001 109c-27.333 -36 -63.5 -63.167 -108.5 -81.5
s-97.5 -27.5 -157.5 -27.5c-110.667 0 -195.334 25.167 -254.001 75.5s-88 121.166 -88 212.499c0 92 29.333 163 88 213s143.334 75 254.001 75c60 0 112.5 -9 157.5 -27s80.833 -45 107.5 -81c53.333 72 141 108 263 108c108.667 0 192.167 -25.167 250.5 -75.5
s87.5 -121.166 87.5 -212.499c0 -11.333 -0.666992 -23.666 -2 -36.999zM738.001 334.999h347.001c-18.667 75.333 -76.334 113 -173.001 113c-97.333 0 -155.333 -37.667 -174 -113zM524.502 143.499c31.667 29 47.5 70.833 47.5 125.5s-15.833 96.667 -47.5 126
s-77.167 44 -136.5 44c-58.667 0 -103.667 -14.5 -135 -43.5s-47 -71.167 -47 -126.5c0 -54.667 15.5 -96.5 46.5 -125.5s76.167 -43.5 135.5 -43.5s104.833 14.5 136.5 43.5z" />
    <glyph glyph-name="Racute" unicode="&#x154;" horiz-adv-x="930" 
d="M895 0h-184l-164 272h-312v-272h-158v714h545c90 0 155.5 -17.5 196.5 -52.5s61.5 -90.5 61.5 -166.5c0 -61.333 -15 -107.5 -45 -138.5s-70 -51.167 -120 -60.5v-6zM679.5 420.5c17 15 25.5 38.167 25.5 69.5s-8.5 54.5 -25.5 69.5s-43.833 22.5 -80.5 22.5h-364v-184
h364c36.667 0 63.5 7.5 80.5 22.5zM513 773h-135l87 153h218z" />
    <glyph glyph-name="racute" unicode="&#x155;" horiz-adv-x="575" 
d="M219 539l-0.00195312 -72h5c30 28.667 64.833 50.167 104.5 64.5s87.834 21.5 144.501 21.5c28 0 52.333 -2.33301 73 -7v-148c-31.333 6 -62.333 9 -93 9c-67.333 0 -122.666 -12.833 -165.999 -38.5s-65 -73.167 -65 -142.5v-226h-155v539h152zM373.998 596h-135
l87 153h218z" />
    <glyph glyph-name="Rcommaaccent" unicode="&#x156;" horiz-adv-x="930" 
d="M895 0h-184l-164 272h-312v-272h-158v714h545c90 0 155.5 -17.5 196.5 -52.5s61.5 -90.5 61.5 -166.5c0 -61.333 -15 -107.5 -45 -138.5s-70 -51.167 -120 -60.5v-6zM679.5 420.5c17 15 25.5 38.167 25.5 69.5s-8.5 54.5 -25.5 69.5s-43.833 22.5 -80.5 22.5h-364v-184
h364c36.667 0 63.5 7.5 80.5 22.5zM553 -144c0 -34.667 -3.66797 -61.1699 -11.001 -79.5029s-22.166 -32.166 -44.499 -41.499s-56.5 -14 -102.5 -14v47c28.667 0.666992 47.667 5.83398 57 15.501s14 24.834 14 45.501h-72v108h159v-81z" />
    <glyph glyph-name="rcommaaccent" unicode="&#x157;" horiz-adv-x="575" 
d="M219 539l-0.00195312 -72h5c30 28.667 64.833 50.167 104.5 64.5s87.834 21.5 144.501 21.5c28 0 52.333 -2.33301 73 -7v-148c-31.333 6 -62.333 9 -93 9c-67.333 0 -122.666 -12.833 -165.999 -38.5s-65 -73.167 -65 -142.5v-226h-155v539h152zM223.998 -144
c0 -34.667 -3.66797 -61.1699 -11.001 -79.5029s-22.166 -32.166 -44.499 -41.499s-56.5 -14 -102.5 -14v47c28.667 0.666992 47.667 5.83398 57 15.501s14 24.834 14 45.501h-72v108h159v-81z" />
    <glyph glyph-name="Rcaron" unicode="&#x158;" horiz-adv-x="930" 
d="M895 0h-184l-164 272h-312v-272h-158v714h545c90 0 155.5 -17.5 196.5 -52.5s61.5 -90.5 61.5 -166.5c0 -61.333 -15 -107.5 -45 -138.5s-70 -51.167 -120 -60.5v-6zM679.5 420.5c17 15 25.5 38.167 25.5 69.5s-8.5 54.5 -25.5 69.5s-43.833 22.5 -80.5 22.5h-364v-184
h364c36.667 0 63.5 7.5 80.5 22.5zM688 926l-141 -153h-203l-140 153h172l67 -82h5l68 82h172z" />
    <glyph glyph-name="rcaron" unicode="&#x159;" horiz-adv-x="575" 
d="M219 539l-0.00195312 -72h5c30 28.667 64.833 50.167 104.5 64.5s87.834 21.5 144.501 21.5c28 0 52.333 -2.33301 73 -7v-148c-31.333 6 -62.333 9 -93 9c-67.333 0 -122.666 -12.833 -165.999 -38.5s-65 -73.167 -65 -142.5v-226h-155v539h152zM548.998 749l-141 -153
h-203l-140 153h172l67 -82h5l68 82h172z" />
    <glyph glyph-name="Sacute" unicode="&#x15a;" horiz-adv-x="884" 
d="M578.5 589c-37 17.333 -89.499 26.001 -157.499 26.001c-127.333 0 -191 -30.667 -191 -92c0 -24.667 8.66699 -42.334 26 -53.001s45.333 -18 84 -22l270 -24c74.667 -6.66699 131.667 -26.167 171 -58.5s59 -82.833 59 -151.5
c0 -85.333 -34.333 -145.666 -103 -180.999s-170 -53 -304 -53c-130 0 -229.333 19.167 -298 57.5s-104.334 105.833 -107.001 202.5h177c4 -53.333 25.5 -89.833 64.5 -109.5s95.5 -29.5 169.5 -29.5c146 0 219 34 219 102c0 29.333 -9.16699 50.333 -27.5 63
s-45.166 20.667 -80.499 24l-269 27c-75.333 7.33301 -132.5 26 -171.5 56s-58.5 76.667 -58.5 140c0 147.333 124.667 221 374 221c121.333 0 216.166 -18 284.499 -54s103.833 -96.667 106.5 -182h-177c-3.33301 43.333 -23.5 73.666 -60.5 90.999zM493.001 773.001h-135
l87 153h218z" />
    <glyph glyph-name="sacute" unicode="&#x15b;" horiz-adv-x="748" 
d="M472 436c-27.333 11.333 -67.3359 17 -120.003 17c-50 0 -86 -4.83301 -108 -14.5s-33 -23.834 -33 -42.501c0 -15.333 5.83301 -26.5 17.5 -33.5s31.167 -11.5 58.5 -13.5l236 -21c59.333 -5.33301 104.666 -20.166 135.999 -44.499s47 -64.5 47 -120.5
c0 -47.333 -12.833 -84.333 -38.5 -111s-62.667 -45.167 -111 -55.5s-110.166 -15.5 -185.499 -15.5c-73.333 0 -134.5 5.33301 -183.5 16s-87.667 30.5 -116 59.5s-43.166 69.833 -44.499 122.5h168c4 -34.667 20.667 -58.667 50 -72s73.333 -20 132 -20
c56 0 96.667 5.5 122 16.5s38 27.833 38 50.5c0 18 -5.83301 30.833 -17.5 38.5s-31.167 12.834 -58.5 15.501l-225 23c-61.333 6 -108.166 20.667 -140.499 44s-48.5 61 -48.5 113c0 62.667 26 106.5 78 131.5s128.667 37.5 230 37.5c103.333 0 183.5 -13.333 240.5 -40
s86.833 -73.334 89.5 -140.001h-167c-3.33301 28 -18.666 47.667 -45.999 59zM421.997 596h-135l87 153h218z" />
    <glyph glyph-name="Scircumflex" unicode="&#x15c;" horiz-adv-x="884" 
d="M578.5 589c-37 17.333 -89.499 26.001 -157.499 26.001c-127.333 0 -191 -30.667 -191 -92c0 -24.667 8.66699 -42.334 26 -53.001s45.333 -18 84 -22l270 -24c74.667 -6.66699 131.667 -26.167 171 -58.5s59 -82.833 59 -151.5
c0 -85.333 -34.333 -145.666 -103 -180.999s-170 -53 -304 -53c-130 0 -229.333 19.167 -298 57.5s-104.334 105.833 -107.001 202.5h177c4 -53.333 25.5 -89.833 64.5 -109.5s95.5 -29.5 169.5 -29.5c146 0 219 34 219 102c0 29.333 -9.16699 50.333 -27.5 63
s-45.166 20.667 -80.499 24l-269 27c-75.333 7.33301 -132.5 26 -171.5 56s-58.5 76.667 -58.5 140c0 147.333 124.667 221 374 221c121.333 0 216.166 -18 284.499 -54s103.833 -96.667 106.5 -182h-177c-3.33301 43.333 -23.5 73.666 -60.5 90.999zM428.001 855.001h-5
l-67 -82h-172l140 153h203l141 -153h-172z" />
    <glyph glyph-name="scircumflex" unicode="&#x15d;" horiz-adv-x="748" 
d="M472 436c-27.333 11.333 -67.3359 17 -120.003 17c-50 0 -86 -4.83301 -108 -14.5s-33 -23.834 -33 -42.501c0 -15.333 5.83301 -26.5 17.5 -33.5s31.167 -11.5 58.5 -13.5l236 -21c59.333 -5.33301 104.666 -20.166 135.999 -44.499s47 -64.5 47 -120.5
c0 -47.333 -12.833 -84.333 -38.5 -111s-62.667 -45.167 -111 -55.5s-110.166 -15.5 -185.499 -15.5c-73.333 0 -134.5 5.33301 -183.5 16s-87.667 30.5 -116 59.5s-43.166 69.833 -44.499 122.5h168c4 -34.667 20.667 -58.667 50 -72s73.333 -20 132 -20
c56 0 96.667 5.5 122 16.5s38 27.833 38 50.5c0 18 -5.83301 30.833 -17.5 38.5s-31.167 12.834 -58.5 15.501l-225 23c-61.333 6 -108.166 20.667 -140.499 44s-48.5 61 -48.5 113c0 62.667 26 106.5 78 131.5s128.667 37.5 230 37.5c103.333 0 183.5 -13.333 240.5 -40
s86.833 -73.334 89.5 -140.001h-167c-3.33301 28 -18.666 47.667 -45.999 59zM356.997 677h-5l-67 -82h-172l140 153h203l141 -153h-172z" />
    <glyph glyph-name="Scedilla" unicode="&#x15e;" horiz-adv-x="884" 
d="M751 41c-59.333 -36 -147.332 -56 -263.999 -60l-19 -25c10 2 23 3 39 3c36.667 0 67.5 -7.33301 92.5 -22s37.5 -39 37.5 -73c0 -36 -16 -61.833 -48 -77.5s-78.667 -23.5 -140 -23.5c-51.333 0 -96 5 -134 15v73h5c41.333 -13.333 82 -20 122 -20
c20 0 35.167 2.5 45.5 7.5s15.5 13.5 15.5 25.5s-5.16699 20.5 -15.5 25.5s-25.5 7.5 -45.5 7.5c-10.667 0 -24.667 -0.833008 -42 -2.5s-29 -3.5 -35 -5.5h-5v40l39 52c-119.333 2.66699 -210.333 23.334 -273 62.001s-95.334 104.334 -98.001 197.001h177
c4 -53.333 25.5 -89.833 64.5 -109.5s95.5 -29.5 169.5 -29.5c146 0 219 34 219 102c0 29.333 -9.16699 50.333 -27.5 63s-45.166 20.667 -80.499 24l-269 27c-75.333 7.33301 -132.5 26 -171.5 56s-58.5 76.667 -58.5 140c0 147.333 124.667 221 374 221
c121.333 0 216.166 -18 284.499 -54s103.833 -96.667 106.5 -182h-177c-3.33301 43.333 -23.5 73.666 -60.5 90.999s-89.5 26 -157.5 26c-127.333 0 -191 -30.667 -191 -92c0 -24.667 8.66699 -42.334 26 -53.001s45.333 -18 84 -22l270 -24
c74.667 -6.66699 131.667 -26.167 171 -58.5s59 -82.833 59 -151.5c0 -79.333 -29.667 -137 -89 -173z" />
    <glyph glyph-name="scedilla" unicode="&#x15f;" horiz-adv-x="748" 
d="M635.5 27c-47 -26.667 -119.168 -41.667 -216.501 -45l-19 -26c10 2 23 3 39 3c36.667 0 67.5 -7.33301 92.5 -22s37.5 -39 37.5 -73c0 -36 -16 -61.833 -48 -77.5s-78.667 -23.5 -140 -23.5c-51.333 0 -96 5 -134 15v73h5c41.333 -13.333 82 -20 122 -20
c20 0 35.167 2.5 45.5 7.5s15.5 13.5 15.5 25.5s-5.16699 20.5 -15.5 25.5s-25.5 7.5 -45.5 7.5c-10.667 0 -24.667 -0.833008 -42 -2.5s-29 -3.5 -35 -5.5h-4v40l39 53c-98 2 -172.667 17.333 -224 46s-78.333 79 -81 151h168c4 -34.667 20.667 -58.667 50 -72
s73.333 -20 132 -20c56 0 96.667 5.5 122 16.5s38 27.833 38 50.5c0 18 -5.83301 30.833 -17.5 38.5s-31.167 12.834 -58.5 15.501l-225 23c-61.333 6 -108.166 20.667 -140.499 44s-48.5 61 -48.5 113c0 62.667 26 106.5 78 131.5s128.667 37.5 230 37.5
c103.333 0 183.5 -13.333 240.5 -40s86.833 -73.334 89.5 -140.001h-167c-3.33301 28 -18.666 47.667 -45.999 59s-67.333 17 -120 17c-50 0 -86 -4.83301 -108 -14.5s-33 -23.834 -33 -42.501c0 -15.333 5.83301 -26.5 17.5 -33.5s31.167 -11.5 58.5 -13.5l236 -21
c59.333 -5.33301 104.666 -20.166 135.999 -44.499s47 -64.5 47 -120.5c0 -64 -23.5 -109.333 -70.5 -136z" />
    <glyph glyph-name="Scaron" unicode="&#x160;" horiz-adv-x="884" 
d="M578.5 589c-37 17.333 -89.499 26.001 -157.499 26.001c-127.333 0 -191 -30.667 -191 -92c0 -24.667 8.66699 -42.334 26 -53.001s45.333 -18 84 -22l270 -24c74.667 -6.66699 131.667 -26.167 171 -58.5s59 -82.833 59 -151.5
c0 -85.333 -34.333 -145.666 -103 -180.999s-170 -53 -304 -53c-130 0 -229.333 19.167 -298 57.5s-104.334 105.833 -107.001 202.5h177c4 -53.333 25.5 -89.833 64.5 -109.5s95.5 -29.5 169.5 -29.5c146 0 219 34 219 102c0 29.333 -9.16699 50.333 -27.5 63
s-45.166 20.667 -80.499 24l-269 27c-75.333 7.33301 -132.5 26 -171.5 56s-58.5 76.667 -58.5 140c0 147.333 124.667 221 374 221c121.333 0 216.166 -18 284.499 -54s103.833 -96.667 106.5 -182h-177c-3.33301 43.333 -23.5 73.666 -60.5 90.999zM668.001 926.001
l-141 -153h-203l-140 153h172l67 -82h5l68 82h172z" />
    <glyph glyph-name="scaron" unicode="&#x161;" horiz-adv-x="748" 
d="M472 436c-27.333 11.333 -67.3359 17 -120.003 17c-50 0 -86 -4.83301 -108 -14.5s-33 -23.834 -33 -42.501c0 -15.333 5.83301 -26.5 17.5 -33.5s31.167 -11.5 58.5 -13.5l236 -21c59.333 -5.33301 104.666 -20.166 135.999 -44.499s47 -64.5 47 -120.5
c0 -47.333 -12.833 -84.333 -38.5 -111s-62.667 -45.167 -111 -55.5s-110.166 -15.5 -185.499 -15.5c-73.333 0 -134.5 5.33301 -183.5 16s-87.667 30.5 -116 59.5s-43.166 69.833 -44.499 122.5h168c4 -34.667 20.667 -58.667 50 -72s73.333 -20 132 -20
c56 0 96.667 5.5 122 16.5s38 27.833 38 50.5c0 18 -5.83301 30.833 -17.5 38.5s-31.167 12.834 -58.5 15.501l-225 23c-61.333 6 -108.166 20.667 -140.499 44s-48.5 61 -48.5 113c0 62.667 26 106.5 78 131.5s128.667 37.5 230 37.5c103.333 0 183.5 -13.333 240.5 -40
s86.833 -73.334 89.5 -140.001h-167c-3.33301 28 -18.666 47.667 -45.999 59zM596.997 749l-141 -153h-203l-140 153h172l67 -82h5l68 82h172z" />
    <glyph glyph-name="uni0162" unicode="&#x162;" horiz-adv-x="874" 
d="M487 0l-33 -44c10 2 23.333 3 40 3c36 0 66.5 -7.33301 91.5 -22s37.5 -39 37.5 -73c0 -36 -15.833 -61.833 -47.5 -77.5s-78.167 -23.5 -139.5 -23.5c-52 0 -96.667 5 -134 15v73h4c42 -13.333 82.667 -20 122 -20c20 0 35.333 2.5 46 7.5s16 13.5 16 25.5
c0 22 -20.667 33 -62 33c-10.667 0 -24.5 -0.833008 -41.5 -2.5s-28.5 -3.5 -34.5 -5.5h-5v40l53 71h-42v581h-322v133h803v-133h-323v-581h-29z" />
    <glyph glyph-name="uni0163" unicode="&#x163;" horiz-adv-x="501" 
d="M436.5 -63c25 -14.667 37.5 -38.998 37.5 -72.998c0 -36 -15.833 -61.833 -47.5 -77.5s-78.167 -23.5 -139.5 -23.5c-52 0 -96.667 5 -134 15v73h5c41.333 -13.333 81.666 -20 120.999 -20c20 0 35.333 2.5 46 7.5s16 13.5 16 25.5c0 22 -20.667 33 -62 33
c-10.667 0 -24.5 -0.833008 -41.5 -2.5s-28.5 -3.5 -34.5 -5.5h-5v40l50 68c-44.667 8 -76 23.667 -94 47s-27 57.666 -27 102.999v290h-110v102h110v148h155v-148h176v-102h-176v-264c0 -20.667 6 -35 18 -43s31.667 -12 59 -12c40.667 0 73 2.33301 97 7v-125
c-13.333 -2.66699 -31.166 -4.83398 -53.499 -6.50098s-43.5 -2.5 -63.5 -2.5h-8l-26 -35c10 2 23.333 3 40 3c36 0 66.5 -7.33301 91.5 -22z" />
    <glyph glyph-name="Tcaron" unicode="&#x164;" horiz-adv-x="874" 
d="M839 581h-323v-581h-158v581h-322v133h803v-133zM679 926l-141 -153h-203l-140 153h172l67 -82h5l68 82h172z" />
    <glyph glyph-name="tcaron" unicode="&#x165;" horiz-adv-x="499" 
d="M502 715c0 -32 -4.66797 -57.166 -14.001 -75.499s-26.166 -31.833 -50.499 -40.5s-59.833 -13 -106.5 -13v41c30 0.666992 51.667 6.16699 65 16.5s20 25.166 20 44.499h-85v108h171v-81zM455.999 125.001l-0.000976562 -124.998
c-13.333 -2.66699 -31.166 -4.83398 -53.499 -6.50098s-43.5 -2.5 -63.5 -2.5c-54.667 0 -97.167 5 -127.5 15s-52 26.167 -65 48.5s-19.5 53.166 -19.5 92.499v290h-110v102h110v148h155v-148h176v-102h-176v-264c0 -20.667 6 -35 18 -43s31.667 -12 59 -12
c40.667 0 73 2.33301 97 7z" />
    <glyph glyph-name="Tbar" unicode="&#x166;" horiz-adv-x="874" 
d="M516 581v-193h150v-110h-150v-278h-158v278h-149v110h149v193h-322v133h803v-133h-323z" />
    <glyph glyph-name="tbar" unicode="&#x167;" horiz-adv-x="498" 
d="M282 437l-0.000976562 -76.998h176v-86h-176v-101c0 -20.667 6 -35 18 -43s31.667 -12 59 -12c40.667 0 73 2.33301 97 7v-125c-13.333 -2.66699 -31.166 -4.83398 -53.499 -6.50098s-43.5 -2.5 -63.5 -2.5c-54.667 0 -97.167 5 -127.5 15s-52 26.167 -65 48.5
s-19.5 53.166 -19.5 92.499v127h-110v86h110v77h-110v102h110v148h155v-148h176v-102h-176z" />
    <glyph glyph-name="Utilde" unicode="&#x168;" horiz-adv-x="948" 
d="M871 714v-430c0 -106 -35 -183.167 -105 -231.5s-167.333 -72.5 -292 -72.5s-222 24.167 -292 72.5s-105 125.5 -105 231.5v430h158v-426c0 -61.333 21 -106.166 63 -134.499s100.667 -42.5 176 -42.5s134 14.167 176 42.5s63 73.166 63 134.499v426h158zM522 767.5
c-18 5.66699 -38.668 13.834 -62.001 24.501c-18 8 -32.5 13.833 -43.5 17.5s-20.833 5.5 -29.5 5.5c-11.333 0 -19.166 -3.33301 -23.499 -10s-6.5 -18.667 -6.5 -36h-114c0 53.333 13 92.666 39 117.999s56.333 38 91 38c16 0 32.333 -2.66699 49 -8
s38.334 -13.666 65.001 -24.999c18 -8 32.5 -13.833 43.5 -17.5s20.833 -5.5 29.5 -5.5c11.333 0 19.166 3.16699 23.499 9.5s6.5 18.166 6.5 35.499h114c0 -53.333 -13 -92.5 -39 -117.5s-56.333 -37.5 -91 -37.5c-16.667 0 -34 2.83301 -52 8.5z" />
    <glyph glyph-name="utilde" unicode="&#x169;" 
d="M569 69h-5.00098c-57.333 -54.667 -137 -82 -239 -82c-78 0 -140.5 16.167 -187.5 48.5s-70.5 81.5 -70.5 147.5v356h155v-304c0 -43.333 13.333 -74.833 40 -94.5s66.334 -29.5 119.001 -29.5c50.667 0 94.167 12.5 130.5 37.5s54.5 63.833 54.5 116.5v274h155v-539
h-152v69zM444.999 589c-16 5.33301 -37.667 13.667 -65 25c-18 8 -32.5 13.833 -43.5 17.5s-20.833 5.5 -29.5 5.5c-11.333 0 -19.166 -3.16699 -23.499 -9.5s-6.5 -18.166 -6.5 -35.499h-114c0 53.333 12.833 92.5 38.5 117.5s56.167 37.5 91.5 37.5c16.667 0 34 -3 52 -9
s38.667 -14 62 -24c18 -8 32.5 -13.833 43.5 -17.5s20.833 -5.5 29.5 -5.5c11.333 0 19.166 3.16699 23.499 9.5s6.5 18.166 6.5 35.499h114c0 -53.333 -13 -92.5 -39 -117.5s-56.333 -37.5 -91 -37.5c-16.667 0 -33 2.66699 -49 8z" />
    <glyph glyph-name="Umacron" unicode="&#x16a;" horiz-adv-x="948" 
d="M871 714v-430c0 -106 -35 -183.167 -105 -231.5s-167.333 -72.5 -292 -72.5s-222 24.167 -292 72.5s-105 125.5 -105 231.5v430h158v-426c0 -61.333 21 -106.166 63 -134.499s100.667 -42.5 176 -42.5s134 14.167 176 42.5s63 73.166 63 134.499v426h158zM268 781v102
h411v-102h-411z" />
    <glyph glyph-name="umacron" unicode="&#x16b;" 
d="M569 69h-5.00098c-57.333 -54.667 -137 -82 -239 -82c-78 0 -140.5 16.167 -187.5 48.5s-70.5 81.5 -70.5 147.5v356h155v-304c0 -43.333 13.333 -74.833 40 -94.5s66.334 -29.5 119.001 -29.5c50.667 0 94.167 12.5 130.5 37.5s54.5 63.833 54.5 116.5v274h155v-539
h-152v69zM187.999 619v101h411v-101h-411z" />
    <glyph glyph-name="Ubreve" unicode="&#x16c;" horiz-adv-x="948" 
d="M871 714v-430c0 -106 -35 -183.167 -105 -231.5s-167.333 -72.5 -292 -72.5s-222 24.167 -292 72.5s-105 125.5 -105 231.5v430h158v-426c0 -61.333 21 -106.166 63 -134.499s100.667 -42.5 176 -42.5s134 14.167 176 42.5s63 73.166 63 134.499v426h158zM623 807
c-41.333 -27.333 -91.001 -41 -149.001 -41s-107.5 13.667 -148.5 41s-61.833 67 -62.5 119h129c4.66699 -38 32 -57 82 -57c50.667 0 78.334 19 83.001 57h129c-0.666992 -52 -21.667 -91.667 -63 -119z" />
    <glyph glyph-name="ubreve" unicode="&#x16d;" 
d="M569 69h-5.00098c-57.333 -54.667 -137 -82 -239 -82c-78 0 -140.5 16.167 -187.5 48.5s-70.5 81.5 -70.5 147.5v356h155v-304c0 -43.333 13.333 -74.833 40 -94.5s66.334 -29.5 119.001 -29.5c50.667 0 94.167 12.5 130.5 37.5s54.5 63.833 54.5 116.5v274h155v-539
h-152v69zM544.999 629.5c-40 -27 -90.332 -40.5 -150.999 -40.5s-110.834 13.5 -150.501 40.5s-59.834 66.833 -60.501 119.5h129c4.66699 -38 32 -57 82 -57c50.667 0 78.334 19 83.001 57h129c-0.666992 -52.667 -21 -92.5 -61 -119.5z" />
    <glyph glyph-name="Uring" unicode="&#x16e;" horiz-adv-x="948" 
d="M871 714v-430c0 -106 -35 -183.167 -105 -231.5s-167.333 -72.5 -292 -72.5s-222 24.167 -292 72.5s-105 125.5 -105 231.5v430h158v-426c0 -61.333 21 -106.166 63 -134.499s100.667 -42.5 176 -42.5s134 14.167 176 42.5s63 73.166 63 134.499v426h158zM364.5 780.5
c-29.667 23 -44.5 53.167 -44.5 90.5c0 38 14.833 68.5 44.5 91.5s66.5 34.5 110.5 34.5s80.833 -11.5 110.5 -34.5s44.5 -53.5 44.5 -91.5c0 -37.333 -14.833 -67.5 -44.5 -90.5s-66.5 -34.5 -110.5 -34.5s-80.833 11.5 -110.5 34.5zM515.5 836
c11 8.66699 16.5 20.334 16.5 35.001s-5.5 26.5 -16.5 35.5s-24.5 13.5 -40.5 13.5s-29.5 -4.5 -40.5 -13.5s-16.5 -20.833 -16.5 -35.5s5.5 -26.334 16.5 -35.001s24.5 -13 40.5 -13s29.5 4.33301 40.5 13z" />
    <glyph glyph-name="uring" unicode="&#x16f;" 
d="M569 69h-5.00098c-57.333 -54.667 -137 -82 -239 -82c-78 0 -140.5 16.167 -187.5 48.5s-70.5 81.5 -70.5 147.5v356h155v-304c0 -43.333 13.333 -74.833 40 -94.5s66.334 -29.5 119.001 -29.5c50.667 0 94.167 12.5 130.5 37.5s54.5 63.833 54.5 116.5v274h155v-539
h-152v69zM284.499 622.5c-29.667 23 -44.5 53.5 -44.5 91.5c0 37.333 14.833 67.5 44.5 90.5s66.5 34.5 110.5 34.5s80.833 -11.5 110.5 -34.5s44.5 -53.167 44.5 -90.5c0 -38 -14.833 -68.5 -44.5 -91.5s-66.5 -34.5 -110.5 -34.5s-80.833 11.5 -110.5 34.5zM435.499 678.5
c11 9 16.5 20.833 16.5 35.5s-5.5 26.334 -16.5 35.001s-24.5 13 -40.5 13s-29.5 -4.33301 -40.5 -13s-16.5 -20.334 -16.5 -35.001s5.5 -26.5 16.5 -35.5s24.5 -13.5 40.5 -13.5s29.5 4.5 40.5 13.5z" />
    <glyph glyph-name="Uhungarumlaut" unicode="&#x170;" horiz-adv-x="948" 
d="M871 714v-430c0 -106 -35 -183.167 -105 -231.5s-167.333 -72.5 -292 -72.5s-222 24.167 -292 72.5s-105 125.5 -105 231.5v430h158v-426c0 -61.333 21 -106.166 63 -134.499s100.667 -42.5 176 -42.5s134 14.167 176 42.5s63 73.166 63 134.499v426h158zM416 773h-131
l72 153h186zM663 773h-131l72 153h185z" />
    <glyph glyph-name="uhungarumlaut" unicode="&#x171;" 
d="M569 69h-5.00098c-57.333 -54.667 -137 -82 -239 -82c-78 0 -140.5 16.167 -187.5 48.5s-70.5 81.5 -70.5 147.5v356h155v-304c0 -43.333 13.333 -74.833 40 -94.5s66.334 -29.5 119.001 -29.5c50.667 0 94.167 12.5 130.5 37.5s54.5 63.833 54.5 116.5v274h155v-539
h-152v69zM335.999 595h-131l72 153h186zM582.999 595h-131l72 153h185z" />
    <glyph glyph-name="Uogonek" unicode="&#x172;" horiz-adv-x="948" 
d="M871 714l-0.000976562 -430c0 -146 -69.667 -239.333 -209 -280c-47.333 -14 -80.833 -31.167 -100.5 -51.5s-29.5 -40.5 -29.5 -60.5c0 -12.667 5.66699 -22 17 -28s25.333 -9 42 -9c22 0 43 2.66699 63 8v-86c-23.333 -5.33301 -53.666 -8 -90.999 -8
c-60 0 -105.5 8.5 -136.5 25.5s-46.5 42.167 -46.5 75.5c0 17.333 7 36.333 21 57s34.333 38.667 61 54c-124.667 1.33301 -220 27 -286 77s-99 125.333 -99 226v430h158v-426c0 -61.333 21 -106.166 63 -134.499s100.667 -42.5 176 -42.5s134 14.167 176 42.5
s63 73.166 63 134.499v426h158z" />
    <glyph glyph-name="uogonek" unicode="&#x173;" 
d="M569 69h-5.00098c-57.333 -54.667 -137 -82 -239 -82c-78 0 -140.5 16.167 -187.5 48.5s-70.5 81.5 -70.5 147.5v356h155v-304c0 -43.333 13.333 -74.833 40 -94.5s66.334 -29.5 119.001 -29.5c50.667 0 94.167 12.5 130.5 37.5s54.5 63.833 54.5 116.5v274h155v-539
h-152v69zM720.999 -137v-86.001c-24 -5.33301 -54.667 -8 -92 -8c-60 0 -105.333 8.66699 -136 26s-46 43 -46 77c0 17.333 6.83301 35.666 20.5 54.999s34.167 36.833 61.5 52.5s60 26.5 98 32.5l94 -12c-81.333 -27.333 -122 -62.666 -122 -105.999
c0 -13.333 5.66699 -23.166 17 -29.499s25.333 -9.5 42 -9.5c22 0 43 2.66699 63 8z" />
    <glyph glyph-name="Wcircumflex" unicode="&#x174;" horiz-adv-x="1191" 
d="M756 0l-158 520h-5l-159 -520h-189l-231 714h172l157 -526h4l161 526h177l161 -526h5l156 526h170l-232 -714h-189zM599 855h-5l-67 -82h-172l140 153h203l141 -153h-172z" />
    <glyph glyph-name="wcircumflex" unicode="&#x175;" horiz-adv-x="1139" 
d="M887 0h-166l-146 373h-5l-146 -373h-167l-237 539h171l151 -373h4l145 370h161l147 -371h5l144 374h171zM574 678h-5l-67 -82h-172l140 153h203l141 -153h-172z" />
    <glyph glyph-name="Ycircumflex" unicode="&#x176;" horiz-adv-x="887" 
d="M523 258v-258h-158v256l-358 458h194l243 -321l246 321h189zM448 855h-5l-67 -82h-172l140 153h203l141 -153h-172z" />
    <glyph glyph-name="ycircumflex" unicode="&#x177;" horiz-adv-x="762" 
d="M449 -37c-22 -42.667 -44.833 -75.668 -68.5 -99.001s-51 -39.666 -82 -48.999s-70.167 -14 -117.5 -14c-54 0 -91.333 1 -112 3v130c28 -3.33301 60 -5 96 -5c26.667 0 48.5 3.5 65.5 10.5s30.5 19.833 40.5 38.5l18 36l-273 525h176l186 -382h5l187 382h176z
M383 677.999h-5l-67 -82h-172l140 153h203l141 -153h-172z" />
    <glyph glyph-name="Ydieresis" unicode="&#x178;" horiz-adv-x="887" 
d="M523 258v-258h-158v256l-358 458h194l243 -321l246 321h189zM239 887h152v-108h-152v108zM500 887h153v-108h-153v108z" />
    <glyph glyph-name="Zacute" unicode="&#x179;" horiz-adv-x="867" 
d="M294 133h515v-133h-756v125l513 456h-484v133h725v-125zM512 773h-135l87 153h218z" />
    <glyph glyph-name="zacute" unicode="&#x17a;" horiz-adv-x="719" 
d="M36 0v120l394 304h-372v115h613v-119l-394 -305h394v-115h-635zM432 596h-135l87 153h218z" />
    <glyph glyph-name="Zdotaccent" unicode="&#x17b;" horiz-adv-x="867" 
d="M294 133h515v-133h-756v125l513 456h-484v133h725v-125zM365 887h159v-108h-159v108z" />
    <glyph glyph-name="zdotaccent" unicode="&#x17c;" horiz-adv-x="719" 
d="M36 0v120l394 304h-372v115h613v-119l-394 -305h394v-115h-635zM285 728h159v-108h-159v108z" />
    <glyph glyph-name="Zcaron" unicode="&#x17d;" horiz-adv-x="867" 
d="M294 133h515v-133h-756v125l513 456h-484v133h725v-125zM687 926l-141 -153h-203l-140 153h172l67 -82h5l68 82h172z" />
    <glyph glyph-name="zcaron" unicode="&#x17e;" horiz-adv-x="719" 
d="M36 0v120l394 304h-372v115h613v-119l-394 -305h394v-115h-635zM607 749l-141 -153h-203l-140 153h172l67 -82h5l68 82h172z" />
    <glyph glyph-name="florin" unicode="&#x192;" horiz-adv-x="566" 
d="M435.5 620.5c-17.667 -9.66699 -29.502 -29.501 -35.502 -59.501l-20 -99h140v-102h-160l-40 -209c-8.66699 -44.667 -24 -79.5 -46 -104.5s-49.833 -42.167 -83.5 -51.5s-75.167 -14 -124.5 -14c-21.333 0 -41.333 1.33301 -60 4v112c21.333 -3.33301 39 -5 53 -5
c29.333 0 53 4.83301 71 14.5s30 29.834 36 60.501l38 193h-110v102h130l22 115c8.66699 44.667 23.834 79.5 45.501 104.5s49.334 42.167 83.001 51.5s75.167 14 124.5 14c22 0 42.333 -1.33301 61 -4v-112c-18.667 2.66699 -36.667 4 -54 4
c-29.333 0 -52.833 -4.83301 -70.5 -14.5z" />
    <glyph glyph-name="Oslashacute" unicode="&#x1fe;" horiz-adv-x="1000" 
d="M952 357c0 -124 -40.334 -217.833 -121.001 -281.5s-191 -95.5 -331 -95.5c-116 0 -212 22 -288 66l-96 -86l-65 52l95 85c-65.333 63.333 -98 150 -98 260c0 124 40.333 217.833 121 281.5s191 95.5 331 95.5c116.667 0 212.334 -22 287.001 -66l97 86l65 -52l-95 -85
c65.333 -63.333 98 -150 98 -260zM294.999 540c-48.667 -41.333 -73 -102.333 -73 -183c0 -61.333 15 -112.333 45 -153l403 360c-44 25.333 -100.667 38 -170 38c-88 0 -156.333 -20.667 -205 -62zM704.999 174c48.667 41.333 73 102.333 73 183
c0 61.333 -15 112.333 -45 153l-403 -360c44 -25.333 100.667 -38 170 -38c88 0 156.333 20.667 205 62zM580.072 773h-160.519l103.445 153h259.208z" />
    <glyph glyph-name="oslashacute" unicode="&#x1ff;" horiz-adv-x="802" 
d="M758 269c0 -92 -30.166 -163 -90.499 -213s-149.166 -75 -266.499 -75c-96.667 0 -175 17.667 -235 53l-64 -53l-54 40l66 54c-46.667 47.333 -70 112 -70 194c0 92 30.167 163 90.5 213s149.166 75 266.499 75c97.333 0 175.666 -17.333 234.999 -52l64 52l54 -39
l-66 -54c46.667 -47.333 70 -112.333 70 -195zM255.001 395.5c-32.667 -29 -48.998 -71.167 -48.998 -126.5c0 -38 8.33301 -70.667 25 -98l292 242c-30.667 17.333 -71.334 26 -122.001 26c-64.667 0 -113.334 -14.5 -146.001 -43.5zM547.003 143
c32.667 28.667 48.998 70.667 48.998 126c0 38.667 -8.33301 71.667 -25 99l-292 -242c30.667 -17.333 71.334 -26 122.001 -26c64.667 0 113.334 14.333 146.001 43zM468.001 596h-135l87 153h218z" />
    <glyph glyph-name="Scommaaccent" unicode="&#x218;" horiz-adv-x="884" 
d="M578.5 589c-37 17.333 -89.499 26.001 -157.499 26.001c-127.333 0 -191 -30.667 -191 -92c0 -24.667 8.66699 -42.334 26 -53.001s45.333 -18 84 -22l270 -24c74.667 -6.66699 131.667 -26.167 171 -58.5s59 -82.833 59 -151.5
c0 -85.333 -34.333 -145.666 -103 -180.999s-170 -53 -304 -53c-130 0 -229.333 19.167 -298 57.5s-104.334 105.833 -107.001 202.5h177c4 -53.333 25.5 -89.833 64.5 -109.5s95.5 -29.5 169.5 -29.5c146 0 219 34 219 102c0 29.333 -9.16699 50.333 -27.5 63
s-45.166 20.667 -80.499 24l-269 27c-75.333 7.33301 -132.5 26 -171.5 56s-58.5 76.667 -58.5 140c0 147.333 124.667 221 374 221c121.333 0 216.166 -18 284.499 -54s103.833 -96.667 106.5 -182h-177c-3.33301 43.333 -23.5 73.666 -60.5 90.999zM489.001 -143.999
c0 -34.667 -3.66797 -61.1699 -11.001 -79.5029s-22.166 -32.166 -44.499 -41.499s-56.5 -14 -102.5 -14v47c28.667 0.666992 47.667 5.83398 57 15.501s14 24.834 14 45.501h-72v108h159v-81z" />
    <glyph glyph-name="scommaaccent" unicode="&#x219;" horiz-adv-x="748" 
d="M472 436c-27.333 11.333 -67.3359 17 -120.003 17c-50 0 -86 -4.83301 -108 -14.5s-33 -23.834 -33 -42.501c0 -15.333 5.83301 -26.5 17.5 -33.5s31.167 -11.5 58.5 -13.5l236 -21c59.333 -5.33301 104.666 -20.166 135.999 -44.499s47 -64.5 47 -120.5
c0 -47.333 -12.833 -84.333 -38.5 -111s-62.667 -45.167 -111 -55.5s-110.166 -15.5 -185.499 -15.5c-73.333 0 -134.5 5.33301 -183.5 16s-87.667 30.5 -116 59.5s-43.166 69.833 -44.499 122.5h168c4 -34.667 20.667 -58.667 50 -72s73.333 -20 132 -20
c56 0 96.667 5.5 122 16.5s38 27.833 38 50.5c0 18 -5.83301 30.833 -17.5 38.5s-31.167 12.834 -58.5 15.501l-225 23c-61.333 6 -108.166 20.667 -140.499 44s-48.5 61 -48.5 113c0 62.667 26 106.5 78 131.5s128.667 37.5 230 37.5c103.333 0 183.5 -13.333 240.5 -40
s86.833 -73.334 89.5 -140.001h-167c-3.33301 28 -18.666 47.667 -45.999 59zM449.997 -144c0 -34.667 -3.66797 -61.1699 -11.001 -79.5029s-22.166 -32.166 -44.499 -41.499s-56.5 -14 -102.5 -14v47c28.667 0.666992 47.667 5.83398 57 15.501s14 24.834 14 45.501h-72
v108h159v-81z" />
    <glyph glyph-name="uni021A" unicode="&#x21a;" horiz-adv-x="874" 
d="M839 581h-323v-581h-158v581h-322v133h803v-133zM517 -144c0 -34.667 -3.66797 -61.1699 -11.001 -79.5029s-22.166 -32.166 -44.499 -41.499s-56.5 -14 -102.5 -14v47c28.667 0.666992 47.667 5.83398 57 15.501s14 24.834 14 45.501h-72v108h159v-81z" />
    <glyph glyph-name="uni021B" unicode="&#x21b;" horiz-adv-x="498" 
d="M456 125l-0.000976562 -124.998c-13.333 -2.66699 -31.166 -4.83398 -53.499 -6.50098s-43.5 -2.5 -63.5 -2.5c-54.667 0 -97.167 5 -127.5 15s-52 26.167 -65 48.5s-19.5 53.166 -19.5 92.499v290h-110v102h110v148h155v-148h176v-102h-176v-264c0 -20.667 6 -35 18 -43
s31.667 -12 59 -12c40.667 0 73 2.33301 97 7zM341.999 -143.998c0 -34.667 -3.66797 -61.1699 -11.001 -79.5029s-22.166 -32.166 -44.499 -41.499s-56.5 -14 -102.5 -14v47c28.667 0.666992 47.667 5.83398 57 15.501s14 24.834 14 45.501h-72v108h159v-81z" />
    <glyph glyph-name="uni0237" unicode="&#x237;" horiz-adv-x="290" 
d="M47.5 -60.5c13.667 7.66699 20.498 22.167 20.498 43.5v556h155v-593c0 -37.333 -6.83301 -66.5 -20.5 -87.5s-35.667 -36 -66 -45s-72.166 -13.5 -125.499 -13.5c-18.667 0 -37.167 0.5 -55.5 1.5s-34.166 2.5 -47.499 4.5v126c10.667 -1.33301 23 -2.33301 37 -3
s25.667 -1 35 -1c31.333 0 53.833 3.83301 67.5 11.5z" />
    <glyph glyph-name="uni02BC" unicode="&#x2bc;" horiz-adv-x="319" 
d="M242 620c0 -69.333 -12.833 -118.667 -38.5 -148s-67.834 -44 -126.501 -44v56c28.667 0.666992 48.834 9.16699 60.501 25.5s17.5 42.833 17.5 79.5h-78v135h165v-104z" />
    <glyph glyph-name="circumflex" unicode="&#x2c6;" horiz-adv-x="638" 
d="M321 677h-5l-67 -82h-172l140 153h203l141 -153h-172z" />
    <glyph glyph-name="caron" unicode="&#x2c7;" horiz-adv-x="638" 
d="M561 748l-141 -153h-203l-140 153h172l67 -82h5l68 82h172z" />
    <glyph glyph-name="breve" unicode="&#x2d8;" horiz-adv-x="577" 
d="M439 628.5c-40 -27 -90.332 -40.5 -150.999 -40.5s-110.834 13.5 -150.501 40.5s-59.834 66.833 -60.501 119.5h129c4.66699 -38 32 -57 82 -57c50.667 0 78.334 19 83.001 57h129c-0.666992 -52.667 -21 -92.5 -61 -119.5z" />
    <glyph glyph-name="dotaccent" unicode="&#x2d9;" horiz-adv-x="313" 
d="M77 728h159v-108h-159v108z" />
    <glyph glyph-name="ring" unicode="&#x2da;" horiz-adv-x="463" 
d="M121.5 622.5c-29.667 23 -44.5 53.5 -44.5 91.5c0 37.333 14.833 67.5 44.5 90.5s66.5 34.5 110.5 34.5s80.833 -11.5 110.5 -34.5s44.5 -53.167 44.5 -90.5c0 -38 -14.833 -68.5 -44.5 -91.5s-66.5 -34.5 -110.5 -34.5s-80.833 11.5 -110.5 34.5zM272.5 678.5
c11 9 16.5 20.833 16.5 35.5s-5.5 26.334 -16.5 35.001s-24.5 13 -40.5 13s-29.5 -4.33301 -40.5 -13s-16.5 -20.334 -16.5 -35.001s5.5 -26.5 16.5 -35.5s24.5 -13.5 40.5 -13.5s29.5 4.5 40.5 13.5z" />
    <glyph glyph-name="ogonek" unicode="&#x2db;" horiz-adv-x="428" 
d="M351 -137v-86.001c-24 -5.33301 -54.667 -8 -92 -8c-60 0 -105.333 8.66699 -136 26s-46 43 -46 77c0 17.333 6.83301 35.666 20.5 54.999s34.167 36.833 61.5 52.5s60 26.5 98 32.5l94 -12c-81.333 -27.333 -122 -62.666 -122 -105.999
c0 -13.333 5.66699 -23.166 17 -29.499s25.333 -9.5 42 -9.5c22 0 43 2.66699 63 8z" />
    <glyph glyph-name="tilde" unicode="&#x2dc;" horiz-adv-x="615" 
d="M359 589c-16 5.33301 -37.667 13.667 -65 25c-18 8 -32.5 13.833 -43.5 17.5s-20.833 5.5 -29.5 5.5c-11.333 0 -19.166 -3.16699 -23.499 -9.5s-6.5 -18.166 -6.5 -35.499h-114c0 53.333 12.833 92.5 38.5 117.5s56.167 37.5 91.5 37.5c16.667 0 34 -3 52 -9
s38.667 -14 62 -24c18 -8 32.5 -13.833 43.5 -17.5s20.833 -5.5 29.5 -5.5c11.333 0 19.166 3.16699 23.499 9.5s6.5 18.166 6.5 35.499h114c0 -53.333 -13 -92.5 -39 -117.5s-56.333 -37.5 -91 -37.5c-16.667 0 -33 2.66699 -49 8z" />
    <glyph glyph-name="hungarumlaut" unicode="&#x2dd;" horiz-adv-x="658" 
d="M208 595h-131l72 153h186zM455 595h-131l72 153h185z" />
    <glyph glyph-name="uni0326" unicode="&#x326;" horiz-adv-x="0" 
d="M-77 -144c0 -34.667 -3.66797 -61.1699 -11.001 -79.5029s-22.166 -32.166 -44.499 -41.499s-56.5 -14 -102.5 -14v47c28.667 0.666992 47.667 5.83398 57 15.501s14 24.834 14 45.501h-72v108h159v-81z" />
    <glyph glyph-name="Wgrave" unicode="&#x1e80;" horiz-adv-x="1191" 
d="M756 0l-158 520h-5l-159 -520h-189l-231 714h172l157 -526h4l161 526h177l161 -526h5l156 526h170l-232 -714h-189zM577 926l87 -153h-135l-170 153h218z" />
    <glyph glyph-name="wgrave" unicode="&#x1e81;" horiz-adv-x="1139" 
d="M887 0h-166l-146 373h-5l-146 -373h-167l-237 539h171l151 -373h4l145 370h161l147 -371h5l144 374h171zM552 749l87 -153h-135l-170 153h218z" />
    <glyph glyph-name="Wacute" unicode="&#x1e82;" horiz-adv-x="1191" 
d="M756 0l-158 520h-5l-159 -520h-189l-231 714h172l157 -526h4l161 526h177l161 -526h5l156 526h170l-232 -714h-189zM664 773h-135l87 153h218z" />
    <glyph glyph-name="wacute" unicode="&#x1e83;" horiz-adv-x="1139" 
d="M887 0h-166l-146 373h-5l-146 -373h-167l-237 539h171l151 -373h4l145 370h161l147 -371h5l144 374h171zM639 596h-135l87 153h218z" />
    <glyph glyph-name="Wdieresis" unicode="&#x1e84;" horiz-adv-x="1191" 
d="M756 0l-158 520h-5l-159 -520h-189l-231 714h172l157 -526h4l161 526h177l161 -526h5l156 526h170l-232 -714h-189zM390 887h152v-108h-152v108zM651 887h153v-108h-153v108z" />
    <glyph glyph-name="wdieresis" unicode="&#x1e85;" horiz-adv-x="1139" 
d="M887 0h-166l-146 373h-5l-146 -373h-167l-237 539h171l151 -373h4l145 370h161l147 -371h5l144 374h171zM365 729h152v-108h-152v108zM626 729h153v-108h-153v108z" />
    <glyph glyph-name="Ygrave" unicode="&#x1ef2;" horiz-adv-x="887" 
d="M523 258v-258h-158v256l-358 458h194l243 -321l246 321h189zM426 926l87 -153h-135l-170 153h218z" />
    <glyph glyph-name="ygrave" unicode="&#x1ef3;" horiz-adv-x="762" 
d="M449 -37c-22 -42.667 -44.833 -75.668 -68.5 -99.001s-51 -39.666 -82 -48.999s-70.167 -14 -117.5 -14c-54 0 -91.333 1 -112 3v130c28 -3.33301 60 -5 96 -5c26.667 0 48.5 3.5 65.5 10.5s30.5 19.833 40.5 38.5l18 36l-273 525h176l186 -382h5l187 382h176z
M361 748.999l87 -153h-135l-170 153h218z" />
    <glyph glyph-name="uni2007" unicode="&#x2007;" horiz-adv-x="310" 
 />
    <glyph glyph-name="uni2008" unicode="&#x2008;" horiz-adv-x="256" 
 />
    <glyph glyph-name="uni200B" unicode="&#x200b;" horiz-adv-x="0" 
 />
    <glyph glyph-name="endash" unicode="&#x2013;" horiz-adv-x="719" 
d="M52 231v113h615v-113h-615z" />
    <glyph glyph-name="emdash" unicode="&#x2014;" horiz-adv-x="934" 
d="M52 231v113h830v-113h-830z" />
    <glyph glyph-name="quoteleft" unicode="&#x2018;" horiz-adv-x="263" 
d="M45 507c0 73.333 13.667 126.001 41 158.001s71 48.333 131 49v-62c-26.667 -0.666992 -46 -9.83398 -58 -27.501s-18 -45.5 -18 -83.5h76v-141h-172v107z" />
    <glyph glyph-name="quoteright" unicode="&#x2019;" horiz-adv-x="263" 
d="M217 607c0 -73.333 -13.5 -126.001 -40.5 -158.001s-70.5 -48.333 -130.5 -49v62c26.667 0.666992 46 9.83398 58 27.501s18 45.167 18 82.5h-77v142h172v-107z" />
    <glyph glyph-name="quotesinglbase" unicode="&#x201a;" horiz-adv-x="263" 
d="M217 34c0 -73.333 -13.5 -125.833 -40.5 -157.5s-70.5 -48.167 -130.5 -49.5v62c26.667 0.666992 46 10 58 28s18 45.667 18 83h-77v142h172v-108z" />
    <glyph glyph-name="quotedblleft" unicode="&#x201c;" horiz-adv-x="515" 
d="M45 507c0 73.333 13.667 126.001 41 158.001s71 48.333 131 49v-62c-26.667 -0.666992 -46 -9.83398 -58 -27.501s-18 -45.5 -18 -83.5h76v-141h-172v107zM297 507.001c0 73.333 13.5 126.001 40.5 158.001s70.5 48.333 130.5 49v-62
c-26 -0.666992 -45 -9.83398 -57 -27.501s-18 -45.5 -18 -83.5h76v-141h-172v107z" />
    <glyph glyph-name="quotedblright" unicode="&#x201d;" horiz-adv-x="515" 
d="M217 607c0 -73.333 -13.5 -126.001 -40.5 -158.001s-70.5 -48.333 -130.5 -49v62c26.667 0.666992 46 9.83398 58 27.501s18 45.167 18 82.5h-77v142h172v-107zM469 606.999c0 -73.333 -13.5 -126.001 -40.5 -158.001s-70.5 -48.333 -130.5 -49v62
c26.667 0.666992 46 9.83398 58 27.501s18 45.167 18 82.5h-77v142h172v-107z" />
    <glyph glyph-name="quotedblbase" unicode="&#x201e;" horiz-adv-x="515" 
d="M217 34c0 -73.333 -13.5 -125.833 -40.5 -157.5s-70.5 -48.167 -130.5 -49.5v62c26.667 0.666992 46 10 58 28s18 45.667 18 83h-77v142h172v-108zM469 34c0 -73.333 -13.5 -125.833 -40.5 -157.5s-70.5 -48.167 -130.5 -49.5v62c26.667 0.666992 46 10 58 28
s18 45.667 18 83h-77v142h172v-108z" />
    <glyph glyph-name="dagger" unicode="&#x2020;" horiz-adv-x="663" 
d="M626 379h-221v-564h-147v564h-221v125h221v210h147v-210h221v-125z" />
    <glyph glyph-name="daggerdbl" unicode="&#x2021;" horiz-adv-x="663" 
d="M405 383v-236h221v-122h-221v-210h-147v210h-221v122h221v236h-221v121h221v210h147v-210h221v-121h-221z" />
    <glyph glyph-name="bullet" unicode="&#x2022;" horiz-adv-x="804" 
d="M134 132.5c-62.667 50.333 -94 121.833 -94 214.5s31.333 164.167 94 214.5s152.334 75.5 269.001 75.5s206.167 -25.167 268.5 -75.5s93.5 -121.833 93.5 -214.5s-31.167 -164.167 -93.5 -214.5s-151.833 -75.5 -268.5 -75.5s-206.334 25.167 -269.001 75.5z" />
    <glyph glyph-name="ellipsis" unicode="&#x2026;" horiz-adv-x="967" 
d="M72 160h178v-160h-178v160zM394 160h178v-160h-178v160zM717 160h178v-160h-178v160z" />
    <glyph glyph-name="perthousand" unicode="&#x2030;" horiz-adv-x="1566" 
d="M407 663.5c35.333 -34.333 53 -84.5 53 -150.5s-17.667 -116.167 -53 -150.5s-87.333 -51.5 -156 -51.5s-120.667 17.167 -156 51.5s-53 84.5 -53 150.5s17.833 116.167 53.5 150.5s87.5 51.5 155.5 51.5c68.667 0 120.667 -17.167 156 -51.5zM817 701l-431 -701h-112
l431 701h112zM343 513c0 74.667 -30.667 112 -92 112c-60.667 0 -91 -37.333 -91 -112c0 -76 30.333 -114 91 -114c61.333 0 92 38 92 114zM995 338.5c35.333 -34.333 53 -84.5 53 -150.5s-17.667 -116.167 -53 -150.5s-87.333 -51.5 -156 -51.5s-120.667 17.167 -156 51.5
s-53 84.5 -53 150.5s17.667 116.167 53 150.5s87.333 51.5 156 51.5s120.667 -17.167 156 -51.5zM1470 338.5c35.333 -34.333 53 -84.5 53 -150.5s-17.667 -116.167 -53 -150.5s-87.333 -51.5 -156 -51.5s-120.667 17.167 -156 51.5s-53 84.5 -53 150.5
s17.667 116.167 53 150.5s87.333 51.5 156 51.5s120.667 -17.167 156 -51.5zM931 188c0 75.333 -30.667 113 -92 113c-60.667 0 -91 -37.667 -91 -113s30.333 -113 91 -113c61.333 0 92 37.667 92 113zM1406 188c0 75.333 -30.667 113 -92 113
c-60.667 0 -91 -37.667 -91 -113s30.333 -113 91 -113c61.333 0 92 37.667 92 113z" />
    <glyph glyph-name="guilsinglleft" unicode="&#x2039;" horiz-adv-x="283" 
d="M236 510v-148l-112 -87v-5l112 -87v-147l-190 152v169z" />
    <glyph glyph-name="guilsinglright" unicode="&#x203a;" horiz-adv-x="283" 
d="M47 510v-148l112 -87v-5l-112 -87v-147l190 152v169z" />
    <glyph glyph-name="uni2070" unicode="&#x2070;" horiz-adv-x="594" 
d="M481.5 668c42.333 -36.667 63.5 -91 63.5 -163s-21.167 -126.5 -63.5 -163.5s-104.166 -55.5 -185.499 -55.5c-80.667 0 -142.167 18.5 -184.5 55.5s-63.5 91.5 -63.5 163.5s21.167 126.333 63.5 163s103.833 55 184.5 55c81.333 0 143.166 -18.333 185.499 -55zM433 505
c0 90.667 -45.668 136 -137.001 136c-45.333 0 -79.166 -11.667 -101.499 -35s-33.5 -57 -33.5 -101c0 -90.667 45 -136 135 -136c91.333 0 137 45.333 137 136z" />
    <glyph glyph-name="franc" unicode="&#x20a3;" horiz-adv-x="787" 
d="M244 572v-173h473v-120h-473v-74h216v-72h-216v-133h-155v133h-60v72h60v495h647v-128h-492z" />
    <glyph glyph-name="Euro" unicode="&#x20ac;" horiz-adv-x="898" 
d="M397.5 149.5c44.333 -23 97.167 -34.5 158.5 -34.5c44.667 0 88.5 6.33301 131.5 19s82.833 30.667 119.5 54v-150c-68 -32.667 -151.667 -49 -251 -49c-110.667 0 -203.834 22.167 -279.501 66.5s-124.167 109.5 -145.5 195.5h-102l50 68h42
c-0.666992 6.66699 -1 17 -1 31s0.333008 24.333 1 31h-91l50 68h51c21.333 86 69.666 151.167 144.999 195.5s168.333 66.5 279 66.5c60.667 0 117.334 -7.33301 170.001 -22s97.334 -35.667 134.001 -63l-79 -106c-66.667 43.333 -141.667 65 -225 65
c-61.333 0 -114 -11.5 -158 -34.5s-75.333 -56.833 -94 -101.5h425l-51 -68h-391c-0.666992 -6.66699 -1 -17 -1 -31s0.333008 -24.333 1 -31h345l-50 -68h-278c18.667 -44.667 50.167 -78.5 94.5 -101.5z" />
    <glyph glyph-name="uni2116" unicode="&#x2116;" horiz-adv-x="1449" 
d="M874 714v-714h-180l-462 521h-5v-521h-150v714h185l457 -515h5v515h150zM1359.5 679.5c36.333 -30.333 54.5 -73.5 54.5 -129.5c0 -55.333 -18.167 -98.333 -54.5 -129s-89.5 -46 -159.5 -46s-123.167 15.167 -159.5 45.5s-54.5 73.5 -54.5 129.5
s18.167 99.167 54.5 129.5s89.5 45.5 159.5 45.5s123.167 -15.167 159.5 -45.5zM1273 480.5c16.667 16.333 25 39.5 25 69.5s-8.33301 53.167 -25 69.5s-41 24.5 -73 24.5s-56.5 -8.16699 -73.5 -24.5s-25.5 -39.5 -25.5 -69.5s8.5 -53.167 25.5 -69.5
s41.5 -24.5 73.5 -24.5s56.333 8.16699 73 24.5zM1414 105v-105h-428v105h428z" />
    <glyph glyph-name="trademark" unicode="&#x2122;" horiz-adv-x="970" 
d="M415 634h-144v-278h-92v278h-145v80h381v-80zM936 356h-94v264h-5l-102 -264h-76l-105 269h-5v-269h-88v358h149l85 -233h5l83 233h153v-358z" />
    <glyph glyph-name="uni2126" unicode="&#x2126;" horiz-adv-x="1004" 
d="M47 106h227.002v5c-64 16.667 -117.5 48.834 -160.5 96.501s-64.5 109.834 -64.5 186.501c0 70.667 19.5 131.667 58.5 183s92.667 90.333 161 117s146.166 40 233.499 40s165.166 -13.333 233.499 -40s122 -65.667 161 -117s58.5 -112.333 58.5 -183
c0 -76.667 -21.5 -138.834 -64.5 -186.501s-96.5 -79.834 -160.5 -96.501v-5h227v-106h-402v148c70.667 12 126.167 38.5 166.5 79.5s60.5 92.5 60.5 154.5c0 45.333 -12 84.5 -36 117.5s-57 58.167 -99 75.5s-90.333 26 -145 26s-103.167 -8.66699 -145.5 -26
s-75.5 -42.5 -99.5 -75.5s-36 -72.167 -36 -117.5c0 -62 20.167 -113.5 60.5 -154.5s95.833 -67.5 166.5 -79.5v-148h-401v106z" />
    <glyph glyph-name="partialdiff" unicode="&#x2202;" horiz-adv-x="794" 
d="M636 661.5c76.667 -54.333 114.999 -154.501 114.999 -300.501c0 -135.333 -34 -232.5 -102 -291.5s-162.333 -88.5 -283 -88.5c-58.667 0 -112.167 8.5 -160.5 25.5s-87.333 43.5 -117 79.5s-44.5 81.333 -44.5 136c0 62 15.833 112.5 47.5 151.5s72.667 67 123 84
s105.166 25.5 164.499 25.5c37.333 0 73.666 -3.66699 108.999 -11s66.333 -18.333 93 -33c-12 72 -39.167 120.833 -81.5 146.5s-94.166 38.5 -155.499 38.5c-37.333 0 -73.666 -4.66699 -108.999 -14s-67 -22.666 -95 -39.999l-43 109c34 20.667 73.5 36.5 118.5 47.5
s92.5 16.5 142.5 16.5c108.667 0 201.334 -27.167 278.001 -81.5zM522.499 148.999c37 34.667 58.166 89.001 63.499 163.001c-20.667 18.667 -46.667 32.5 -78 41.5s-65.333 13.5 -102 13.5c-133.333 0 -200 -48 -200 -144c0 -42.667 14.333 -74.334 43 -95.001
s67.334 -31 116.001 -31c68 0 120.5 17.333 157.5 52z" />
    <glyph glyph-name="emptyset" unicode="&#x2205;" horiz-adv-x="878" 
d="M774 502.5c20 -45.667 30 -94.167 30 -145.5c0 -66 -16.333 -127 -49 -183s-77 -100.333 -133 -133s-117 -49 -183 -49c-67.333 0 -129.333 17 -186 51l-38 -51h-102l75 100c-36 34 -64 73.833 -84 119.5s-30 94.167 -30 145.5c0 66 16.333 127 49 183
s77 100.333 133 133s117 49 183 49s128.333 -17 187 -51l38 51h102l-76 -100c36 -34 64 -73.833 84 -119.5zM186.5 251c13 -33.333 31.5 -63.001 55.5 -89.001l332 440c-41.333 24.667 -86.333 37 -135 37c-49.333 0 -94.833 -12.667 -136.5 -38s-74.667 -59.5 -99 -102.5
s-36.5 -90.167 -36.5 -141.5c0 -37.333 6.5 -72.666 19.5 -105.999zM575.5 112.999c41.667 25.333 74.666 59.5 98.999 102.5s36.5 90.167 36.5 141.5c0 36.667 -6.5 71.667 -19.5 105s-31.167 63 -54.5 89l-332 -440c40.667 -24 85.334 -36 134.001 -36
c49.333 0 94.833 12.667 136.5 38z" />
    <glyph glyph-name="uni2206" unicode="&#x2206;" horiz-adv-x="947" 
d="M934 0h-921l364 714h195zM699 119l-225 453h-4l-225 -453h454z" />
    <glyph glyph-name="product" unicode="&#x220f;" horiz-adv-x="952" 
d="M717 -148v726h-482v-726h-158v862h798v-862h-158z" />
    <glyph glyph-name="summation" unicode="&#x2211;" horiz-adv-x="871" 
d="M813 -148h-736v112l356 320l-337 320v110h696v-134h-457l298 -284l-342 -310h522v-134z" />
    <glyph glyph-name="minus" unicode="&#x2212;" horiz-adv-x="680" 
d="M604 269h-528v114h528v-114z" />
    <glyph glyph-name="uni2219" unicode="&#x2219;" horiz-adv-x="339" 
d="M103.5 251.5c-18.333 18.333 -27.5 40.166 -27.5 65.499c0 26 9.16699 48.167 27.5 66.5s40.166 27.5 65.499 27.5c26 0 48.167 -9.16699 66.5 -27.5s27.5 -40.5 27.5 -66.5c0 -25.333 -9.16699 -47.166 -27.5 -65.499s-40.5 -27.5 -66.5 -27.5
c-25.333 0 -47.166 9.16699 -65.499 27.5z" />
    <glyph glyph-name="radical" unicode="&#x221a;" horiz-adv-x="684" 
d="M372 -148h-115l-125 344l-72 -34l-26 53l164 74l122 -337h2l245 749h83z" />
    <glyph glyph-name="infinity" unicode="&#x221e;" horiz-adv-x="880" 
d="M754 442c33.333 -34 49.998 -78.667 49.998 -134c0 -58 -16.5 -104.333 -49.5 -139s-78.167 -52 -135.5 -52c-69.333 0 -131 33 -185 99c-55.333 -66 -114.333 -99 -177 -99c-56 0 -100.167 17.167 -132.5 51.5s-48.5 80.833 -48.5 139.5c0 55.333 16.167 100 48.5 134
s76.5 51 132.5 51c72.667 0 134.334 -33 185.001 -99c24.667 30 51.334 54 80.001 72s61 27 97 27c56.667 0 101.667 -17 135 -51zM326.498 230.5c19 14.333 37.833 36.5 56.5 66.5c-21.333 36.667 -41.166 63.334 -59.499 80.001s-39.833 25 -64.5 25
c-26.667 0 -47.334 -8.83301 -62.001 -26.5s-22 -40.167 -22 -67.5c0 -28.667 7.5 -52.334 22.5 -71.001s35.5 -28 61.5 -28s48.5 7.16699 67.5 21.5zM680.498 237c15 18.667 22.499 42.333 22.499 71c0 27.333 -7.33301 49.833 -22 67.5s-36 26.5 -64 26.5
c-25.333 0 -47.5 -7 -66.5 -21s-37.833 -35.667 -56.5 -65c20.667 -37.333 40.334 -64.5 59.001 -81.5s40 -25.5 64 -25.5c27.333 0 48.5 9.33301 63.5 28z" />
    <glyph glyph-name="integral" unicode="&#x222b;" horiz-adv-x="502" 
d="M448.5 744c15 -2 24.834 -3.33301 29.501 -4v-108c-4.66699 0.666992 -11.834 1.5 -21.501 2.5s-20.834 1.5 -33.501 1.5c-33.333 0 -57.5 -5 -72.5 -15s-22.5 -29.667 -22.5 -59v-583c0 -62 -18.333 -105.833 -55 -131.5s-91.667 -38.5 -165 -38.5c-26 0 -46 1 -60 3
s-22.333 3.33301 -25 4v108c18.667 -2.66699 37.334 -4 56.001 -4c32.667 0 56.5 5 71.5 15s22.5 29.667 22.5 59v583c0 62 18.333 105.833 55 131.5s91.667 38.5 165 38.5c22 0 40.5 -1 55.5 -3z" />
    <glyph glyph-name="approxequal" unicode="&#x2248;" horiz-adv-x="680" 
d="M541.5 458.5c19.667 13 40.5029 31.501 62.5029 55.501v-120c-38.667 -44 -80.334 -66 -125.001 -66c-21.333 0 -40.333 2.66699 -57 8s-34 12.666 -52 21.999l-72 36c-17.333 8.66699 -33.333 15.5 -48 20.5s-31 7.5 -49 7.5c-42.667 0 -84.334 -28.333 -125.001 -85
v120c18 26 37.667 45.167 59 57.5s43.333 18.5 66 18.5c19.333 0 36.166 -2.5 50.499 -7.5s31.166 -12.167 50.499 -21.5l72 -36c16 -8.66699 32.333 -15.667 49 -21s35.334 -8 56.001 -8c22 0 42.833 6.5 62.5 19.5zM541.503 247.501
c19.667 13 40.499 31.499 62.499 55.499v-120c-38.667 -44 -80.334 -66 -125.001 -66c-21.333 0 -40.333 2.83301 -57 8.5s-34 12.834 -52 21.501l-72 36c-18 9.33301 -34.167 16.5 -48.5 21.5s-30.5 7.5 -48.5 7.5c-43.333 0 -85 -28.667 -125 -86v120
c34.667 50.667 76.334 76 125.001 76c19.333 0 36.833 -2.66699 52.5 -8s31.834 -12.333 48.501 -21l72 -36c18.667 -8.66699 35.667 -15.667 51 -21s33.333 -8 54 -8c22 0 42.833 6.5 62.5 19.5z" />
    <glyph glyph-name="notequal" unicode="&#x2260;" horiz-adv-x="680" 
d="M435 374l-70 -100h239v-114h-318l-57 -81h-120l56 81h-89v114h169l69 100h-238v115h318l56 81h121l-57 -81h90v-115h-169z" />
    <glyph glyph-name="lessequal" unicode="&#x2264;" horiz-adv-x="680" 
d="M76 317l526 -171v116l-337 102v5l337 102v115l-526 -170v-99zM76 107v-107h528v107h-528z" />
    <glyph glyph-name="greaterequal" unicode="&#x2265;" horiz-adv-x="680" 
d="M604 317l-526 -171v116l337 102v5l-337 102v115l526 -170v-99zM604 107v-107h-528v107h528z" />
    <glyph glyph-name="lozenge" unicode="&#x25ca;" horiz-adv-x="752" 
d="M675 359l-253 -388h-92l-253 388l253 388h92zM571 359l-194 305l-195 -305l195 -304z" />
    <glyph glyph-name=".null" horiz-adv-x="0" 
 />
    <glyph glyph-name="T.ss01" horiz-adv-x="874" 
d="M839 581h-323v-581h-158v581h-322v133h803v-133z" />
    <glyph glyph-name="i.loclTRK" horiz-adv-x="289" 
d="M67 539h155v-539h-155v539zM65 728h159v-108h-159v108z" />
    <glyph glyph-name="T_h" horiz-adv-x="1560" 
d="M1422.5 503.5c47 -32.333 70.499 -81.5 70.499 -147.5v-356h-155v304c0 43.333 -13.5 74.833 -40.5 94.5s-66.833 29.5 -119.5 29.5c-50.667 0 -94 -12.5 -130 -37.5s-54 -64.167 -54 -117.5v-273h-155v581h-323v-581h-158v581h-322v133h803v10h155v-254h5
c54.667 54.667 133.334 82 236.001 82c78 0 140.5 -16.167 187.5 -48.5z" />
    <glyph glyph-name="T_i" horiz-adv-x="1064" 
d="M997 728v-108h-158v-39h-323v-581h-158v581h-322v133h802v14h159zM840 539h155v-539h-155v539z" />
    <glyph glyph-name="f_i" horiz-adv-x="767" 
d="M310.5 616.5c-17.667 -11.667 -26.498 -32.167 -26.498 -61.5l1 -16h174v-102h-174v-437h-155v437h-110v102h110v37c0 62.667 20.667 106.667 62 132s103.666 38 186.999 38c33.333 0 64.666 -2.33301 93.999 -7v-110c-28.667 3.33301 -51 5 -67 5
c-46 0 -77.833 -5.83301 -95.5 -17.5zM545.002 539h155v-539h-155v539zM543.002 728h159v-108h-159v108z" />
    <glyph glyph-name="f_l" horiz-adv-x="791" 
d="M310.5 616.5c-17.667 -11.667 -26.498 -32.167 -26.498 -61.5l1 -16h174v-102h-174v-437h-155v437h-110v102h110v37c0 62.667 20.667 106.667 62 132s103.666 38 186.999 38c33.333 0 64.666 -2.33301 93.999 -7v-110c-28.667 3.33301 -51 5 -67 5
c-46 0 -77.833 -5.83301 -95.5 -17.5zM569.002 724h155v-724h-155v724z" />
    <glyph glyph-name="f_t" horiz-adv-x="922" 
d="M310.5 616.5c-17.667 -11.667 -26.498 -32.167 -26.498 -61.5l1 -16h174v-102h-174v-437h-155v437h-110v102h110v37c0 62.667 20.667 106.667 62 132s103.666 38 186.999 38c33.333 0 64.666 -2.33301 93.999 -7v-110c-28.667 3.33301 -51 5 -67 5
c-46 0 -77.833 -5.83301 -95.5 -17.5zM880.002 125l-0.000976562 -124.998c-13.333 -2.66699 -31.166 -4.83398 -53.499 -6.50098s-43.5 -2.5 -63.5 -2.5c-54.667 0 -97.167 5 -127.5 15s-52 26.167 -65 48.5s-19.5 53.166 -19.5 92.499v290h-110v102h110v148h155v-148h176
v-102h-176v-264c0 -20.667 6 -35 18 -43s31.667 -12 59 -12c40.667 0 73 2.33301 97 7z" />
    <glyph glyph-name="caroncomb.alt" horiz-adv-x="0" 
d="M-77 620c0 -69.333 -12.667 -118.667 -38 -148s-67.333 -44 -126 -44v56c28.667 0.666992 48.667 9.16699 60 25.5s17 42.833 17 79.5h-78v135h165v-104z" />
    <glyph glyph-name="uni0326.001" horiz-adv-x="0" 
d="M-77 -144c0 -34.667 -3.66797 -61.1699 -11.001 -79.5029s-22.166 -32.166 -44.499 -41.499s-56.5 -14 -102.5 -14v47c28.667 0.666992 47.667 5.83398 57 15.501s14 24.834 14 45.501h-72v108h159v-81z" />
    <glyph glyph-name="uni0326.case.001" horiz-adv-x="0" 
d="M-77 -144c0 -34.667 -3.66797 -61.1699 -11.001 -79.5029s-22.166 -32.166 -44.499 -41.499s-56.5 -14 -102.5 -14v47c28.667 0.666992 47.667 5.83398 57 15.501s14 24.834 14 45.501h-72v108h159v-81z" />
    <glyph glyph-name="uni0326.002" horiz-adv-x="0" 
d="M-77 -144c0 -34.667 -3.66797 -61.1699 -11.001 -79.5029s-22.166 -32.166 -44.499 -41.499s-56.5 -14 -102.5 -14v47c28.667 0.666992 47.667 5.83398 57 15.501s14 24.834 14 45.501h-72v108h159v-81z" />
    <glyph glyph-name="uni0326.case" horiz-adv-x="0" 
d="M-77 -144c0 -34.667 -3.66797 -61.1699 -11.001 -79.5029s-22.166 -32.166 -44.499 -41.499s-56.5 -14 -102.5 -14v47c28.667 0.666992 47.667 5.83398 57 15.501s14 24.834 14 45.501h-72v108h159v-81z" />
    <glyph glyph-name="acute.001" horiz-adv-x="458" 
d="M212 595h-135l87 153h218z" />
    <glyph glyph-name="breve.001" horiz-adv-x="577" 
d="M437 629c-41.333 -27.333 -91.001 -41 -149.001 -41s-107.5 13.667 -148.5 41s-61.833 67 -62.5 119h129c4.66699 -38 32 -57 82 -57c50.667 0 78.334 19 83.001 57h129c-0.666992 -52 -21.667 -91.667 -63 -119z" />
    <glyph glyph-name="caron.001" horiz-adv-x="638" 
d="M561 748l-141 -153h-203l-140 153h172l67 -82h5l68 82h172z" />
    <glyph glyph-name="acute.case.001" horiz-adv-x="458" 
d="M212 773h-135l87 153h218z" />
    <glyph glyph-name="breve.case.001" horiz-adv-x="577" 
d="M437 807c-41.333 -27.333 -91.001 -41 -149.001 -41s-107.5 13.667 -148.5 41s-61.833 67 -62.5 119h129c4.66699 -38 32 -57 82 -57c50.667 0 78.334 19 83.001 57h129c-0.666992 -52 -21.667 -91.667 -63 -119z" />
    <glyph glyph-name="caron.case.001" horiz-adv-x="638" 
d="M561 926l-141 -153h-203l-140 153h172l67 -82h5l68 82h172z" />
    <glyph glyph-name="circumflex.case.001" horiz-adv-x="638" 
d="M321 855h-5l-67 -82h-172l140 153h203l141 -153h-172z" />
    <glyph glyph-name="dieresis.case.001" horiz-adv-x="567" 
d="M77 887h152v-108h-152v108zM338 887h153v-108h-153v108z" />
    <glyph glyph-name="dotaccent.case.001" horiz-adv-x="313" 
d="M77 887h159v-108h-159v108z" />
    <glyph glyph-name="grave.case.001" horiz-adv-x="458" 
d="M295 926l87 -153h-135l-170 153h218z" />
    <glyph glyph-name="hungarumlaut.case.001" horiz-adv-x="658" 
d="M208 773h-131l72 153h186zM455 773h-131l72 153h185z" />
    <glyph glyph-name="macron.case.001" horiz-adv-x="565" 
d="M77 781v102h411v-102h-411z" />
    <glyph glyph-name="ring.case.001" horiz-adv-x="463" 
d="M121.5 780.5c-29.667 23 -44.5 53.167 -44.5 90.5c0 38 14.833 68.5 44.5 91.5s66.5 34.5 110.5 34.5s80.833 -11.5 110.5 -34.5s44.5 -53.5 44.5 -91.5c0 -37.333 -14.833 -67.5 -44.5 -90.5s-66.5 -34.5 -110.5 -34.5s-80.833 11.5 -110.5 34.5zM272.5 836
c11 8.66699 16.5 20.334 16.5 35.001s-5.5 26.5 -16.5 35.5s-24.5 13.5 -40.5 13.5s-29.5 -4.5 -40.5 -13.5s-16.5 -20.833 -16.5 -35.5s5.5 -26.334 16.5 -35.001s24.5 -13 40.5 -13s29.5 4.33301 40.5 13z" />
    <glyph glyph-name="tilde.case.001" horiz-adv-x="615" 
d="M356 767.5c-18 5.66699 -38.668 13.834 -62.001 24.501c-18 8 -32.5 13.833 -43.5 17.5s-20.833 5.5 -29.5 5.5c-11.333 0 -19.166 -3.33301 -23.499 -10s-6.5 -18.667 -6.5 -36h-114c0 53.333 13 92.666 39 117.999s56.333 38 91 38c16 0 32.333 -2.66699 49 -8
s38.334 -13.666 65.001 -24.999c18 -8 32.5 -13.833 43.5 -17.5s20.833 -5.5 29.5 -5.5c11.333 0 19.166 3.16699 23.499 9.5s6.5 18.166 6.5 35.499h114c0 -53.333 -13 -92.5 -39 -117.5s-56.333 -37.5 -91 -37.5c-16.667 0 -34 2.83301 -52 8.5z" />
    <glyph glyph-name="cedilla.001" horiz-adv-x="475" 
d="M229 -44c10 2 23.334 3 40.001 3c36 0 66.5 -7.33301 91.5 -22s37.5 -39 37.5 -73c0 -36 -15.833 -61.833 -47.5 -77.5s-78.167 -23.5 -139.5 -23.5c-52 0 -96.667 5 -134 15v73h5c41.333 -13.333 81.666 -20 120.999 -20c20 0 35.333 2.5 46 7.5s16 13.5 16 25.5
c0 22 -20.667 33 -62 33c-10.667 0 -24.5 -0.833008 -41.5 -2.5s-28.5 -3.5 -34.5 -5.5h-5v40l77 104h87z" />
    <glyph glyph-name="circumflex.001" horiz-adv-x="638" 
d="M321 677h-5l-67 -82h-172l140 153h203l141 -153h-172z" />
    <glyph glyph-name="dieresis.001" horiz-adv-x="567" 
d="M77 728h152v-108h-152v108zM338 728h153v-108h-153v108z" />
    <glyph glyph-name="dotaccent.001" horiz-adv-x="313" 
d="M77 728h159v-108h-159v108z" />
    <glyph glyph-name="grave.001" horiz-adv-x="458" 
d="M295 748l87 -153h-135l-170 153h218z" />
    <glyph glyph-name="hungarumlaut.001" horiz-adv-x="658" 
d="M208 595h-131l72 153h186zM455 595h-131l72 153h185z" />
    <glyph glyph-name="macron.001" horiz-adv-x="565" 
d="M77 619v101h411v-101h-411z" />
    <glyph glyph-name="ogonek.001" horiz-adv-x="428" 
d="M351 -137v-86c-24 -5.33301 -54.667 -8 -92 -8c-60 0 -105.333 8.5 -136 25.5s-46 42.167 -46 75.5c0 16.667 6.83301 35 20.5 55s34.167 38 61.5 54s60 27 98 33l94 -12c-45.333 -15.333 -77 -32.333 -95 -51s-27 -37.667 -27 -57c0 -12.667 5.66699 -22 17 -28
s25.333 -9 42 -9c22 0 43 2.66699 63 8z" />
    <glyph glyph-name="ring.001" horiz-adv-x="463" 
d="M121.5 622.5c-29.667 23 -44.5 53.5 -44.5 91.5c0 37.333 14.833 67.5 44.5 90.5s66.5 34.5 110.5 34.5s80.833 -11.5 110.5 -34.5s44.5 -53.167 44.5 -90.5c0 -38 -14.833 -68.5 -44.5 -91.5s-66.5 -34.5 -110.5 -34.5s-80.833 11.5 -110.5 34.5zM272.5 678.5
c11 9 16.5 20.833 16.5 35.5s-5.5 26.334 -16.5 35.001s-24.5 13 -40.5 13s-29.5 -4.33301 -40.5 -13s-16.5 -20.334 -16.5 -35.001s5.5 -26.5 16.5 -35.5s24.5 -13.5 40.5 -13.5s29.5 4.5 40.5 13.5z" />
    <glyph glyph-name="tilde.001" horiz-adv-x="615" 
d="M359 589c-16 5.33301 -37.667 13.667 -65 25c-18 8 -32.5 13.833 -43.5 17.5s-20.833 5.5 -29.5 5.5c-11.333 0 -19.166 -3.16699 -23.499 -9.5s-6.5 -18.166 -6.5 -35.499h-114c0 53.333 12.833 92.5 38.5 117.5s56.167 37.5 91.5 37.5c16.667 0 34 -3 52 -9
s38.667 -14 62 -24c18 -8 32.5 -13.833 43.5 -17.5s20.833 -5.5 29.5 -5.5c11.333 0 19.166 3.16699 23.499 9.5s6.5 18.166 6.5 35.499h114c0 -53.333 -13 -92.5 -39 -117.5s-56.333 -37.5 -91 -37.5c-16.667 0 -33 2.66699 -49 8z" />
    <glyph glyph-name="acute.002" horiz-adv-x="458" 
d="M212 595h-135l87 153h218z" />
    <glyph glyph-name="breve.002" horiz-adv-x="577" 
d="M437 629c-41.333 -27.333 -91.001 -41 -149.001 -41s-107.5 13.667 -148.5 41s-61.833 67 -62.5 119h129c4.66699 -38 32 -57 82 -57c50.667 0 78.334 19 83.001 57h129c-0.666992 -52 -21.667 -91.667 -63 -119z" />
    <glyph glyph-name="caron.002" horiz-adv-x="638" 
d="M561 748l-141 -153h-203l-140 153h172l67 -82h5l68 82h172z" />
    <glyph glyph-name="circumflex.002" horiz-adv-x="638" 
d="M321 677h-5l-67 -82h-172l140 153h203l141 -153h-172z" />
    <glyph glyph-name="dotaccent.002" horiz-adv-x="313" 
d="M77 728h159v-108h-159v108z" />
    <glyph glyph-name="tilde.002" horiz-adv-x="615" 
d="M359 589c-16 5.33301 -37.667 13.667 -65 25c-18 8 -32.5 13.833 -43.5 17.5s-20.833 5.5 -29.5 5.5c-11.333 0 -19.166 -3.16699 -23.499 -9.5s-6.5 -18.166 -6.5 -35.499h-114c0 53.333 12.833 92.5 38.5 117.5s56.167 37.5 91.5 37.5c16.667 0 34 -3 52 -9
s38.667 -14 62 -24c18 -8 32.5 -13.833 43.5 -17.5s20.833 -5.5 29.5 -5.5c11.333 0 19.166 3.16699 23.499 9.5s6.5 18.166 6.5 35.499h114c0 -53.333 -13 -92.5 -39 -117.5s-56.333 -37.5 -91 -37.5c-16.667 0 -33 2.66699 -49 8z" />
    <glyph glyph-name="caron.alt" horiz-adv-x="319" 
d="M242 620c0 -69.333 -12.833 -118.667 -38.5 -148s-67.834 -44 -126.501 -44v56c28.667 0.666992 48.834 9.16699 60.501 25.5s17.5 42.833 17.5 79.5h-78v135h165v-104z" />
    <glyph glyph-name="acute.case" horiz-adv-x="458" 
d="M212 773h-135l87 153h218z" />
    <glyph glyph-name="breve.case" horiz-adv-x="577" 
d="M437 807c-41.333 -27.333 -91.001 -41 -149.001 -41s-107.5 13.667 -148.5 41s-61.833 67 -62.5 119h129c4.66699 -38 32 -57 82 -57c50.667 0 78.334 19 83.001 57h129c-0.666992 -52 -21.667 -91.667 -63 -119z" />
    <glyph glyph-name="caron.case" horiz-adv-x="638" 
d="M561 926l-141 -153h-203l-140 153h172l67 -82h5l68 82h172z" />
    <glyph glyph-name="cedilla.case" horiz-adv-x="475" 
d="M229 -44c10 2 23.334 3 40.001 3c36 0 66.5 -7.33301 91.5 -22s37.5 -39 37.5 -73c0 -36 -15.833 -61.833 -47.5 -77.5s-78.167 -23.5 -139.5 -23.5c-52 0 -96.667 5 -134 15v73h5c41.333 -13.333 81.666 -20 120.999 -20c20 0 35.333 2.5 46 7.5s16 13.5 16 25.5
c0 22 -20.667 33 -62 33c-10.667 0 -24.5 -0.833008 -41.5 -2.5s-28.5 -3.5 -34.5 -5.5h-5v40l77 104h87z" />
    <glyph glyph-name="circumflex.case" horiz-adv-x="638" 
d="M321 855h-5l-67 -82h-172l140 153h203l141 -153h-172z" />
    <glyph glyph-name="dieresis.case" horiz-adv-x="567" 
d="M77 887h152v-108h-152v108zM338 887h153v-108h-153v108z" />
    <glyph glyph-name="dotaccent.case" horiz-adv-x="313" 
d="M77 887h159v-108h-159v108z" />
    <glyph glyph-name="grave.case" horiz-adv-x="458" 
d="M295 926l87 -153h-135l-170 153h218z" />
    <glyph glyph-name="hungarumlaut.case" horiz-adv-x="658" 
d="M208 773h-131l72 153h186zM455 773h-131l72 153h185z" />
    <glyph glyph-name="macron.case" horiz-adv-x="565" 
d="M77 781v102h411v-102h-411z" />
    <glyph glyph-name="ogonek.case" horiz-adv-x="428" 
d="M351 -137v-86.001c-24 -5.33301 -54.667 -8 -92 -8c-60 0 -105.333 8.66699 -136 26s-46 43 -46 77c0 17.333 6.83301 35.666 20.5 54.999s34.167 36.833 61.5 52.5s60 26.5 98 32.5l94 -12c-81.333 -27.333 -122 -62.666 -122 -105.999
c0 -13.333 5.66699 -23.166 17 -29.499s25.333 -9.5 42 -9.5c22 0 43 2.66699 63 8z" />
    <glyph glyph-name="ring.case" horiz-adv-x="463" 
d="M121.5 780.5c-29.667 23 -44.5 53.167 -44.5 90.5c0 38 14.833 68.5 44.5 91.5s66.5 34.5 110.5 34.5s80.833 -11.5 110.5 -34.5s44.5 -53.5 44.5 -91.5c0 -37.333 -14.833 -67.5 -44.5 -90.5s-66.5 -34.5 -110.5 -34.5s-80.833 11.5 -110.5 34.5zM272.5 836
c11 8.66699 16.5 20.334 16.5 35.001s-5.5 26.5 -16.5 35.5s-24.5 13.5 -40.5 13.5s-29.5 -4.5 -40.5 -13.5s-16.5 -20.833 -16.5 -35.5s5.5 -26.334 16.5 -35.001s24.5 -13 40.5 -13s29.5 4.33301 40.5 13z" />
    <glyph glyph-name="tilde.case" horiz-adv-x="615" 
d="M356 767.5c-18 5.66699 -38.668 13.834 -62.001 24.501c-18 8 -32.5 13.833 -43.5 17.5s-20.833 5.5 -29.5 5.5c-11.333 0 -19.166 -3.33301 -23.499 -10s-6.5 -18.667 -6.5 -36h-114c0 53.333 13 92.666 39 117.999s56.333 38 91 38c16 0 32.333 -2.66699 49 -8
s38.334 -13.666 65.001 -24.999c18 -8 32.5 -13.833 43.5 -17.5s20.833 -5.5 29.5 -5.5c11.333 0 19.166 3.16699 23.499 9.5s6.5 18.166 6.5 35.499h114c0 -53.333 -13 -92.5 -39 -117.5s-56.333 -37.5 -91 -37.5c-16.667 0 -34 2.83301 -52 8.5z" />
    </font>
</defs>
</svg>
