<?xml version="1.0" standalone="no"?>
<!DOCTYPE svg PUBLIC "-//W3C//DTD SVG 1.1//EN" "http://www.w3.org/Graphics/SVG/1.1/DTD/svg11.dtd" >
<svg>
<metadata>
Created by FontForge 20090914 at Mon Nov  8 15:56:00 2021
 By www-data
Copyright (c) 2017 by The Temporary State. All rights reserved.
</metadata>
<defs>
<font id="SoyuzGrotesk-Bold" horiz-adv-x="535" >
  <font-face 
    font-family="Soyuz Grotesk"
    font-weight="700"
    font-stretch="normal"
    units-per-em="1000"
    panose-1="2 0 8 3 0 0 0 2 0 4"
    ascent="800"
    descent="-200"
    x-height="520"
    cap-height="535"
    bbox="-103.002 -345 1330 864.999"
    underline-thickness="40"
    underline-position="-70"
    unicode-range="U+0020-U+300B"
  />
<missing-glyph horiz-adv-x="940" 
d="M730 492l-232 -232l232 -232l-28 -28l-232 232l-232 -232l-28 28l232 232l-232 232l28 28l232 -232l232 232zM910 700v-880h-880v880h880zM70 660v-800h800v800h-800z" />
    <glyph glyph-name="threedotij" unicode="&#xcf;J" horiz-adv-x="380" 
d="M165 520v-520h-140v520h140zM135 -180l0.00195312 114.999h35c17.333 0 29.166 3.33301 35.499 10s9.5 20 9.5 40v535h140v-535c0 -61.333 -10.833 -104.166 -32.5 -128.499s-65.834 -36.5 -132.501 -36.5h-55zM-84.998 634.999c0 22 7.83301 40.833 23.5 56.5
s34.5 23.5 56.5 23.5s40.833 -7.83301 56.5 -23.5s23.5 -34.5 23.5 -56.5s-7.83301 -40.833 -23.5 -56.5s-34.5 -23.5 -56.5 -23.5s-40.833 7.83301 -56.5 23.5s-23.5 34.5 -23.5 56.5zM115.002 634.999c0 22 7.83301 40.833 23.5 56.5s34.5 23.5 56.5 23.5
s40.833 -7.83301 56.5 -23.5s23.5 -34.5 23.5 -56.5s-7.83301 -40.833 -23.5 -56.5s-34.5 -23.5 -56.5 -23.5s-40.833 7.83301 -56.5 23.5s-23.5 34.5 -23.5 56.5zM315.002 634.999c0 22 7.83301 40.833 23.5 56.5s34.5 23.5 56.5 23.5s40.833 -7.83301 56.5 -23.5
s23.5 -34.5 23.5 -56.5s-7.83301 -40.833 -23.5 -56.5s-34.5 -23.5 -56.5 -23.5s-40.833 7.83301 -56.5 23.5s-23.5 34.5 -23.5 56.5z" />
    <glyph glyph-name="threedotii" unicode="I&#x407;" horiz-adv-x="380" 
d="M165 520v-520h-140v520h140zM355 520v-520h-140v520h140zM-90 635c0 22 7.83301 40.833 23.5 56.5s34.5 23.5 56.5 23.5s40.833 -7.83301 56.5 -23.5s23.5 -34.5 23.5 -56.5s-7.83301 -40.833 -23.5 -56.5s-34.5 -23.5 -56.5 -23.5s-40.833 7.83301 -56.5 23.5
s-23.5 34.5 -23.5 56.5zM110 635c0 22 7.83301 40.833 23.5 56.5s34.5 23.5 56.5 23.5s40.833 -7.83301 56.5 -23.5s23.5 -34.5 23.5 -56.5s-7.83301 -40.833 -23.5 -56.5s-34.5 -23.5 -56.5 -23.5s-40.833 7.83301 -56.5 23.5s-23.5 34.5 -23.5 56.5zM310 635
c0 22 7.83301 40.833 23.5 56.5s34.5 23.5 56.5 23.5s40.833 -7.83301 56.5 -23.5s23.5 -34.5 23.5 -56.5s-7.83301 -40.833 -23.5 -56.5s-34.5 -23.5 -56.5 -23.5s-40.833 7.83301 -56.5 23.5s-23.5 34.5 -23.5 56.5z" />
    <glyph glyph-name="threedotji" unicode="J&#x407;" horiz-adv-x="380" 
d="M355 520v-520h-140v520h140zM305 635c0 22 7.83301 40.833 23.5 56.5s34.5 23.5 56.5 23.5s40.833 -7.83301 56.5 -23.5s23.5 -34.5 23.5 -56.5s-7.83301 -40.833 -23.5 -56.5s-34.5 -23.5 -56.5 -23.5s-40.833 7.83301 -56.5 23.5s-23.5 34.5 -23.5 56.5zM-55 -180
l0.00195312 114.999h35c17.333 0 29.166 3.33301 35.499 10s9.5 20 9.5 40v535h140v-535c0 -61.333 -10.833 -104.166 -32.5 -128.499s-65.834 -36.5 -132.501 -36.5h-55zM105.002 634.999c0 22 7.83301 40.833 23.5 56.5s34.5 23.5 56.5 23.5s40.833 -7.83301 56.5 -23.5
s23.5 -34.5 23.5 -56.5s-7.83301 -40.833 -23.5 -56.5s-34.5 -23.5 -56.5 -23.5s-40.833 7.83301 -56.5 23.5s-23.5 34.5 -23.5 56.5zM-94.998 634.999c0 22 7.83301 40.833 23.5 56.5s34.5 23.5 56.5 23.5s40.833 -7.83301 56.5 -23.5s23.5 -34.5 23.5 -56.5
s-7.83301 -40.833 -23.5 -56.5s-34.5 -23.5 -56.5 -23.5s-40.833 7.83301 -56.5 23.5s-23.5 34.5 -23.5 56.5z" />
    <glyph glyph-name=".notdef" horiz-adv-x="940" 
d="M730 492l-232 -232l232 -232l-28 -28l-232 232l-232 -232l-28 28l232 232l-232 232l28 28l232 -232l232 232zM910 700v-880h-880v880h880zM70 660v-800h800v800h-800z" />
    <glyph glyph-name="space" unicode=" " horiz-adv-x="240" 
 />
    <glyph glyph-name="exclam" unicode="!" horiz-adv-x="220" 
d="M30 70c0 22 7.83301 40.833 23.5 56.5s34.5 23.5 56.5 23.5s40.833 -7.83301 56.5 -23.5s23.5 -34.5 23.5 -56.5s-7.83301 -40.833 -23.5 -56.5s-34.5 -23.5 -56.5 -23.5s-40.833 7.83301 -56.5 23.5s-23.5 34.5 -23.5 56.5zM180 700v-500h-140v500h140z" />
    <glyph glyph-name="quotedbl" unicode="&#x22;" horiz-adv-x="180" 
d="M150 700v-260h-40v260h40zM70 700v-260h-40v260h40z" />
    <glyph glyph-name="numbersign" unicode="#" horiz-adv-x="685" 
d="M74 430v40h192l85 230h42l-85 -230h158l85 230h42l-85 -230h157v-40h-172l-59 -160h177v-40h-192l-85 -230h-42l85 230h-158l-85 -230h-42l85 230h-157v40h172l59 160h-177zM293 430l-59 -160h158l59 160h-158z" />
    <glyph glyph-name="dollar" unicode="$" horiz-adv-x="520" 
d="M240 -180l-0.00195312 165.999c-42.667 2.66699 -79.5 10.834 -110.5 24.501s-53.833 30.5 -68.5 50.5s-25.167 38.833 -31.5 56.5s-9.5 35.167 -9.5 52.5h135c0 -2 0.166992 -4.66699 0.5 -8s2 -9.66602 5 -18.999s7.16699 -17.666 12.5 -24.999
s13.833 -14.666 25.5 -21.999s25.5 -12 41.5 -14v133c-18.667 3.33301 -29.667 5.33301 -33 6s-13.666 3 -30.999 7s-28.5 7 -33.5 9l-28.5 11c-14 5.33301 -23.5 10.166 -28.5 14.499l-21.5 18c-9.33301 7.66699 -15.666 15.667 -18.999 24
s-6.66602 18.166 -9.99902 29.499s-5 23.333 -5 36c0 44.667 19 82.667 57 114s89 48.333 153 51v165h40v-166c33.333 -2 63 -7.5 89 -16.5s46 -19.333 60 -31s25.5 -25.167 34.5 -40.5s14.833 -29 17.5 -41s4 -23.667 4 -35h-135c0 4 -0.666992 9.33301 -2 16
s-7.83301 16.167 -19.5 28.5s-27.834 20.166 -48.501 23.499v-117c72 -14.667 121 -29.334 147 -44.001c48.667 -26 73 -65 73 -117c0 -49.333 -19.5 -90.166 -58.5 -122.499s-92.833 -49.833 -161.5 -52.5v-165h-40zM359.998 144.999c0 28 -26.667 48.333 -80 61v-126
c28.667 2 49.167 9.16699 61.5 21.5s18.5 26.833 18.5 43.5zM169.998 379.999c0 -22 23.333 -38.666 70 -49.999v109c-22 -2.66699 -39.167 -9.33398 -51.5 -20.001s-18.5 -23.667 -18.5 -39z" />
    <glyph glyph-name="ampersand" unicode="&#x26;" horiz-adv-x="965" 
d="M950 520l-0.000976562 -110.001h-155v-40c0 -120.667 -38 -215 -114 -283s-176.333 -102 -301 -102c-111.333 0 -199.166 28.333 -263.499 85s-96.5 131.667 -96.5 225c0 74.667 22.333 133.334 67 176.001s105.667 64 183 64c55.333 0 101.666 -13.833 138.999 -41.5
s56 -65.5 56 -113.5c0 -36 -8.66699 -68.167 -26 -96.5s-40.666 -51.166 -69.999 -68.499s-57 -30.833 -83 -40.5s-53.667 -17.834 -83 -24.501c36.667 -33.333 95.667 -50 177 -50c87.333 0 155.833 23 205.5 69s74.5 113 74.5 201v40h-155v110h445zM149.999 299.999
c0 -22.667 1.33301 -42.002 4 -58.002c16.667 3.33301 33 7.33301 49 12s34.667 11.834 56 21.501s38.5 22.667 51.5 39s19.5 34.833 19.5 55.5s-7.16699 35.834 -21.5 45.501s-30.5 14.5 -48.5 14.5c-31.333 0 -57.5 -11.5 -78.5 -34.5s-31.5 -54.833 -31.5 -95.5z" />
    <glyph glyph-name="quotesingle" unicode="'" horiz-adv-x="100" 
d="M70 700v-260h-40v260h40z" />
    <glyph glyph-name="parenleft" unicode="(" horiz-adv-x="350" 
d="M350 -252l-28 -28.002c-72 71.333 -127 154.5 -165 249.5s-57 191.833 -57 290.5s19 195.5 57 290.5s93 178.167 165 249.5l28 -28c-68 -68 -120 -147 -156 -237s-54 -181.667 -54 -275s18 -185.166 54 -275.499s88 -169.166 156 -236.499z" />
    <glyph glyph-name="parenright" unicode=")" horiz-adv-x="350" 
d="M28 -280l-28 28.002c68 67.333 120 146.166 156 236.499s54 182.166 54 275.499s-18 185 -54 275s-88 169 -156 237l28 28c72 -71.333 127 -154.5 165 -249.5s57 -191.833 57 -290.5s-19 -195.5 -57 -290.5s-93 -178.167 -165 -249.5z" />
    <glyph glyph-name="asterisk" unicode="*" horiz-adv-x="404" 
d="M60 630l122 -70v140h40v-140l122 70l20 -35l-122 -70l122 -70l-20 -35l-122 70v-140h-40v140l-122 -70l-20 35l121 70l-121 70z" />
    <glyph glyph-name="plus" unicode="+" horiz-adv-x="540" 
d="M30 260v40h220v220h40v-220h220v-40h-220v-220h-40v220h-220z" />
    <glyph glyph-name="comma" unicode="," horiz-adv-x="240" 
d="M30 70c0 22 8.16797 40.834 24.501 56.501s36.5 23.5 60.5 23.5c28 0 50.833 -10.833 68.5 -32.5s26.5 -50.834 26.5 -87.501c0 -60 -15.167 -106.667 -45.5 -140s-71.833 -50 -124.5 -50v40c33.333 0 61.666 10 84.999 30s35 50 35 90c-13.333 -6.66699 -30 -10 -50 -10
c-22 0 -40.833 7.83301 -56.5 23.5s-23.5 34.5 -23.5 56.5z" />
    <glyph glyph-name="hyphen" unicode="-" horiz-adv-x="400" 
d="M30 260v40h340v-40h-340z" />
    <glyph glyph-name="period" unicode="." horiz-adv-x="220" 
d="M30 70c0 22 7.83301 40.833 23.5 56.5s34.5 23.5 56.5 23.5s40.833 -7.83301 56.5 -23.5s23.5 -34.5 23.5 -56.5s-7.83301 -40.833 -23.5 -56.5s-34.5 -23.5 -56.5 -23.5s-40.833 7.83301 -56.5 23.5s-23.5 34.5 -23.5 56.5z" />
    <glyph glyph-name="slash" unicode="/" horiz-adv-x="495" 
d="M495 784l-458 -1064l-37 16l458 1064z" />
    <glyph glyph-name="zero" unicode="0" horiz-adv-x="570" 
d="M160 260c0 -50.667 10.333 -91.667 31 -123s52 -47 94 -47s73.333 15.667 94 47s31 72.333 31 123s-10.333 91.667 -31 123s-52 47 -94 47s-73.333 -15.667 -94 -47s-31 -72.333 -31 -123zM20 260c0 79.333 23.5 145 70.5 197s111.833 78 194.5 78s147.5 -26 194.5 -78
s70.5 -117.667 70.5 -197s-23.5 -145 -70.5 -197s-111.833 -78 -194.5 -78s-147.5 26 -194.5 78s-70.5 117.667 -70.5 197z" />
    <glyph glyph-name="one" unicode="1" horiz-adv-x="295" 
d="M265 520v-520.002h-140v340h-115v70c27.333 0 51.666 3.83301 72.999 11.5s37.833 16.834 49.5 27.501s21.334 21.334 29.001 32.001s12.5 19.667 14.5 27l4 12h85z" />
    <glyph glyph-name="two" unicode="2" horiz-adv-x="520" 
d="M500 110l0.00488281 -110.002h-480v45c0 44.667 11.667 82.334 35 113.001s51.666 53.667 84.999 69s66.666 28.5 99.999 39.5s61.666 23.5 84.999 37.5s35 31 35 51c0 24.667 -9 43.334 -27 56.001s-42.333 19 -73 19s-55 -8.66699 -73 -26s-27 -42 -27 -74v-15h-140v15
c0 64 22.333 114.167 67 150.5s104 54.5 178 54.5c69.333 0 125.833 -16 169.5 -48s65.5 -76 65.5 -132c0 -33.333 -9 -62 -27 -86s-41 -42.5 -69 -55.5s-56.333 -24.333 -85 -34s-56.334 -20.167 -83.001 -31.5s-45.334 -24 -56.001 -38h320z" />
    <glyph glyph-name="three" unicode="3" horiz-adv-x="540" 
d="M10 50l139.998 0.000976562c0 -42.667 10.167 -76.667 30.5 -102s51.833 -38 94.5 -38c34 0 60.833 10.167 80.5 30.5s29.5 46.833 29.5 79.5c0 73.333 -41.667 110 -125 110h-59v110h59c73.333 0 110 31.667 110 95c0 27.333 -8.66699 50 -26 68s-43.666 27 -78.999 27
c-37.333 0 -64.166 -10.667 -80.499 -32s-24.5 -49 -24.5 -83h-130c0 63.333 19.167 115.833 57.5 157.5s97.5 62.5 177.5 62.5c78 0 137.5 -18.167 178.5 -54.5s61.5 -81.5 61.5 -135.5c0 -22.667 -3.33301 -43.167 -10 -61.5s-14.5 -32.833 -23.5 -43.5
s-18.167 -19.5 -27.5 -26.5s-17.333 -11.833 -24 -14.5l-10 -4v-5c3.33301 -0.666992 7.5 -1.83398 12.5 -3.50098s14.167 -6.5 27.5 -14.5s25 -17.5 35 -28.5s19.167 -27 27.5 -48s12.5 -44.5 12.5 -70.5c0 -62 -21.5 -114.167 -64.5 -156.5s-104.833 -63.5 -185.5 -63.5
c-89.333 0 -155.833 23.167 -199.5 69.5s-65.5 104.833 -65.5 175.5z" />
    <glyph glyph-name="four" unicode="4" horiz-adv-x="580" 
d="M310 0h-295v110l295 410h140v-410h120v-110h-120v-180h-140v180zM135 110h175v250z" />
    <glyph glyph-name="five" unicode="5" horiz-adv-x="555" 
d="M505 520l0.00292969 -109.999h-310l-30 -170h5c1.33301 1.33301 3.16602 3.5 5.49902 6.5s7.83301 7.83301 16.5 14.5s18 12.667 28 18s23 10.166 39 14.499s33 6.5 51 6.5c74 0 130.833 -23 170.5 -69s59.5 -104.667 59.5 -176c0 -75.333 -23.5 -135.833 -70.5 -181.5
s-110.167 -68.5 -189.5 -68.5c-78 0 -141.667 20.667 -191 62s-74 95.666 -74 162.999h140c0 -37.333 11.333 -66.666 34 -87.999s53 -32 91 -32c36 0 65 12.667 87 38s33 61 33 107c0 46.667 -11.5 82.5 -34.5 107.5s-54.833 37.5 -95.5 37.5c-16 0 -31 -2.33301 -45 -7
s-25.333 -10.5 -34 -17.5s-16.334 -14 -23.001 -21s-11.334 -12.833 -14.001 -17.5l-4 -7h-125l70 390h410z" />
    <glyph glyph-name="six" unicode="6" horiz-adv-x="565" 
d="M530 520l-129.996 0.000976562c-6 27.333 -16.333 49.166 -31 65.499s-37.667 24.5 -69 24.5c-89.333 0 -137.666 -73.333 -144.999 -220h5c1.33301 2 3.16602 4.5 5.49902 7.5s8.16602 8.5 17.499 16.5s19.666 15.167 30.999 21.5s26.5 12 45.5 17s39.167 7.5 60.5 7.5
c64 0 117.5 -20.5 160.5 -61.5s64.5 -95.5 64.5 -163.5c0 -74 -22.667 -134.167 -68 -180.5s-106 -69.5 -182 -69.5c-90 0 -158.333 29.167 -205 87.5s-70 142.5 -70 252.5c0 126 24.5 222.5 73.5 289.5s117.833 100.5 206.5 100.5c65.333 0 118.166 -17 158.499 -51
s64.166 -82 71.499 -144zM165.004 225.001c0 -40 11.501 -72.499 34.501 -97.499s51.5 -37.5 85.5 -37.5c34.667 0 63.334 11.667 86.001 35s34 56.666 34 99.999s-11.333 76.666 -34 99.999s-51.334 35 -86.001 35s-63.334 -11.667 -86.001 -35s-34 -56.666 -34 -99.999z
" />
    <glyph glyph-name="seven" unicode="7" horiz-adv-x="520" 
d="M505 520l0.000976562 -100.003c-40.667 -37.333 -75.834 -81.166 -105.501 -131.499s-52.5 -102.666 -68.5 -156.999s-27.667 -107.166 -35 -158.499s-11 -102.333 -11 -153h-150c5.33301 118 28 229.667 68 335s92.333 190.333 157 255h-345v110h490z" />
    <glyph glyph-name="eight" unicode="8" horiz-adv-x="560" 
d="M280 -15c-81.333 0 -144.999 19.834 -190.999 59.501s-69 91.5 -69 155.5c0 24.667 4 47.667 12 69s17.667 38.166 29 50.499s22.5 23 33.5 32s20.5 15.167 28.5 18.5l12 5v5c-2 1.33301 -5 3 -9 5s-10.833 7.16699 -20.5 15.5s-18.334 17.666 -26.001 27.999
s-14.5 24.166 -20.5 41.499s-9 35.666 -9 54.999c0 52.667 20.667 97.5 62 134.5s97.333 55.5 168 55.5s126.667 -18.5 168 -55.5s62 -81.833 62 -134.5c0 -19.333 -3 -37.666 -9 -54.999s-13 -31.166 -21 -41.499s-16.167 -19.333 -24.5 -27s-15.5 -13.167 -21.5 -16.5
l-9 -5v-5c3.33301 -1.33301 7.5 -3.16602 12.5 -5.49902s14.167 -8.33301 27.5 -18s25 -20.5 35 -32.5s19.167 -28.667 27.5 -50s12.5 -44.333 12.5 -69c0 -64 -23 -115.833 -69 -155.5s-109.667 -59.5 -191 -59.5zM180.001 516.001c0 -28 9 -51 27 -69s42.333 -27 73 -27
s55 9 73 27s27 41 27 69c0 27.333 -9 49.833 -27 67.5s-42.333 26.5 -73 26.5s-55 -8.83301 -73 -26.5s-27 -40.167 -27 -67.5zM160.001 203.001c0 -32 10.667 -58.833 32 -80.5s50.666 -32.5 87.999 -32.5s66.666 10.833 87.999 32.5s32 48.5 32 80.5
s-10.667 58.833 -32 80.5s-50.666 32.5 -87.999 32.5s-66.666 -10.833 -87.999 -32.5s-32 -48.5 -32 -80.5z" />
    <glyph glyph-name="nine" unicode="9" horiz-adv-x="565" 
d="M35 0l129.998 -0.000976562c6 -27.333 16.333 -49.166 31 -65.499s37.667 -24.5 69 -24.5c89.333 0 137.666 73.333 144.999 220h-5c-1.33301 -2 -3.16602 -4.5 -5.49902 -7.5s-8.16602 -8.5 -17.499 -16.5s-19.666 -15.167 -30.999 -21.5s-26.5 -12 -45.5 -17
s-39.167 -7.5 -60.5 -7.5c-64 0 -117.5 20.5 -160.5 61.5s-64.5 95.5 -64.5 163.5c0 74 22.667 134.167 68 180.5s106 69.5 182 69.5c183.333 0 275 -113.333 275 -340c0 -126 -24.333 -222.5 -73 -289.5s-116 -100.5 -202 -100.5c-66 0 -119.833 17 -161.5 51
s-66.167 82 -73.5 144zM399.998 294.999c0 40 -11.501 72.499 -34.501 97.499s-51.5 37.5 -85.5 37.5c-34.667 0 -63.334 -11.667 -86.001 -35s-34 -56.666 -34 -99.999s11.333 -76.666 34 -99.999s51.334 -35 86.001 -35s63.334 11.667 86.001 35s34 56.666 34 99.999z" />
    <glyph glyph-name="colon" unicode=":" horiz-adv-x="240" 
d="M40 70c0 22 7.83301 40.833 23.5 56.5s34.5 23.5 56.5 23.5s40.833 -7.83301 56.5 -23.5s23.5 -34.5 23.5 -56.5s-7.83301 -40.833 -23.5 -56.5s-34.5 -23.5 -56.5 -23.5s-40.833 7.83301 -56.5 23.5s-23.5 34.5 -23.5 56.5zM40 440c0 22 7.83301 40.833 23.5 56.5
s34.5 23.5 56.5 23.5s40.833 -7.83301 56.5 -23.5s23.5 -34.5 23.5 -56.5s-7.83301 -40.833 -23.5 -56.5s-34.5 -23.5 -56.5 -23.5s-40.833 7.83301 -56.5 23.5s-23.5 34.5 -23.5 56.5z" />
    <glyph glyph-name="semicolon" unicode=";" horiz-adv-x="250" 
d="M40 440c0 22 7.83301 40.833 23.5 56.5s34.5 23.5 56.5 23.5s40.833 -7.83301 56.5 -23.5s23.5 -34.5 23.5 -56.5s-7.83301 -40.833 -23.5 -56.5s-34.5 -23.5 -56.5 -23.5s-40.833 7.83301 -56.5 23.5s-23.5 34.5 -23.5 56.5zM40 70c0 22 8.16797 40.834 24.501 56.501
s36.5 23.5 60.5 23.5c28 0 50.833 -10.833 68.5 -32.5s26.5 -50.834 26.5 -87.501c0 -60 -15.167 -106.667 -45.5 -140s-71.833 -50 -124.5 -50v40c33.333 0 61.666 10 84.999 30s35 50 35 90c-13.333 -6.66699 -30 -10 -50 -10c-22 0 -40.833 7.83301 -56.5 23.5
s-23.5 34.5 -23.5 56.5z" />
    <glyph glyph-name="less" unicode="&#x3c;" horiz-adv-x="511" 
d="M374 -4l-284 264l284 264l27 -30l-250 -234l250 -234z" />
    <glyph glyph-name="equal" unicode="=" horiz-adv-x="540" 
d="M30 330v40h480v-40h-480zM30 190v40h480v-40h-480z" />
    <glyph glyph-name="greater" unicode="&#x3e;" horiz-adv-x="511" 
d="M421 260l-284 -264l-27 30l250 234l-250 234l27 30z" />
    <glyph glyph-name="question" unicode="?" horiz-adv-x="545" 
d="M160 465l-140.001 -0.000976562c0 78 22.5 139.167 67.5 183.5s107.5 66.5 187.5 66.5c72 0 131.667 -19.167 179 -57.5s71 -89.166 71 -152.499c0 -28.667 -5 -54.5 -15 -77.5s-22.333 -41.333 -37 -55s-30.667 -27.167 -48 -40.5l-48 -36
c-14.667 -10.667 -27 -24.334 -37 -41.001s-15 -35 -15 -55h-140v10c0 33.333 6.5 62.5 19.5 87.5s28.833 44.833 47.5 59.5s37.334 28.334 56.001 41.001s34.5 27 47.5 43s19.5 34 19.5 54c0 28.667 -9 51.667 -27 69s-44 26 -78 26c-32.667 0 -59.167 -10.167 -79.5 -30.5
s-30.5 -51.833 -30.5 -94.5zM174.999 69.999c0 22 7.83301 40.833 23.5 56.5s34.5 23.5 56.5 23.5s40.833 -7.83301 56.5 -23.5s23.5 -34.5 23.5 -56.5s-7.83301 -40.833 -23.5 -56.5s-34.5 -23.5 -56.5 -23.5s-40.833 7.83301 -56.5 23.5s-23.5 34.5 -23.5 56.5z" />
    <glyph glyph-name="at" unicode="@" horiz-adv-x="970" 
d="M783 -60l23 -30.002l-14 -11c-6 -4.66699 -19.333 -13.167 -40 -25.5s-42.5 -23 -65.5 -32s-52.833 -17.333 -89.5 -25s-74 -11.5 -112 -11.5c-125.333 0 -232.5 44.5 -321.5 133.5s-133.5 196.167 -133.5 321.5s44.5 232.5 133.5 321.5s196.167 133.5 321.5 133.5
c132 0 240.833 -39.167 326.5 -117.5s128.5 -180.833 128.5 -307.5c0 -86 -24.667 -158.333 -74 -217s-111.333 -88 -186 -88v121c-21.333 -37.333 -49.5 -66.833 -84.5 -88.5s-75.167 -32.5 -120.5 -32.5c-74.667 0 -135.834 26.5 -183.501 79.5s-71.5 118.167 -71.5 195.5
s23.833 142.5 71.5 195.5s108.834 79.5 183.501 79.5c91.333 0 159.666 -40.667 204.999 -122v107h40v-492c54 10.667 97.5 39.834 130.5 87.501s49.5 105.834 49.5 174.501c0 117.333 -38.667 210.833 -116 280.5s-177 104.5 -299 104.5
c-114.667 0 -212.5 -40.5 -293.5 -121.5s-121.5 -178.833 -121.5 -293.5s40.5 -212.5 121.5 -293.5s178.833 -121.5 293.5 -121.5c36.667 0 71.834 3.33301 105.501 10s61.667 14.5 84 23.5s42 18.167 59 27.5s29.5 17.333 37.5 24zM260 259.998
c0 -66.667 19.833 -122.5 59.5 -167.5s91.5 -67.5 155.5 -67.5c63.333 0 113.333 22.333 150 67s55 100.667 55 168s-18.333 123.333 -55 168s-86.667 67 -150 67c-64 0 -115.833 -22.5 -155.5 -67.5s-59.5 -100.833 -59.5 -167.5z" />
    <glyph glyph-name="A" unicode="A" horiz-adv-x="515" 
d="M170 360l-140.003 -0.00292969c4 62 27.5 106.667 70.5 134s97.833 41 164.5 41c68.667 0 123.334 -14.167 164.001 -42.5s61 -74.166 61 -137.499v-355h-140v100h-5c-0.666992 -3.33301 -2 -7.5 -4 -12.5s-7.33301 -14.167 -16 -27.5s-18.5 -25 -29.5 -35
s-26.833 -19.167 -47.5 -27.5s-43.334 -12.5 -68.001 -12.5c-50 0 -90 11.833 -120 35.5s-45 58.5 -45 104.5c0 80.667 55.333 135 166 163c9.33301 2.66699 21.5 5.66699 36.5 9l35.5 8c8.66699 2 18.834 4.66699 30.501 8s20.834 6.83301 27.501 10.5
s13.334 7.83398 20.001 12.501s11.5 10.334 14.5 17.001s4.5 14 4.5 22c0 20.667 -7.33301 36.667 -22 48s-35.667 17 -63 17c-61.333 0 -93 -26.667 -95 -80zM349.997 261.997c-14.667 -13.333 -51.334 -27.333 -110.001 -42c-55.333 -13.333 -83 -40 -83 -80
c0 -20 6.5 -35.833 19.5 -47.5s30.833 -17.5 53.5 -17.5s42.167 6 58.5 18s28.833 27.833 37.5 47.5s14.834 39.5 18.501 59.5s5.5 40.667 5.5 62z" />
    <glyph glyph-name="B" unicode="B" horiz-adv-x="510" 
d="M25 0l-0.000976562 519.998h250c136.667 0 205 -46.667 205 -140c0 -25.333 -6.66699 -46.666 -20 -63.999s-26.666 -28.666 -39.999 -33.999l-20 -7v-5c2.66699 -0.666992 6.16699 -1.66699 10.5 -3s11.833 -4.83301 22.5 -10.5s20.167 -12.5 28.5 -20.5
s16 -19.667 23 -35s10.5 -32.333 10.5 -51c0 -100 -68.333 -150 -205 -150h-265zM274.999 219.998h-110v-120h120c46.667 0 70 20 70 60s-26.667 60 -80 60zM164.999 309.998h100c50 0 75 18.333 75 55s-21.667 55 -65 55h-110v-110z" />
    <glyph glyph-name="C" unicode="C" horiz-adv-x="545" 
d="M20 260c0 79.333 22.832 144.998 68.499 196.998s109.5 78 191.5 78c42.667 0 80.334 -7 113.001 -21s57 -31.167 73 -51.5s28.833 -40.5 38.5 -60.5s15.5 -37 17.5 -51l3 -21h-140c0 2.66699 -0.333008 6.33398 -1 11.001s-3.16699 12.667 -7.5 24
s-9.83301 21.333 -16.5 30s-17 16.667 -31 24s-30.333 11 -49 11c-42 0 -72.5 -15.5 -91.5 -46.5s-28.5 -72.167 -28.5 -123.5s9.5 -92.5 28.5 -123.5s49.5 -46.5 91.5 -46.5c18.667 0 35 3.5 49 10.5s24.333 15.333 31 25s12.167 19.334 16.5 29.001
s6.83301 18.167 7.5 25.5l1 10h140c0 -2.66699 -0.333008 -6.5 -1 -11.5s-3.16699 -14.667 -7.5 -29s-9.5 -27.833 -15.5 -40.5s-15.333 -27 -28 -43s-27.167 -29.667 -43.5 -41s-37.5 -20.833 -63.5 -28.5s-54.667 -11.5 -86 -11.5c-82 0 -145.833 26 -191.5 78
s-68.5 117.667 -68.5 197z" />
    <glyph glyph-name="D" unicode="D" horiz-adv-x="570" 
d="M545 700l-0.00390625 -699.999h-135v70h-5c-1.33301 -2 -3.16602 -5 -5.49902 -9s-8.16602 -10.833 -17.499 -20.5s-19.666 -18.334 -30.999 -26.001s-26.5 -14.5 -45.5 -20.5s-39.167 -9 -60.5 -9c-71.333 0 -126.666 26.5 -165.999 79.5s-59 118.167 -59 195.5
s19.667 142.5 59 195.5s94.666 79.5 165.999 79.5c32.667 0 61.834 -5.83301 87.501 -17.5s43.5 -23.5 53.5 -35.5l14 -17h5v235h140zM409.996 260.001c0 50 -10.667 90.833 -32 122.5s-52.333 47.5 -93 47.5s-71.667 -15.833 -93 -47.5s-32 -72.5 -32 -122.5
s10.667 -90.833 32 -122.5s52.333 -47.5 93 -47.5s71.667 15.833 93 47.5s32 72.5 32 122.5z" />
    <glyph glyph-name="E" unicode="E" horiz-adv-x="550" 
d="M20 260c0 79.333 22.665 144.998 67.998 196.998s109.333 78 192 78c82 0 144.167 -25.667 186.5 -77s63.5 -117.333 63.5 -198l-1 -30h-368c6.66699 -93.333 48 -140 124 -140c16 0 30.333 2.66699 43 8s22.334 12 29.001 20s12.334 16 17.001 24s7.66699 14.667 9 20
l2 8h140c-0.666992 -5.33301 -2.16699 -12 -4.5 -20s-9 -22.667 -20 -44s-24.667 -40.166 -41 -56.499s-40.333 -31.166 -72 -44.499s-67.5 -20 -107.5 -20c-84 0 -148.333 25.833 -193 77.5s-67 117.5 -67 197.5zM279.998 429.998c-62.667 0 -101 -36.667 -115 -110h221
c-10 73.333 -45.333 110 -106 110z" />
    <glyph glyph-name="F" unicode="F" horiz-adv-x="455" 
d="M295 520h145.001v-110h-145v-410h-140v410h-140v110h140v15c0 120 61.667 180 185 180c19.333 0 37.333 -1.16699 54 -3.5s28.667 -4.83301 36 -7.5l10 -4v-110c-26.667 6.66699 -53.334 10 -80.001 10c-43.333 0 -65 -21.667 -65 -65v-15z" />
    <glyph glyph-name="G" unicode="G" horiz-adv-x="570" 
d="M545 520l-0.000976562 -459.999c0 -78.667 -21.667 -140.834 -65 -186.501s-108.333 -68.5 -195 -68.5c-44.667 0 -83.667 6.16699 -117 18.5s-57.833 27.333 -73.5 45s-28 35.334 -37 53.001s-14.167 32.5 -15.5 44.5l-2 19h140c0 -2 0.333008 -4.66699 1 -8
s3.16699 -9.33301 7.5 -18s9.83301 -16.334 16.5 -23.001s17 -12.667 31 -18s30.333 -8 49 -8c43.333 0 74.166 11.667 92.499 35s27.5 58.333 27.5 105v25h-5c-1.33301 -2 -3.16602 -4.5 -5.49902 -7.5s-8.16602 -8.5 -17.499 -16.5s-19.333 -15.167 -30 -21.5
s-25.167 -12 -43.5 -17s-37.833 -7.5 -58.5 -7.5c-71.333 0 -126.666 26 -165.999 78s-59 114.333 -59 187s19.667 135 59 187s94.666 78 165.999 78c34 0 64.333 -7.16699 91 -21.5s44.667 -28.5 54 -42.5l15 -21h5v70h135zM409.999 270.001
c0 45.333 -10.833 83.333 -32.5 114s-52.5 46 -92.5 46s-70.833 -15.333 -92.5 -46s-32.5 -68.667 -32.5 -114s10.833 -83.333 32.5 -114s52.5 -46 92.5 -46s70.833 15.333 92.5 46s32.5 68.667 32.5 114z" />
    <glyph glyph-name="H" unicode="H" horiz-adv-x="525" 
d="M360 0v205h-195v-205h-140v520h140v-205h195v205h140v-520h-140z" />
    <glyph glyph-name="I" unicode="I" horiz-adv-x="190" 
d="M165 520v-520h-140v520h140zM15 635c0 22 7.83301 40.833 23.5 56.5s34.5 23.5 56.5 23.5s40.833 -7.83301 56.5 -23.5s23.5 -34.5 23.5 -56.5s-7.83301 -40.833 -23.5 -56.5s-34.5 -23.5 -56.5 -23.5s-40.833 7.83301 -56.5 23.5s-23.5 34.5 -23.5 56.5z" />
    <glyph glyph-name="J" unicode="J" horiz-adv-x="190" 
d="M-55 -180l0.00195312 114.999h35c17.333 0 29.166 3.33301 35.499 10s9.5 20 9.5 40v535h140v-535c0 -61.333 -10.833 -104.166 -32.5 -128.499s-65.834 -36.5 -132.501 -36.5h-55zM15.002 634.999c0 22 7.83301 40.833 23.5 56.5s34.5 23.5 56.5 23.5
s40.833 -7.83301 56.5 -23.5s23.5 -34.5 23.5 -56.5s-7.83301 -40.833 -23.5 -56.5s-34.5 -23.5 -56.5 -23.5s-40.833 7.83301 -56.5 23.5s-23.5 34.5 -23.5 56.5z" />
    <glyph glyph-name="K" unicode="K" horiz-adv-x="540" 
d="M25 0v520h140v-210l185 210h165l-196 -203l206 -317h-171l-132 217l-57 -59v-158h-140z" />
    <glyph glyph-name="L" unicode="L" horiz-adv-x="435" 
d="M420 110v-110h-395v520h140v-410h255z" />
    <glyph glyph-name="M" unicode="M" horiz-adv-x="800" 
d="M330 0l-0.00195312 289.999c0 46 -5.5 79.167 -16.5 99.5s-29.833 30.5 -56.5 30.5c-61.333 0 -92 -50 -92 -150v-270h-140v520h135v-85h5c0.666992 2.66699 2 6.33398 4 11.001s7 12.667 15 24s16.833 21.333 26.5 30s23 16.667 40 24s35.167 11 54.5 11
c77.333 0 127 -33.667 149 -101l1 1h5l5.5 11c2.33301 4.66699 8 12.667 17 24s18.833 21.333 29.5 30s24.834 16.667 42.501 24s36.167 11 55.5 11c60.667 0 103.334 -19.167 128.001 -57.5s37 -90.833 37 -157.5v-320h-140v290c0 46 -5.5 79.167 -16.5 99.5
s-29.833 30.5 -56.5 30.5c-61.333 0 -92 -50 -92 -150v-270h-140z" />
    <glyph glyph-name="N" unicode="N" 
d="M25 0l0.00195312 520h135v-85h5l5.5 11c2.33301 4.66699 8.16602 12.667 17.499 24s19.666 21.333 30.999 30s26.5 16.667 45.5 24s39.167 11 60.5 11c123.333 0 185 -71.667 185 -215v-320h-140v290c0 45.333 -7 78.333 -21 99s-37 31 -69 31
c-76.667 0 -115 -50 -115 -150v-270h-140z" />
    <glyph glyph-name="O" unicode="O" horiz-adv-x="570" 
d="M160 260c0 -50.667 10.333 -91.667 31 -123s52 -47 94 -47s73.333 15.667 94 47s31 72.333 31 123s-10.333 91.667 -31 123s-52 47 -94 47s-73.333 -15.667 -94 -47s-31 -72.333 -31 -123zM20 260c0 79.333 23.5 145 70.5 197s111.833 78 194.5 78s147.5 -26 194.5 -78
s70.5 -117.667 70.5 -197s-23.5 -145 -70.5 -197s-111.833 -78 -194.5 -78s-147.5 26 -194.5 78s-70.5 117.667 -70.5 197z" />
    <glyph glyph-name="P" unicode="P" horiz-adv-x="570" 
d="M25 -180l0.00390625 699.999h135v-70h5c1.33301 2 3.16602 5 5.49902 9s8.16602 10.833 17.499 20.5s19.666 18.334 30.999 26.001s26.5 14.5 45.5 20.5s39.167 9 60.5 9c71.333 0 126.666 -26.5 165.999 -79.5s59 -118.167 59 -195.5s-19.667 -142.5 -59 -195.5
s-94.666 -79.5 -165.999 -79.5c-32.667 0 -61.834 5.83301 -87.501 17.5s-43.5 23.5 -53.5 35.5l-14 17h-5v-235h-140zM160.004 259.999c0 -50 10.667 -90.833 32 -122.5s52.333 -47.5 93 -47.5s71.667 15.833 93 47.5s32 72.5 32 122.5s-10.667 90.833 -32 122.5
s-52.333 47.5 -93 47.5s-71.667 -15.833 -93 -47.5s-32 -72.5 -32 -122.5z" />
    <glyph glyph-name="Q" unicode="Q" horiz-adv-x="570" 
d="M545 520l-0.00195312 -700h-140v235h-5c-1.33301 -2 -3.16602 -4.5 -5.49902 -7.5s-8.16602 -8.5 -17.499 -16.5s-19.333 -15.167 -30 -21.5s-25.167 -12 -43.5 -17s-37.833 -7.5 -58.5 -7.5c-71.333 0 -126.666 26.5 -165.999 79.5s-59 118.167 -59 195.5
s19.667 142.5 59 195.5s94.666 79.5 165.999 79.5c34 0 64.333 -7.16699 91 -21.5s44.667 -28.5 54 -42.5l15 -21h5v70h135zM409.998 260c0 50 -10.667 90.833 -32 122.5s-52.333 47.5 -93 47.5s-71.667 -15.833 -93 -47.5s-32 -72.5 -32 -122.5s10.667 -90.833 32 -122.5
s52.333 -47.5 93 -47.5s71.667 15.833 93 47.5s32 72.5 32 122.5z" />
    <glyph glyph-name="R" unicode="R" horiz-adv-x="470" 
d="M25 0v520h140v-110h70c18 0 30.833 0.333008 38.5 1s15.5 3 23.5 7s13 10.5 15 19.5s3 21.5 3 37.5v45h140v-60c0 -58 -12.833 -97.5 -38.5 -118.5s-74.5 -31.5 -146.5 -31.5h-105v-310h-140z" />
    <glyph glyph-name="S" unicode="S" horiz-adv-x="520" 
d="M20 170h134.998c0 -2.66699 0.166992 -6 0.5 -10s2.5 -11.167 6.5 -21.5s9.5 -19.5 16.5 -27.5s18 -15.167 33 -21.5s32.833 -9.5 53.5 -9.5c34 0 58.333 6.33301 73 19s22 28 22 46c0 20 -11.333 35.333 -34 46s-50.167 18.667 -82.5 24s-64.666 12.166 -96.999 20.499
s-59.833 23.666 -82.5 45.999s-34 51.833 -34 88.5c0 46.667 20.5 85.834 61.5 117.501s95.5 47.5 163.5 47.5c38 0 71.5 -4.16699 100.5 -12.5s51.333 -18.666 67 -30.999s28.5 -26.5 38.5 -42.5s16.5 -30.167 19.5 -42.5s4.5 -24.5 4.5 -36.5h-135
c0 2 -0.166992 4.5 -0.5 7.5s-2.16602 8.5 -5.49902 16.5s-8 15.167 -14 21.5s-15.5 12 -28.5 17s-28.5 7.5 -46.5 7.5c-26.667 0 -47.5 -5.83301 -62.5 -17.5s-22.5 -25.834 -22.5 -42.501c0 -16 11.333 -28.667 34 -38s50.167 -17 82.5 -23s64.666 -13.5 96.999 -22.5
s59.833 -25 82.5 -48s34 -52.5 34 -88.5c0 -51.333 -20.833 -93.333 -62.5 -126s-99.167 -49 -172.5 -49c-38.667 0 -73.167 4.5 -103.5 13.5s-54.166 20.333 -71.499 34s-31.5 29.334 -42.5 47.001s-18.333 33.667 -22 48s-5.5 28.5 -5.5 42.5z" />
    <glyph glyph-name="T" unicode="T" horiz-adv-x="500" 
d="M15 520l469.999 0.000976562v-110h-170v-245c0 -22.667 4.33301 -38.334 13 -47.001s24.334 -13 47.001 -13l45 5v-105c-16.667 -6.66699 -45 -10 -85 -10c-52.667 0 -92.5 10.167 -119.5 30.5s-40.5 58.5 -40.5 114.5v270h-160v110z" />
    <glyph glyph-name="U" unicode="U" 
d="M510 520l-0.00195312 -520h-135v85h-5l-5.5 -11c-2.33301 -4.66699 -8.16602 -12.667 -17.499 -24s-19.666 -21.333 -30.999 -30s-26.5 -16.667 -45.5 -24s-39.167 -11 -60.5 -11c-123.333 0 -185 71.667 -185 215v320h140v-290c0 -45.333 7 -78.333 21 -99
s37 -31 69 -31c76.667 0 115 50 115 150v270h140z" />
    <glyph glyph-name="V" unicode="V" horiz-adv-x="552" 
d="M542 520l-177 -520h-178l-177 520h150l120 -395l120 395h142z" />
    <glyph glyph-name="W" unicode="W" horiz-adv-x="757" 
d="M467 0l-89 333l-88 -333h-163l-117 520h140l68 -358l97 358h127l97 -358l68 358h140l-117 -520h-163z" />
    <glyph glyph-name="X" unicode="X" horiz-adv-x="570" 
d="M190 520l95 -150l95 150h165l-180 -250l195 -270h-165l-110 170l-110 -170h-165l195 270l-180 250h165z" />
    <glyph glyph-name="Y" unicode="Y" horiz-adv-x="550" 
d="M540 520l-184.999 -535c-21.333 -62 -47.333 -107.5 -78 -136.5s-71.334 -43.5 -122.001 -43.5c-14.667 0 -29.5 1.16699 -44.5 3.5s-26.5 4.83301 -34.5 7.5l-11 4v115c20 -6.66699 41.667 -10 65 -10s41.5 6 54.5 18s24.833 31 35.5 57l-210 520h150l127 -343l103 343
h150z" />
    <glyph glyph-name="Z" unicode="Z" 
d="M25 410v110.001h480v-110l-170 -160c5.33301 0 12.166 -0.5 20.499 -1.5s23.5 -5.66699 45.5 -14s41.333 -19.333 58 -33s31.834 -35 45.501 -64s20.5 -63.167 20.5 -102.5c0 -62.667 -21.667 -116.667 -65 -162s-105 -68 -185 -68c-90.667 0 -157.5 22.5 -200.5 67.5
s-64.5 100.833 -64.5 167.5h140c0 -38 10.167 -69.167 30.5 -93.5s51.833 -36.5 94.5 -36.5c34 0 60.833 11.167 80.5 33.5s29.5 51.166 29.5 86.499c0 41.333 -12.833 73.333 -38.5 96s-71.167 34 -136.5 34h-40v80l175 170h-320z" />
    <glyph glyph-name="bracketleft" unicode="[" horiz-adv-x="350" 
d="M130 -280v1080h220v-40h-180v-1000h180v-40h-220z" />
    <glyph glyph-name="backslash" unicode="\" horiz-adv-x="495" 
d="M458 -280l-458 1064l37 16l458 -1064z" />
    <glyph glyph-name="bracketright" unicode="]" horiz-adv-x="350" 
d="M220 800v-1080h-220v40h180v1000h-180v40h220z" />
    <glyph glyph-name="asciicircum" unicode="^" horiz-adv-x="536" 
d="M78 469l-28 28l218 218l218 -218l-28 -28l-190 190z" />
    <glyph glyph-name="underscore" unicode="_" horiz-adv-x="580" 
d="M30 0v40h520v-40h-520z" />
    <glyph glyph-name="a" unicode="a" horiz-adv-x="515" 
d="M170 360l-140.003 -0.00292969c4 62 27.5 106.667 70.5 134s97.833 41 164.5 41c68.667 0 123.334 -14.167 164.001 -42.5s61 -74.166 61 -137.499v-355h-140v100h-5c-0.666992 -3.33301 -2 -7.5 -4 -12.5s-7.33301 -14.167 -16 -27.5s-18.5 -25 -29.5 -35
s-26.833 -19.167 -47.5 -27.5s-43.334 -12.5 -68.001 -12.5c-50 0 -90 11.833 -120 35.5s-45 58.5 -45 104.5c0 80.667 55.333 135 166 163c9.33301 2.66699 21.5 5.66699 36.5 9l35.5 8c8.66699 2 18.834 4.66699 30.501 8s20.834 6.83301 27.501 10.5
s13.334 7.83398 20.001 12.501s11.5 10.334 14.5 17.001s4.5 14 4.5 22c0 20.667 -7.33301 36.667 -22 48s-35.667 17 -63 17c-61.333 0 -93 -26.667 -95 -80zM349.997 261.997c-14.667 -13.333 -51.334 -27.333 -110.001 -42c-55.333 -13.333 -83 -40 -83 -80
c0 -20 6.5 -35.833 19.5 -47.5s30.833 -17.5 53.5 -17.5s42.167 6 58.5 18s28.833 27.833 37.5 47.5s14.834 39.5 18.501 59.5s5.5 40.667 5.5 62z" />
    <glyph glyph-name="b" unicode="b" horiz-adv-x="510" 
d="M25 0l-0.000976562 519.998h250c136.667 0 205 -46.667 205 -140c0 -25.333 -6.66699 -46.666 -20 -63.999s-26.666 -28.666 -39.999 -33.999l-20 -7v-5c2.66699 -0.666992 6.16699 -1.66699 10.5 -3s11.833 -4.83301 22.5 -10.5s20.167 -12.5 28.5 -20.5
s16 -19.667 23 -35s10.5 -32.333 10.5 -51c0 -100 -68.333 -150 -205 -150h-265zM274.999 219.998h-110v-120h120c46.667 0 70 20 70 60s-26.667 60 -80 60zM164.999 309.998h100c50 0 75 18.333 75 55s-21.667 55 -65 55h-110v-110z" />
    <glyph glyph-name="c" unicode="c" horiz-adv-x="545" 
d="M20 260c0 79.333 22.832 144.998 68.499 196.998s109.5 78 191.5 78c42.667 0 80.334 -7 113.001 -21s57 -31.167 73 -51.5s28.833 -40.5 38.5 -60.5s15.5 -37 17.5 -51l3 -21h-140c0 2.66699 -0.333008 6.33398 -1 11.001s-3.16699 12.667 -7.5 24
s-9.83301 21.333 -16.5 30s-17 16.667 -31 24s-30.333 11 -49 11c-42 0 -72.5 -15.5 -91.5 -46.5s-28.5 -72.167 -28.5 -123.5s9.5 -92.5 28.5 -123.5s49.5 -46.5 91.5 -46.5c18.667 0 35 3.5 49 10.5s24.333 15.333 31 25s12.167 19.334 16.5 29.001
s6.83301 18.167 7.5 25.5l1 10h140c0 -2.66699 -0.333008 -6.5 -1 -11.5s-3.16699 -14.667 -7.5 -29s-9.5 -27.833 -15.5 -40.5s-15.333 -27 -28 -43s-27.167 -29.667 -43.5 -41s-37.5 -20.833 -63.5 -28.5s-54.667 -11.5 -86 -11.5c-82 0 -145.833 26 -191.5 78
s-68.5 117.667 -68.5 197z" />
    <glyph glyph-name="d" unicode="d" horiz-adv-x="570" 
d="M545 700l-0.00390625 -699.999h-135v70h-5c-1.33301 -2 -3.16602 -5 -5.49902 -9s-8.16602 -10.833 -17.499 -20.5s-19.666 -18.334 -30.999 -26.001s-26.5 -14.5 -45.5 -20.5s-39.167 -9 -60.5 -9c-71.333 0 -126.666 26.5 -165.999 79.5s-59 118.167 -59 195.5
s19.667 142.5 59 195.5s94.666 79.5 165.999 79.5c32.667 0 61.834 -5.83301 87.501 -17.5s43.5 -23.5 53.5 -35.5l14 -17h5v235h140zM409.996 260.001c0 50 -10.667 90.833 -32 122.5s-52.333 47.5 -93 47.5s-71.667 -15.833 -93 -47.5s-32 -72.5 -32 -122.5
s10.667 -90.833 32 -122.5s52.333 -47.5 93 -47.5s71.667 15.833 93 47.5s32 72.5 32 122.5z" />
    <glyph glyph-name="e" unicode="e" horiz-adv-x="550" 
d="M20 260c0 79.333 22.665 144.998 67.998 196.998s109.333 78 192 78c82 0 144.167 -25.667 186.5 -77s63.5 -117.333 63.5 -198l-1 -30h-368c6.66699 -93.333 48 -140 124 -140c16 0 30.333 2.66699 43 8s22.334 12 29.001 20s12.334 16 17.001 24s7.66699 14.667 9 20
l2 8h140c-0.666992 -5.33301 -2.16699 -12 -4.5 -20s-9 -22.667 -20 -44s-24.667 -40.166 -41 -56.499s-40.333 -31.166 -72 -44.499s-67.5 -20 -107.5 -20c-84 0 -148.333 25.833 -193 77.5s-67 117.5 -67 197.5zM279.998 429.998c-62.667 0 -101 -36.667 -115 -110h221
c-10 73.333 -45.333 110 -106 110z" />
    <glyph glyph-name="f" unicode="f" horiz-adv-x="455" 
d="M295 520h145.001v-110h-145v-410h-140v410h-140v110h140v15c0 120 61.667 180 185 180c19.333 0 37.333 -1.16699 54 -3.5s28.667 -4.83301 36 -7.5l10 -4v-110c-26.667 6.66699 -53.334 10 -80.001 10c-43.333 0 -65 -21.667 -65 -65v-15z" />
    <glyph glyph-name="g" unicode="g" horiz-adv-x="570" 
d="M545 520l-0.000976562 -459.999c0 -78.667 -21.667 -140.834 -65 -186.501s-108.333 -68.5 -195 -68.5c-44.667 0 -83.667 6.16699 -117 18.5s-57.833 27.333 -73.5 45s-28 35.334 -37 53.001s-14.167 32.5 -15.5 44.5l-2 19h140c0 -2 0.333008 -4.66699 1 -8
s3.16699 -9.33301 7.5 -18s9.83301 -16.334 16.5 -23.001s17 -12.667 31 -18s30.333 -8 49 -8c43.333 0 74.166 11.667 92.499 35s27.5 58.333 27.5 105v25h-5c-1.33301 -2 -3.16602 -4.5 -5.49902 -7.5s-8.16602 -8.5 -17.499 -16.5s-19.333 -15.167 -30 -21.5
s-25.167 -12 -43.5 -17s-37.833 -7.5 -58.5 -7.5c-71.333 0 -126.666 26 -165.999 78s-59 114.333 -59 187s19.667 135 59 187s94.666 78 165.999 78c34 0 64.333 -7.16699 91 -21.5s44.667 -28.5 54 -42.5l15 -21h5v70h135zM409.999 270.001
c0 45.333 -10.833 83.333 -32.5 114s-52.5 46 -92.5 46s-70.833 -15.333 -92.5 -46s-32.5 -68.667 -32.5 -114s10.833 -83.333 32.5 -114s52.5 -46 92.5 -46s70.833 15.333 92.5 46s32.5 68.667 32.5 114z" />
    <glyph glyph-name="h" unicode="h" horiz-adv-x="525" 
d="M360 0v205h-195v-205h-140v520h140v-205h195v205h140v-520h-140z" />
    <glyph glyph-name="i" unicode="i" horiz-adv-x="190" 
d="M165 520v-520h-140v520h140zM15 635c0 22 7.83301 40.833 23.5 56.5s34.5 23.5 56.5 23.5s40.833 -7.83301 56.5 -23.5s23.5 -34.5 23.5 -56.5s-7.83301 -40.833 -23.5 -56.5s-34.5 -23.5 -56.5 -23.5s-40.833 7.83301 -56.5 23.5s-23.5 34.5 -23.5 56.5z" />
    <glyph glyph-name="j" unicode="j" horiz-adv-x="190" 
d="M-55 -180l0.00195312 114.999h35c17.333 0 29.166 3.33301 35.499 10s9.5 20 9.5 40v535h140v-535c0 -61.333 -10.833 -104.166 -32.5 -128.499s-65.834 -36.5 -132.501 -36.5h-55zM15.002 634.999c0 22 7.83301 40.833 23.5 56.5s34.5 23.5 56.5 23.5
s40.833 -7.83301 56.5 -23.5s23.5 -34.5 23.5 -56.5s-7.83301 -40.833 -23.5 -56.5s-34.5 -23.5 -56.5 -23.5s-40.833 7.83301 -56.5 23.5s-23.5 34.5 -23.5 56.5z" />
    <glyph glyph-name="k" unicode="k" horiz-adv-x="540" 
d="M25 0v520h140v-210l185 210h165l-196 -203l206 -317h-171l-132 217l-57 -59v-158h-140z" />
    <glyph glyph-name="l" unicode="l" horiz-adv-x="435" 
d="M420 110v-110h-395v520h140v-410h255z" />
    <glyph glyph-name="m" unicode="m" horiz-adv-x="800" 
d="M330 0l-0.00195312 289.999c0 46 -5.5 79.167 -16.5 99.5s-29.833 30.5 -56.5 30.5c-61.333 0 -92 -50 -92 -150v-270h-140v520h135v-85h5c0.666992 2.66699 2 6.33398 4 11.001s7 12.667 15 24s16.833 21.333 26.5 30s23 16.667 40 24s35.167 11 54.5 11
c77.333 0 127 -33.667 149 -101l1 1h5l5.5 11c2.33301 4.66699 8 12.667 17 24s18.833 21.333 29.5 30s24.834 16.667 42.501 24s36.167 11 55.5 11c60.667 0 103.334 -19.167 128.001 -57.5s37 -90.833 37 -157.5v-320h-140v290c0 46 -5.5 79.167 -16.5 99.5
s-29.833 30.5 -56.5 30.5c-61.333 0 -92 -50 -92 -150v-270h-140z" />
    <glyph glyph-name="n" unicode="n" 
d="M25 0l0.00195312 520h135v-85h5l5.5 11c2.33301 4.66699 8.16602 12.667 17.499 24s19.666 21.333 30.999 30s26.5 16.667 45.5 24s39.167 11 60.5 11c123.333 0 185 -71.667 185 -215v-320h-140v290c0 45.333 -7 78.333 -21 99s-37 31 -69 31
c-76.667 0 -115 -50 -115 -150v-270h-140z" />
    <glyph glyph-name="o" unicode="o" horiz-adv-x="570" 
d="M160 260c0 -50.667 10.333 -91.667 31 -123s52 -47 94 -47s73.333 15.667 94 47s31 72.333 31 123s-10.333 91.667 -31 123s-52 47 -94 47s-73.333 -15.667 -94 -47s-31 -72.333 -31 -123zM20 260c0 79.333 23.5 145 70.5 197s111.833 78 194.5 78s147.5 -26 194.5 -78
s70.5 -117.667 70.5 -197s-23.5 -145 -70.5 -197s-111.833 -78 -194.5 -78s-147.5 26 -194.5 78s-70.5 117.667 -70.5 197z" />
    <glyph glyph-name="p" unicode="p" horiz-adv-x="570" 
d="M25 -180l0.00390625 699.999h135v-70h5c1.33301 2 3.16602 5 5.49902 9s8.16602 10.833 17.499 20.5s19.666 18.334 30.999 26.001s26.5 14.5 45.5 20.5s39.167 9 60.5 9c71.333 0 126.666 -26.5 165.999 -79.5s59 -118.167 59 -195.5s-19.667 -142.5 -59 -195.5
s-94.666 -79.5 -165.999 -79.5c-32.667 0 -61.834 5.83301 -87.501 17.5s-43.5 23.5 -53.5 35.5l-14 17h-5v-235h-140zM160.004 259.999c0 -50 10.667 -90.833 32 -122.5s52.333 -47.5 93 -47.5s71.667 15.833 93 47.5s32 72.5 32 122.5s-10.667 90.833 -32 122.5
s-52.333 47.5 -93 47.5s-71.667 -15.833 -93 -47.5s-32 -72.5 -32 -122.5z" />
    <glyph glyph-name="q" unicode="q" horiz-adv-x="570" 
d="M545 520l-0.00195312 -700h-140v235h-5c-1.33301 -2 -3.16602 -4.5 -5.49902 -7.5s-8.16602 -8.5 -17.499 -16.5s-19.333 -15.167 -30 -21.5s-25.167 -12 -43.5 -17s-37.833 -7.5 -58.5 -7.5c-71.333 0 -126.666 26.5 -165.999 79.5s-59 118.167 -59 195.5
s19.667 142.5 59 195.5s94.666 79.5 165.999 79.5c34 0 64.333 -7.16699 91 -21.5s44.667 -28.5 54 -42.5l15 -21h5v70h135zM409.998 260c0 50 -10.667 90.833 -32 122.5s-52.333 47.5 -93 47.5s-71.667 -15.833 -93 -47.5s-32 -72.5 -32 -122.5s10.667 -90.833 32 -122.5
s52.333 -47.5 93 -47.5s71.667 15.833 93 47.5s32 72.5 32 122.5z" />
    <glyph glyph-name="r" unicode="r" horiz-adv-x="470" 
d="M25 0v520h140v-110h70c18 0 30.833 0.333008 38.5 1s15.5 3 23.5 7s13 10.5 15 19.5s3 21.5 3 37.5v45h140v-60c0 -58 -12.833 -97.5 -38.5 -118.5s-74.5 -31.5 -146.5 -31.5h-105v-310h-140z" />
    <glyph glyph-name="s" unicode="s" horiz-adv-x="520" 
d="M20 170h134.998c0 -2.66699 0.166992 -6 0.5 -10s2.5 -11.167 6.5 -21.5s9.5 -19.5 16.5 -27.5s18 -15.167 33 -21.5s32.833 -9.5 53.5 -9.5c34 0 58.333 6.33301 73 19s22 28 22 46c0 20 -11.333 35.333 -34 46s-50.167 18.667 -82.5 24s-64.666 12.166 -96.999 20.499
s-59.833 23.666 -82.5 45.999s-34 51.833 -34 88.5c0 46.667 20.5 85.834 61.5 117.501s95.5 47.5 163.5 47.5c38 0 71.5 -4.16699 100.5 -12.5s51.333 -18.666 67 -30.999s28.5 -26.5 38.5 -42.5s16.5 -30.167 19.5 -42.5s4.5 -24.5 4.5 -36.5h-135
c0 2 -0.166992 4.5 -0.5 7.5s-2.16602 8.5 -5.49902 16.5s-8 15.167 -14 21.5s-15.5 12 -28.5 17s-28.5 7.5 -46.5 7.5c-26.667 0 -47.5 -5.83301 -62.5 -17.5s-22.5 -25.834 -22.5 -42.501c0 -16 11.333 -28.667 34 -38s50.167 -17 82.5 -23s64.666 -13.5 96.999 -22.5
s59.833 -25 82.5 -48s34 -52.5 34 -88.5c0 -51.333 -20.833 -93.333 -62.5 -126s-99.167 -49 -172.5 -49c-38.667 0 -73.167 4.5 -103.5 13.5s-54.166 20.333 -71.499 34s-31.5 29.334 -42.5 47.001s-18.333 33.667 -22 48s-5.5 28.5 -5.5 42.5z" />
    <glyph glyph-name="t" unicode="t" horiz-adv-x="500" 
d="M15 520l469.999 0.000976562v-110h-170v-245c0 -22.667 4.33301 -38.334 13 -47.001s24.334 -13 47.001 -13l45 5v-105c-16.667 -6.66699 -45 -10 -85 -10c-52.667 0 -92.5 10.167 -119.5 30.5s-40.5 58.5 -40.5 114.5v270h-160v110z" />
    <glyph glyph-name="u" unicode="u" 
d="M510 520l-0.00195312 -520h-135v85h-5l-5.5 -11c-2.33301 -4.66699 -8.16602 -12.667 -17.499 -24s-19.666 -21.333 -30.999 -30s-26.5 -16.667 -45.5 -24s-39.167 -11 -60.5 -11c-123.333 0 -185 71.667 -185 215v320h140v-290c0 -45.333 7 -78.333 21 -99
s37 -31 69 -31c76.667 0 115 50 115 150v270h140z" />
    <glyph glyph-name="v" unicode="v" horiz-adv-x="552" 
d="M542 520l-177 -520h-178l-177 520h150l120 -395l120 395h142z" />
    <glyph glyph-name="w" unicode="w" horiz-adv-x="757" 
d="M467 0l-89 333l-88 -333h-163l-117 520h140l68 -358l97 358h127l97 -358l68 358h140l-117 -520h-163z" />
    <glyph glyph-name="x" unicode="x" horiz-adv-x="570" 
d="M190 520l95 -150l95 150h165l-180 -250l195 -270h-165l-110 170l-110 -170h-165l195 270l-180 250h165z" />
    <glyph glyph-name="y" unicode="y" horiz-adv-x="550" 
d="M540 520l-184.999 -535c-21.333 -62 -47.333 -107.5 -78 -136.5s-71.334 -43.5 -122.001 -43.5c-14.667 0 -29.5 1.16699 -44.5 3.5s-26.5 4.83301 -34.5 7.5l-11 4v115c20 -6.66699 41.667 -10 65 -10s41.5 6 54.5 18s24.833 31 35.5 57l-210 520h150l127 -343l103 343
h150z" />
    <glyph glyph-name="z" unicode="z" 
d="M25 410v110.001h480v-110l-170 -160c5.33301 0 12.166 -0.5 20.499 -1.5s23.5 -5.66699 45.5 -14s41.333 -19.333 58 -33s31.834 -35 45.501 -64s20.5 -63.167 20.5 -102.5c0 -62.667 -21.667 -116.667 -65 -162s-105 -68 -185 -68c-90.667 0 -157.5 22.5 -200.5 67.5
s-64.5 100.833 -64.5 167.5h140c0 -38 10.167 -69.167 30.5 -93.5s51.833 -36.5 94.5 -36.5c34 0 60.833 11.167 80.5 33.5s29.5 51.166 29.5 86.499c0 41.333 -12.833 73.333 -38.5 96s-71.167 34 -136.5 34h-40v80l175 170h-320z" />
    <glyph glyph-name="braceleft" unicode="{" horiz-adv-x="355" 
d="M170 -155v309.999c0 27.333 -8 48.333 -24 63s-36.333 22 -61 22h-35v40h35c24.667 0 45 7.33301 61 22s24 35.667 24 63v310c0 38.667 11.833 69.167 35.5 91.5s53.5 33.5 89.5 33.5h60v-40h-60c-24.667 0 -45 -7.33301 -61 -22s-24 -35.667 -24 -63v-310
c0 -23.333 -5.5 -43.5 -16.5 -60.5s-21 -28.167 -30 -33.5s-16.833 -9 -23.5 -11c4.66699 -1.33301 10 -3.66602 16 -6.99902s13.5 -8.83301 22.5 -16.5s16.5 -18.667 22.5 -33s9 -30.5 9 -48.5v-310c0 -27.333 8 -48.333 24 -63s36.333 -22 61 -22h60v-40h-60
c-36 0 -65.833 11.167 -89.5 33.5s-35.5 52.833 -35.5 91.5z" />
    <glyph glyph-name="bar" unicode="|" horiz-adv-x="240" 
d="M100 -280v1080h40v-1080h-40z" />
    <glyph glyph-name="braceright" unicode="}" horiz-adv-x="355" 
d="M185 155l0.000976562 -309.999c0 -38.667 -11.833 -69.167 -35.5 -91.5s-53.5 -33.5 -89.5 -33.5h-60v40h60c24.667 0 45 7.33301 61 22s24 35.667 24 63v310c0 18 3 34.167 9 48.5s13.667 25.333 23 33s16.666 13.167 21.999 16.5s10.333 5.66602 15 6.99902
c-6.66699 2 -14.5 5.66699 -23.5 11s-18.833 16.5 -29.5 33.5s-16 37.167 -16 60.5v310c0 27.333 -8 48.333 -24 63s-36.333 22 -61 22h-60v40h60c36 0 65.833 -11.167 89.5 -33.5s35.5 -52.833 35.5 -91.5v-310c0 -27.333 8 -48.333 24 -63s36.333 -22 61 -22h35v-40h-35
c-24.667 0 -45 -7.33301 -61 -22s-24 -35.667 -24 -63z" />
    <glyph glyph-name="asciitilde" unicode="~" horiz-adv-x="580" 
d="M510 335h40c0 -32.667 -12.333 -60 -37 -82s-57.334 -33 -98.001 -33c-37.333 0 -81.333 13.333 -132 40s-90 40 -118 40c-29.333 0 -52.5 -7.16699 -69.5 -21.5s-25.5 -32.166 -25.5 -53.499h-40c0 32.667 12.333 60 37 82s57.334 33 98.001 33
c37.333 0 81 -13.333 131 -40s89.667 -40 119 -40s52.5 7.16699 69.5 21.5s25.5 32.166 25.5 53.499z" />
    <glyph glyph-name="exclamdown" unicode="&#xa1;" horiz-adv-x="220" 
d="M190 450c0 -22 -7.83301 -40.833 -23.5 -56.5s-34.5 -23.5 -56.5 -23.5s-40.833 7.83301 -56.5 23.5s-23.5 34.5 -23.5 56.5s7.83301 40.833 23.5 56.5s34.5 23.5 56.5 23.5s40.833 -7.83301 56.5 -23.5s23.5 -34.5 23.5 -56.5zM40 -180v500h140v-500h-140z" />
    <glyph glyph-name="cent" unicode="&#xa2;" horiz-adv-x="545" 
d="M260 -180l-0.00292969 166.002c-76 4.66699 -135 32.5 -177 83.5s-63 114.5 -63 190.5s21 139.5 63 190.5s101 78.833 177 83.5v166h40v-166c28.667 -1.33301 54.834 -6.16602 78.501 -14.499s43.167 -18.5 58.5 -30.5s28.666 -25.167 39.999 -39.5s20 -28.5 26 -42.5
s10.833 -26.833 14.5 -38.5s5.83398 -21.167 6.50098 -28.5l1 -10h-140c0 2 -0.333008 5 -1 9s-2.66699 11.167 -6 21.5s-7.83301 19.666 -13.5 27.999s-14.167 16.5 -25.5 24.5s-24.333 13 -39 15v-337c24 4 43 14.167 57 30.5s22.333 31.833 25 46.5l3 22h140
c-0.666992 -5.33301 -1.66699 -12.333 -3 -21s-6.66602 -24.334 -15.999 -47.001s-21.166 -42.834 -35.499 -60.501s-36.5 -34.167 -66.5 -49.5s-64.667 -24 -104 -26v-166h-40zM159.997 260.002c0 -102.667 33.333 -159 100 -169v337c-66.667 -10 -100 -66 -100 -168z" />
    <glyph glyph-name="currency" unicode="&#xa4;" horiz-adv-x="576" 
d="M118 72l-28 28l68 68c-23.333 30 -35 64 -35 102s11.667 72 35 102l-68 68l28 28l68 -68c30 23.333 64 35 102 35s72 -11.667 102 -35l68 68l28 -28l-68 -68c23.333 -30 35 -64 35 -102s-11.667 -72 -35 -102l68 -68l-28 -28l-68 68c-30 -23.333 -64 -35 -102 -35
s-72 11.667 -102 35zM163 270c0 -34.667 12.167 -64.167 36.5 -88.5s53.833 -36.5 88.5 -36.5s64.167 12.167 88.5 36.5s36.5 53.833 36.5 88.5s-12.167 64.167 -36.5 88.5s-53.833 36.5 -88.5 36.5s-64.167 -12.167 -88.5 -36.5s-36.5 -53.833 -36.5 -88.5z" />
    <glyph glyph-name="yen" unicode="&#xa5;" horiz-adv-x="570" 
d="M75 210v40h125l-195 270h160l120 -185l120 185h160l-195 -270h125v-40h-140v-30h140v-40h-140v-140h-140v140h-140v40h140v30h-140z" />
    <glyph glyph-name="brokenbar" unicode="&#xa6;" horiz-adv-x="240" 
d="M100 -280v480h40v-480h-40zM100 320v480h40v-480h-40z" />
    <glyph glyph-name="section" unicode="&#xa7;" horiz-adv-x="520" 
d="M490 520h-135c0 2 -0.166992 4.5 -0.5 7.5s-2.16602 8.5 -5.49902 16.5s-8 15.167 -14 21.5s-15.5 12 -28.5 17s-28.5 7.5 -46.5 7.5c-26.667 0 -47.5 -5.83301 -62.5 -17.5s-22.5 -25.834 -22.5 -42.501c0 -20 11.333 -36.333 34 -49s50.167 -23 82.5 -31
s64.666 -17.5 96.999 -28.5s59.833 -28.333 82.5 -52s34 -53.5 34 -89.5c0 -18.667 -4 -35.834 -12 -51.501s-17.5 -28.167 -28.5 -37.5s-22.167 -17.333 -33.5 -24s-21 -11 -29 -13l-12 -4v-5c2.66699 -0.666992 6.16699 -1.66699 10.5 -3s11.833 -5.16602 22.5 -11.499
s20.167 -13.333 28.5 -21s16 -18.667 23 -33s10.5 -29.833 10.5 -46.5c0 -46.667 -20.5 -85.834 -61.5 -117.501s-95.5 -47.5 -163.5 -47.5c-38 0 -71.5 4.16699 -100.5 12.5s-51.333 18.666 -67 30.999s-28.5 26.5 -38.5 42.5s-16.5 30.167 -19.5 42.5s-4.5 24.5 -4.5 36.5
h135c0 -2 0.166992 -4.5 0.5 -7.5s2.16602 -8.5 5.49902 -16.5s8 -15.167 14 -21.5s15.5 -12 28.5 -17s28.5 -7.5 46.5 -7.5c26.667 0 47.5 5.83301 62.5 17.5s22.5 25.834 22.5 42.501c0 20 -11.333 36.333 -34 49s-50.167 23 -82.5 31s-64.666 17.5 -96.999 28.5
s-59.833 28.333 -82.5 52s-34 53.5 -34 89.5c0 18.667 4 35.834 12 51.501s17.5 28.167 28.5 37.5s22.167 17.333 33.5 24s21 11 29 13l12 4v5c-2.66699 0.666992 -6.16699 1.66699 -10.5 3s-11.833 5.16602 -22.5 11.499s-20.167 13.333 -28.5 21s-16 18.667 -23 33
s-10.5 29.833 -10.5 46.5c0 46.667 20.5 85.834 61.5 117.501s95.5 47.5 163.5 47.5c38 0 71.5 -4.16699 100.5 -12.5s51.333 -18.666 67 -30.999s28.5 -26.5 38.5 -42.5s16.5 -30.167 19.5 -42.5s4.5 -24.5 4.5 -36.5zM145 275c0 -23.333 10.167 -42.5 30.5 -57.5
s48.5 -22.5 84.5 -22.5s64.167 7.5 84.5 22.5s30.5 34.167 30.5 57.5s-10.167 42.5 -30.5 57.5s-48.5 22.5 -84.5 22.5s-64.167 -7.5 -84.5 -22.5s-30.5 -34.167 -30.5 -57.5z" />
    <glyph glyph-name="copyright" unicode="&#xa9;" horiz-adv-x="970" 
d="M225 250c0 79.333 22.832 144.998 68.499 196.998s109.5 78 191.5 78c42.667 0 80.334 -7 113.001 -21s57 -31.167 73 -51.5s28.833 -40.5 38.5 -60.5s15.5 -37 17.5 -51l3 -21h-140c0 2.66699 -0.333008 6.33398 -1 11.001s-3.16699 12.667 -7.5 24
s-9.83301 21.333 -16.5 30s-17 16.667 -31 24s-30.333 11 -49 11c-42 0 -72.5 -15.5 -91.5 -46.5s-28.5 -72.167 -28.5 -123.5s9.5 -92.5 28.5 -123.5s49.5 -46.5 91.5 -46.5c18.667 0 35 3.5 49 10.5s24.5 15.333 31.5 25s12.5 19.334 16.5 29.001s6.33301 18.167 7 25.5
l1 10h140c0 -2.66699 -0.333008 -6.5 -1 -11.5s-3.16699 -14.667 -7.5 -29s-9.5 -27.833 -15.5 -40.5s-15.333 -27 -28 -43s-27.167 -29.667 -43.5 -41s-37.5 -20.833 -63.5 -28.5s-54.667 -11.5 -86 -11.5c-82 0 -145.833 26 -191.5 78s-68.5 117.667 -68.5 197z
M29.999 249.998c0 125.333 44.5 232.5 133.5 321.5s196.167 133.5 321.5 133.5s232.5 -44.5 321.5 -133.5s133.5 -196.167 133.5 -321.5s-44.5 -232.5 -133.5 -321.5s-196.167 -133.5 -321.5 -133.5s-232.5 44.5 -321.5 133.5s-133.5 196.167 -133.5 321.5zM69.999 249.998
c0 -114.667 40.5 -212.5 121.5 -293.5s178.833 -121.5 293.5 -121.5s212.5 40.5 293.5 121.5s121.5 178.833 121.5 293.5s-40.5 212.5 -121.5 293.5s-178.833 121.5 -293.5 121.5s-212.5 -40.5 -293.5 -121.5s-121.5 -178.833 -121.5 -293.5z" />
    <glyph glyph-name="guillemotleft" unicode="&#xab;" horiz-adv-x="516" 
d="M278 42l-218 218l218 218l28 -28l-190 -190l190 -190zM428 42l-218 218l218 218l28 -28l-190 -190l190 -190z" />
    <glyph glyph-name="logicalnot" unicode="&#xac;" horiz-adv-x="540" 
d="M30 330v40h480v-230h-40v190h-440z" />
    <glyph glyph-name="registered" unicode="&#xae;" horiz-adv-x="970" 
d="M30 260c0 125.333 44.5 232.5 133.5 321.5s196.167 133.5 321.5 133.5s232.5 -44.5 321.5 -133.5s133.5 -196.167 133.5 -321.5s-44.5 -232.5 -133.5 -321.5s-196.167 -133.5 -321.5 -133.5s-232.5 44.5 -321.5 133.5s-133.5 196.167 -133.5 321.5zM70 260
c0 -114.667 40.5 -212.5 121.5 -293.5s178.833 -121.5 293.5 -121.5s212.5 40.5 293.5 121.5s121.5 178.833 121.5 293.5s-40.5 212.5 -121.5 293.5s-178.833 121.5 -293.5 121.5s-212.5 -40.5 -293.5 -121.5s-121.5 -178.833 -121.5 -293.5zM625 240
c2.66699 0.666992 6.16699 1.83203 10.5 3.49902s11.833 5.83398 22.5 12.501s20.167 14.334 28.5 23.001s16 21.167 23 37.5s10.5 34.166 10.5 53.499c0 100 -75 150 -225 150h-240v-520h140v190h85c29.333 0 50.5 -7.66699 63.5 -23s21.833 -41 26.5 -77
c2.66699 -21.333 6 -39.5 10 -54.5s7.33301 -24.833 10 -29.5l4 -6h151v10c-13.333 13.333 -23.333 43.333 -30 90c-10.667 75.333 -40.667 120.333 -90 135v5zM475 289.998h-80v130h80c37.333 0 64.166 -5.16699 80.499 -15.5s24.5 -26.833 24.5 -49.5
s-8.16699 -39.167 -24.5 -49.5s-43.166 -15.5 -80.499 -15.5z" />
    <glyph glyph-name="degree" unicode="&#xb0;" horiz-adv-x="330" 
d="M40 590c0 34.667 12.167 64.167 36.5 88.5s53.833 36.5 88.5 36.5s64.167 -12.167 88.5 -36.5s36.5 -53.833 36.5 -88.5s-12.167 -64.167 -36.5 -88.5s-53.833 -36.5 -88.5 -36.5s-64.167 12.167 -88.5 36.5s-36.5 53.833 -36.5 88.5zM80 590
c0 -23.333 8.33301 -43.333 25 -60s36.667 -25 60 -25s43.333 8.33301 60 25s25 36.667 25 60s-8.33301 43.333 -25 60s-36.667 25 -60 25s-43.333 -8.33301 -60 -25s-25 -36.667 -25 -60z" />
    <glyph glyph-name="plusminus" unicode="&#xb1;" horiz-adv-x="540" 
d="M30 270v40h220v210h40v-210h220v-40h-220v-200h-40v200h-220zM30 0v40h480v-40h-480z" />
    <glyph glyph-name="paragraph" unicode="&#xb6;" horiz-adv-x="490" 
d="M350 -180v880h50v-880h-50zM50 520c0 49.333 17.667 91.668 53 127.001s77.666 53 126.999 53h70v-880h-50v520h-20c-49.333 0 -91.666 17.667 -126.999 53s-53 77.666 -53 126.999z" />
    <glyph glyph-name="periodcentered" unicode="&#xb7;" horiz-adv-x="360" 
d="M100 280c0 22 7.83301 40.833 23.5 56.5s34.5 23.5 56.5 23.5s40.833 -7.83301 56.5 -23.5s23.5 -34.5 23.5 -56.5s-7.83301 -40.833 -23.5 -56.5s-34.5 -23.5 -56.5 -23.5s-40.833 7.83301 -56.5 23.5s-23.5 34.5 -23.5 56.5z" />
    <glyph glyph-name="guillemotright" unicode="&#xbb;" horiz-adv-x="516" 
d="M456 260l-218 -218l-28 28l190 190l-190 190l28 28zM306 260l-218 -218l-28 28l190 190l-190 190l28 28z" />
    <glyph glyph-name="questiondown" unicode="&#xbf;" horiz-adv-x="545" 
d="M385 55l140.001 0.000976562c0 -78 -22.5 -139.167 -67.5 -183.5s-107.5 -66.5 -187.5 -66.5c-72 0 -131.667 19.167 -179 57.5s-71 89.166 -71 152.499c0 28.667 5 54.5 15 77.5s22.333 41.333 37 55s30.667 27.167 48 40.5l48 36c14.667 10.667 27 24.334 37 41.001
s15 35 15 55h140v-10c0 -33.333 -6.5 -62.5 -19.5 -87.5s-28.833 -44.833 -47.5 -59.5s-37.334 -28.334 -56.001 -41.001s-34.5 -27 -47.5 -43s-19.5 -34 -19.5 -54c0 -28.667 9 -51.667 27 -69s44 -26 78 -26c32.667 0 59.167 10.167 79.5 30.5s30.5 51.833 30.5 94.5z
M370.001 450.001c0 -22 -7.83301 -40.833 -23.5 -56.5s-34.5 -23.5 -56.5 -23.5s-40.833 7.83301 -56.5 23.5s-23.5 34.5 -23.5 56.5s7.83301 40.833 23.5 56.5s34.5 23.5 56.5 23.5s40.833 -7.83301 56.5 -23.5s23.5 -34.5 23.5 -56.5z" />
    <glyph glyph-name="Agrave" unicode="&#xc0;" horiz-adv-x="515" 
d="M170 360l-140.003 -0.00292969c4 62 27.5 106.667 70.5 134s97.833 41 164.5 41c68.667 0 123.334 -14.167 164.001 -42.5s61 -74.166 61 -137.499v-355h-140v100h-5c-0.666992 -3.33301 -2 -7.5 -4 -12.5s-7.33301 -14.167 -16 -27.5s-18.5 -25 -29.5 -35
s-26.833 -19.167 -47.5 -27.5s-43.334 -12.5 -68.001 -12.5c-50 0 -90 11.833 -120 35.5s-45 58.5 -45 104.5c0 80.667 55.333 135 166 163c9.33301 2.66699 21.5 5.66699 36.5 9l35.5 8c8.66699 2 18.834 4.66699 30.501 8s20.834 6.83301 27.501 10.5
s13.334 7.83398 20.001 12.501s11.5 10.334 14.5 17.001s4.5 14 4.5 22c0 20.667 -7.33301 36.667 -22 48s-35.667 17 -63 17c-61.333 0 -93 -26.667 -95 -80zM349.997 261.997c-14.667 -13.333 -51.334 -27.333 -110.001 -42c-55.333 -13.333 -83 -40 -83 -80
c0 -20 6.5 -35.833 19.5 -47.5s30.833 -17.5 53.5 -17.5s42.167 6 58.5 18s28.833 27.833 37.5 47.5s14.834 39.5 18.501 59.5s5.5 40.667 5.5 62zM301.997 592.997l-28 -28l-167 167l28 28z" />
    <glyph glyph-name="Aacute" unicode="&#xc1;" horiz-adv-x="515" 
d="M170 360l-140.003 -0.00292969c4 62 27.5 106.667 70.5 134s97.833 41 164.5 41c68.667 0 123.334 -14.167 164.001 -42.5s61 -74.166 61 -137.499v-355h-140v100h-5c-0.666992 -3.33301 -2 -7.5 -4 -12.5s-7.33301 -14.167 -16 -27.5s-18.5 -25 -29.5 -35
s-26.833 -19.167 -47.5 -27.5s-43.334 -12.5 -68.001 -12.5c-50 0 -90 11.833 -120 35.5s-45 58.5 -45 104.5c0 80.667 55.333 135 166 163c9.33301 2.66699 21.5 5.66699 36.5 9l35.5 8c8.66699 2 18.834 4.66699 30.501 8s20.834 6.83301 27.501 10.5
s13.334 7.83398 20.001 12.501s11.5 10.334 14.5 17.001s4.5 14 4.5 22c0 20.667 -7.33301 36.667 -22 48s-35.667 17 -63 17c-61.333 0 -93 -26.667 -95 -80zM349.997 261.997c-14.667 -13.333 -51.334 -27.333 -110.001 -42c-55.333 -13.333 -83 -40 -83 -80
c0 -20 6.5 -35.833 19.5 -47.5s30.833 -17.5 53.5 -17.5s42.167 6 58.5 18s28.833 27.833 37.5 47.5s14.834 39.5 18.501 59.5s5.5 40.667 5.5 62zM239.997 564.997l-28 28l167 167l28 -28z" />
    <glyph glyph-name="Acircumflex" unicode="&#xc2;" horiz-adv-x="515" 
d="M170 360l-140.003 -0.00292969c4 62 27.5 106.667 70.5 134s97.833 41 164.5 41c68.667 0 123.334 -14.167 164.001 -42.5s61 -74.166 61 -137.499v-355h-140v100h-5c-0.666992 -3.33301 -2 -7.5 -4 -12.5s-7.33301 -14.167 -16 -27.5s-18.5 -25 -29.5 -35
s-26.833 -19.167 -47.5 -27.5s-43.334 -12.5 -68.001 -12.5c-50 0 -90 11.833 -120 35.5s-45 58.5 -45 104.5c0 80.667 55.333 135 166 163c9.33301 2.66699 21.5 5.66699 36.5 9l35.5 8c8.66699 2 18.834 4.66699 30.501 8s20.834 6.83301 27.501 10.5
s13.334 7.83398 20.001 12.501s11.5 10.334 14.5 17.001s4.5 14 4.5 22c0 20.667 -7.33301 36.667 -22 48s-35.667 17 -63 17c-61.333 0 -93 -26.667 -95 -80zM349.997 261.997c-14.667 -13.333 -51.334 -27.333 -110.001 -42c-55.333 -13.333 -83 -40 -83 -80
c0 -20 6.5 -35.833 19.5 -47.5s30.833 -17.5 53.5 -17.5s42.167 6 58.5 18s28.833 27.833 37.5 47.5s14.834 39.5 18.501 59.5s5.5 40.667 5.5 62zM444.997 581.997l-26 -31l-159 134l-159 -134l-26 31l185 154z" />
    <glyph glyph-name="Atilde" unicode="&#xc3;" horiz-adv-x="515" 
d="M170 360l-140.003 -0.00292969c4 62 27.5 106.667 70.5 134s97.833 41 164.5 41c68.667 0 123.334 -14.167 164.001 -42.5s61 -74.166 61 -137.499v-355h-140v100h-5c-0.666992 -3.33301 -2 -7.5 -4 -12.5s-7.33301 -14.167 -16 -27.5s-18.5 -25 -29.5 -35
s-26.833 -19.167 -47.5 -27.5s-43.334 -12.5 -68.001 -12.5c-50 0 -90 11.833 -120 35.5s-45 58.5 -45 104.5c0 80.667 55.333 135 166 163c9.33301 2.66699 21.5 5.66699 36.5 9l35.5 8c8.66699 2 18.834 4.66699 30.501 8s20.834 6.83301 27.501 10.5
s13.334 7.83398 20.001 12.501s11.5 10.334 14.5 17.001s4.5 14 4.5 22c0 20.667 -7.33301 36.667 -22 48s-35.667 17 -63 17c-61.333 0 -93 -26.667 -95 -80zM349.997 261.997c-14.667 -13.333 -51.334 -27.333 -110.001 -42c-55.333 -13.333 -83 -40 -83 -80
c0 -20 6.5 -35.833 19.5 -47.5s30.833 -17.5 53.5 -17.5s42.167 6 58.5 18s28.833 27.833 37.5 47.5s14.834 39.5 18.501 59.5s5.5 40.667 5.5 62zM426.997 699.997h39.999c0 -32 -9.83301 -59.167 -29.5 -81.5s-44.834 -33.5 -75.501 -33.5
c-24.667 0 -48.167 6.66699 -70.5 20s-43.5 26.666 -63.5 39.999s-38.667 20 -56 20c-20 0 -35.833 -7.16699 -47.5 -21.5s-17.5 -32.166 -17.5 -53.499h-40c0 32 9.83301 59.167 29.5 81.5s44.834 33.5 75.501 33.5c24.667 0 48 -6.66699 70 -20
s42.833 -26.666 62.5 -39.999s38.834 -20 57.501 -20c20 0 35.833 7.16699 47.5 21.5s17.5 32.166 17.5 53.499z" />
    <glyph glyph-name="Adieresis" unicode="&#xc4;" horiz-adv-x="515" 
d="M170 360l-140.003 -0.00292969c4 62 27.5 106.667 70.5 134s97.833 41 164.5 41c68.667 0 123.334 -14.167 164.001 -42.5s61 -74.166 61 -137.499v-355h-140v100h-5c-0.666992 -3.33301 -2 -7.5 -4 -12.5s-7.33301 -14.167 -16 -27.5s-18.5 -25 -29.5 -35
s-26.833 -19.167 -47.5 -27.5s-43.334 -12.5 -68.001 -12.5c-50 0 -90 11.833 -120 35.5s-45 58.5 -45 104.5c0 80.667 55.333 135 166 163c9.33301 2.66699 21.5 5.66699 36.5 9l35.5 8c8.66699 2 18.834 4.66699 30.501 8s20.834 6.83301 27.501 10.5
s13.334 7.83398 20.001 12.501s11.5 10.334 14.5 17.001s4.5 14 4.5 22c0 20.667 -7.33301 36.667 -22 48s-35.667 17 -63 17c-61.333 0 -93 -26.667 -95 -80zM349.997 261.997c-14.667 -13.333 -51.334 -27.333 -110.001 -42c-55.333 -13.333 -83 -40 -83 -80
c0 -20 6.5 -35.833 19.5 -47.5s30.833 -17.5 53.5 -17.5s42.167 6 58.5 18s28.833 27.833 37.5 47.5s14.834 39.5 18.501 59.5s5.5 40.667 5.5 62zM64.9971 634.997c0 22 7.83301 40.833 23.5 56.5s34.5 23.5 56.5 23.5s40.833 -7.83301 56.5 -23.5s23.5 -34.5 23.5 -56.5
s-7.83301 -40.833 -23.5 -56.5s-34.5 -23.5 -56.5 -23.5s-40.833 7.83301 -56.5 23.5s-23.5 34.5 -23.5 56.5zM304.997 634.997c0 22 7.83301 40.833 23.5 56.5s34.5 23.5 56.5 23.5s40.833 -7.83301 56.5 -23.5s23.5 -34.5 23.5 -56.5s-7.83301 -40.833 -23.5 -56.5
s-34.5 -23.5 -56.5 -23.5s-40.833 7.83301 -56.5 23.5s-23.5 34.5 -23.5 56.5z" />
    <glyph glyph-name="Aring" unicode="&#xc5;" horiz-adv-x="515" 
d="M170 360l-140.003 -0.00292969c4 62 27.5 106.667 70.5 134s97.833 41 164.5 41c68.667 0 123.334 -14.167 164.001 -42.5s61 -74.166 61 -137.499v-355h-140v100h-5c-0.666992 -3.33301 -2 -7.5 -4 -12.5s-7.33301 -14.167 -16 -27.5s-18.5 -25 -29.5 -35
s-26.833 -19.167 -47.5 -27.5s-43.334 -12.5 -68.001 -12.5c-50 0 -90 11.833 -120 35.5s-45 58.5 -45 104.5c0 80.667 55.333 135 166 163c9.33301 2.66699 21.5 5.66699 36.5 9l35.5 8c8.66699 2 18.834 4.66699 30.501 8s20.834 6.83301 27.501 10.5
s13.334 7.83398 20.001 12.501s11.5 10.334 14.5 17.001s4.5 14 4.5 22c0 20.667 -7.33301 36.667 -22 48s-35.667 17 -63 17c-61.333 0 -93 -26.667 -95 -80zM349.997 261.997c-14.667 -13.333 -51.334 -27.333 -110.001 -42c-55.333 -13.333 -83 -40 -83 -80
c0 -20 6.5 -35.833 19.5 -47.5s30.833 -17.5 53.5 -17.5s42.167 6 58.5 18s28.833 27.833 37.5 47.5s14.834 39.5 18.501 59.5s5.5 40.667 5.5 62zM146.997 669.997c0 31.333 11.333 58.333 34 81s49.667 34 81 34s58.333 -11.333 81 -34s34 -49.667 34 -81
s-11.333 -58.333 -34 -81s-49.667 -34 -81 -34s-58.333 11.333 -81 34s-34 49.667 -34 81zM186.997 669.997c0 -20.667 7.33301 -38.334 22 -53.001s32.334 -22 53.001 -22s38.334 7.33301 53.001 22s22 32.334 22 53.001s-7.33301 38.334 -22 53.001s-32.334 22 -53.001 22
s-38.334 -7.33301 -53.001 -22s-22 -32.334 -22 -53.001z" />
    <glyph glyph-name="AE" unicode="&#xc6;" horiz-adv-x="880" 
d="M350 262c-14.667 -13.333 -51.334 -27.333 -110.001 -42c-55.333 -13.333 -83 -40 -83 -80c0 -20 6.5 -35.833 19.5 -47.5s30.833 -17.5 53.5 -17.5s42.167 6 58.5 18s28.833 27.833 37.5 47.5s14.834 39.5 18.501 59.5s5.5 40.667 5.5 62zM610 430
c-62.667 0 -101 -36.667 -115 -110h221c-10 73.333 -45.333 110 -106 110zM170 360l-140.002 -0.00390625c4 62 27.5 106.667 70.5 134s97.833 41 164.5 41c81.333 0 140.666 -18.333 177.999 -55c45.333 36.667 101 55 167 55c82 0 144.167 -25.667 186.5 -77
s63.5 -117.333 63.5 -198l-1 -30h-368c7.33301 -93.333 48.666 -140 123.999 -140c16 0 30.333 2.66699 43 8s22.334 12 29.001 20s12.334 16 17.001 24s7.66699 14.667 9 20l2 8h140c-0.666992 -5.33301 -2.16699 -12 -4.5 -20s-9 -22.667 -20 -44
s-24.667 -40.166 -41 -56.499s-40.333 -31.166 -72 -44.499s-67.5 -20 -107.5 -20c-44 0 -84 8 -120 24v-9h-140v100h-5c-0.666992 -3.33301 -2 -7.5 -4 -12.5s-7.33301 -14.167 -16 -27.5s-18.5 -25 -29.5 -35s-26.833 -19.167 -47.5 -27.5s-43.334 -12.5 -68.001 -12.5
c-50 0 -90 11.833 -120 35.5s-45 58.5 -45 104.5c0 80.667 55.333 135 166 163c9.33301 2.66699 21.5 5.66699 36.5 9l35.5 8c8.66699 2 18.834 4.66699 30.501 8s20.834 6.83301 27.501 10.5s13.334 7.83398 20.001 12.501s11.5 10.334 14.5 17.001s4.5 14 4.5 22
c0 20.667 -7.33301 36.667 -22 48s-35.667 17 -63 17c-61.333 0 -93 -26.667 -95 -80z" />
    <glyph glyph-name="Ccedilla" unicode="&#xc7;" horiz-adv-x="545" 
d="M246 -65l28.998 49.9951c-80.667 1.33301 -143.334 27.833 -188.001 79.5s-67 116.834 -67 195.501c0 79.333 22.833 145 68.5 197s109.5 78 191.5 78c42.667 0 80.334 -7 113.001 -21s57 -31.167 73 -51.5s28.833 -40.5 38.5 -60.5s15.5 -37 17.5 -51l3 -21h-140
c0 2.66699 -0.333008 6.33398 -1 11.001s-3.16699 12.667 -7.5 24s-9.83301 21.333 -16.5 30s-17 16.667 -31 24s-30.333 11 -49 11c-42 0 -72.5 -15.5 -91.5 -46.5s-28.5 -72.167 -28.5 -123.5s9.5 -92.5 28.5 -123.5s49.5 -46.5 91.5 -46.5c18.667 0 35 3.5 49 10.5
s24.333 15.333 31 25s12.167 19.334 16.5 29.001s6.83301 18.167 7.5 25.5l1 10h140c-0.666992 -4.66699 -1.66699 -11.167 -3 -19.5s-6.16602 -23.166 -14.499 -44.499s-19 -40.5 -32 -57.5s-33 -33.667 -60 -50s-58.167 -26.5 -93.5 -30.5l-21 -36
c18.667 -4.66699 34 -14.5 46 -29.5s18 -32.5 18 -52.5c0 -23.333 -8.33301 -43.333 -25 -60s-36.667 -25 -60 -25s-43.333 8.33301 -60 25s-25 36.667 -25 60h40c0 -12.667 4.33301 -23.334 13 -32.001s19.334 -13 32.001 -13s23.334 4.33301 32.001 13
s13 19.334 13 32.001s-4.33301 23.334 -13 32.001s-19.334 13 -32.001 13h-34v20z" />
    <glyph glyph-name="Egrave" unicode="&#xc8;" horiz-adv-x="550" 
d="M20 260c0 79.333 22.665 144.998 67.998 196.998s109.333 78 192 78c82 0 144.167 -25.667 186.5 -77s63.5 -117.333 63.5 -198l-1 -30h-368c6.66699 -93.333 48 -140 124 -140c16 0 30.333 2.66699 43 8s22.334 12 29.001 20s12.334 16 17.001 24s7.66699 14.667 9 20
l2 8h140c-0.666992 -5.33301 -2.16699 -12 -4.5 -20s-9 -22.667 -20 -44s-24.667 -40.166 -41 -56.499s-40.333 -31.166 -72 -44.499s-67.5 -20 -107.5 -20c-84 0 -148.333 25.833 -193 77.5s-67 117.5 -67 197.5zM279.998 429.998c-62.667 0 -101 -36.667 -115 -110h221
c-10 73.333 -45.333 110 -106 110zM302.998 592.998l-28 -28l-167 167l28 28z" />
    <glyph glyph-name="Eacute" unicode="&#xc9;" horiz-adv-x="550" 
d="M20 260c0 79.333 22.665 144.998 67.998 196.998s109.333 78 192 78c82 0 144.167 -25.667 186.5 -77s63.5 -117.333 63.5 -198l-1 -30h-368c6.66699 -93.333 48 -140 124 -140c16 0 30.333 2.66699 43 8s22.334 12 29.001 20s12.334 16 17.001 24s7.66699 14.667 9 20
l2 8h140c-0.666992 -5.33301 -2.16699 -12 -4.5 -20s-9 -22.667 -20 -44s-24.667 -40.166 -41 -56.499s-40.333 -31.166 -72 -44.499s-67.5 -20 -107.5 -20c-84 0 -148.333 25.833 -193 77.5s-67 117.5 -67 197.5zM279.998 429.998c-62.667 0 -101 -36.667 -115 -110h221
c-10 73.333 -45.333 110 -106 110zM254.998 564.998l-28 28l167 167l28 -28z" />
    <glyph glyph-name="Ecircumflex" unicode="&#xca;" horiz-adv-x="550" 
d="M20 260c0 79.333 22.665 144.998 67.998 196.998s109.333 78 192 78c82 0 144.167 -25.667 186.5 -77s63.5 -117.333 63.5 -198l-1 -30h-368c6.66699 -93.333 48 -140 124 -140c16 0 30.333 2.66699 43 8s22.334 12 29.001 20s12.334 16 17.001 24s7.66699 14.667 9 20
l2 8h140c-0.666992 -5.33301 -2.16699 -12 -4.5 -20s-9 -22.667 -20 -44s-24.667 -40.166 -41 -56.499s-40.333 -31.166 -72 -44.499s-67.5 -20 -107.5 -20c-84 0 -148.333 25.833 -193 77.5s-67 117.5 -67 197.5zM279.998 429.998c-62.667 0 -101 -36.667 -115 -110h221
c-10 73.333 -45.333 110 -106 110zM459.998 581.998l-26 -31l-159 134l-159 -134l-26 31l185 154z" />
    <glyph glyph-name="Edieresis" unicode="&#xcb;" horiz-adv-x="550" 
d="M20 260c0 79.333 22.665 144.998 67.998 196.998s109.333 78 192 78c82 0 144.167 -25.667 186.5 -77s63.5 -117.333 63.5 -198l-1 -30h-368c6.66699 -93.333 48 -140 124 -140c16 0 30.333 2.66699 43 8s22.334 12 29.001 20s12.334 16 17.001 24s7.66699 14.667 9 20
l2 8h140c-0.666992 -5.33301 -2.16699 -12 -4.5 -20s-9 -22.667 -20 -44s-24.667 -40.166 -41 -56.499s-40.333 -31.166 -72 -44.499s-67.5 -20 -107.5 -20c-84 0 -148.333 25.833 -193 77.5s-67 117.5 -67 197.5zM74.998 634.998c0 22 7.83301 40.833 23.5 56.5
s34.5 23.5 56.5 23.5s40.833 -7.83301 56.5 -23.5s23.5 -34.5 23.5 -56.5s-7.83301 -40.833 -23.5 -56.5s-34.5 -23.5 -56.5 -23.5s-40.833 7.83301 -56.5 23.5s-23.5 34.5 -23.5 56.5zM314.998 634.998c0 22 7.83301 40.833 23.5 56.5s34.5 23.5 56.5 23.5
s40.833 -7.83301 56.5 -23.5s23.5 -34.5 23.5 -56.5s-7.83301 -40.833 -23.5 -56.5s-34.5 -23.5 -56.5 -23.5s-40.833 7.83301 -56.5 23.5s-23.5 34.5 -23.5 56.5zM279.998 429.998c-62.667 0 -101 -36.667 -115 -110h221c-10 73.333 -45.333 110 -106 110z" />
    <glyph glyph-name="Igrave" unicode="&#xcc;" horiz-adv-x="190" 
d="M165 520v-520h-140v520h140zM152 593l-28 -28l-167 167l28 28z" />
    <glyph glyph-name="Iacute" unicode="&#xcd;" horiz-adv-x="190" 
d="M165 520v-520h-140v520h140zM45 565l-28 28l167 167l28 -28z" />
    <glyph glyph-name="Icircumflex" unicode="&#xce;" horiz-adv-x="190" 
d="M165 520v-520h-140v520h140zM280 582l-26 -31l-159 134l-159 -134l-26 31l185 154z" />
    <glyph glyph-name="Idieresis" unicode="&#xcf;" horiz-adv-x="190" 
d="M165 520v-520h-140v520h140zM-85 635c0 22 7.83301 40.833 23.5 56.5s34.5 23.5 56.5 23.5s40.833 -7.83301 56.5 -23.5s23.5 -34.5 23.5 -56.5s-7.83301 -40.833 -23.5 -56.5s-34.5 -23.5 -56.5 -23.5s-40.833 7.83301 -56.5 23.5s-23.5 34.5 -23.5 56.5zM115 635
c0 22 7.83301 40.833 23.5 56.5s34.5 23.5 56.5 23.5s40.833 -7.83301 56.5 -23.5s23.5 -34.5 23.5 -56.5s-7.83301 -40.833 -23.5 -56.5s-34.5 -23.5 -56.5 -23.5s-40.833 7.83301 -56.5 23.5s-23.5 34.5 -23.5 56.5z" />
    <glyph glyph-name="Eth" unicode="&#xd0;" horiz-adv-x="570" 
d="M125 575v39.999h85c-40.667 33.333 -80.667 61.666 -120 84.999h195c32 -20.667 66.333 -49 103 -85h112v-40h-75c83.333 -95.333 125 -193.666 125 -294.999c0 -91.333 -23.167 -163.333 -69.5 -216s-111.5 -79 -195.5 -79c-82 0 -146.667 25.333 -194 76
s-71 113.667 -71 189c0 68.667 20.667 128.334 62 179.001s95.666 76 162.999 76c20.667 0 39.834 -2.83301 57.501 -8.5s30.167 -11.5 37.5 -17.5l10 -9h5c-28.667 36 -61.667 71 -99 105h-131zM160 249.999c0 -46 10.333 -84.167 31 -114.5s52 -45.5 94 -45.5
s73.333 15.167 94 45.5s31 68.5 31 114.5s-10.333 84.167 -31 114.5s-52 45.5 -94 45.5s-73.333 -15.167 -94 -45.5s-31 -68.5 -31 -114.5z" />
    <glyph glyph-name="Ntilde" unicode="&#xd1;" 
d="M25 0l0.00195312 520h135v-85h5l5.5 11c2.33301 4.66699 8.16602 12.667 17.499 24s19.666 21.333 30.999 30s26.5 16.667 45.5 24s39.167 11 60.5 11c123.333 0 185 -71.667 185 -215v-320h-140v290c0 45.333 -7 78.333 -21 99s-37 31 -69 31
c-76.667 0 -115 -50 -115 -150v-270h-140zM432.002 700h39.999c0 -32 -9.83301 -59.167 -29.5 -81.5s-44.834 -33.5 -75.501 -33.5c-24.667 0 -48.167 6.66699 -70.5 20s-43.5 26.666 -63.5 39.999s-38.667 20 -56 20c-20 0 -35.833 -7.16699 -47.5 -21.5
s-17.5 -32.166 -17.5 -53.499h-40c0 32 9.83301 59.167 29.5 81.5s44.834 33.5 75.501 33.5c24.667 0 48 -6.66699 70 -20s42.833 -26.666 62.5 -39.999s38.834 -20 57.501 -20c20 0 35.833 7.16699 47.5 21.5s17.5 32.166 17.5 53.499z" />
    <glyph glyph-name="Ograve" unicode="&#xd2;" horiz-adv-x="570" 
d="M160 260c0 -50.667 10.333 -91.667 31 -123s52 -47 94 -47s73.333 15.667 94 47s31 72.333 31 123s-10.333 91.667 -31 123s-52 47 -94 47s-73.333 -15.667 -94 -47s-31 -72.333 -31 -123zM20 260c0 79.333 23.5 145 70.5 197s111.833 78 194.5 78s147.5 -26 194.5 -78
s70.5 -117.667 70.5 -197s-23.5 -145 -70.5 -197s-111.833 -78 -194.5 -78s-147.5 26 -194.5 78s-70.5 117.667 -70.5 197zM302 593l-28 -28l-167 167l28 28z" />
    <glyph glyph-name="Oacute" unicode="&#xd3;" horiz-adv-x="570" 
d="M160 260c0 -50.667 10.333 -91.667 31 -123s52 -47 94 -47s73.333 15.667 94 47s31 72.333 31 123s-10.333 91.667 -31 123s-52 47 -94 47s-73.333 -15.667 -94 -47s-31 -72.333 -31 -123zM20 260c0 79.333 23.5 145 70.5 197s111.833 78 194.5 78s147.5 -26 194.5 -78
s70.5 -117.667 70.5 -197s-23.5 -145 -70.5 -197s-111.833 -78 -194.5 -78s-147.5 26 -194.5 78s-70.5 117.667 -70.5 197zM255 565l-28 28l167 167l28 -28z" />
    <glyph glyph-name="Ocircumflex" unicode="&#xd4;" horiz-adv-x="570" 
d="M160 260c0 -50.667 10.333 -91.667 31 -123s52 -47 94 -47s73.333 15.667 94 47s31 72.333 31 123s-10.333 91.667 -31 123s-52 47 -94 47s-73.333 -15.667 -94 -47s-31 -72.333 -31 -123zM20 260c0 79.333 23.5 145 70.5 197s111.833 78 194.5 78s147.5 -26 194.5 -78
s70.5 -117.667 70.5 -197s-23.5 -145 -70.5 -197s-111.833 -78 -194.5 -78s-147.5 26 -194.5 78s-70.5 117.667 -70.5 197zM470 582l-26 -31l-159 134l-159 -134l-26 31l185 154z" />
    <glyph glyph-name="Otilde" unicode="&#xd5;" horiz-adv-x="570" 
d="M160 260c0 -50.667 10.333 -91.667 31 -123s52 -47 94 -47s73.333 15.667 94 47s31 72.333 31 123s-10.333 91.667 -31 123s-52 47 -94 47s-73.333 -15.667 -94 -47s-31 -72.333 -31 -123zM20 260c0 79.333 23.5 145 70.5 197s111.833 78 194.5 78s147.5 -26 194.5 -78
s70.5 -117.667 70.5 -197s-23.5 -145 -70.5 -197s-111.833 -78 -194.5 -78s-147.5 26 -194.5 78s-70.5 117.667 -70.5 197zM442 700h39.999c0 -32 -9.83301 -59.167 -29.5 -81.5s-44.834 -33.5 -75.501 -33.5c-24.667 0 -48.167 6.66699 -70.5 20s-43.5 26.666 -63.5 39.999
s-38.667 20 -56 20c-20 0 -35.833 -7.16699 -47.5 -21.5s-17.5 -32.166 -17.5 -53.499h-40c0 32 9.83301 59.167 29.5 81.5s44.834 33.5 75.501 33.5c24.667 0 48 -6.66699 70 -20s42.833 -26.666 62.5 -39.999s38.834 -20 57.501 -20c20 0 35.833 7.16699 47.5 21.5
s17.5 32.166 17.5 53.499z" />
    <glyph glyph-name="Odieresis" unicode="&#xd6;" horiz-adv-x="570" 
d="M160 260c0 -50.667 10.333 -91.667 31 -123s52 -47 94 -47s73.333 15.667 94 47s31 72.333 31 123s-10.333 91.667 -31 123s-52 47 -94 47s-73.333 -15.667 -94 -47s-31 -72.333 -31 -123zM20 260c0 79.333 23.5 145 70.5 197s111.833 78 194.5 78s147.5 -26 194.5 -78
s70.5 -117.667 70.5 -197s-23.5 -145 -70.5 -197s-111.833 -78 -194.5 -78s-147.5 26 -194.5 78s-70.5 117.667 -70.5 197zM85 635c0 22 7.83301 40.833 23.5 56.5s34.5 23.5 56.5 23.5s40.833 -7.83301 56.5 -23.5s23.5 -34.5 23.5 -56.5s-7.83301 -40.833 -23.5 -56.5
s-34.5 -23.5 -56.5 -23.5s-40.833 7.83301 -56.5 23.5s-23.5 34.5 -23.5 56.5zM325 635c0 22 7.83301 40.833 23.5 56.5s34.5 23.5 56.5 23.5s40.833 -7.83301 56.5 -23.5s23.5 -34.5 23.5 -56.5s-7.83301 -40.833 -23.5 -56.5s-34.5 -23.5 -56.5 -23.5
s-40.833 7.83301 -56.5 23.5s-23.5 34.5 -23.5 56.5z" />
    <glyph glyph-name="multiply" unicode="&#xd7;" horiz-adv-x="540" 
d="M114 96l-28 28l156 156l-156 156l28 28l156 -156l156 156l28 -28l-156 -156l156 -156l-28 -28l-156 156z" />
    <glyph glyph-name="Oslash" unicode="&#xd8;" horiz-adv-x="570" 
d="M48 16l41 48.001c-46 51.333 -69 116.666 -69 195.999s23.5 145 70.5 197s111.833 78 194.5 78c66 0 121.333 -17.667 166 -53l42 48l30 -26l-42 -49c46 -51.333 69 -116.333 69 -195c0 -79.333 -23.5 -145 -70.5 -197s-111.833 -78 -194.5 -78
c-66.667 0 -122 17.333 -166 52l-41 -47zM160 260.001c0 -38 5.33301 -70 16 -96l197 227c-20.667 26 -50 39 -88 39c-42 0 -73.333 -15.667 -94 -47s-31 -72.333 -31 -123zM410 260.001c0 37.333 -5.33203 69 -15.999 95l-197 -227c21.333 -25.333 50.666 -38 87.999 -38
c42 0 73.333 15.667 94 47s31 72.333 31 123z" />
    <glyph glyph-name="Ugrave" unicode="&#xd9;" 
d="M510 520l-0.00195312 -520h-135v85h-5l-5.5 -11c-2.33301 -4.66699 -8.16602 -12.667 -17.499 -24s-19.666 -21.333 -30.999 -30s-26.5 -16.667 -45.5 -24s-39.167 -11 -60.5 -11c-123.333 0 -185 71.667 -185 215v320h140v-290c0 -45.333 7 -78.333 21 -99
s37 -31 69 -31c76.667 0 115 50 115 150v270h140zM292.998 593l-28 -28l-167 167l28 28z" />
    <glyph glyph-name="Uacute" unicode="&#xda;" 
d="M510 520l-0.00195312 -520h-135v85h-5l-5.5 -11c-2.33301 -4.66699 -8.16602 -12.667 -17.499 -24s-19.666 -21.333 -30.999 -30s-26.5 -16.667 -45.5 -24s-39.167 -11 -60.5 -11c-123.333 0 -185 71.667 -185 215v320h140v-290c0 -45.333 7 -78.333 21 -99
s37 -31 69 -31c76.667 0 115 50 115 150v270h140zM244.998 565l-28 28l167 167l28 -28z" />
    <glyph glyph-name="Ucircumflex" unicode="&#xdb;" 
d="M510 520l-0.00195312 -520h-135v85h-5l-5.5 -11c-2.33301 -4.66699 -8.16602 -12.667 -17.499 -24s-19.666 -21.333 -30.999 -30s-26.5 -16.667 -45.5 -24s-39.167 -11 -60.5 -11c-123.333 0 -185 71.667 -185 215v320h140v-290c0 -45.333 7 -78.333 21 -99
s37 -31 69 -31c76.667 0 115 50 115 150v270h140zM454.998 582l-26 -31l-159 134l-159 -134l-26 31l185 154z" />
    <glyph glyph-name="Udieresis" unicode="&#xdc;" 
d="M510 520l-0.00195312 -520h-135v85h-5l-5.5 -11c-2.33301 -4.66699 -8.16602 -12.667 -17.499 -24s-19.666 -21.333 -30.999 -30s-26.5 -16.667 -45.5 -24s-39.167 -11 -60.5 -11c-123.333 0 -185 71.667 -185 215v320h140v-290c0 -45.333 7 -78.333 21 -99
s37 -31 69 -31c76.667 0 115 50 115 150v270h140zM74.998 635c0 22 7.83301 40.833 23.5 56.5s34.5 23.5 56.5 23.5s40.833 -7.83301 56.5 -23.5s23.5 -34.5 23.5 -56.5s-7.83301 -40.833 -23.5 -56.5s-34.5 -23.5 -56.5 -23.5s-40.833 7.83301 -56.5 23.5
s-23.5 34.5 -23.5 56.5zM294.998 635c0 22 7.83301 40.833 23.5 56.5s34.5 23.5 56.5 23.5s40.833 -7.83301 56.5 -23.5s23.5 -34.5 23.5 -56.5s-7.83301 -40.833 -23.5 -56.5s-34.5 -23.5 -56.5 -23.5s-40.833 7.83301 -56.5 23.5s-23.5 34.5 -23.5 56.5z" />
    <glyph glyph-name="Yacute" unicode="&#xdd;" horiz-adv-x="550" 
d="M540 520l-184.999 -535c-21.333 -62 -47.333 -107.5 -78 -136.5s-71.334 -43.5 -122.001 -43.5c-14.667 0 -29.5 1.16699 -44.5 3.5s-26.5 4.83301 -34.5 7.5l-11 4v115c20 -6.66699 41.667 -10 65 -10s41.5 6 54.5 18s24.833 31 35.5 57l-210 520h150l127 -343l103 343
h150zM255.001 565l-28 28l167 167l28 -28z" />
    <glyph glyph-name="Thorn" unicode="&#xde;" horiz-adv-x="570" 
d="M325 535c71.333 0 126.669 -26.5 166.002 -79.5s59 -118.167 59 -195.5s-19.667 -142.5 -59 -195.5s-94.666 -79.5 -165.999 -79.5c-32.667 0 -61.834 5.83301 -87.501 17.5s-43.5 23.5 -53.5 35.5l-14 17h-5v-235h-140v880h140v-235h5
c1.33301 2 3.16602 4.5 5.49902 7.5s8.16602 8.5 17.499 16.5s19.333 15.167 30 21.5s25.167 12 43.5 17s37.833 7.5 58.5 7.5zM160.003 260c0 -50 10.667 -90.833 32 -122.5s52.333 -47.5 93 -47.5s71.667 15.833 93 47.5s32 72.5 32 122.5s-10.667 90.833 -32 122.5
s-52.333 47.5 -93 47.5s-71.667 -15.833 -93 -47.5s-32 -72.5 -32 -122.5z" />
    <glyph glyph-name="germandbls" unicode="&#xdf;" horiz-adv-x="570" 
d="M230 425l34.999 0.00390625c42 0 72.5 8.83301 91.5 26.5s28.5 40.5 28.5 68.5c0 26.667 -8.33301 48.334 -25 65.001s-41.667 25 -75 25c-80 0 -120 -50 -120 -150v-460h-140v445c0 94 24.333 162.5 73 205.5s112.667 64.5 192 64.5c67.333 0 123.333 -16 168 -48
s67 -76 67 -132c0 -24 -4 -45.833 -12 -65.5s-17.5 -34.834 -28.5 -45.501s-22.167 -19.5 -33.5 -26.5s-21 -11.5 -29 -13.5l-12 -4v-5c4 -0.666992 9.16699 -1.66699 15.5 -3s17.833 -5.83301 34.5 -13.5s31.5 -17.334 44.5 -29.001s24.667 -29.334 35 -53.001
s15.5 -50.834 15.5 -81.501c0 -68.667 -22.667 -120.834 -68 -156.501s-107.666 -53.5 -186.999 -53.5c-16 0 -31.5 0.833008 -46.5 2.5s-26.167 3.16699 -33.5 4.5l-10 3v105c23.333 -6.66699 50 -10 80 -10c40 0 70.833 9.83301 92.5 29.5s32.5 48.167 32.5 85.5
c0 76.667 -45 115 -135 115h-50v105z" />
    <glyph glyph-name="agrave" unicode="&#xe0;" horiz-adv-x="515" 
d="M170 360l-140.003 -0.00292969c4 62 27.5 106.667 70.5 134s97.833 41 164.5 41c68.667 0 123.334 -14.167 164.001 -42.5s61 -74.166 61 -137.499v-355h-140v100h-5c-0.666992 -3.33301 -2 -7.5 -4 -12.5s-7.33301 -14.167 -16 -27.5s-18.5 -25 -29.5 -35
s-26.833 -19.167 -47.5 -27.5s-43.334 -12.5 -68.001 -12.5c-50 0 -90 11.833 -120 35.5s-45 58.5 -45 104.5c0 80.667 55.333 135 166 163c9.33301 2.66699 21.5 5.66699 36.5 9l35.5 8c8.66699 2 18.834 4.66699 30.501 8s20.834 6.83301 27.501 10.5
s13.334 7.83398 20.001 12.501s11.5 10.334 14.5 17.001s4.5 14 4.5 22c0 20.667 -7.33301 36.667 -22 48s-35.667 17 -63 17c-61.333 0 -93 -26.667 -95 -80zM349.997 261.997c-14.667 -13.333 -51.334 -27.333 -110.001 -42c-55.333 -13.333 -83 -40 -83 -80
c0 -20 6.5 -35.833 19.5 -47.5s30.833 -17.5 53.5 -17.5s42.167 6 58.5 18s28.833 27.833 37.5 47.5s14.834 39.5 18.501 59.5s5.5 40.667 5.5 62zM301.997 592.997l-28 -28l-167 167l28 28z" />
    <glyph glyph-name="aacute" unicode="&#xe1;" horiz-adv-x="515" 
d="M170 360l-140.003 -0.00292969c4 62 27.5 106.667 70.5 134s97.833 41 164.5 41c68.667 0 123.334 -14.167 164.001 -42.5s61 -74.166 61 -137.499v-355h-140v100h-5c-0.666992 -3.33301 -2 -7.5 -4 -12.5s-7.33301 -14.167 -16 -27.5s-18.5 -25 -29.5 -35
s-26.833 -19.167 -47.5 -27.5s-43.334 -12.5 -68.001 -12.5c-50 0 -90 11.833 -120 35.5s-45 58.5 -45 104.5c0 80.667 55.333 135 166 163c9.33301 2.66699 21.5 5.66699 36.5 9l35.5 8c8.66699 2 18.834 4.66699 30.501 8s20.834 6.83301 27.501 10.5
s13.334 7.83398 20.001 12.501s11.5 10.334 14.5 17.001s4.5 14 4.5 22c0 20.667 -7.33301 36.667 -22 48s-35.667 17 -63 17c-61.333 0 -93 -26.667 -95 -80zM349.997 261.997c-14.667 -13.333 -51.334 -27.333 -110.001 -42c-55.333 -13.333 -83 -40 -83 -80
c0 -20 6.5 -35.833 19.5 -47.5s30.833 -17.5 53.5 -17.5s42.167 6 58.5 18s28.833 27.833 37.5 47.5s14.834 39.5 18.501 59.5s5.5 40.667 5.5 62zM239.997 564.997l-28 28l167 167l28 -28z" />
    <glyph glyph-name="acircumflex" unicode="&#xe2;" horiz-adv-x="515" 
d="M170 360l-140.003 -0.00292969c4 62 27.5 106.667 70.5 134s97.833 41 164.5 41c68.667 0 123.334 -14.167 164.001 -42.5s61 -74.166 61 -137.499v-355h-140v100h-5c-0.666992 -3.33301 -2 -7.5 -4 -12.5s-7.33301 -14.167 -16 -27.5s-18.5 -25 -29.5 -35
s-26.833 -19.167 -47.5 -27.5s-43.334 -12.5 -68.001 -12.5c-50 0 -90 11.833 -120 35.5s-45 58.5 -45 104.5c0 80.667 55.333 135 166 163c9.33301 2.66699 21.5 5.66699 36.5 9l35.5 8c8.66699 2 18.834 4.66699 30.501 8s20.834 6.83301 27.501 10.5
s13.334 7.83398 20.001 12.501s11.5 10.334 14.5 17.001s4.5 14 4.5 22c0 20.667 -7.33301 36.667 -22 48s-35.667 17 -63 17c-61.333 0 -93 -26.667 -95 -80zM349.997 261.997c-14.667 -13.333 -51.334 -27.333 -110.001 -42c-55.333 -13.333 -83 -40 -83 -80
c0 -20 6.5 -35.833 19.5 -47.5s30.833 -17.5 53.5 -17.5s42.167 6 58.5 18s28.833 27.833 37.5 47.5s14.834 39.5 18.501 59.5s5.5 40.667 5.5 62zM444.997 581.997l-26 -31l-159 134l-159 -134l-26 31l185 154z" />
    <glyph glyph-name="atilde" unicode="&#xe3;" horiz-adv-x="515" 
d="M170 360l-140.003 -0.00292969c4 62 27.5 106.667 70.5 134s97.833 41 164.5 41c68.667 0 123.334 -14.167 164.001 -42.5s61 -74.166 61 -137.499v-355h-140v100h-5c-0.666992 -3.33301 -2 -7.5 -4 -12.5s-7.33301 -14.167 -16 -27.5s-18.5 -25 -29.5 -35
s-26.833 -19.167 -47.5 -27.5s-43.334 -12.5 -68.001 -12.5c-50 0 -90 11.833 -120 35.5s-45 58.5 -45 104.5c0 80.667 55.333 135 166 163c9.33301 2.66699 21.5 5.66699 36.5 9l35.5 8c8.66699 2 18.834 4.66699 30.501 8s20.834 6.83301 27.501 10.5
s13.334 7.83398 20.001 12.501s11.5 10.334 14.5 17.001s4.5 14 4.5 22c0 20.667 -7.33301 36.667 -22 48s-35.667 17 -63 17c-61.333 0 -93 -26.667 -95 -80zM349.997 261.997c-14.667 -13.333 -51.334 -27.333 -110.001 -42c-55.333 -13.333 -83 -40 -83 -80
c0 -20 6.5 -35.833 19.5 -47.5s30.833 -17.5 53.5 -17.5s42.167 6 58.5 18s28.833 27.833 37.5 47.5s14.834 39.5 18.501 59.5s5.5 40.667 5.5 62zM426.997 699.997h39.999c0 -32 -9.83301 -59.167 -29.5 -81.5s-44.834 -33.5 -75.501 -33.5
c-24.667 0 -48.167 6.66699 -70.5 20s-43.5 26.666 -63.5 39.999s-38.667 20 -56 20c-20 0 -35.833 -7.16699 -47.5 -21.5s-17.5 -32.166 -17.5 -53.499h-40c0 32 9.83301 59.167 29.5 81.5s44.834 33.5 75.501 33.5c24.667 0 48 -6.66699 70 -20
s42.833 -26.666 62.5 -39.999s38.834 -20 57.501 -20c20 0 35.833 7.16699 47.5 21.5s17.5 32.166 17.5 53.499z" />
    <glyph glyph-name="adieresis" unicode="&#xe4;" horiz-adv-x="515" 
d="M170 360l-140.003 -0.00292969c4 62 27.5 106.667 70.5 134s97.833 41 164.5 41c68.667 0 123.334 -14.167 164.001 -42.5s61 -74.166 61 -137.499v-355h-140v100h-5c-0.666992 -3.33301 -2 -7.5 -4 -12.5s-7.33301 -14.167 -16 -27.5s-18.5 -25 -29.5 -35
s-26.833 -19.167 -47.5 -27.5s-43.334 -12.5 -68.001 -12.5c-50 0 -90 11.833 -120 35.5s-45 58.5 -45 104.5c0 80.667 55.333 135 166 163c9.33301 2.66699 21.5 5.66699 36.5 9l35.5 8c8.66699 2 18.834 4.66699 30.501 8s20.834 6.83301 27.501 10.5
s13.334 7.83398 20.001 12.501s11.5 10.334 14.5 17.001s4.5 14 4.5 22c0 20.667 -7.33301 36.667 -22 48s-35.667 17 -63 17c-61.333 0 -93 -26.667 -95 -80zM349.997 261.997c-14.667 -13.333 -51.334 -27.333 -110.001 -42c-55.333 -13.333 -83 -40 -83 -80
c0 -20 6.5 -35.833 19.5 -47.5s30.833 -17.5 53.5 -17.5s42.167 6 58.5 18s28.833 27.833 37.5 47.5s14.834 39.5 18.501 59.5s5.5 40.667 5.5 62zM64.9971 634.997c0 22 7.83301 40.833 23.5 56.5s34.5 23.5 56.5 23.5s40.833 -7.83301 56.5 -23.5s23.5 -34.5 23.5 -56.5
s-7.83301 -40.833 -23.5 -56.5s-34.5 -23.5 -56.5 -23.5s-40.833 7.83301 -56.5 23.5s-23.5 34.5 -23.5 56.5zM304.997 634.997c0 22 7.83301 40.833 23.5 56.5s34.5 23.5 56.5 23.5s40.833 -7.83301 56.5 -23.5s23.5 -34.5 23.5 -56.5s-7.83301 -40.833 -23.5 -56.5
s-34.5 -23.5 -56.5 -23.5s-40.833 7.83301 -56.5 23.5s-23.5 34.5 -23.5 56.5z" />
    <glyph glyph-name="aring" unicode="&#xe5;" horiz-adv-x="515" 
d="M170 360l-140.003 -0.00292969c4 62 27.5 106.667 70.5 134s97.833 41 164.5 41c68.667 0 123.334 -14.167 164.001 -42.5s61 -74.166 61 -137.499v-355h-140v100h-5c-0.666992 -3.33301 -2 -7.5 -4 -12.5s-7.33301 -14.167 -16 -27.5s-18.5 -25 -29.5 -35
s-26.833 -19.167 -47.5 -27.5s-43.334 -12.5 -68.001 -12.5c-50 0 -90 11.833 -120 35.5s-45 58.5 -45 104.5c0 80.667 55.333 135 166 163c9.33301 2.66699 21.5 5.66699 36.5 9l35.5 8c8.66699 2 18.834 4.66699 30.501 8s20.834 6.83301 27.501 10.5
s13.334 7.83398 20.001 12.501s11.5 10.334 14.5 17.001s4.5 14 4.5 22c0 20.667 -7.33301 36.667 -22 48s-35.667 17 -63 17c-61.333 0 -93 -26.667 -95 -80zM349.997 261.997c-14.667 -13.333 -51.334 -27.333 -110.001 -42c-55.333 -13.333 -83 -40 -83 -80
c0 -20 6.5 -35.833 19.5 -47.5s30.833 -17.5 53.5 -17.5s42.167 6 58.5 18s28.833 27.833 37.5 47.5s14.834 39.5 18.501 59.5s5.5 40.667 5.5 62zM146.997 669.997c0 31.333 11.333 58.333 34 81s49.667 34 81 34s58.333 -11.333 81 -34s34 -49.667 34 -81
s-11.333 -58.333 -34 -81s-49.667 -34 -81 -34s-58.333 11.333 -81 34s-34 49.667 -34 81zM186.997 669.997c0 -20.667 7.33301 -38.334 22 -53.001s32.334 -22 53.001 -22s38.334 7.33301 53.001 22s22 32.334 22 53.001s-7.33301 38.334 -22 53.001s-32.334 22 -53.001 22
s-38.334 -7.33301 -53.001 -22s-22 -32.334 -22 -53.001z" />
    <glyph glyph-name="ae" unicode="&#xe6;" horiz-adv-x="880" 
d="M350 262c-14.667 -13.333 -51.334 -27.333 -110.001 -42c-55.333 -13.333 -83 -40 -83 -80c0 -20 6.5 -35.833 19.5 -47.5s30.833 -17.5 53.5 -17.5s42.167 6 58.5 18s28.833 27.833 37.5 47.5s14.834 39.5 18.501 59.5s5.5 40.667 5.5 62zM610 430
c-62.667 0 -101 -36.667 -115 -110h221c-10 73.333 -45.333 110 -106 110zM170 360l-140.002 -0.00390625c4 62 27.5 106.667 70.5 134s97.833 41 164.5 41c81.333 0 140.666 -18.333 177.999 -55c45.333 36.667 101 55 167 55c82 0 144.167 -25.667 186.5 -77
s63.5 -117.333 63.5 -198l-1 -30h-368c7.33301 -93.333 48.666 -140 123.999 -140c16 0 30.333 2.66699 43 8s22.334 12 29.001 20s12.334 16 17.001 24s7.66699 14.667 9 20l2 8h140c-0.666992 -5.33301 -2.16699 -12 -4.5 -20s-9 -22.667 -20 -44
s-24.667 -40.166 -41 -56.499s-40.333 -31.166 -72 -44.499s-67.5 -20 -107.5 -20c-44 0 -84 8 -120 24v-9h-140v100h-5c-0.666992 -3.33301 -2 -7.5 -4 -12.5s-7.33301 -14.167 -16 -27.5s-18.5 -25 -29.5 -35s-26.833 -19.167 -47.5 -27.5s-43.334 -12.5 -68.001 -12.5
c-50 0 -90 11.833 -120 35.5s-45 58.5 -45 104.5c0 80.667 55.333 135 166 163c9.33301 2.66699 21.5 5.66699 36.5 9l35.5 8c8.66699 2 18.834 4.66699 30.501 8s20.834 6.83301 27.501 10.5s13.334 7.83398 20.001 12.501s11.5 10.334 14.5 17.001s4.5 14 4.5 22
c0 20.667 -7.33301 36.667 -22 48s-35.667 17 -63 17c-61.333 0 -93 -26.667 -95 -80z" />
    <glyph glyph-name="ccedilla" unicode="&#xe7;" horiz-adv-x="545" 
d="M246 -65l28.998 49.9951c-80.667 1.33301 -143.334 27.833 -188.001 79.5s-67 116.834 -67 195.501c0 79.333 22.833 145 68.5 197s109.5 78 191.5 78c42.667 0 80.334 -7 113.001 -21s57 -31.167 73 -51.5s28.833 -40.5 38.5 -60.5s15.5 -37 17.5 -51l3 -21h-140
c0 2.66699 -0.333008 6.33398 -1 11.001s-3.16699 12.667 -7.5 24s-9.83301 21.333 -16.5 30s-17 16.667 -31 24s-30.333 11 -49 11c-42 0 -72.5 -15.5 -91.5 -46.5s-28.5 -72.167 -28.5 -123.5s9.5 -92.5 28.5 -123.5s49.5 -46.5 91.5 -46.5c18.667 0 35 3.5 49 10.5
s24.333 15.333 31 25s12.167 19.334 16.5 29.001s6.83301 18.167 7.5 25.5l1 10h140c-0.666992 -4.66699 -1.66699 -11.167 -3 -19.5s-6.16602 -23.166 -14.499 -44.499s-19 -40.5 -32 -57.5s-33 -33.667 -60 -50s-58.167 -26.5 -93.5 -30.5l-21 -36
c18.667 -4.66699 34 -14.5 46 -29.5s18 -32.5 18 -52.5c0 -23.333 -8.33301 -43.333 -25 -60s-36.667 -25 -60 -25s-43.333 8.33301 -60 25s-25 36.667 -25 60h40c0 -12.667 4.33301 -23.334 13 -32.001s19.334 -13 32.001 -13s23.334 4.33301 32.001 13
s13 19.334 13 32.001s-4.33301 23.334 -13 32.001s-19.334 13 -32.001 13h-34v20z" />
    <glyph glyph-name="egrave" unicode="&#xe8;" horiz-adv-x="550" 
d="M20 260c0 79.333 22.665 144.998 67.998 196.998s109.333 78 192 78c82 0 144.167 -25.667 186.5 -77s63.5 -117.333 63.5 -198l-1 -30h-368c6.66699 -93.333 48 -140 124 -140c16 0 30.333 2.66699 43 8s22.334 12 29.001 20s12.334 16 17.001 24s7.66699 14.667 9 20
l2 8h140c-0.666992 -5.33301 -2.16699 -12 -4.5 -20s-9 -22.667 -20 -44s-24.667 -40.166 -41 -56.499s-40.333 -31.166 -72 -44.499s-67.5 -20 -107.5 -20c-84 0 -148.333 25.833 -193 77.5s-67 117.5 -67 197.5zM279.998 429.998c-62.667 0 -101 -36.667 -115 -110h221
c-10 73.333 -45.333 110 -106 110zM302.998 592.998l-28 -28l-167 167l28 28z" />
    <glyph glyph-name="eacute" unicode="&#xe9;" horiz-adv-x="550" 
d="M20 260c0 79.333 22.665 144.998 67.998 196.998s109.333 78 192 78c82 0 144.167 -25.667 186.5 -77s63.5 -117.333 63.5 -198l-1 -30h-368c6.66699 -93.333 48 -140 124 -140c16 0 30.333 2.66699 43 8s22.334 12 29.001 20s12.334 16 17.001 24s7.66699 14.667 9 20
l2 8h140c-0.666992 -5.33301 -2.16699 -12 -4.5 -20s-9 -22.667 -20 -44s-24.667 -40.166 -41 -56.499s-40.333 -31.166 -72 -44.499s-67.5 -20 -107.5 -20c-84 0 -148.333 25.833 -193 77.5s-67 117.5 -67 197.5zM279.998 429.998c-62.667 0 -101 -36.667 -115 -110h221
c-10 73.333 -45.333 110 -106 110zM254.998 564.998l-28 28l167 167l28 -28z" />
    <glyph glyph-name="ecircumflex" unicode="&#xea;" horiz-adv-x="550" 
d="M20 260c0 79.333 22.665 144.998 67.998 196.998s109.333 78 192 78c82 0 144.167 -25.667 186.5 -77s63.5 -117.333 63.5 -198l-1 -30h-368c6.66699 -93.333 48 -140 124 -140c16 0 30.333 2.66699 43 8s22.334 12 29.001 20s12.334 16 17.001 24s7.66699 14.667 9 20
l2 8h140c-0.666992 -5.33301 -2.16699 -12 -4.5 -20s-9 -22.667 -20 -44s-24.667 -40.166 -41 -56.499s-40.333 -31.166 -72 -44.499s-67.5 -20 -107.5 -20c-84 0 -148.333 25.833 -193 77.5s-67 117.5 -67 197.5zM279.998 429.998c-62.667 0 -101 -36.667 -115 -110h221
c-10 73.333 -45.333 110 -106 110zM459.998 581.998l-26 -31l-159 134l-159 -134l-26 31l185 154z" />
    <glyph glyph-name="edieresis" unicode="&#xeb;" horiz-adv-x="550" 
d="M20 260c0 79.333 22.665 144.998 67.998 196.998s109.333 78 192 78c82 0 144.167 -25.667 186.5 -77s63.5 -117.333 63.5 -198l-1 -30h-368c6.66699 -93.333 48 -140 124 -140c16 0 30.333 2.66699 43 8s22.334 12 29.001 20s12.334 16 17.001 24s7.66699 14.667 9 20
l2 8h140c-0.666992 -5.33301 -2.16699 -12 -4.5 -20s-9 -22.667 -20 -44s-24.667 -40.166 -41 -56.499s-40.333 -31.166 -72 -44.499s-67.5 -20 -107.5 -20c-84 0 -148.333 25.833 -193 77.5s-67 117.5 -67 197.5zM74.998 634.998c0 22 7.83301 40.833 23.5 56.5
s34.5 23.5 56.5 23.5s40.833 -7.83301 56.5 -23.5s23.5 -34.5 23.5 -56.5s-7.83301 -40.833 -23.5 -56.5s-34.5 -23.5 -56.5 -23.5s-40.833 7.83301 -56.5 23.5s-23.5 34.5 -23.5 56.5zM314.998 634.998c0 22 7.83301 40.833 23.5 56.5s34.5 23.5 56.5 23.5
s40.833 -7.83301 56.5 -23.5s23.5 -34.5 23.5 -56.5s-7.83301 -40.833 -23.5 -56.5s-34.5 -23.5 -56.5 -23.5s-40.833 7.83301 -56.5 23.5s-23.5 34.5 -23.5 56.5zM279.998 429.998c-62.667 0 -101 -36.667 -115 -110h221c-10 73.333 -45.333 110 -106 110z" />
    <glyph glyph-name="igrave" unicode="&#xec;" horiz-adv-x="190" 
d="M165 520v-520h-140v520h140zM152 593l-28 -28l-167 167l28 28z" />
    <glyph glyph-name="iacute" unicode="&#xed;" horiz-adv-x="190" 
d="M165 520v-520h-140v520h140zM45 565l-28 28l167 167l28 -28z" />
    <glyph glyph-name="icircumflex" unicode="&#xee;" horiz-adv-x="190" 
d="M165 520v-520h-140v520h140zM280 582l-26 -31l-159 134l-159 -134l-26 31l185 154z" />
    <glyph glyph-name="idieresis" unicode="&#xef;" horiz-adv-x="190" 
d="M165 520v-520h-140v520h140zM-85 635c0 22 7.83301 40.833 23.5 56.5s34.5 23.5 56.5 23.5s40.833 -7.83301 56.5 -23.5s23.5 -34.5 23.5 -56.5s-7.83301 -40.833 -23.5 -56.5s-34.5 -23.5 -56.5 -23.5s-40.833 7.83301 -56.5 23.5s-23.5 34.5 -23.5 56.5zM115 635
c0 22 7.83301 40.833 23.5 56.5s34.5 23.5 56.5 23.5s40.833 -7.83301 56.5 -23.5s23.5 -34.5 23.5 -56.5s-7.83301 -40.833 -23.5 -56.5s-34.5 -23.5 -56.5 -23.5s-40.833 7.83301 -56.5 23.5s-23.5 34.5 -23.5 56.5z" />
    <glyph glyph-name="eth" unicode="&#xf0;" horiz-adv-x="570" 
d="M125 575v39.999h85c-40.667 33.333 -80.667 61.666 -120 84.999h195c32 -20.667 66.333 -49 103 -85h112v-40h-75c83.333 -95.333 125 -193.666 125 -294.999c0 -91.333 -23.167 -163.333 -69.5 -216s-111.5 -79 -195.5 -79c-82 0 -146.667 25.333 -194 76
s-71 113.667 -71 189c0 68.667 20.667 128.334 62 179.001s95.666 76 162.999 76c20.667 0 39.834 -2.83301 57.501 -8.5s30.167 -11.5 37.5 -17.5l10 -9h5c-28.667 36 -61.667 71 -99 105h-131zM160 249.999c0 -46 10.333 -84.167 31 -114.5s52 -45.5 94 -45.5
s73.333 15.167 94 45.5s31 68.5 31 114.5s-10.333 84.167 -31 114.5s-52 45.5 -94 45.5s-73.333 -15.167 -94 -45.5s-31 -68.5 -31 -114.5z" />
    <glyph glyph-name="ntilde" unicode="&#xf1;" 
d="M25 0l0.00195312 520h135v-85h5l5.5 11c2.33301 4.66699 8.16602 12.667 17.499 24s19.666 21.333 30.999 30s26.5 16.667 45.5 24s39.167 11 60.5 11c123.333 0 185 -71.667 185 -215v-320h-140v290c0 45.333 -7 78.333 -21 99s-37 31 -69 31
c-76.667 0 -115 -50 -115 -150v-270h-140zM432.002 700h39.999c0 -32 -9.83301 -59.167 -29.5 -81.5s-44.834 -33.5 -75.501 -33.5c-24.667 0 -48.167 6.66699 -70.5 20s-43.5 26.666 -63.5 39.999s-38.667 20 -56 20c-20 0 -35.833 -7.16699 -47.5 -21.5
s-17.5 -32.166 -17.5 -53.499h-40c0 32 9.83301 59.167 29.5 81.5s44.834 33.5 75.501 33.5c24.667 0 48 -6.66699 70 -20s42.833 -26.666 62.5 -39.999s38.834 -20 57.501 -20c20 0 35.833 7.16699 47.5 21.5s17.5 32.166 17.5 53.499z" />
    <glyph glyph-name="ograve" unicode="&#xf2;" horiz-adv-x="570" 
d="M160 260c0 -50.667 10.333 -91.667 31 -123s52 -47 94 -47s73.333 15.667 94 47s31 72.333 31 123s-10.333 91.667 -31 123s-52 47 -94 47s-73.333 -15.667 -94 -47s-31 -72.333 -31 -123zM20 260c0 79.333 23.5 145 70.5 197s111.833 78 194.5 78s147.5 -26 194.5 -78
s70.5 -117.667 70.5 -197s-23.5 -145 -70.5 -197s-111.833 -78 -194.5 -78s-147.5 26 -194.5 78s-70.5 117.667 -70.5 197zM302 593l-28 -28l-167 167l28 28z" />
    <glyph glyph-name="oacute" unicode="&#xf3;" horiz-adv-x="570" 
d="M160 260c0 -50.667 10.333 -91.667 31 -123s52 -47 94 -47s73.333 15.667 94 47s31 72.333 31 123s-10.333 91.667 -31 123s-52 47 -94 47s-73.333 -15.667 -94 -47s-31 -72.333 -31 -123zM20 260c0 79.333 23.5 145 70.5 197s111.833 78 194.5 78s147.5 -26 194.5 -78
s70.5 -117.667 70.5 -197s-23.5 -145 -70.5 -197s-111.833 -78 -194.5 -78s-147.5 26 -194.5 78s-70.5 117.667 -70.5 197zM255 565l-28 28l167 167l28 -28z" />
    <glyph glyph-name="ocircumflex" unicode="&#xf4;" horiz-adv-x="570" 
d="M160 260c0 -50.667 10.333 -91.667 31 -123s52 -47 94 -47s73.333 15.667 94 47s31 72.333 31 123s-10.333 91.667 -31 123s-52 47 -94 47s-73.333 -15.667 -94 -47s-31 -72.333 -31 -123zM20 260c0 79.333 23.5 145 70.5 197s111.833 78 194.5 78s147.5 -26 194.5 -78
s70.5 -117.667 70.5 -197s-23.5 -145 -70.5 -197s-111.833 -78 -194.5 -78s-147.5 26 -194.5 78s-70.5 117.667 -70.5 197zM470 582l-26 -31l-159 134l-159 -134l-26 31l185 154z" />
    <glyph glyph-name="otilde" unicode="&#xf5;" horiz-adv-x="570" 
d="M160 260c0 -50.667 10.333 -91.667 31 -123s52 -47 94 -47s73.333 15.667 94 47s31 72.333 31 123s-10.333 91.667 -31 123s-52 47 -94 47s-73.333 -15.667 -94 -47s-31 -72.333 -31 -123zM20 260c0 79.333 23.5 145 70.5 197s111.833 78 194.5 78s147.5 -26 194.5 -78
s70.5 -117.667 70.5 -197s-23.5 -145 -70.5 -197s-111.833 -78 -194.5 -78s-147.5 26 -194.5 78s-70.5 117.667 -70.5 197zM442 700h39.999c0 -32 -9.83301 -59.167 -29.5 -81.5s-44.834 -33.5 -75.501 -33.5c-24.667 0 -48.167 6.66699 -70.5 20s-43.5 26.666 -63.5 39.999
s-38.667 20 -56 20c-20 0 -35.833 -7.16699 -47.5 -21.5s-17.5 -32.166 -17.5 -53.499h-40c0 32 9.83301 59.167 29.5 81.5s44.834 33.5 75.501 33.5c24.667 0 48 -6.66699 70 -20s42.833 -26.666 62.5 -39.999s38.834 -20 57.501 -20c20 0 35.833 7.16699 47.5 21.5
s17.5 32.166 17.5 53.499z" />
    <glyph glyph-name="odieresis" unicode="&#xf6;" horiz-adv-x="570" 
d="M160 260c0 -50.667 10.333 -91.667 31 -123s52 -47 94 -47s73.333 15.667 94 47s31 72.333 31 123s-10.333 91.667 -31 123s-52 47 -94 47s-73.333 -15.667 -94 -47s-31 -72.333 -31 -123zM20 260c0 79.333 23.5 145 70.5 197s111.833 78 194.5 78s147.5 -26 194.5 -78
s70.5 -117.667 70.5 -197s-23.5 -145 -70.5 -197s-111.833 -78 -194.5 -78s-147.5 26 -194.5 78s-70.5 117.667 -70.5 197zM85 635c0 22 7.83301 40.833 23.5 56.5s34.5 23.5 56.5 23.5s40.833 -7.83301 56.5 -23.5s23.5 -34.5 23.5 -56.5s-7.83301 -40.833 -23.5 -56.5
s-34.5 -23.5 -56.5 -23.5s-40.833 7.83301 -56.5 23.5s-23.5 34.5 -23.5 56.5zM325 635c0 22 7.83301 40.833 23.5 56.5s34.5 23.5 56.5 23.5s40.833 -7.83301 56.5 -23.5s23.5 -34.5 23.5 -56.5s-7.83301 -40.833 -23.5 -56.5s-34.5 -23.5 -56.5 -23.5
s-40.833 7.83301 -56.5 23.5s-23.5 34.5 -23.5 56.5z" />
    <glyph glyph-name="divide" unicode="&#xf7;" horiz-adv-x="540" 
d="M30 260v40h480v-40h-480zM190 115c0 22 7.83301 40.833 23.5 56.5s34.5 23.5 56.5 23.5s40.833 -7.83301 56.5 -23.5s23.5 -34.5 23.5 -56.5s-7.83301 -40.833 -23.5 -56.5s-34.5 -23.5 -56.5 -23.5s-40.833 7.83301 -56.5 23.5s-23.5 34.5 -23.5 56.5zM190 445
c0 22 7.83301 40.833 23.5 56.5s34.5 23.5 56.5 23.5s40.833 -7.83301 56.5 -23.5s23.5 -34.5 23.5 -56.5s-7.83301 -40.833 -23.5 -56.5s-34.5 -23.5 -56.5 -23.5s-40.833 7.83301 -56.5 23.5s-23.5 34.5 -23.5 56.5z" />
    <glyph glyph-name="oslash" unicode="&#xf8;" horiz-adv-x="570" 
d="M48 16l41 48.001c-46 51.333 -69 116.666 -69 195.999s23.5 145 70.5 197s111.833 78 194.5 78c66 0 121.333 -17.667 166 -53l42 48l30 -26l-42 -49c46 -51.333 69 -116.333 69 -195c0 -79.333 -23.5 -145 -70.5 -197s-111.833 -78 -194.5 -78
c-66.667 0 -122 17.333 -166 52l-41 -47zM160 260.001c0 -38 5.33301 -70 16 -96l197 227c-20.667 26 -50 39 -88 39c-42 0 -73.333 -15.667 -94 -47s-31 -72.333 -31 -123zM410 260.001c0 37.333 -5.33203 69 -15.999 95l-197 -227c21.333 -25.333 50.666 -38 87.999 -38
c42 0 73.333 15.667 94 47s31 72.333 31 123z" />
    <glyph glyph-name="ugrave" unicode="&#xf9;" 
d="M510 520l-0.00195312 -520h-135v85h-5l-5.5 -11c-2.33301 -4.66699 -8.16602 -12.667 -17.499 -24s-19.666 -21.333 -30.999 -30s-26.5 -16.667 -45.5 -24s-39.167 -11 -60.5 -11c-123.333 0 -185 71.667 -185 215v320h140v-290c0 -45.333 7 -78.333 21 -99
s37 -31 69 -31c76.667 0 115 50 115 150v270h140zM292.998 593l-28 -28l-167 167l28 28z" />
    <glyph glyph-name="uacute" unicode="&#xfa;" 
d="M510 520l-0.00195312 -520h-135v85h-5l-5.5 -11c-2.33301 -4.66699 -8.16602 -12.667 -17.499 -24s-19.666 -21.333 -30.999 -30s-26.5 -16.667 -45.5 -24s-39.167 -11 -60.5 -11c-123.333 0 -185 71.667 -185 215v320h140v-290c0 -45.333 7 -78.333 21 -99
s37 -31 69 -31c76.667 0 115 50 115 150v270h140zM244.998 565l-28 28l167 167l28 -28z" />
    <glyph glyph-name="ucircumflex" unicode="&#xfb;" 
d="M510 520l-0.00195312 -520h-135v85h-5l-5.5 -11c-2.33301 -4.66699 -8.16602 -12.667 -17.499 -24s-19.666 -21.333 -30.999 -30s-26.5 -16.667 -45.5 -24s-39.167 -11 -60.5 -11c-123.333 0 -185 71.667 -185 215v320h140v-290c0 -45.333 7 -78.333 21 -99
s37 -31 69 -31c76.667 0 115 50 115 150v270h140zM454.998 582l-26 -31l-159 134l-159 -134l-26 31l185 154z" />
    <glyph glyph-name="udieresis" unicode="&#xfc;" 
d="M510 520l-0.00195312 -520h-135v85h-5l-5.5 -11c-2.33301 -4.66699 -8.16602 -12.667 -17.499 -24s-19.666 -21.333 -30.999 -30s-26.5 -16.667 -45.5 -24s-39.167 -11 -60.5 -11c-123.333 0 -185 71.667 -185 215v320h140v-290c0 -45.333 7 -78.333 21 -99
s37 -31 69 -31c76.667 0 115 50 115 150v270h140zM74.998 635c0 22 7.83301 40.833 23.5 56.5s34.5 23.5 56.5 23.5s40.833 -7.83301 56.5 -23.5s23.5 -34.5 23.5 -56.5s-7.83301 -40.833 -23.5 -56.5s-34.5 -23.5 -56.5 -23.5s-40.833 7.83301 -56.5 23.5
s-23.5 34.5 -23.5 56.5zM294.998 635c0 22 7.83301 40.833 23.5 56.5s34.5 23.5 56.5 23.5s40.833 -7.83301 56.5 -23.5s23.5 -34.5 23.5 -56.5s-7.83301 -40.833 -23.5 -56.5s-34.5 -23.5 -56.5 -23.5s-40.833 7.83301 -56.5 23.5s-23.5 34.5 -23.5 56.5z" />
    <glyph glyph-name="yacute" unicode="&#xfd;" horiz-adv-x="550" 
d="M540 520l-184.999 -535c-21.333 -62 -47.333 -107.5 -78 -136.5s-71.334 -43.5 -122.001 -43.5c-14.667 0 -29.5 1.16699 -44.5 3.5s-26.5 4.83301 -34.5 7.5l-11 4v115c20 -6.66699 41.667 -10 65 -10s41.5 6 54.5 18s24.833 31 35.5 57l-210 520h150l127 -343l103 343
h150zM255.001 565l-28 28l167 167l28 -28z" />
    <glyph glyph-name="thorn" unicode="&#xfe;" horiz-adv-x="570" 
d="M325 535c71.333 0 126.669 -26.5 166.002 -79.5s59 -118.167 59 -195.5s-19.667 -142.5 -59 -195.5s-94.666 -79.5 -165.999 -79.5c-32.667 0 -61.834 5.83301 -87.501 17.5s-43.5 23.5 -53.5 35.5l-14 17h-5v-235h-140v880h140v-235h5
c1.33301 2 3.16602 4.5 5.49902 7.5s8.16602 8.5 17.499 16.5s19.333 15.167 30 21.5s25.167 12 43.5 17s37.833 7.5 58.5 7.5zM160.003 260c0 -50 10.667 -90.833 32 -122.5s52.333 -47.5 93 -47.5s71.667 15.833 93 47.5s32 72.5 32 122.5s-10.667 90.833 -32 122.5
s-52.333 47.5 -93 47.5s-71.667 -15.833 -93 -47.5s-32 -72.5 -32 -122.5z" />
    <glyph glyph-name="ydieresis" unicode="&#xff;" horiz-adv-x="550" 
d="M540 520l-184.999 -535c-21.333 -62 -47.333 -107.5 -78 -136.5s-71.334 -43.5 -122.001 -43.5c-14.667 0 -29.5 1.16699 -44.5 3.5s-26.5 4.83301 -34.5 7.5l-11 4v115c20 -6.66699 41.667 -10 65 -10s41.5 6 54.5 18s24.833 31 35.5 57l-210 520h150l127 -343l103 343
h150zM95.001 635c0 22 7.83301 40.833 23.5 56.5s34.5 23.5 56.5 23.5s40.833 -7.83301 56.5 -23.5s23.5 -34.5 23.5 -56.5s-7.83301 -40.833 -23.5 -56.5s-34.5 -23.5 -56.5 -23.5s-40.833 7.83301 -56.5 23.5s-23.5 34.5 -23.5 56.5zM315.001 635
c0 22 7.83301 40.833 23.5 56.5s34.5 23.5 56.5 23.5s40.833 -7.83301 56.5 -23.5s23.5 -34.5 23.5 -56.5s-7.83301 -40.833 -23.5 -56.5s-34.5 -23.5 -56.5 -23.5s-40.833 7.83301 -56.5 23.5s-23.5 34.5 -23.5 56.5z" />
    <glyph glyph-name="Amacron" unicode="&#x100;" horiz-adv-x="515" 
d="M170 360l-140.003 -0.00292969c4 62 27.5 106.667 70.5 134s97.833 41 164.5 41c68.667 0 123.334 -14.167 164.001 -42.5s61 -74.166 61 -137.499v-355h-140v100h-5c-0.666992 -3.33301 -2 -7.5 -4 -12.5s-7.33301 -14.167 -16 -27.5s-18.5 -25 -29.5 -35
s-26.833 -19.167 -47.5 -27.5s-43.334 -12.5 -68.001 -12.5c-50 0 -90 11.833 -120 35.5s-45 58.5 -45 104.5c0 80.667 55.333 135 166 163c9.33301 2.66699 21.5 5.66699 36.5 9l35.5 8c8.66699 2 18.834 4.66699 30.501 8s20.834 6.83301 27.501 10.5
s13.334 7.83398 20.001 12.501s11.5 10.334 14.5 17.001s4.5 14 4.5 22c0 20.667 -7.33301 36.667 -22 48s-35.667 17 -63 17c-61.333 0 -93 -26.667 -95 -80zM349.997 261.997c-14.667 -13.333 -51.334 -27.333 -110.001 -42c-55.333 -13.333 -83 -40 -83 -80
c0 -20 6.5 -35.833 19.5 -47.5s30.833 -17.5 53.5 -17.5s42.167 6 58.5 18s28.833 27.833 37.5 47.5s14.834 39.5 18.501 59.5s5.5 40.667 5.5 62zM69.9971 569.997v40h385v-40h-385z" />
    <glyph glyph-name="amacron" unicode="&#x101;" horiz-adv-x="515" 
d="M170 360l-140.003 -0.00292969c4 62 27.5 106.667 70.5 134s97.833 41 164.5 41c68.667 0 123.334 -14.167 164.001 -42.5s61 -74.166 61 -137.499v-355h-140v100h-5c-0.666992 -3.33301 -2 -7.5 -4 -12.5s-7.33301 -14.167 -16 -27.5s-18.5 -25 -29.5 -35
s-26.833 -19.167 -47.5 -27.5s-43.334 -12.5 -68.001 -12.5c-50 0 -90 11.833 -120 35.5s-45 58.5 -45 104.5c0 80.667 55.333 135 166 163c9.33301 2.66699 21.5 5.66699 36.5 9l35.5 8c8.66699 2 18.834 4.66699 30.501 8s20.834 6.83301 27.501 10.5
s13.334 7.83398 20.001 12.501s11.5 10.334 14.5 17.001s4.5 14 4.5 22c0 20.667 -7.33301 36.667 -22 48s-35.667 17 -63 17c-61.333 0 -93 -26.667 -95 -80zM349.997 261.997c-14.667 -13.333 -51.334 -27.333 -110.001 -42c-55.333 -13.333 -83 -40 -83 -80
c0 -20 6.5 -35.833 19.5 -47.5s30.833 -17.5 53.5 -17.5s42.167 6 58.5 18s28.833 27.833 37.5 47.5s14.834 39.5 18.501 59.5s5.5 40.667 5.5 62zM69.9971 569.997v40h385v-40h-385z" />
    <glyph glyph-name="Abreve" unicode="&#x102;" horiz-adv-x="515" 
d="M170 360l-140.003 -0.00292969c4 62 27.5 106.667 70.5 134s97.833 41 164.5 41c68.667 0 123.334 -14.167 164.001 -42.5s61 -74.166 61 -137.499v-355h-140v100h-5c-0.666992 -3.33301 -2 -7.5 -4 -12.5s-7.33301 -14.167 -16 -27.5s-18.5 -25 -29.5 -35
s-26.833 -19.167 -47.5 -27.5s-43.334 -12.5 -68.001 -12.5c-50 0 -90 11.833 -120 35.5s-45 58.5 -45 104.5c0 80.667 55.333 135 166 163c9.33301 2.66699 21.5 5.66699 36.5 9l35.5 8c8.66699 2 18.834 4.66699 30.501 8s20.834 6.83301 27.501 10.5
s13.334 7.83398 20.001 12.501s11.5 10.334 14.5 17.001s4.5 14 4.5 22c0 20.667 -7.33301 36.667 -22 48s-35.667 17 -63 17c-61.333 0 -93 -26.667 -95 -80zM349.997 261.997c-14.667 -13.333 -51.334 -27.333 -110.001 -42c-55.333 -13.333 -83 -40 -83 -80
c0 -20 6.5 -35.833 19.5 -47.5s30.833 -17.5 53.5 -17.5s42.167 6 58.5 18s28.833 27.833 37.5 47.5s14.834 39.5 18.501 59.5s5.5 40.667 5.5 62zM109.997 699.997h40c0 -28.667 10.667 -51.667 32 -69s49 -26 83 -26s61.667 8.66699 83 26s32 40.333 32 69h40
c0 -40 -14.5 -72.5 -43.5 -97.5s-66.167 -37.5 -111.5 -37.5s-82.5 12.5 -111.5 37.5s-43.5 57.5 -43.5 97.5z" />
    <glyph glyph-name="abreve" unicode="&#x103;" horiz-adv-x="515" 
d="M170 360l-140.003 -0.00292969c4 62 27.5 106.667 70.5 134s97.833 41 164.5 41c68.667 0 123.334 -14.167 164.001 -42.5s61 -74.166 61 -137.499v-355h-140v100h-5c-0.666992 -3.33301 -2 -7.5 -4 -12.5s-7.33301 -14.167 -16 -27.5s-18.5 -25 -29.5 -35
s-26.833 -19.167 -47.5 -27.5s-43.334 -12.5 -68.001 -12.5c-50 0 -90 11.833 -120 35.5s-45 58.5 -45 104.5c0 80.667 55.333 135 166 163c9.33301 2.66699 21.5 5.66699 36.5 9l35.5 8c8.66699 2 18.834 4.66699 30.501 8s20.834 6.83301 27.501 10.5
s13.334 7.83398 20.001 12.501s11.5 10.334 14.5 17.001s4.5 14 4.5 22c0 20.667 -7.33301 36.667 -22 48s-35.667 17 -63 17c-61.333 0 -93 -26.667 -95 -80zM349.997 261.997c-14.667 -13.333 -51.334 -27.333 -110.001 -42c-55.333 -13.333 -83 -40 -83 -80
c0 -20 6.5 -35.833 19.5 -47.5s30.833 -17.5 53.5 -17.5s42.167 6 58.5 18s28.833 27.833 37.5 47.5s14.834 39.5 18.501 59.5s5.5 40.667 5.5 62zM109.997 699.997h40c0 -28.667 10.667 -51.667 32 -69s49 -26 83 -26s61.667 8.66699 83 26s32 40.333 32 69h40
c0 -40 -14.5 -72.5 -43.5 -97.5s-66.167 -37.5 -111.5 -37.5s-82.5 12.5 -111.5 37.5s-43.5 57.5 -43.5 97.5z" />
    <glyph glyph-name="Aogonek" unicode="&#x104;" horiz-adv-x="515" 
d="M330 -110c0 23.333 8.32812 43.3311 24.9951 59.998l50 50h-55v100h-5c-0.666992 -3.33301 -2 -7.5 -4 -12.5s-7.33301 -14.167 -16 -27.5s-18.5 -25 -29.5 -35s-26.833 -19.167 -47.5 -27.5s-43.334 -12.5 -68.001 -12.5c-50 0 -90 11.833 -120 35.5s-45 58.5 -45 104.5
c0 80.667 55.333 135 166 163c9.33301 2.66699 21.5 5.66699 36.5 9l35.5 8c8.66699 2 18.834 4.66699 30.501 8s20.834 6.83301 27.501 10.5s13.334 7.83398 20.001 12.501s11.5 10.334 14.5 17.001s4.5 14 4.5 22c0 20.667 -7.33301 36.667 -22 48s-35.667 17 -63 17
c-61.333 0 -93 -26.667 -95 -80h-140c4 62 27.5 106.667 70.5 134s97.833 41 164.5 41c68.667 0 123.334 -14.167 164.001 -42.5s61 -74.166 61 -137.499v-355h-29l-78 -78c-8.66699 -8.66699 -13 -19.334 -13 -32.001s4.33301 -23.334 13 -32.001s19.334 -13 32.001 -13
s23.334 4.33301 32.001 13s13 19.334 13 32.001h40c0 -23.333 -8.33301 -43.333 -25 -60s-36.667 -25 -60 -25s-43.333 8.33301 -60 25s-25 36.667 -25 60zM349.995 261.998c-14.667 -13.333 -51.334 -27.333 -110.001 -42c-55.333 -13.333 -83 -40 -83 -80
c0 -20 6.5 -35.833 19.5 -47.5s30.833 -17.5 53.5 -17.5s42.167 6 58.5 18s28.833 27.833 37.5 47.5s14.834 39.5 18.501 59.5s5.5 40.667 5.5 62z" />
    <glyph glyph-name="aogonek" unicode="&#x105;" horiz-adv-x="515" 
d="M330 -110c0 23.333 8.32812 43.3311 24.9951 59.998l50 50h-55v100h-5c-0.666992 -3.33301 -2 -7.5 -4 -12.5s-7.33301 -14.167 -16 -27.5s-18.5 -25 -29.5 -35s-26.833 -19.167 -47.5 -27.5s-43.334 -12.5 -68.001 -12.5c-50 0 -90 11.833 -120 35.5s-45 58.5 -45 104.5
c0 80.667 55.333 135 166 163c9.33301 2.66699 21.5 5.66699 36.5 9l35.5 8c8.66699 2 18.834 4.66699 30.501 8s20.834 6.83301 27.501 10.5s13.334 7.83398 20.001 12.501s11.5 10.334 14.5 17.001s4.5 14 4.5 22c0 20.667 -7.33301 36.667 -22 48s-35.667 17 -63 17
c-61.333 0 -93 -26.667 -95 -80h-140c4 62 27.5 106.667 70.5 134s97.833 41 164.5 41c68.667 0 123.334 -14.167 164.001 -42.5s61 -74.166 61 -137.499v-355h-29l-78 -78c-8.66699 -8.66699 -13 -19.334 -13 -32.001s4.33301 -23.334 13 -32.001s19.334 -13 32.001 -13
s23.334 4.33301 32.001 13s13 19.334 13 32.001h40c0 -23.333 -8.33301 -43.333 -25 -60s-36.667 -25 -60 -25s-43.333 8.33301 -60 25s-25 36.667 -25 60zM349.995 261.998c-14.667 -13.333 -51.334 -27.333 -110.001 -42c-55.333 -13.333 -83 -40 -83 -80
c0 -20 6.5 -35.833 19.5 -47.5s30.833 -17.5 53.5 -17.5s42.167 6 58.5 18s28.833 27.833 37.5 47.5s14.834 39.5 18.501 59.5s5.5 40.667 5.5 62z" />
    <glyph glyph-name="Cacute" unicode="&#x106;" horiz-adv-x="545" 
d="M20 260c0 79.333 22.832 144.998 68.499 196.998s109.5 78 191.5 78c42.667 0 80.334 -7 113.001 -21s57 -31.167 73 -51.5s28.833 -40.5 38.5 -60.5s15.5 -37 17.5 -51l3 -21h-140c0 2.66699 -0.333008 6.33398 -1 11.001s-3.16699 12.667 -7.5 24
s-9.83301 21.333 -16.5 30s-17 16.667 -31 24s-30.333 11 -49 11c-42 0 -72.5 -15.5 -91.5 -46.5s-28.5 -72.167 -28.5 -123.5s9.5 -92.5 28.5 -123.5s49.5 -46.5 91.5 -46.5c18.667 0 35 3.5 49 10.5s24.333 15.333 31 25s12.167 19.334 16.5 29.001
s6.83301 18.167 7.5 25.5l1 10h140c0 -2.66699 -0.333008 -6.5 -1 -11.5s-3.16699 -14.667 -7.5 -29s-9.5 -27.833 -15.5 -40.5s-15.333 -27 -28 -43s-27.167 -29.667 -43.5 -41s-37.5 -20.833 -63.5 -28.5s-54.667 -11.5 -86 -11.5c-82 0 -145.833 26 -191.5 78
s-68.5 117.667 -68.5 197zM254.999 564.998l-28 28l167 167l28 -28z" />
    <glyph glyph-name="cacute" unicode="&#x107;" horiz-adv-x="545" 
d="M20 260c0 79.333 22.832 144.998 68.499 196.998s109.5 78 191.5 78c42.667 0 80.334 -7 113.001 -21s57 -31.167 73 -51.5s28.833 -40.5 38.5 -60.5s15.5 -37 17.5 -51l3 -21h-140c0 2.66699 -0.333008 6.33398 -1 11.001s-3.16699 12.667 -7.5 24
s-9.83301 21.333 -16.5 30s-17 16.667 -31 24s-30.333 11 -49 11c-42 0 -72.5 -15.5 -91.5 -46.5s-28.5 -72.167 -28.5 -123.5s9.5 -92.5 28.5 -123.5s49.5 -46.5 91.5 -46.5c18.667 0 35 3.5 49 10.5s24.333 15.333 31 25s12.167 19.334 16.5 29.001
s6.83301 18.167 7.5 25.5l1 10h140c0 -2.66699 -0.333008 -6.5 -1 -11.5s-3.16699 -14.667 -7.5 -29s-9.5 -27.833 -15.5 -40.5s-15.333 -27 -28 -43s-27.167 -29.667 -43.5 -41s-37.5 -20.833 -63.5 -28.5s-54.667 -11.5 -86 -11.5c-82 0 -145.833 26 -191.5 78
s-68.5 117.667 -68.5 197zM254.999 564.998l-28 28l167 167l28 -28z" />
    <glyph glyph-name="Ccircumflex" unicode="&#x108;" horiz-adv-x="545" 
d="M20 260c0 79.333 22.832 144.998 68.499 196.998s109.5 78 191.5 78c42.667 0 80.334 -7 113.001 -21s57 -31.167 73 -51.5s28.833 -40.5 38.5 -60.5s15.5 -37 17.5 -51l3 -21h-140c0 2.66699 -0.333008 6.33398 -1 11.001s-3.16699 12.667 -7.5 24
s-9.83301 21.333 -16.5 30s-17 16.667 -31 24s-30.333 11 -49 11c-42 0 -72.5 -15.5 -91.5 -46.5s-28.5 -72.167 -28.5 -123.5s9.5 -92.5 28.5 -123.5s49.5 -46.5 91.5 -46.5c18.667 0 35 3.5 49 10.5s24.333 15.333 31 25s12.167 19.334 16.5 29.001
s6.83301 18.167 7.5 25.5l1 10h140c0 -2.66699 -0.333008 -6.5 -1 -11.5s-3.16699 -14.667 -7.5 -29s-9.5 -27.833 -15.5 -40.5s-15.333 -27 -28 -43s-27.167 -29.667 -43.5 -41s-37.5 -20.833 -63.5 -28.5s-54.667 -11.5 -86 -11.5c-82 0 -145.833 26 -191.5 78
s-68.5 117.667 -68.5 197zM464.999 581.998l-26 -31l-159 134l-159 -134l-26 31l185 154z" />
    <glyph glyph-name="ccircumflex" unicode="&#x109;" horiz-adv-x="545" 
d="M20 260c0 79.333 22.832 144.998 68.499 196.998s109.5 78 191.5 78c42.667 0 80.334 -7 113.001 -21s57 -31.167 73 -51.5s28.833 -40.5 38.5 -60.5s15.5 -37 17.5 -51l3 -21h-140c0 2.66699 -0.333008 6.33398 -1 11.001s-3.16699 12.667 -7.5 24
s-9.83301 21.333 -16.5 30s-17 16.667 -31 24s-30.333 11 -49 11c-42 0 -72.5 -15.5 -91.5 -46.5s-28.5 -72.167 -28.5 -123.5s9.5 -92.5 28.5 -123.5s49.5 -46.5 91.5 -46.5c18.667 0 35 3.5 49 10.5s24.333 15.333 31 25s12.167 19.334 16.5 29.001
s6.83301 18.167 7.5 25.5l1 10h140c0 -2.66699 -0.333008 -6.5 -1 -11.5s-3.16699 -14.667 -7.5 -29s-9.5 -27.833 -15.5 -40.5s-15.333 -27 -28 -43s-27.167 -29.667 -43.5 -41s-37.5 -20.833 -63.5 -28.5s-54.667 -11.5 -86 -11.5c-82 0 -145.833 26 -191.5 78
s-68.5 117.667 -68.5 197zM464.999 581.998l-26 -31l-159 134l-159 -134l-26 31l185 154z" />
    <glyph glyph-name="Cdotaccent" unicode="&#x10a;" horiz-adv-x="545" 
d="M20 260c0 79.333 22.832 144.998 68.499 196.998s109.5 78 191.5 78c42.667 0 80.334 -7 113.001 -21s57 -31.167 73 -51.5s28.833 -40.5 38.5 -60.5s15.5 -37 17.5 -51l3 -21h-140c0 2.66699 -0.333008 6.33398 -1 11.001s-3.16699 12.667 -7.5 24
s-9.83301 21.333 -16.5 30s-17 16.667 -31 24s-30.333 11 -49 11c-42 0 -72.5 -15.5 -91.5 -46.5s-28.5 -72.167 -28.5 -123.5s9.5 -92.5 28.5 -123.5s49.5 -46.5 91.5 -46.5c18.667 0 35 3.5 49 10.5s24.333 15.333 31 25s12.167 19.334 16.5 29.001
s6.83301 18.167 7.5 25.5l1 10h140c0 -2.66699 -0.333008 -6.5 -1 -11.5s-3.16699 -14.667 -7.5 -29s-9.5 -27.833 -15.5 -40.5s-15.333 -27 -28 -43s-27.167 -29.667 -43.5 -41s-37.5 -20.833 -63.5 -28.5s-54.667 -11.5 -86 -11.5c-82 0 -145.833 26 -191.5 78
s-68.5 117.667 -68.5 197zM199.999 634.998c0 22 7.83301 40.833 23.5 56.5s34.5 23.5 56.5 23.5s40.833 -7.83301 56.5 -23.5s23.5 -34.5 23.5 -56.5s-7.83301 -40.833 -23.5 -56.5s-34.5 -23.5 -56.5 -23.5s-40.833 7.83301 -56.5 23.5s-23.5 34.5 -23.5 56.5z" />
    <glyph glyph-name="cdotaccent" unicode="&#x10b;" horiz-adv-x="545" 
d="M20 260c0 79.333 22.832 144.998 68.499 196.998s109.5 78 191.5 78c42.667 0 80.334 -7 113.001 -21s57 -31.167 73 -51.5s28.833 -40.5 38.5 -60.5s15.5 -37 17.5 -51l3 -21h-140c0 2.66699 -0.333008 6.33398 -1 11.001s-3.16699 12.667 -7.5 24
s-9.83301 21.333 -16.5 30s-17 16.667 -31 24s-30.333 11 -49 11c-42 0 -72.5 -15.5 -91.5 -46.5s-28.5 -72.167 -28.5 -123.5s9.5 -92.5 28.5 -123.5s49.5 -46.5 91.5 -46.5c18.667 0 35 3.5 49 10.5s24.333 15.333 31 25s12.167 19.334 16.5 29.001
s6.83301 18.167 7.5 25.5l1 10h140c0 -2.66699 -0.333008 -6.5 -1 -11.5s-3.16699 -14.667 -7.5 -29s-9.5 -27.833 -15.5 -40.5s-15.333 -27 -28 -43s-27.167 -29.667 -43.5 -41s-37.5 -20.833 -63.5 -28.5s-54.667 -11.5 -86 -11.5c-82 0 -145.833 26 -191.5 78
s-68.5 117.667 -68.5 197zM199.999 634.998c0 22 7.83301 40.833 23.5 56.5s34.5 23.5 56.5 23.5s40.833 -7.83301 56.5 -23.5s23.5 -34.5 23.5 -56.5s-7.83301 -40.833 -23.5 -56.5s-34.5 -23.5 -56.5 -23.5s-40.833 7.83301 -56.5 23.5s-23.5 34.5 -23.5 56.5z" />
    <glyph glyph-name="Ccaron" unicode="&#x10c;" horiz-adv-x="545" 
d="M20 260c0 79.333 22.832 144.998 68.499 196.998s109.5 78 191.5 78c42.667 0 80.334 -7 113.001 -21s57 -31.167 73 -51.5s28.833 -40.5 38.5 -60.5s15.5 -37 17.5 -51l3 -21h-140c0 2.66699 -0.333008 6.33398 -1 11.001s-3.16699 12.667 -7.5 24
s-9.83301 21.333 -16.5 30s-17 16.667 -31 24s-30.333 11 -49 11c-42 0 -72.5 -15.5 -91.5 -46.5s-28.5 -72.167 -28.5 -123.5s9.5 -92.5 28.5 -123.5s49.5 -46.5 91.5 -46.5c18.667 0 35 3.5 49 10.5s24.333 15.333 31 25s12.167 19.334 16.5 29.001
s6.83301 18.167 7.5 25.5l1 10h140c0 -2.66699 -0.333008 -6.5 -1 -11.5s-3.16699 -14.667 -7.5 -29s-9.5 -27.833 -15.5 -40.5s-15.333 -27 -28 -43s-27.167 -29.667 -43.5 -41s-37.5 -20.833 -63.5 -28.5s-54.667 -11.5 -86 -11.5c-82 0 -145.833 26 -191.5 78
s-68.5 117.667 -68.5 197zM440.999 730.998l24 -31l-185 -135l-185 135l24 31l161 -117z" />
    <glyph glyph-name="ccaron" unicode="&#x10d;" horiz-adv-x="545" 
d="M20 260c0 79.333 22.832 144.998 68.499 196.998s109.5 78 191.5 78c42.667 0 80.334 -7 113.001 -21s57 -31.167 73 -51.5s28.833 -40.5 38.5 -60.5s15.5 -37 17.5 -51l3 -21h-140c0 2.66699 -0.333008 6.33398 -1 11.001s-3.16699 12.667 -7.5 24
s-9.83301 21.333 -16.5 30s-17 16.667 -31 24s-30.333 11 -49 11c-42 0 -72.5 -15.5 -91.5 -46.5s-28.5 -72.167 -28.5 -123.5s9.5 -92.5 28.5 -123.5s49.5 -46.5 91.5 -46.5c18.667 0 35 3.5 49 10.5s24.333 15.333 31 25s12.167 19.334 16.5 29.001
s6.83301 18.167 7.5 25.5l1 10h140c0 -2.66699 -0.333008 -6.5 -1 -11.5s-3.16699 -14.667 -7.5 -29s-9.5 -27.833 -15.5 -40.5s-15.333 -27 -28 -43s-27.167 -29.667 -43.5 -41s-37.5 -20.833 -63.5 -28.5s-54.667 -11.5 -86 -11.5c-82 0 -145.833 26 -191.5 78
s-68.5 117.667 -68.5 197zM440.999 730.998l24 -31l-185 -135l-185 135l24 31l161 -117z" />
    <glyph glyph-name="Dcaron" unicode="&#x10e;" horiz-adv-x="765" 
d="M545 700l-0.00390625 -699.999h-135v70h-5c-1.33301 -2 -3.16602 -5 -5.49902 -9s-8.16602 -10.833 -17.499 -20.5s-19.666 -18.334 -30.999 -26.001s-26.5 -14.5 -45.5 -20.5s-39.167 -9 -60.5 -9c-71.333 0 -126.666 26.5 -165.999 79.5s-59 118.167 -59 195.5
s19.667 142.5 59 195.5s94.666 79.5 165.999 79.5c32.667 0 61.834 -5.83301 87.501 -17.5s43.5 -23.5 53.5 -35.5l14 -17h5v235h140zM409.996 260.001c0 50 -10.667 90.833 -32 122.5s-52.333 47.5 -93 47.5s-71.667 -15.833 -93 -47.5s-32 -72.5 -32 -122.5
s10.667 -90.833 32 -122.5s52.333 -47.5 93 -47.5s71.667 15.833 93 47.5s32 72.5 32 122.5zM574.996 630.001c0 22 8.16797 40.834 24.501 56.501s36.5 23.5 60.5 23.5c28 0 50.833 -10.833 68.5 -32.5s26.5 -50.834 26.5 -87.501c0 -60 -15.167 -106.667 -45.5 -140
s-71.833 -50 -124.5 -50v40c33.333 0 61.666 10 84.999 30s35 50 35 90c-13.333 -6.66699 -30 -10 -50 -10c-22 0 -40.833 7.83301 -56.5 23.5s-23.5 34.5 -23.5 56.5z" />
    <glyph glyph-name="dcaron" unicode="&#x10f;" horiz-adv-x="765" 
d="M545 700l-0.00390625 -699.999h-135v70h-5c-1.33301 -2 -3.16602 -5 -5.49902 -9s-8.16602 -10.833 -17.499 -20.5s-19.666 -18.334 -30.999 -26.001s-26.5 -14.5 -45.5 -20.5s-39.167 -9 -60.5 -9c-71.333 0 -126.666 26.5 -165.999 79.5s-59 118.167 -59 195.5
s19.667 142.5 59 195.5s94.666 79.5 165.999 79.5c32.667 0 61.834 -5.83301 87.501 -17.5s43.5 -23.5 53.5 -35.5l14 -17h5v235h140zM409.996 260.001c0 50 -10.667 90.833 -32 122.5s-52.333 47.5 -93 47.5s-71.667 -15.833 -93 -47.5s-32 -72.5 -32 -122.5
s10.667 -90.833 32 -122.5s52.333 -47.5 93 -47.5s71.667 15.833 93 47.5s32 72.5 32 122.5zM574.996 630.001c0 22 8.16797 40.834 24.501 56.501s36.5 23.5 60.5 23.5c28 0 50.833 -10.833 68.5 -32.5s26.5 -50.834 26.5 -87.501c0 -60 -15.167 -106.667 -45.5 -140
s-71.833 -50 -124.5 -50v40c33.333 0 61.666 10 84.999 30s35 50 35 90c-13.333 -6.66699 -30 -10 -50 -10c-22 0 -40.833 7.83301 -56.5 23.5s-23.5 34.5 -23.5 56.5z" />
    <glyph glyph-name="Dcroat" unicode="&#x110;" horiz-adv-x="570" 
d="M545 570l-0.00390625 -569.999h-135v70h-5c-1.33301 -2 -3.16602 -5 -5.49902 -9s-8.16602 -10.833 -17.499 -20.5s-19.666 -18.334 -30.999 -26.001s-26.5 -14.5 -45.5 -20.5s-39.167 -9 -60.5 -9c-71.333 0 -126.666 26.5 -165.999 79.5s-59 118.167 -59 195.5
s19.667 142.5 59 195.5s94.666 79.5 165.999 79.5c32.667 0 61.834 -5.83301 87.501 -17.5s43.5 -23.5 53.5 -35.5l14 -17h5v105h-95v40h95v90h140v-90h95v-40h-95zM409.996 260.001c0 50 -10.667 90.833 -32 122.5s-52.333 47.5 -93 47.5s-71.667 -15.833 -93 -47.5
s-32 -72.5 -32 -122.5s10.667 -90.833 32 -122.5s52.333 -47.5 93 -47.5s71.667 15.833 93 47.5s32 72.5 32 122.5z" />
    <glyph glyph-name="dcroat" unicode="&#x111;" horiz-adv-x="570" 
d="M545 570l-0.00390625 -569.999h-135v70h-5c-1.33301 -2 -3.16602 -5 -5.49902 -9s-8.16602 -10.833 -17.499 -20.5s-19.666 -18.334 -30.999 -26.001s-26.5 -14.5 -45.5 -20.5s-39.167 -9 -60.5 -9c-71.333 0 -126.666 26.5 -165.999 79.5s-59 118.167 -59 195.5
s19.667 142.5 59 195.5s94.666 79.5 165.999 79.5c32.667 0 61.834 -5.83301 87.501 -17.5s43.5 -23.5 53.5 -35.5l14 -17h5v105h-95v40h95v90h140v-90h95v-40h-95zM409.996 260.001c0 50 -10.667 90.833 -32 122.5s-52.333 47.5 -93 47.5s-71.667 -15.833 -93 -47.5
s-32 -72.5 -32 -122.5s10.667 -90.833 32 -122.5s52.333 -47.5 93 -47.5s71.667 15.833 93 47.5s32 72.5 32 122.5z" />
    <glyph glyph-name="Emacron" unicode="&#x112;" horiz-adv-x="550" 
d="M20 260c0 79.333 22.665 144.998 67.998 196.998s109.333 78 192 78c82 0 144.167 -25.667 186.5 -77s63.5 -117.333 63.5 -198l-1 -30h-368c6.66699 -93.333 48 -140 124 -140c16 0 30.333 2.66699 43 8s22.334 12 29.001 20s12.334 16 17.001 24s7.66699 14.667 9 20
l2 8h140c-0.666992 -5.33301 -2.16699 -12 -4.5 -20s-9 -22.667 -20 -44s-24.667 -40.166 -41 -56.499s-40.333 -31.166 -72 -44.499s-67.5 -20 -107.5 -20c-84 0 -148.333 25.833 -193 77.5s-67 117.5 -67 197.5zM279.998 429.998c-62.667 0 -101 -36.667 -115 -110h221
c-10 73.333 -45.333 110 -106 110zM79.998 569.998v40h390v-40h-390z" />
    <glyph glyph-name="emacron" unicode="&#x113;" horiz-adv-x="550" 
d="M20 260c0 79.333 22.665 144.998 67.998 196.998s109.333 78 192 78c82 0 144.167 -25.667 186.5 -77s63.5 -117.333 63.5 -198l-1 -30h-368c6.66699 -93.333 48 -140 124 -140c16 0 30.333 2.66699 43 8s22.334 12 29.001 20s12.334 16 17.001 24s7.66699 14.667 9 20
l2 8h140c-0.666992 -5.33301 -2.16699 -12 -4.5 -20s-9 -22.667 -20 -44s-24.667 -40.166 -41 -56.499s-40.333 -31.166 -72 -44.499s-67.5 -20 -107.5 -20c-84 0 -148.333 25.833 -193 77.5s-67 117.5 -67 197.5zM279.998 429.998c-62.667 0 -101 -36.667 -115 -110h221
c-10 73.333 -45.333 110 -106 110zM79.998 569.998v40h390v-40h-390z" />
    <glyph glyph-name="Ebreve" unicode="&#x114;" horiz-adv-x="550" 
d="M20 260c0 79.333 22.665 144.998 67.998 196.998s109.333 78 192 78c82 0 144.167 -25.667 186.5 -77s63.5 -117.333 63.5 -198l-1 -30h-368c6.66699 -93.333 48 -140 124 -140c16 0 30.333 2.66699 43 8s22.334 12 29.001 20s12.334 16 17.001 24s7.66699 14.667 9 20
l2 8h140c-0.666992 -5.33301 -2.16699 -12 -4.5 -20s-9 -22.667 -20 -44s-24.667 -40.166 -41 -56.499s-40.333 -31.166 -72 -44.499s-67.5 -20 -107.5 -20c-84 0 -148.333 25.833 -193 77.5s-67 117.5 -67 197.5zM279.998 429.998c-62.667 0 -101 -36.667 -115 -110h221
c-10 73.333 -45.333 110 -106 110zM119.998 699.998h40c0 -28.667 10.667 -51.667 32 -69s49 -26 83 -26s61.667 8.66699 83 26s32 40.333 32 69h40c0 -40 -14.5 -72.5 -43.5 -97.5s-66.167 -37.5 -111.5 -37.5s-82.5 12.5 -111.5 37.5s-43.5 57.5 -43.5 97.5z" />
    <glyph glyph-name="ebreve" unicode="&#x115;" horiz-adv-x="550" 
d="M20 260c0 79.333 22.665 144.998 67.998 196.998s109.333 78 192 78c82 0 144.167 -25.667 186.5 -77s63.5 -117.333 63.5 -198l-1 -30h-368c6.66699 -93.333 48 -140 124 -140c16 0 30.333 2.66699 43 8s22.334 12 29.001 20s12.334 16 17.001 24s7.66699 14.667 9 20
l2 8h140c-0.666992 -5.33301 -2.16699 -12 -4.5 -20s-9 -22.667 -20 -44s-24.667 -40.166 -41 -56.499s-40.333 -31.166 -72 -44.499s-67.5 -20 -107.5 -20c-84 0 -148.333 25.833 -193 77.5s-67 117.5 -67 197.5zM279.998 429.998c-62.667 0 -101 -36.667 -115 -110h221
c-10 73.333 -45.333 110 -106 110zM119.998 699.998h40c0 -28.667 10.667 -51.667 32 -69s49 -26 83 -26s61.667 8.66699 83 26s32 40.333 32 69h40c0 -40 -14.5 -72.5 -43.5 -97.5s-66.167 -37.5 -111.5 -37.5s-82.5 12.5 -111.5 37.5s-43.5 57.5 -43.5 97.5z" />
    <glyph glyph-name="Edotaccent" unicode="&#x116;" horiz-adv-x="550" 
d="M20 260c0 79.333 22.665 144.998 67.998 196.998s109.333 78 192 78c82 0 144.167 -25.667 186.5 -77s63.5 -117.333 63.5 -198l-1 -30h-368c6.66699 -93.333 48 -140 124 -140c16 0 30.333 2.66699 43 8s22.334 12 29.001 20s12.334 16 17.001 24s7.66699 14.667 9 20
l2 8h140c-0.666992 -5.33301 -2.16699 -12 -4.5 -20s-9 -22.667 -20 -44s-24.667 -40.166 -41 -56.499s-40.333 -31.166 -72 -44.499s-67.5 -20 -107.5 -20c-84 0 -148.333 25.833 -193 77.5s-67 117.5 -67 197.5zM199.998 634.998c0 22 7.83301 40.833 23.5 56.5
s34.5 23.5 56.5 23.5s40.833 -7.83301 56.5 -23.5s23.5 -34.5 23.5 -56.5s-7.83301 -40.833 -23.5 -56.5s-34.5 -23.5 -56.5 -23.5s-40.833 7.83301 -56.5 23.5s-23.5 34.5 -23.5 56.5zM279.998 429.998c-62.667 0 -101 -36.667 -115 -110h221
c-10 73.333 -45.333 110 -106 110z" />
    <glyph glyph-name="edotaccent" unicode="&#x117;" horiz-adv-x="550" 
d="M20 260c0 79.333 22.665 144.998 67.998 196.998s109.333 78 192 78c82 0 144.167 -25.667 186.5 -77s63.5 -117.333 63.5 -198l-1 -30h-368c6.66699 -93.333 48 -140 124 -140c16 0 30.333 2.66699 43 8s22.334 12 29.001 20s12.334 16 17.001 24s7.66699 14.667 9 20
l2 8h140c-0.666992 -5.33301 -2.16699 -12 -4.5 -20s-9 -22.667 -20 -44s-24.667 -40.166 -41 -56.499s-40.333 -31.166 -72 -44.499s-67.5 -20 -107.5 -20c-84 0 -148.333 25.833 -193 77.5s-67 117.5 -67 197.5zM199.998 634.998c0 22 7.83301 40.833 23.5 56.5
s34.5 23.5 56.5 23.5s40.833 -7.83301 56.5 -23.5s23.5 -34.5 23.5 -56.5s-7.83301 -40.833 -23.5 -56.5s-34.5 -23.5 -56.5 -23.5s-40.833 7.83301 -56.5 23.5s-23.5 34.5 -23.5 56.5zM279.998 429.998c-62.667 0 -101 -36.667 -115 -110h221
c-10 73.333 -45.333 110 -106 110z" />
    <glyph glyph-name="Eogonek" unicode="&#x118;" horiz-adv-x="550" 
d="M195 -110c0 23.333 8.33008 43.334 24.9971 60.001l36 36c-76.667 5.33301 -135.167 33.333 -175.5 84s-60.5 114 -60.5 190c0 79.333 22.667 145 68 197s109.333 78 192 78c82 0 144.167 -25.667 186.5 -77s63.5 -117.333 63.5 -198l-1 -30h-368
c6.66699 -93.333 48 -140 124 -140c16 0 30.333 2.66699 43 8s22.334 12 29.001 20s12.334 16 17.001 24s7.66699 14.667 9 20l2 8h140c-0.666992 -4.66699 -2 -10.667 -4 -18s-7.83301 -20.833 -17.5 -40.5s-21.5 -37.334 -35.5 -53.001s-34.833 -30.667 -62.5 -45
s-58.834 -23.166 -93.501 -26.499l-64 -65c-8.66699 -8.66699 -13 -19.334 -13 -32.001s4.33301 -23.334 13 -32.001s19.334 -13 32.001 -13s23.334 4.33301 32.001 13s13 19.334 13 32.001h40c0 -23.333 -8.33301 -43.333 -25 -60s-36.667 -25 -60 -25
s-43.333 8.33301 -60 25s-25 36.667 -25 60zM279.997 430.001c-62.667 0 -101 -36.667 -115 -110h221c-10 73.333 -45.333 110 -106 110z" />
    <glyph glyph-name="eogonek" unicode="&#x119;" horiz-adv-x="550" 
d="M195 -110c0 23.333 8.33008 43.334 24.9971 60.001l36 36c-76.667 5.33301 -135.167 33.333 -175.5 84s-60.5 114 -60.5 190c0 79.333 22.667 145 68 197s109.333 78 192 78c82 0 144.167 -25.667 186.5 -77s63.5 -117.333 63.5 -198l-1 -30h-368
c6.66699 -93.333 48 -140 124 -140c16 0 30.333 2.66699 43 8s22.334 12 29.001 20s12.334 16 17.001 24s7.66699 14.667 9 20l2 8h140c-0.666992 -4.66699 -2 -10.667 -4 -18s-7.83301 -20.833 -17.5 -40.5s-21.5 -37.334 -35.5 -53.001s-34.833 -30.667 -62.5 -45
s-58.834 -23.166 -93.501 -26.499l-64 -65c-8.66699 -8.66699 -13 -19.334 -13 -32.001s4.33301 -23.334 13 -32.001s19.334 -13 32.001 -13s23.334 4.33301 32.001 13s13 19.334 13 32.001h40c0 -23.333 -8.33301 -43.333 -25 -60s-36.667 -25 -60 -25
s-43.333 8.33301 -60 25s-25 36.667 -25 60zM279.997 430.001c-62.667 0 -101 -36.667 -115 -110h221c-10 73.333 -45.333 110 -106 110z" />
    <glyph glyph-name="Ecaron" unicode="&#x11a;" horiz-adv-x="550" 
d="M20 260c0 79.333 22.665 144.998 67.998 196.998s109.333 78 192 78c82 0 144.167 -25.667 186.5 -77s63.5 -117.333 63.5 -198l-1 -30h-368c6.66699 -93.333 48 -140 124 -140c16 0 30.333 2.66699 43 8s22.334 12 29.001 20s12.334 16 17.001 24s7.66699 14.667 9 20
l2 8h140c-0.666992 -5.33301 -2.16699 -12 -4.5 -20s-9 -22.667 -20 -44s-24.667 -40.166 -41 -56.499s-40.333 -31.166 -72 -44.499s-67.5 -20 -107.5 -20c-84 0 -148.333 25.833 -193 77.5s-67 117.5 -67 197.5zM279.998 429.998c-62.667 0 -101 -36.667 -115 -110h221
c-10 73.333 -45.333 110 -106 110zM435.998 730.998l24 -31l-185 -135l-185 135l24 31l161 -117z" />
    <glyph glyph-name="ecaron" unicode="&#x11b;" horiz-adv-x="550" 
d="M20 260c0 79.333 22.665 144.998 67.998 196.998s109.333 78 192 78c82 0 144.167 -25.667 186.5 -77s63.5 -117.333 63.5 -198l-1 -30h-368c6.66699 -93.333 48 -140 124 -140c16 0 30.333 2.66699 43 8s22.334 12 29.001 20s12.334 16 17.001 24s7.66699 14.667 9 20
l2 8h140c-0.666992 -5.33301 -2.16699 -12 -4.5 -20s-9 -22.667 -20 -44s-24.667 -40.166 -41 -56.499s-40.333 -31.166 -72 -44.499s-67.5 -20 -107.5 -20c-84 0 -148.333 25.833 -193 77.5s-67 117.5 -67 197.5zM279.998 429.998c-62.667 0 -101 -36.667 -115 -110h221
c-10 73.333 -45.333 110 -106 110zM435.998 730.998l24 -31l-185 -135l-185 135l24 31l161 -117z" />
    <glyph glyph-name="Gcircumflex" unicode="&#x11c;" horiz-adv-x="570" 
d="M545 60l-0.00390625 459.999h-135v-70h-5c-1.33301 2 -3.16602 5 -5.49902 9s-8.16602 10.833 -17.499 20.5s-19.666 18.334 -30.999 26.001s-26.5 14.5 -45.5 20.5s-39.167 9 -60.5 9c-71.333 0 -126.666 -26 -165.999 -78s-59 -114.333 -59 -187s19.667 -135 59 -187
s94.666 -78 165.999 -78c32.667 0 61.834 5.83301 87.501 17.5s43.5 23.5 53.5 35.5l14 17h5v-25c0 -46.667 -9.16699 -81.667 -27.5 -105s-49.166 -35 -92.499 -35c-29.333 0 -52.833 6.33301 -70.5 19s-27.834 25 -30.501 37l-4 19h-140
c0 -4.66699 0.666992 -11.167 2 -19.5s6.5 -22.833 15.5 -43.5s21.333 -38.834 37 -54.501s40.167 -30 73.5 -43s72.333 -19.5 117 -19.5c86.667 0 151.667 22.833 195 68.5s65 107.834 65 186.501zM409.996 269.999c0 -45.333 -10.833 -83.333 -32.5 -114
s-52.5 -46 -92.5 -46s-70.833 15.333 -92.5 46s-32.5 68.667 -32.5 114s10.833 83.333 32.5 114s52.5 46 92.5 46s70.833 -15.333 92.5 -46s32.5 -68.667 32.5 -114zM469.996 581.999l-26 -31l-159 134l-159 -134l-26 31l185 154z" />
    <glyph glyph-name="gcircumflex" unicode="&#x11d;" horiz-adv-x="570" 
d="M545 60l-0.00390625 459.999h-135v-70h-5c-1.33301 2 -3.16602 5 -5.49902 9s-8.16602 10.833 -17.499 20.5s-19.666 18.334 -30.999 26.001s-26.5 14.5 -45.5 20.5s-39.167 9 -60.5 9c-71.333 0 -126.666 -26 -165.999 -78s-59 -114.333 -59 -187s19.667 -135 59 -187
s94.666 -78 165.999 -78c32.667 0 61.834 5.83301 87.501 17.5s43.5 23.5 53.5 35.5l14 17h5v-25c0 -46.667 -9.16699 -81.667 -27.5 -105s-49.166 -35 -92.499 -35c-29.333 0 -52.833 6.33301 -70.5 19s-27.834 25 -30.501 37l-4 19h-140
c0 -4.66699 0.666992 -11.167 2 -19.5s6.5 -22.833 15.5 -43.5s21.333 -38.834 37 -54.501s40.167 -30 73.5 -43s72.333 -19.5 117 -19.5c86.667 0 151.667 22.833 195 68.5s65 107.834 65 186.501zM409.996 269.999c0 -45.333 -10.833 -83.333 -32.5 -114
s-52.5 -46 -92.5 -46s-70.833 15.333 -92.5 46s-32.5 68.667 -32.5 114s10.833 83.333 32.5 114s52.5 46 92.5 46s70.833 -15.333 92.5 -46s32.5 -68.667 32.5 -114zM469.996 581.999l-26 -31l-159 134l-159 -134l-26 31l185 154z" />
    <glyph glyph-name="Gbreve" unicode="&#x11e;" horiz-adv-x="570" 
d="M545 60l-0.00390625 459.999h-135v-70h-5c-1.33301 2 -3.16602 5 -5.49902 9s-8.16602 10.833 -17.499 20.5s-19.666 18.334 -30.999 26.001s-26.5 14.5 -45.5 20.5s-39.167 9 -60.5 9c-71.333 0 -126.666 -26 -165.999 -78s-59 -114.333 -59 -187s19.667 -135 59 -187
s94.666 -78 165.999 -78c32.667 0 61.834 5.83301 87.501 17.5s43.5 23.5 53.5 35.5l14 17h5v-25c0 -46.667 -9.16699 -81.667 -27.5 -105s-49.166 -35 -92.499 -35c-29.333 0 -52.833 6.33301 -70.5 19s-27.834 25 -30.501 37l-4 19h-140
c0 -4.66699 0.666992 -11.167 2 -19.5s6.5 -22.833 15.5 -43.5s21.333 -38.834 37 -54.501s40.167 -30 73.5 -43s72.333 -19.5 117 -19.5c86.667 0 151.667 22.833 195 68.5s65 107.834 65 186.501zM409.996 269.999c0 -45.333 -10.833 -83.333 -32.5 -114
s-52.5 -46 -92.5 -46s-70.833 15.333 -92.5 46s-32.5 68.667 -32.5 114s10.833 83.333 32.5 114s52.5 46 92.5 46s70.833 -15.333 92.5 -46s32.5 -68.667 32.5 -114zM129.996 699.999h40c0 -28.667 10.667 -51.667 32 -69s49 -26 83 -26s61.667 8.66699 83 26
s32 40.333 32 69h40c0 -40 -14.5 -72.5 -43.5 -97.5s-66.167 -37.5 -111.5 -37.5s-82.5 12.5 -111.5 37.5s-43.5 57.5 -43.5 97.5z" />
    <glyph glyph-name="gbreve" unicode="&#x11f;" horiz-adv-x="570" 
d="M545 60l-0.00390625 459.999h-135v-70h-5c-1.33301 2 -3.16602 5 -5.49902 9s-8.16602 10.833 -17.499 20.5s-19.666 18.334 -30.999 26.001s-26.5 14.5 -45.5 20.5s-39.167 9 -60.5 9c-71.333 0 -126.666 -26 -165.999 -78s-59 -114.333 -59 -187s19.667 -135 59 -187
s94.666 -78 165.999 -78c32.667 0 61.834 5.83301 87.501 17.5s43.5 23.5 53.5 35.5l14 17h5v-25c0 -46.667 -9.16699 -81.667 -27.5 -105s-49.166 -35 -92.499 -35c-29.333 0 -52.833 6.33301 -70.5 19s-27.834 25 -30.501 37l-4 19h-140
c0 -4.66699 0.666992 -11.167 2 -19.5s6.5 -22.833 15.5 -43.5s21.333 -38.834 37 -54.501s40.167 -30 73.5 -43s72.333 -19.5 117 -19.5c86.667 0 151.667 22.833 195 68.5s65 107.834 65 186.501zM409.996 269.999c0 -45.333 -10.833 -83.333 -32.5 -114
s-52.5 -46 -92.5 -46s-70.833 15.333 -92.5 46s-32.5 68.667 -32.5 114s10.833 83.333 32.5 114s52.5 46 92.5 46s70.833 -15.333 92.5 -46s32.5 -68.667 32.5 -114zM129.996 699.999h40c0 -28.667 10.667 -51.667 32 -69s49 -26 83 -26s61.667 8.66699 83 26
s32 40.333 32 69h40c0 -40 -14.5 -72.5 -43.5 -97.5s-66.167 -37.5 -111.5 -37.5s-82.5 12.5 -111.5 37.5s-43.5 57.5 -43.5 97.5z" />
    <glyph glyph-name="Gdotaccent" unicode="&#x120;" horiz-adv-x="570" 
d="M545 60l-0.00390625 459.999h-135v-70h-5c-1.33301 2 -3.16602 5 -5.49902 9s-8.16602 10.833 -17.499 20.5s-19.666 18.334 -30.999 26.001s-26.5 14.5 -45.5 20.5s-39.167 9 -60.5 9c-71.333 0 -126.666 -26 -165.999 -78s-59 -114.333 -59 -187s19.667 -135 59 -187
s94.666 -78 165.999 -78c32.667 0 61.834 5.83301 87.501 17.5s43.5 23.5 53.5 35.5l14 17h5v-25c0 -46.667 -9.16699 -81.667 -27.5 -105s-49.166 -35 -92.499 -35c-29.333 0 -52.833 6.33301 -70.5 19s-27.834 25 -30.501 37l-4 19h-140
c0 -4.66699 0.666992 -11.167 2 -19.5s6.5 -22.833 15.5 -43.5s21.333 -38.834 37 -54.501s40.167 -30 73.5 -43s72.333 -19.5 117 -19.5c86.667 0 151.667 22.833 195 68.5s65 107.834 65 186.501zM409.996 269.999c0 -45.333 -10.833 -83.333 -32.5 -114
s-52.5 -46 -92.5 -46s-70.833 15.333 -92.5 46s-32.5 68.667 -32.5 114s10.833 83.333 32.5 114s52.5 46 92.5 46s70.833 -15.333 92.5 -46s32.5 -68.667 32.5 -114zM209.996 634.999c0 22 7.83301 40.833 23.5 56.5s34.5 23.5 56.5 23.5s40.833 -7.83301 56.5 -23.5
s23.5 -34.5 23.5 -56.5s-7.83301 -40.833 -23.5 -56.5s-34.5 -23.5 -56.5 -23.5s-40.833 7.83301 -56.5 23.5s-23.5 34.5 -23.5 56.5z" />
    <glyph glyph-name="gdotaccent" unicode="&#x121;" horiz-adv-x="570" 
d="M545 60l-0.00390625 459.999h-135v-70h-5c-1.33301 2 -3.16602 5 -5.49902 9s-8.16602 10.833 -17.499 20.5s-19.666 18.334 -30.999 26.001s-26.5 14.5 -45.5 20.5s-39.167 9 -60.5 9c-71.333 0 -126.666 -26 -165.999 -78s-59 -114.333 -59 -187s19.667 -135 59 -187
s94.666 -78 165.999 -78c32.667 0 61.834 5.83301 87.501 17.5s43.5 23.5 53.5 35.5l14 17h5v-25c0 -46.667 -9.16699 -81.667 -27.5 -105s-49.166 -35 -92.499 -35c-29.333 0 -52.833 6.33301 -70.5 19s-27.834 25 -30.501 37l-4 19h-140
c0 -4.66699 0.666992 -11.167 2 -19.5s6.5 -22.833 15.5 -43.5s21.333 -38.834 37 -54.501s40.167 -30 73.5 -43s72.333 -19.5 117 -19.5c86.667 0 151.667 22.833 195 68.5s65 107.834 65 186.501zM409.996 269.999c0 -45.333 -10.833 -83.333 -32.5 -114
s-52.5 -46 -92.5 -46s-70.833 15.333 -92.5 46s-32.5 68.667 -32.5 114s10.833 83.333 32.5 114s52.5 46 92.5 46s70.833 -15.333 92.5 -46s32.5 -68.667 32.5 -114zM209.996 634.999c0 22 7.83301 40.833 23.5 56.5s34.5 23.5 56.5 23.5s40.833 -7.83301 56.5 -23.5
s23.5 -34.5 23.5 -56.5s-7.83301 -40.833 -23.5 -56.5s-34.5 -23.5 -56.5 -23.5s-40.833 7.83301 -56.5 23.5s-23.5 34.5 -23.5 56.5z" />
    <glyph glyph-name="Gcommaaccent" unicode="&#x122;" horiz-adv-x="570" 
d="M545 60l-0.00390625 459.999h-135v-70h-5c-1.33301 2 -3.16602 5 -5.49902 9s-8.16602 10.833 -17.499 20.5s-19.666 18.334 -30.999 26.001s-26.5 14.5 -45.5 20.5s-39.167 9 -60.5 9c-71.333 0 -126.666 -26 -165.999 -78s-59 -114.333 -59 -187s19.667 -135 59 -187
s94.666 -78 165.999 -78c32.667 0 61.834 5.83301 87.501 17.5s43.5 23.5 53.5 35.5l14 17h5v-25c0 -46.667 -9.16699 -81.667 -27.5 -105s-49.166 -35 -92.499 -35c-29.333 0 -52.833 6.33301 -70.5 19s-27.834 25 -30.501 37l-4 19h-140
c0 -4.66699 0.666992 -11.167 2 -19.5s6.5 -22.833 15.5 -43.5s21.333 -38.834 37 -54.501s40.167 -30 73.5 -43s72.333 -19.5 117 -19.5c86.667 0 151.667 22.833 195 68.5s65 107.834 65 186.501zM409.996 269.999c0 -45.333 -10.833 -83.333 -32.5 -114
s-52.5 -46 -92.5 -46s-70.833 15.333 -92.5 46s-32.5 68.667 -32.5 114s10.833 83.333 32.5 114s52.5 46 92.5 46s70.833 -15.333 92.5 -46s32.5 -68.667 32.5 -114zM369.996 634.999c0 -22 -8.16797 -40.834 -24.501 -56.501s-36.5 -23.5 -60.5 -23.5
c-28 0 -50.833 10.833 -68.5 32.5s-26.5 50.834 -26.5 87.501c0 60 15.167 106.667 45.5 140s71.833 50 124.5 50v-40c-33.333 0 -61.666 -10 -84.999 -30s-35 -50 -35 -90c13.333 6.66699 30 10 50 10c22 0 40.833 -7.83301 56.5 -23.5s23.5 -34.5 23.5 -56.5z" />
    <glyph glyph-name="gcommaaccent" unicode="&#x123;" horiz-adv-x="570" 
d="M545 60l-0.00390625 459.999h-135v-70h-5c-1.33301 2 -3.16602 5 -5.49902 9s-8.16602 10.833 -17.499 20.5s-19.666 18.334 -30.999 26.001s-26.5 14.5 -45.5 20.5s-39.167 9 -60.5 9c-71.333 0 -126.666 -26 -165.999 -78s-59 -114.333 -59 -187s19.667 -135 59 -187
s94.666 -78 165.999 -78c32.667 0 61.834 5.83301 87.501 17.5s43.5 23.5 53.5 35.5l14 17h5v-25c0 -46.667 -9.16699 -81.667 -27.5 -105s-49.166 -35 -92.499 -35c-29.333 0 -52.833 6.33301 -70.5 19s-27.834 25 -30.501 37l-4 19h-140
c0 -4.66699 0.666992 -11.167 2 -19.5s6.5 -22.833 15.5 -43.5s21.333 -38.834 37 -54.501s40.167 -30 73.5 -43s72.333 -19.5 117 -19.5c86.667 0 151.667 22.833 195 68.5s65 107.834 65 186.501zM409.996 269.999c0 -45.333 -10.833 -83.333 -32.5 -114
s-52.5 -46 -92.5 -46s-70.833 15.333 -92.5 46s-32.5 68.667 -32.5 114s10.833 83.333 32.5 114s52.5 46 92.5 46s70.833 -15.333 92.5 -46s32.5 -68.667 32.5 -114zM369.996 634.999c0 -22 -8.16797 -40.834 -24.501 -56.501s-36.5 -23.5 -60.5 -23.5
c-28 0 -50.833 10.833 -68.5 32.5s-26.5 50.834 -26.5 87.501c0 60 15.167 106.667 45.5 140s71.833 50 124.5 50v-40c-33.333 0 -61.666 -10 -84.999 -30s-35 -50 -35 -90c13.333 6.66699 30 10 50 10c22 0 40.833 -7.83301 56.5 -23.5s23.5 -34.5 23.5 -56.5z" />
    <glyph glyph-name="Hcircumflex" unicode="&#x124;" horiz-adv-x="525" 
d="M360 0v205h-195v-205h-140v520h140v-205h195v205h140v-520h-140zM448 582l-26 -31l-159 134l-159 -134l-26 31l185 154z" />
    <glyph glyph-name="hcircumflex" unicode="&#x125;" horiz-adv-x="525" 
d="M360 0v205h-195v-205h-140v520h140v-205h195v205h140v-520h-140zM448 582l-26 -31l-159 134l-159 -134l-26 31l185 154z" />
    <glyph glyph-name="Hbar" unicode="&#x126;" 
d="M-70 570l-0.000976562 39.999h95v90h140v-90h95v-40h-95v-135h5c1.33301 2.66699 3 6.33398 5 11.001s7.5 12.667 16.5 24s18.833 21.333 29.5 30s25.334 16.667 44.001 24s38.667 11 60 11c123.333 0 185 -71.667 185 -215v-320h-140v290c0 45.333 -7 78.333 -21 99
s-37 31 -69 31c-76.667 0 -115 -50 -115 -150v-270h-140v570h-95z" />
    <glyph glyph-name="hbar" unicode="&#x127;" 
d="M-70 570l-0.000976562 39.999h95v90h140v-90h95v-40h-95v-135h5c1.33301 2.66699 3 6.33398 5 11.001s7.5 12.667 16.5 24s18.833 21.333 29.5 30s25.334 16.667 44.001 24s38.667 11 60 11c123.333 0 185 -71.667 185 -215v-320h-140v290c0 45.333 -7 78.333 -21 99
s-37 31 -69 31c-76.667 0 -115 -50 -115 -150v-270h-140v570h-95z" />
    <glyph glyph-name="Itilde" unicode="&#x128;" horiz-adv-x="190" 
d="M165 520v-520h-140v520h140zM257 700h39.999c0 -32 -9.83301 -59.167 -29.5 -81.5s-44.834 -33.5 -75.501 -33.5c-24.667 0 -48.167 6.66699 -70.5 20s-43.5 26.666 -63.5 39.999s-38.667 20 -56 20c-20 0 -35.833 -7.16699 -47.5 -21.5s-17.5 -32.166 -17.5 -53.499h-40
c0 32 9.83301 59.167 29.5 81.5s44.834 33.5 75.501 33.5c24.667 0 48 -6.66699 70 -20s42.833 -26.666 62.5 -39.999s38.834 -20 57.501 -20c20 0 35.833 7.16699 47.5 21.5s17.5 32.166 17.5 53.499z" />
    <glyph glyph-name="itilde" unicode="&#x129;" horiz-adv-x="190" 
d="M165 520v-520h-140v520h140zM257 700h39.999c0 -32 -9.83301 -59.167 -29.5 -81.5s-44.834 -33.5 -75.501 -33.5c-24.667 0 -48.167 6.66699 -70.5 20s-43.5 26.666 -63.5 39.999s-38.667 20 -56 20c-20 0 -35.833 -7.16699 -47.5 -21.5s-17.5 -32.166 -17.5 -53.499h-40
c0 32 9.83301 59.167 29.5 81.5s44.834 33.5 75.501 33.5c24.667 0 48 -6.66699 70 -20s42.833 -26.666 62.5 -39.999s38.834 -20 57.501 -20c20 0 35.833 7.16699 47.5 21.5s17.5 32.166 17.5 53.499z" />
    <glyph glyph-name="uni012A" unicode="&#x12a;" horiz-adv-x="190" 
d="M165 520v-520h-140v520h140zM-70 570v40h330v-40h-330z" />
    <glyph glyph-name="imacron" unicode="&#x12b;" horiz-adv-x="190" 
d="M165 520v-520h-140v520h140zM-70 570v40h330v-40h-330z" />
    <glyph glyph-name="Ibreve" unicode="&#x12c;" horiz-adv-x="190" 
d="M165 520v-520h-140v520h140zM-60 700h40c0 -28.667 10.667 -51.667 32 -69s49 -26 83 -26s61.667 8.66699 83 26s32 40.333 32 69h40c0 -40 -14.5 -72.5 -43.5 -97.5s-66.167 -37.5 -111.5 -37.5s-82.5 12.5 -111.5 37.5s-43.5 57.5 -43.5 97.5z" />
    <glyph glyph-name="uni012D" unicode="&#x12d;" horiz-adv-x="190" 
d="M165 520v-520h-140v520h140zM-60 700h40c0 -28.667 10.667 -51.667 32 -69s49 -26 83 -26s61.667 8.66699 83 26s32 40.333 32 69h40c0 -40 -14.5 -72.5 -43.5 -97.5s-66.167 -37.5 -111.5 -37.5s-82.5 12.5 -111.5 37.5s-43.5 57.5 -43.5 97.5z" />
    <glyph glyph-name="Iogonek" unicode="&#x12e;" horiz-adv-x="190" 
d="M11 -110c0 23.333 8.33105 43.334 24.998 60.001l50 50h-61v520h140v-520h-23l-78 -78c-8.66699 -8.66699 -13 -19.334 -13 -32.001s4.33301 -23.334 13 -32.001s19.334 -13 32.001 -13s23.334 4.33301 32.001 13s13 19.334 13 32.001h40
c0 -23.333 -8.33301 -43.333 -25 -60s-36.667 -25 -60 -25s-43.333 8.33301 -60 25s-25 36.667 -25 60zM14.998 635.001c0 22 7.83301 40.833 23.5 56.5s34.5 23.5 56.5 23.5s40.833 -7.83301 56.5 -23.5s23.5 -34.5 23.5 -56.5s-7.83301 -40.833 -23.5 -56.5
s-34.5 -23.5 -56.5 -23.5s-40.833 7.83301 -56.5 23.5s-23.5 34.5 -23.5 56.5z" />
    <glyph glyph-name="iogonek" unicode="&#x12f;" horiz-adv-x="190" 
d="M11 -110c0 23.333 8.33105 43.334 24.998 60.001l50 50h-61v520h140v-520h-23l-78 -78c-8.66699 -8.66699 -13 -19.334 -13 -32.001s4.33301 -23.334 13 -32.001s19.334 -13 32.001 -13s23.334 4.33301 32.001 13s13 19.334 13 32.001h40
c0 -23.333 -8.33301 -43.333 -25 -60s-36.667 -25 -60 -25s-43.333 8.33301 -60 25s-25 36.667 -25 60zM14.998 635.001c0 22 7.83301 40.833 23.5 56.5s34.5 23.5 56.5 23.5s40.833 -7.83301 56.5 -23.5s23.5 -34.5 23.5 -56.5s-7.83301 -40.833 -23.5 -56.5
s-34.5 -23.5 -56.5 -23.5s-40.833 7.83301 -56.5 23.5s-23.5 34.5 -23.5 56.5z" />
    <glyph glyph-name="Idotaccent" unicode="&#x130;" horiz-adv-x="190" 
d="M165 520v-520h-140v520h140zM15 635c0 22 7.83301 40.833 23.5 56.5s34.5 23.5 56.5 23.5s40.833 -7.83301 56.5 -23.5s23.5 -34.5 23.5 -56.5s-7.83301 -40.833 -23.5 -56.5s-34.5 -23.5 -56.5 -23.5s-40.833 7.83301 -56.5 23.5s-23.5 34.5 -23.5 56.5z" />
    <glyph glyph-name="dotlessi" unicode="&#x131;" horiz-adv-x="190" 
d="M165 520v-520h-140v520h140z" />
    <glyph glyph-name="Jcircumflex" unicode="&#x134;" horiz-adv-x="190" 
d="M-55 -180l0.00195312 114.999h35c17.333 0 29.166 3.33301 35.499 10s9.5 20 9.5 40v535h140v-535c0 -61.333 -10.833 -104.166 -32.5 -128.499s-65.834 -36.5 -132.501 -36.5h-55zM280.002 581.999l-26 -31l-159 134l-159 -134l-26 31l185 154z" />
    <glyph glyph-name="jcircumflex" unicode="&#x135;" horiz-adv-x="190" 
d="M-55 -180l0.00195312 114.999h35c17.333 0 29.166 3.33301 35.499 10s9.5 20 9.5 40v535h140v-535c0 -61.333 -10.833 -104.166 -32.5 -128.499s-65.834 -36.5 -132.501 -36.5h-55zM280.002 581.999l-26 -31l-159 134l-159 -134l-26 31l185 154z" />
    <glyph glyph-name="Kcommaaccent" unicode="&#x136;" horiz-adv-x="540" 
d="M25 0v520h140v-210l185 210h165l-196 -203l206 -317h-171l-132 217l-57 -59v-158h-140zM170 -115c0 22 8.16797 40.834 24.501 56.501s36.5 23.5 60.5 23.5c28 0 50.833 -10.833 68.5 -32.5s26.5 -50.834 26.5 -87.501c0 -60 -15.167 -106.667 -45.5 -140
s-71.833 -50 -124.5 -50v40c33.333 0 61.666 10 84.999 30s35 50 35 90c-13.333 -6.66699 -30 -10 -50 -10c-22 0 -40.833 7.83301 -56.5 23.5s-23.5 34.5 -23.5 56.5z" />
    <glyph glyph-name="kcommaaccent" unicode="&#x137;" horiz-adv-x="540" 
d="M25 0v520h140v-210l185 210h165l-196 -203l206 -317h-171l-132 217l-57 -59v-158h-140zM170 -115c0 22 8.16797 40.834 24.501 56.501s36.5 23.5 60.5 23.5c28 0 50.833 -10.833 68.5 -32.5s26.5 -50.834 26.5 -87.501c0 -60 -15.167 -106.667 -45.5 -140
s-71.833 -50 -124.5 -50v40c33.333 0 61.666 10 84.999 30s35 50 35 90c-13.333 -6.66699 -30 -10 -50 -10c-22 0 -40.833 7.83301 -56.5 23.5s-23.5 34.5 -23.5 56.5z" />
    <glyph glyph-name="Lacute" unicode="&#x139;" horiz-adv-x="435" 
d="M420 110v-110h-395v520h140v-410h255zM80 565l-28 28l167 167l28 -28z" />
    <glyph glyph-name="lacute" unicode="&#x13a;" horiz-adv-x="435" 
d="M420 110v-110h-395v520h140v-410h255zM80 565l-28 28l167 167l28 -28z" />
    <glyph glyph-name="Lcommaaccent" unicode="&#x13b;" horiz-adv-x="435" 
d="M420 110v-110h-395v520h140v-410h255zM135 -115c0 22 8.16797 40.834 24.501 56.501s36.5 23.5 60.5 23.5c28 0 50.833 -10.833 68.5 -32.5s26.5 -50.834 26.5 -87.501c0 -60 -15.167 -106.667 -45.5 -140s-71.833 -50 -124.5 -50v40c33.333 0 61.666 10 84.999 30
s35 50 35 90c-13.333 -6.66699 -30 -10 -50 -10c-22 0 -40.833 7.83301 -56.5 23.5s-23.5 34.5 -23.5 56.5z" />
    <glyph glyph-name="lcommaaccent" unicode="&#x13c;" horiz-adv-x="435" 
d="M420 110v-110h-395v520h140v-410h255zM135 -115c0 22 8.16797 40.834 24.501 56.501s36.5 23.5 60.5 23.5c28 0 50.833 -10.833 68.5 -32.5s26.5 -50.834 26.5 -87.501c0 -60 -15.167 -106.667 -45.5 -140s-71.833 -50 -124.5 -50v40c33.333 0 61.666 10 84.999 30
s35 50 35 90c-13.333 -6.66699 -30 -10 -50 -10c-22 0 -40.833 7.83301 -56.5 23.5s-23.5 34.5 -23.5 56.5z" />
    <glyph glyph-name="Lcaron" unicode="&#x13d;" horiz-adv-x="435" 
d="M420 110v-110h-395v520h140v-410h255zM190 630c0 22 8.16797 40.834 24.501 56.501s36.5 23.5 60.5 23.5c28 0 50.833 -10.833 68.5 -32.5s26.5 -50.834 26.5 -87.501c0 -60 -15.167 -106.667 -45.5 -140s-71.833 -50 -124.5 -50v40c33.333 0 61.666 10 84.999 30
s35 50 35 90c-13.333 -6.66699 -30 -10 -50 -10c-22 0 -40.833 7.83301 -56.5 23.5s-23.5 34.5 -23.5 56.5z" />
    <glyph glyph-name="lcaron" unicode="&#x13e;" horiz-adv-x="435" 
d="M420 110v-110h-395v520h140v-410h255zM190 630c0 22 8.16797 40.834 24.501 56.501s36.5 23.5 60.5 23.5c28 0 50.833 -10.833 68.5 -32.5s26.5 -50.834 26.5 -87.501c0 -60 -15.167 -106.667 -45.5 -140s-71.833 -50 -124.5 -50v40c33.333 0 61.666 10 84.999 30
s35 50 35 90c-13.333 -6.66699 -30 -10 -50 -10c-22 0 -40.833 7.83301 -56.5 23.5s-23.5 34.5 -23.5 56.5z" />
    <glyph glyph-name="Lslash" unicode="&#x141;" horiz-adv-x="485" 
d="M0 171v44l75 36v269h140v-201l105 51v-44l-105 -51v-165h255v-110h-395v207z" />
    <glyph glyph-name="lslash" unicode="&#x142;" horiz-adv-x="485" 
d="M0 171v44l75 36v269h140v-201l105 51v-44l-105 -51v-165h255v-110h-395v207z" />
    <glyph glyph-name="Nacute" unicode="&#x143;" 
d="M25 0l0.00195312 520h135v-85h5l5.5 11c2.33301 4.66699 8.16602 12.667 17.499 24s19.666 21.333 30.999 30s26.5 16.667 45.5 24s39.167 11 60.5 11c123.333 0 185 -71.667 185 -215v-320h-140v290c0 45.333 -7 78.333 -21 99s-37 31 -69 31
c-76.667 0 -115 -50 -115 -150v-270h-140zM220.002 565l-28 28l167 167l28 -28z" />
    <glyph glyph-name="nacute" unicode="&#x144;" 
d="M25 0l0.00195312 520h135v-85h5l5.5 11c2.33301 4.66699 8.16602 12.667 17.499 24s19.666 21.333 30.999 30s26.5 16.667 45.5 24s39.167 11 60.5 11c123.333 0 185 -71.667 185 -215v-320h-140v290c0 45.333 -7 78.333 -21 99s-37 31 -69 31
c-76.667 0 -115 -50 -115 -150v-270h-140zM220.002 565l-28 28l167 167l28 -28z" />
    <glyph glyph-name="Ncommaaccent" unicode="&#x145;" 
d="M25 0l0.00195312 520h135v-85h5l5.5 11c2.33301 4.66699 8.16602 12.667 17.499 24s19.666 21.333 30.999 30s26.5 16.667 45.5 24s39.167 11 60.5 11c123.333 0 185 -71.667 185 -215v-320h-140v290c0 45.333 -7 78.333 -21 99s-37 31 -69 31
c-76.667 0 -115 -50 -115 -150v-270h-140zM180.002 -115c0 22 8.16797 40.834 24.501 56.501s36.5 23.5 60.5 23.5c28 0 50.833 -10.833 68.5 -32.5s26.5 -50.834 26.5 -87.501c0 -60 -15.167 -106.667 -45.5 -140s-71.833 -50 -124.5 -50v40c33.333 0 61.666 10 84.999 30
s35 50 35 90c-13.333 -6.66699 -30 -10 -50 -10c-22 0 -40.833 7.83301 -56.5 23.5s-23.5 34.5 -23.5 56.5z" />
    <glyph glyph-name="ncommaaccent" unicode="&#x146;" 
d="M25 0l0.00195312 520h135v-85h5l5.5 11c2.33301 4.66699 8.16602 12.667 17.499 24s19.666 21.333 30.999 30s26.5 16.667 45.5 24s39.167 11 60.5 11c123.333 0 185 -71.667 185 -215v-320h-140v290c0 45.333 -7 78.333 -21 99s-37 31 -69 31
c-76.667 0 -115 -50 -115 -150v-270h-140zM180.002 -115c0 22 8.16797 40.834 24.501 56.501s36.5 23.5 60.5 23.5c28 0 50.833 -10.833 68.5 -32.5s26.5 -50.834 26.5 -87.501c0 -60 -15.167 -106.667 -45.5 -140s-71.833 -50 -124.5 -50v40c33.333 0 61.666 10 84.999 30
s35 50 35 90c-13.333 -6.66699 -30 -10 -50 -10c-22 0 -40.833 7.83301 -56.5 23.5s-23.5 34.5 -23.5 56.5z" />
    <glyph glyph-name="Ncaron" unicode="&#x147;" 
d="M25 0l0.00195312 520h135v-85h5l5.5 11c2.33301 4.66699 8.16602 12.667 17.499 24s19.666 21.333 30.999 30s26.5 16.667 45.5 24s39.167 11 60.5 11c123.333 0 185 -71.667 185 -215v-320h-140v290c0 45.333 -7 78.333 -21 99s-37 31 -69 31
c-76.667 0 -115 -50 -115 -150v-270h-140zM426.002 731l24 -31l-185 -135l-185 135l24 31l161 -117z" />
    <glyph glyph-name="ncaron" unicode="&#x148;" 
d="M25 0l0.00195312 520h135v-85h5l5.5 11c2.33301 4.66699 8.16602 12.667 17.499 24s19.666 21.333 30.999 30s26.5 16.667 45.5 24s39.167 11 60.5 11c123.333 0 185 -71.667 185 -215v-320h-140v290c0 45.333 -7 78.333 -21 99s-37 31 -69 31
c-76.667 0 -115 -50 -115 -150v-270h-140zM426.002 731l24 -31l-185 -135l-185 135l24 31l161 -117z" />
    <glyph glyph-name="Eng" unicode="&#x14a;" 
d="M290 -180l0.00390625 114.999h35c17.333 0 29.166 3.33301 35.499 10s9.5 20 9.5 40v305c0 45.333 -7 78.333 -21 99s-37 31 -69 31c-76.667 0 -115 -50 -115 -150v-270h-140v520h135v-85h5l5.5 11c2.33301 4.66699 8.16602 12.667 17.499 24s19.666 21.333 30.999 30
s26.5 16.667 45.5 24s39.167 11 60.5 11c123.333 0 185 -71.667 185 -215v-335c0 -61.333 -10.833 -104.166 -32.5 -128.499s-65.834 -36.5 -132.501 -36.5h-55z" />
    <glyph glyph-name="eng" unicode="&#x14b;" 
d="M290 -180l0.00390625 114.999h35c17.333 0 29.166 3.33301 35.499 10s9.5 20 9.5 40v305c0 45.333 -7 78.333 -21 99s-37 31 -69 31c-76.667 0 -115 -50 -115 -150v-270h-140v520h135v-85h5l5.5 11c2.33301 4.66699 8.16602 12.667 17.499 24s19.666 21.333 30.999 30
s26.5 16.667 45.5 24s39.167 11 60.5 11c123.333 0 185 -71.667 185 -215v-335c0 -61.333 -10.833 -104.166 -32.5 -128.499s-65.834 -36.5 -132.501 -36.5h-55z" />
    <glyph glyph-name="Omacron" unicode="&#x14c;" horiz-adv-x="570" 
d="M160 260c0 -50.667 10.333 -91.667 31 -123s52 -47 94 -47s73.333 15.667 94 47s31 72.333 31 123s-10.333 91.667 -31 123s-52 47 -94 47s-73.333 -15.667 -94 -47s-31 -72.333 -31 -123zM20 260c0 79.333 23.5 145 70.5 197s111.833 78 194.5 78s147.5 -26 194.5 -78
s70.5 -117.667 70.5 -197s-23.5 -145 -70.5 -197s-111.833 -78 -194.5 -78s-147.5 26 -194.5 78s-70.5 117.667 -70.5 197zM80 570v40h410v-40h-410z" />
    <glyph glyph-name="omacron" unicode="&#x14d;" horiz-adv-x="570" 
d="M160 260c0 -50.667 10.333 -91.667 31 -123s52 -47 94 -47s73.333 15.667 94 47s31 72.333 31 123s-10.333 91.667 -31 123s-52 47 -94 47s-73.333 -15.667 -94 -47s-31 -72.333 -31 -123zM20 260c0 79.333 23.5 145 70.5 197s111.833 78 194.5 78s147.5 -26 194.5 -78
s70.5 -117.667 70.5 -197s-23.5 -145 -70.5 -197s-111.833 -78 -194.5 -78s-147.5 26 -194.5 78s-70.5 117.667 -70.5 197zM80 570v40h410v-40h-410z" />
    <glyph glyph-name="Obreve" unicode="&#x14e;" horiz-adv-x="570" 
d="M160 260c0 -50.667 10.333 -91.667 31 -123s52 -47 94 -47s73.333 15.667 94 47s31 72.333 31 123s-10.333 91.667 -31 123s-52 47 -94 47s-73.333 -15.667 -94 -47s-31 -72.333 -31 -123zM20 260c0 79.333 23.5 145 70.5 197s111.833 78 194.5 78s147.5 -26 194.5 -78
s70.5 -117.667 70.5 -197s-23.5 -145 -70.5 -197s-111.833 -78 -194.5 -78s-147.5 26 -194.5 78s-70.5 117.667 -70.5 197zM130 700h40c0 -28.667 10.667 -51.667 32 -69s49 -26 83 -26s61.667 8.66699 83 26s32 40.333 32 69h40c0 -40 -14.5 -72.5 -43.5 -97.5
s-66.167 -37.5 -111.5 -37.5s-82.5 12.5 -111.5 37.5s-43.5 57.5 -43.5 97.5z" />
    <glyph glyph-name="obreve" unicode="&#x14f;" horiz-adv-x="570" 
d="M160 260c0 -50.667 10.333 -91.667 31 -123s52 -47 94 -47s73.333 15.667 94 47s31 72.333 31 123s-10.333 91.667 -31 123s-52 47 -94 47s-73.333 -15.667 -94 -47s-31 -72.333 -31 -123zM20 260c0 79.333 23.5 145 70.5 197s111.833 78 194.5 78s147.5 -26 194.5 -78
s70.5 -117.667 70.5 -197s-23.5 -145 -70.5 -197s-111.833 -78 -194.5 -78s-147.5 26 -194.5 78s-70.5 117.667 -70.5 197zM130 700h40c0 -28.667 10.667 -51.667 32 -69s49 -26 83 -26s61.667 8.66699 83 26s32 40.333 32 69h40c0 -40 -14.5 -72.5 -43.5 -97.5
s-66.167 -37.5 -111.5 -37.5s-82.5 12.5 -111.5 37.5s-43.5 57.5 -43.5 97.5z" />
    <glyph glyph-name="Ohungarumlaut" unicode="&#x150;" horiz-adv-x="570" 
d="M160 260c0 -50.667 10.333 -91.667 31 -123s52 -47 94 -47s73.333 15.667 94 47s31 72.333 31 123s-10.333 91.667 -31 123s-52 47 -94 47s-73.333 -15.667 -94 -47s-31 -72.333 -31 -123zM20 260c0 79.333 23.5 145 70.5 197s111.833 78 194.5 78s147.5 -26 194.5 -78
s70.5 -117.667 70.5 -197s-23.5 -145 -70.5 -197s-111.833 -78 -194.5 -78s-147.5 26 -194.5 78s-70.5 117.667 -70.5 197zM200 565l-28 28l167 167l28 -28zM340 565l-28 28l167 167l28 -28z" />
    <glyph glyph-name="ohungarumlaut" unicode="&#x151;" horiz-adv-x="570" 
d="M160 260c0 -50.667 10.333 -91.667 31 -123s52 -47 94 -47s73.333 15.667 94 47s31 72.333 31 123s-10.333 91.667 -31 123s-52 47 -94 47s-73.333 -15.667 -94 -47s-31 -72.333 -31 -123zM20 260c0 79.333 23.5 145 70.5 197s111.833 78 194.5 78s147.5 -26 194.5 -78
s70.5 -117.667 70.5 -197s-23.5 -145 -70.5 -197s-111.833 -78 -194.5 -78s-147.5 26 -194.5 78s-70.5 117.667 -70.5 197zM200 565l-28 28l167 167l28 -28zM340 565l-28 28l167 167l28 -28z" />
    <glyph glyph-name="OE" unicode="&#x152;" horiz-adv-x="940" 
d="M160 260c0 -50.667 10.333 -91.667 31 -123s52 -47 94 -47s73.333 15.667 94 47s31 72.333 31 123s-10.333 91.667 -31 123s-52 47 -94 47s-73.333 -15.667 -94 -47s-31 -72.333 -31 -123zM670 430c-62.667 0 -101 -36.667 -115 -110h221
c-10 73.333 -45.333 110 -106 110zM20 260c0 79.333 23.499 144.998 70.499 196.998s111.833 78 194.5 78c80 0 144.333 -26 193 -78c48 52 112 78 192 78c82 0 144.167 -25.667 186.5 -77s63.5 -117.333 63.5 -198l-1 -30h-368c7.33301 -93.333 48.666 -140 123.999 -140
c16 0 30.333 2.66699 43 8s22.334 12 29.001 20s12.334 16 17.001 24s7.66699 14.667 9 20l2 8h140c-0.666992 -5.33301 -2.16699 -12 -4.5 -20s-9 -22.667 -20 -44s-24.667 -40.166 -41 -56.499s-40.333 -31.166 -72 -44.499s-67.5 -20 -107.5 -20
c-81.333 0 -145.333 25.333 -192 76c-48.667 -50.667 -113 -76 -193 -76c-82.667 0 -147.5 26 -194.5 78s-70.5 117.667 -70.5 197z" />
    <glyph glyph-name="oe" unicode="&#x153;" horiz-adv-x="940" 
d="M160 260c0 -50.667 10.333 -91.667 31 -123s52 -47 94 -47s73.333 15.667 94 47s31 72.333 31 123s-10.333 91.667 -31 123s-52 47 -94 47s-73.333 -15.667 -94 -47s-31 -72.333 -31 -123zM670 430c-62.667 0 -101 -36.667 -115 -110h221
c-10 73.333 -45.333 110 -106 110zM20 260c0 79.333 23.499 144.998 70.499 196.998s111.833 78 194.5 78c80 0 144.333 -26 193 -78c48 52 112 78 192 78c82 0 144.167 -25.667 186.5 -77s63.5 -117.333 63.5 -198l-1 -30h-368c7.33301 -93.333 48.666 -140 123.999 -140
c16 0 30.333 2.66699 43 8s22.334 12 29.001 20s12.334 16 17.001 24s7.66699 14.667 9 20l2 8h140c-0.666992 -5.33301 -2.16699 -12 -4.5 -20s-9 -22.667 -20 -44s-24.667 -40.166 -41 -56.499s-40.333 -31.166 -72 -44.499s-67.5 -20 -107.5 -20
c-81.333 0 -145.333 25.333 -192 76c-48.667 -50.667 -113 -76 -193 -76c-82.667 0 -147.5 26 -194.5 78s-70.5 117.667 -70.5 197z" />
    <glyph glyph-name="Racute" unicode="&#x154;" horiz-adv-x="470" 
d="M25 520v-520h140v310h105c72 0 120.833 10.5 146.5 31.5s38.5 60.5 38.5 118.5v60h-140v-45c0 -30 -5 -48.333 -15 -55s-31.667 -10 -65 -10h-70v110h-140zM210 565l-28 28l167 167l28 -28z" />
    <glyph glyph-name="racute" unicode="&#x155;" horiz-adv-x="470" 
d="M25 520v-520h140v310h105c72 0 120.833 10.5 146.5 31.5s38.5 60.5 38.5 118.5v60h-140v-45c0 -30 -5 -48.333 -15 -55s-31.667 -10 -65 -10h-70v110h-140zM210 565l-28 28l167 167l28 -28z" />
    <glyph glyph-name="Rcommaaccent" unicode="&#x156;" horiz-adv-x="470" 
d="M25 0v520h140v-110h70c18 0 30.833 0.333008 38.5 1s15.5 3 23.5 7s13 10.5 15 19.5s3 21.5 3 37.5v45h140v-60c0 -58 -12.833 -97.5 -38.5 -118.5s-74.5 -31.5 -146.5 -31.5h-105v-310h-140zM15 -115c0 22 8.16797 40.834 24.501 56.501s36.5 23.5 60.5 23.5
c28 0 50.833 -10.833 68.5 -32.5s26.5 -50.834 26.5 -87.501c0 -60 -15.167 -106.667 -45.5 -140s-71.833 -50 -124.5 -50v40c33.333 0 61.666 10 84.999 30s35 50 35 90c-13.333 -6.66699 -30 -10 -50 -10c-22 0 -40.833 7.83301 -56.5 23.5s-23.5 34.5 -23.5 56.5z" />
    <glyph glyph-name="rcommaaccent" unicode="&#x157;" horiz-adv-x="470" 
d="M25 0v520h140v-110h70c18 0 30.833 0.333008 38.5 1s15.5 3 23.5 7s13 10.5 15 19.5s3 21.5 3 37.5v45h140v-60c0 -58 -12.833 -97.5 -38.5 -118.5s-74.5 -31.5 -146.5 -31.5h-105v-310h-140zM15 -115c0 22 8.16797 40.834 24.501 56.501s36.5 23.5 60.5 23.5
c28 0 50.833 -10.833 68.5 -32.5s26.5 -50.834 26.5 -87.501c0 -60 -15.167 -106.667 -45.5 -140s-71.833 -50 -124.5 -50v40c33.333 0 61.666 10 84.999 30s35 50 35 90c-13.333 -6.66699 -30 -10 -50 -10c-22 0 -40.833 7.83301 -56.5 23.5s-23.5 34.5 -23.5 56.5z" />
    <glyph glyph-name="Rcaron" unicode="&#x158;" horiz-adv-x="470" 
d="M25 520v-520h140v310h105c72 0 120.833 10.5 146.5 31.5s38.5 60.5 38.5 118.5v60h-140v-45c0 -30 -5 -48.333 -15 -55s-31.667 -10 -65 -10h-70v110h-140zM396 731l24 -31l-185 -135l-185 135l24 31l161 -117z" />
    <glyph glyph-name="rcaron" unicode="&#x159;" horiz-adv-x="470" 
d="M25 520v-520h140v310h105c72 0 120.833 10.5 146.5 31.5s38.5 60.5 38.5 118.5v60h-140v-45c0 -30 -5 -48.333 -15 -55s-31.667 -10 -65 -10h-70v110h-140zM396 731l24 -31l-185 -135l-185 135l24 31l161 -117z" />
    <glyph glyph-name="Sacute" unicode="&#x15a;" horiz-adv-x="520" 
d="M20 170h134.998c0 -2.66699 0.166992 -6 0.5 -10s2.5 -11.167 6.5 -21.5s9.5 -19.5 16.5 -27.5s18 -15.167 33 -21.5s32.833 -9.5 53.5 -9.5c34 0 58.333 6.33301 73 19s22 28 22 46c0 20 -11.333 35.333 -34 46s-50.167 18.667 -82.5 24s-64.666 12.166 -96.999 20.499
s-59.833 23.666 -82.5 45.999s-34 51.833 -34 88.5c0 46.667 20.5 85.834 61.5 117.501s95.5 47.5 163.5 47.5c38 0 71.5 -4.16699 100.5 -12.5s51.333 -18.666 67 -30.999s28.5 -26.5 38.5 -42.5s16.5 -30.167 19.5 -42.5s4.5 -24.5 4.5 -36.5h-135
c0 2 -0.166992 4.5 -0.5 7.5s-2.16602 8.5 -5.49902 16.5s-8 15.167 -14 21.5s-15.5 12 -28.5 17s-28.5 7.5 -46.5 7.5c-26.667 0 -47.5 -5.83301 -62.5 -17.5s-22.5 -25.834 -22.5 -42.501c0 -16 11.333 -28.667 34 -38s50.167 -17 82.5 -23s64.666 -13.5 96.999 -22.5
s59.833 -25 82.5 -48s34 -52.5 34 -88.5c0 -51.333 -20.833 -93.333 -62.5 -126s-99.167 -49 -172.5 -49c-38.667 0 -73.167 4.5 -103.5 13.5s-54.166 20.333 -71.499 34s-31.5 29.334 -42.5 47.001s-18.333 33.667 -22 48s-5.5 28.5 -5.5 42.5zM224.998 565l-28 28l167 167
l28 -28z" />
    <glyph glyph-name="sacute" unicode="&#x15b;" horiz-adv-x="520" 
d="M20 170h134.998c0 -2.66699 0.166992 -6 0.5 -10s2.5 -11.167 6.5 -21.5s9.5 -19.5 16.5 -27.5s18 -15.167 33 -21.5s32.833 -9.5 53.5 -9.5c34 0 58.333 6.33301 73 19s22 28 22 46c0 20 -11.333 35.333 -34 46s-50.167 18.667 -82.5 24s-64.666 12.166 -96.999 20.499
s-59.833 23.666 -82.5 45.999s-34 51.833 -34 88.5c0 46.667 20.5 85.834 61.5 117.501s95.5 47.5 163.5 47.5c38 0 71.5 -4.16699 100.5 -12.5s51.333 -18.666 67 -30.999s28.5 -26.5 38.5 -42.5s16.5 -30.167 19.5 -42.5s4.5 -24.5 4.5 -36.5h-135
c0 2 -0.166992 4.5 -0.5 7.5s-2.16602 8.5 -5.49902 16.5s-8 15.167 -14 21.5s-15.5 12 -28.5 17s-28.5 7.5 -46.5 7.5c-26.667 0 -47.5 -5.83301 -62.5 -17.5s-22.5 -25.834 -22.5 -42.501c0 -16 11.333 -28.667 34 -38s50.167 -17 82.5 -23s64.666 -13.5 96.999 -22.5
s59.833 -25 82.5 -48s34 -52.5 34 -88.5c0 -51.333 -20.833 -93.333 -62.5 -126s-99.167 -49 -172.5 -49c-38.667 0 -73.167 4.5 -103.5 13.5s-54.166 20.333 -71.499 34s-31.5 29.334 -42.5 47.001s-18.333 33.667 -22 48s-5.5 28.5 -5.5 42.5zM224.998 565l-28 28l167 167
l28 -28z" />
    <glyph glyph-name="Scircumflex" unicode="&#x15c;" horiz-adv-x="520" 
d="M20 170h134.998c0 -2.66699 0.166992 -6 0.5 -10s2.5 -11.167 6.5 -21.5s9.5 -19.5 16.5 -27.5s18 -15.167 33 -21.5s32.833 -9.5 53.5 -9.5c34 0 58.333 6.33301 73 19s22 28 22 46c0 20 -11.333 35.333 -34 46s-50.167 18.667 -82.5 24s-64.666 12.166 -96.999 20.499
s-59.833 23.666 -82.5 45.999s-34 51.833 -34 88.5c0 46.667 20.5 85.834 61.5 117.501s95.5 47.5 163.5 47.5c38 0 71.5 -4.16699 100.5 -12.5s51.333 -18.666 67 -30.999s28.5 -26.5 38.5 -42.5s16.5 -30.167 19.5 -42.5s4.5 -24.5 4.5 -36.5h-135
c0 2 -0.166992 4.5 -0.5 7.5s-2.16602 8.5 -5.49902 16.5s-8 15.167 -14 21.5s-15.5 12 -28.5 17s-28.5 7.5 -46.5 7.5c-26.667 0 -47.5 -5.83301 -62.5 -17.5s-22.5 -25.834 -22.5 -42.501c0 -16 11.333 -28.667 34 -38s50.167 -17 82.5 -23s64.666 -13.5 96.999 -22.5
s59.833 -25 82.5 -48s34 -52.5 34 -88.5c0 -51.333 -20.833 -93.333 -62.5 -126s-99.167 -49 -172.5 -49c-38.667 0 -73.167 4.5 -103.5 13.5s-54.166 20.333 -71.499 34s-31.5 29.334 -42.5 47.001s-18.333 33.667 -22 48s-5.5 28.5 -5.5 42.5zM439.998 582l-26 -31
l-159 134l-159 -134l-26 31l185 154z" />
    <glyph glyph-name="scircumflex" unicode="&#x15d;" horiz-adv-x="520" 
d="M20 170h134.998c0 -2.66699 0.166992 -6 0.5 -10s2.5 -11.167 6.5 -21.5s9.5 -19.5 16.5 -27.5s18 -15.167 33 -21.5s32.833 -9.5 53.5 -9.5c34 0 58.333 6.33301 73 19s22 28 22 46c0 20 -11.333 35.333 -34 46s-50.167 18.667 -82.5 24s-64.666 12.166 -96.999 20.499
s-59.833 23.666 -82.5 45.999s-34 51.833 -34 88.5c0 46.667 20.5 85.834 61.5 117.501s95.5 47.5 163.5 47.5c38 0 71.5 -4.16699 100.5 -12.5s51.333 -18.666 67 -30.999s28.5 -26.5 38.5 -42.5s16.5 -30.167 19.5 -42.5s4.5 -24.5 4.5 -36.5h-135
c0 2 -0.166992 4.5 -0.5 7.5s-2.16602 8.5 -5.49902 16.5s-8 15.167 -14 21.5s-15.5 12 -28.5 17s-28.5 7.5 -46.5 7.5c-26.667 0 -47.5 -5.83301 -62.5 -17.5s-22.5 -25.834 -22.5 -42.501c0 -16 11.333 -28.667 34 -38s50.167 -17 82.5 -23s64.666 -13.5 96.999 -22.5
s59.833 -25 82.5 -48s34 -52.5 34 -88.5c0 -51.333 -20.833 -93.333 -62.5 -126s-99.167 -49 -172.5 -49c-38.667 0 -73.167 4.5 -103.5 13.5s-54.166 20.333 -71.499 34s-31.5 29.334 -42.5 47.001s-18.333 33.667 -22 48s-5.5 28.5 -5.5 42.5zM439.998 582l-26 -31
l-159 134l-159 -134l-26 31l185 154z" />
    <glyph glyph-name="Scedilla" unicode="&#x15e;" horiz-adv-x="520" 
d="M226 -65l28.999 50c-46 0.666992 -85.5 7.83398 -118.5 21.501s-57.333 30.667 -73 51s-26.834 39.833 -33.501 58.5s-10 36.667 -10 54h135c0 -2.66699 0.166992 -6 0.5 -10s2.5 -11.167 6.5 -21.5s9.5 -19.5 16.5 -27.5s18 -15.167 33 -21.5s32.833 -9.5 53.5 -9.5
c34 0 58.333 6.33301 73 19s22 28 22 46c0 20 -11.333 35.333 -34 46s-50.167 18.667 -82.5 24s-64.666 12.166 -96.999 20.499s-59.833 23.666 -82.5 45.999s-34 51.833 -34 88.5c0 46.667 20.5 85.834 61.5 117.501s95.5 47.5 163.5 47.5c38 0 71.5 -4.16699 100.5 -12.5
s51.333 -18.666 67 -30.999s28.5 -26.5 38.5 -42.5s16.5 -30.167 19.5 -42.5s4.5 -24.5 4.5 -36.5h-135c0 2 -0.166992 4.5 -0.5 7.5s-2.16602 8.5 -5.49902 16.5s-8 15.167 -14 21.5s-15.5 12 -28.5 17s-28.5 7.5 -46.5 7.5c-26.667 0 -47.5 -5.83301 -62.5 -17.5
s-22.5 -25.834 -22.5 -42.501c0 -16 11.333 -28.667 34 -38s50.167 -17 82.5 -23s64.666 -13.5 96.999 -22.5s59.833 -25 82.5 -48s34 -52.5 34 -88.5c0 -46.667 -17.5 -85.834 -52.5 -117.501s-83.833 -50.167 -146.5 -55.5l-20 -35c18.667 -4.66699 34 -14.5 46 -29.5
s18 -32.5 18 -52.5c0 -23.333 -8.33301 -43.333 -25 -60s-36.667 -25 -60 -25s-43.333 8.33301 -60 25s-25 36.667 -25 60h40c0 -12.667 4.33301 -23.334 13 -32.001s19.334 -13 32.001 -13s23.334 4.33301 32.001 13s13 19.334 13 32.001s-4.33301 23.334 -13 32.001
s-19.334 13 -32.001 13h-34v20z" />
    <glyph glyph-name="scedilla" unicode="&#x15f;" horiz-adv-x="520" 
d="M226 -65l28.999 50c-46 0.666992 -85.5 7.83398 -118.5 21.501s-57.333 30.667 -73 51s-26.834 39.833 -33.501 58.5s-10 36.667 -10 54h135c0 -2.66699 0.166992 -6 0.5 -10s2.5 -11.167 6.5 -21.5s9.5 -19.5 16.5 -27.5s18 -15.167 33 -21.5s32.833 -9.5 53.5 -9.5
c34 0 58.333 6.33301 73 19s22 28 22 46c0 20 -11.333 35.333 -34 46s-50.167 18.667 -82.5 24s-64.666 12.166 -96.999 20.499s-59.833 23.666 -82.5 45.999s-34 51.833 -34 88.5c0 46.667 20.5 85.834 61.5 117.501s95.5 47.5 163.5 47.5c38 0 71.5 -4.16699 100.5 -12.5
s51.333 -18.666 67 -30.999s28.5 -26.5 38.5 -42.5s16.5 -30.167 19.5 -42.5s4.5 -24.5 4.5 -36.5h-135c0 2 -0.166992 4.5 -0.5 7.5s-2.16602 8.5 -5.49902 16.5s-8 15.167 -14 21.5s-15.5 12 -28.5 17s-28.5 7.5 -46.5 7.5c-26.667 0 -47.5 -5.83301 -62.5 -17.5
s-22.5 -25.834 -22.5 -42.501c0 -16 11.333 -28.667 34 -38s50.167 -17 82.5 -23s64.666 -13.5 96.999 -22.5s59.833 -25 82.5 -48s34 -52.5 34 -88.5c0 -46.667 -17.5 -85.834 -52.5 -117.501s-83.833 -50.167 -146.5 -55.5l-20 -35c18.667 -4.66699 34 -14.5 46 -29.5
s18 -32.5 18 -52.5c0 -23.333 -8.33301 -43.333 -25 -60s-36.667 -25 -60 -25s-43.333 8.33301 -60 25s-25 36.667 -25 60h40c0 -12.667 4.33301 -23.334 13 -32.001s19.334 -13 32.001 -13s23.334 4.33301 32.001 13s13 19.334 13 32.001s-4.33301 23.334 -13 32.001
s-19.334 13 -32.001 13h-34v20z" />
    <glyph glyph-name="Scaron" unicode="&#x160;" horiz-adv-x="520" 
d="M20 170h134.998c0 -2.66699 0.166992 -6 0.5 -10s2.5 -11.167 6.5 -21.5s9.5 -19.5 16.5 -27.5s18 -15.167 33 -21.5s32.833 -9.5 53.5 -9.5c34 0 58.333 6.33301 73 19s22 28 22 46c0 20 -11.333 35.333 -34 46s-50.167 18.667 -82.5 24s-64.666 12.166 -96.999 20.499
s-59.833 23.666 -82.5 45.999s-34 51.833 -34 88.5c0 46.667 20.5 85.834 61.5 117.501s95.5 47.5 163.5 47.5c38 0 71.5 -4.16699 100.5 -12.5s51.333 -18.666 67 -30.999s28.5 -26.5 38.5 -42.5s16.5 -30.167 19.5 -42.5s4.5 -24.5 4.5 -36.5h-135
c0 2 -0.166992 4.5 -0.5 7.5s-2.16602 8.5 -5.49902 16.5s-8 15.167 -14 21.5s-15.5 12 -28.5 17s-28.5 7.5 -46.5 7.5c-26.667 0 -47.5 -5.83301 -62.5 -17.5s-22.5 -25.834 -22.5 -42.501c0 -16 11.333 -28.667 34 -38s50.167 -17 82.5 -23s64.666 -13.5 96.999 -22.5
s59.833 -25 82.5 -48s34 -52.5 34 -88.5c0 -51.333 -20.833 -93.333 -62.5 -126s-99.167 -49 -172.5 -49c-38.667 0 -73.167 4.5 -103.5 13.5s-54.166 20.333 -71.499 34s-31.5 29.334 -42.5 47.001s-18.333 33.667 -22 48s-5.5 28.5 -5.5 42.5zM420.998 731l24 -31
l-185 -135l-185 135l24 31l161 -117z" />
    <glyph glyph-name="scaron" unicode="&#x161;" horiz-adv-x="520" 
d="M20 170h134.998c0 -2.66699 0.166992 -6 0.5 -10s2.5 -11.167 6.5 -21.5s9.5 -19.5 16.5 -27.5s18 -15.167 33 -21.5s32.833 -9.5 53.5 -9.5c34 0 58.333 6.33301 73 19s22 28 22 46c0 20 -11.333 35.333 -34 46s-50.167 18.667 -82.5 24s-64.666 12.166 -96.999 20.499
s-59.833 23.666 -82.5 45.999s-34 51.833 -34 88.5c0 46.667 20.5 85.834 61.5 117.501s95.5 47.5 163.5 47.5c38 0 71.5 -4.16699 100.5 -12.5s51.333 -18.666 67 -30.999s28.5 -26.5 38.5 -42.5s16.5 -30.167 19.5 -42.5s4.5 -24.5 4.5 -36.5h-135
c0 2 -0.166992 4.5 -0.5 7.5s-2.16602 8.5 -5.49902 16.5s-8 15.167 -14 21.5s-15.5 12 -28.5 17s-28.5 7.5 -46.5 7.5c-26.667 0 -47.5 -5.83301 -62.5 -17.5s-22.5 -25.834 -22.5 -42.501c0 -16 11.333 -28.667 34 -38s50.167 -17 82.5 -23s64.666 -13.5 96.999 -22.5
s59.833 -25 82.5 -48s34 -52.5 34 -88.5c0 -51.333 -20.833 -93.333 -62.5 -126s-99.167 -49 -172.5 -49c-38.667 0 -73.167 4.5 -103.5 13.5s-54.166 20.333 -71.499 34s-31.5 29.334 -42.5 47.001s-18.333 33.667 -22 48s-5.5 28.5 -5.5 42.5zM420.998 731l24 -31
l-185 -135l-185 135l24 31l161 -117z" />
    <glyph glyph-name="Tcommaaccent" unicode="&#x162;" horiz-adv-x="500" 
d="M15 520l469.999 0.000976562v-110h-170v-245c0 -22.667 4.33301 -38.334 13 -47.001s24.334 -13 47.001 -13l45 5v-105c-16.667 -6.66699 -45 -10 -85 -10c-52.667 0 -92.5 10.167 -119.5 30.5s-40.5 58.5 -40.5 114.5v270h-160v110zM194.999 -114.999
c0 22 8.16797 40.834 24.501 56.501s36.5 23.5 60.5 23.5c28 0 50.833 -10.833 68.5 -32.5s26.5 -50.834 26.5 -87.501c0 -60 -15.167 -106.667 -45.5 -140s-71.833 -50 -124.5 -50v40c33.333 0 61.666 10 84.999 30s35 50 35 90c-13.333 -6.66699 -30 -10 -50 -10
c-22 0 -40.833 7.83301 -56.5 23.5s-23.5 34.5 -23.5 56.5z" />
    <glyph glyph-name="tcommaaccent" unicode="&#x163;" horiz-adv-x="500" 
d="M15 520l469.999 0.000976562v-110h-170v-245c0 -22.667 4.33301 -38.334 13 -47.001s24.334 -13 47.001 -13l45 5v-105c-16.667 -6.66699 -45 -10 -85 -10c-52.667 0 -92.5 10.167 -119.5 30.5s-40.5 58.5 -40.5 114.5v270h-160v110zM194.999 -114.999
c0 22 8.16797 40.834 24.501 56.501s36.5 23.5 60.5 23.5c28 0 50.833 -10.833 68.5 -32.5s26.5 -50.834 26.5 -87.501c0 -60 -15.167 -106.667 -45.5 -140s-71.833 -50 -124.5 -50v40c33.333 0 61.666 10 84.999 30s35 50 35 90c-13.333 -6.66699 -30 -10 -50 -10
c-22 0 -40.833 7.83301 -56.5 23.5s-23.5 34.5 -23.5 56.5z" />
    <glyph glyph-name="Tcaron" unicode="&#x164;" horiz-adv-x="695" 
d="M15 520l469.999 0.000976562v-110h-170v-245c0 -22.667 4.33301 -38.334 13 -47.001s24.334 -13 47.001 -13l45 5v-105c-16.667 -6.66699 -45 -10 -85 -10c-52.667 0 -92.5 10.167 -119.5 30.5s-40.5 58.5 -40.5 114.5v270h-160v110zM504.999 630.001
c0 22 8.16797 40.834 24.501 56.501s36.5 23.5 60.5 23.5c28 0 50.833 -10.833 68.5 -32.5s26.5 -50.834 26.5 -87.501c0 -60 -15.167 -106.667 -45.5 -140s-71.833 -50 -124.5 -50v40c33.333 0 61.666 10 84.999 30s35 50 35 90c-13.333 -6.66699 -30 -10 -50 -10
c-22 0 -40.833 7.83301 -56.5 23.5s-23.5 34.5 -23.5 56.5z" />
    <glyph glyph-name="tcaron" unicode="&#x165;" horiz-adv-x="695" 
d="M15 520l469.999 0.000976562v-110h-170v-245c0 -22.667 4.33301 -38.334 13 -47.001s24.334 -13 47.001 -13l45 5v-105c-16.667 -6.66699 -45 -10 -85 -10c-52.667 0 -92.5 10.167 -119.5 30.5s-40.5 58.5 -40.5 114.5v270h-160v110zM504.999 630.001
c0 22 8.16797 40.834 24.501 56.501s36.5 23.5 60.5 23.5c28 0 50.833 -10.833 68.5 -32.5s26.5 -50.834 26.5 -87.501c0 -60 -15.167 -106.667 -45.5 -140s-71.833 -50 -124.5 -50v40c33.333 0 61.666 10 84.999 30s35 50 35 90c-13.333 -6.66699 -30 -10 -50 -10
c-22 0 -40.833 7.83301 -56.5 23.5s-23.5 34.5 -23.5 56.5z" />
    <glyph glyph-name="Utilde" unicode="&#x168;" 
d="M510 520l-0.00195312 -520h-135v85h-5l-5.5 -11c-2.33301 -4.66699 -8.16602 -12.667 -17.499 -24s-19.666 -21.333 -30.999 -30s-26.5 -16.667 -45.5 -24s-39.167 -11 -60.5 -11c-123.333 0 -185 71.667 -185 215v320h140v-290c0 -45.333 7 -78.333 21 -99
s37 -31 69 -31c76.667 0 115 50 115 150v270h140zM431.998 700h39.999c0 -32 -9.83301 -59.167 -29.5 -81.5s-44.834 -33.5 -75.501 -33.5c-24.667 0 -48.167 6.66699 -70.5 20s-43.5 26.666 -63.5 39.999s-38.667 20 -56 20c-20 0 -35.833 -7.16699 -47.5 -21.5
s-17.5 -32.166 -17.5 -53.499h-40c0 32 9.83301 59.167 29.5 81.5s44.834 33.5 75.501 33.5c24.667 0 48 -6.66699 70 -20s42.833 -26.666 62.5 -39.999s38.834 -20 57.501 -20c20 0 35.833 7.16699 47.5 21.5s17.5 32.166 17.5 53.499z" />
    <glyph glyph-name="utilde" unicode="&#x169;" 
d="M510 520l-0.00195312 -520h-135v85h-5l-5.5 -11c-2.33301 -4.66699 -8.16602 -12.667 -17.499 -24s-19.666 -21.333 -30.999 -30s-26.5 -16.667 -45.5 -24s-39.167 -11 -60.5 -11c-123.333 0 -185 71.667 -185 215v320h140v-290c0 -45.333 7 -78.333 21 -99
s37 -31 69 -31c76.667 0 115 50 115 150v270h140zM431.998 700h39.999c0 -32 -9.83301 -59.167 -29.5 -81.5s-44.834 -33.5 -75.501 -33.5c-24.667 0 -48.167 6.66699 -70.5 20s-43.5 26.666 -63.5 39.999s-38.667 20 -56 20c-20 0 -35.833 -7.16699 -47.5 -21.5
s-17.5 -32.166 -17.5 -53.499h-40c0 32 9.83301 59.167 29.5 81.5s44.834 33.5 75.501 33.5c24.667 0 48 -6.66699 70 -20s42.833 -26.666 62.5 -39.999s38.834 -20 57.501 -20c20 0 35.833 7.16699 47.5 21.5s17.5 32.166 17.5 53.499z" />
    <glyph glyph-name="Umacron" unicode="&#x16a;" 
d="M75 570v40h385v-40h-385zM510 520l-0.00195312 -520h-135v85h-5l-5.5 -11c-2.33301 -4.66699 -8.16602 -12.667 -17.499 -24s-19.666 -21.333 -30.999 -30s-26.5 -16.667 -45.5 -24s-39.167 -11 -60.5 -11c-123.333 0 -185 71.667 -185 215v320h140v-290
c0 -45.333 7 -78.333 21 -99s37 -31 69 -31c76.667 0 115 50 115 150v270h140z" />
    <glyph glyph-name="umacron" unicode="&#x16b;" 
d="M75 570v40h385v-40h-385zM510 520l-0.00195312 -520h-135v85h-5l-5.5 -11c-2.33301 -4.66699 -8.16602 -12.667 -17.499 -24s-19.666 -21.333 -30.999 -30s-26.5 -16.667 -45.5 -24s-39.167 -11 -60.5 -11c-123.333 0 -185 71.667 -185 215v320h140v-290
c0 -45.333 7 -78.333 21 -99s37 -31 69 -31c76.667 0 115 50 115 150v270h140z" />
    <glyph glyph-name="Ubreve" unicode="&#x16c;" 
d="M510 520l-0.00195312 -520h-135v85h-5l-5.5 -11c-2.33301 -4.66699 -8.16602 -12.667 -17.499 -24s-19.666 -21.333 -30.999 -30s-26.5 -16.667 -45.5 -24s-39.167 -11 -60.5 -11c-123.333 0 -185 71.667 -185 215v320h140v-290c0 -45.333 7 -78.333 21 -99
s37 -31 69 -31c76.667 0 115 50 115 150v270h140zM114.998 700h40c0 -28.667 10.667 -51.667 32 -69s49 -26 83 -26s61.667 8.66699 83 26s32 40.333 32 69h40c0 -40 -14.5 -72.5 -43.5 -97.5s-66.167 -37.5 -111.5 -37.5s-82.5 12.5 -111.5 37.5s-43.5 57.5 -43.5 97.5z
" />
    <glyph glyph-name="ubreve" unicode="&#x16d;" 
d="M510 520l-0.00195312 -520h-135v85h-5l-5.5 -11c-2.33301 -4.66699 -8.16602 -12.667 -17.499 -24s-19.666 -21.333 -30.999 -30s-26.5 -16.667 -45.5 -24s-39.167 -11 -60.5 -11c-123.333 0 -185 71.667 -185 215v320h140v-290c0 -45.333 7 -78.333 21 -99
s37 -31 69 -31c76.667 0 115 50 115 150v270h140zM114.998 700h40c0 -28.667 10.667 -51.667 32 -69s49 -26 83 -26s61.667 8.66699 83 26s32 40.333 32 69h40c0 -40 -14.5 -72.5 -43.5 -97.5s-66.167 -37.5 -111.5 -37.5s-82.5 12.5 -111.5 37.5s-43.5 57.5 -43.5 97.5z
" />
    <glyph glyph-name="Uring" unicode="&#x16e;" 
d="M510 520l-0.00195312 -520h-135v85h-5l-5.5 -11c-2.33301 -4.66699 -8.16602 -12.667 -17.499 -24s-19.666 -21.333 -30.999 -30s-26.5 -16.667 -45.5 -24s-39.167 -11 -60.5 -11c-123.333 0 -185 71.667 -185 215v320h140v-290c0 -45.333 7 -78.333 21 -99
s37 -31 69 -31c76.667 0 115 50 115 150v270h140zM151.998 670c0 31.333 11.333 58.333 34 81s49.667 34 81 34s58.333 -11.333 81 -34s34 -49.667 34 -81s-11.333 -58.333 -34 -81s-49.667 -34 -81 -34s-58.333 11.333 -81 34s-34 49.667 -34 81zM191.998 670
c0 -20.667 7.33301 -38.334 22 -53.001s32.334 -22 53.001 -22s38.334 7.33301 53.001 22s22 32.334 22 53.001s-7.33301 38.334 -22 53.001s-32.334 22 -53.001 22s-38.334 -7.33301 -53.001 -22s-22 -32.334 -22 -53.001z" />
    <glyph glyph-name="uring" unicode="&#x16f;" 
d="M510 520l-0.00195312 -520h-135v85h-5l-5.5 -11c-2.33301 -4.66699 -8.16602 -12.667 -17.499 -24s-19.666 -21.333 -30.999 -30s-26.5 -16.667 -45.5 -24s-39.167 -11 -60.5 -11c-123.333 0 -185 71.667 -185 215v320h140v-290c0 -45.333 7 -78.333 21 -99
s37 -31 69 -31c76.667 0 115 50 115 150v270h140zM151.998 670c0 31.333 11.333 58.333 34 81s49.667 34 81 34s58.333 -11.333 81 -34s34 -49.667 34 -81s-11.333 -58.333 -34 -81s-49.667 -34 -81 -34s-58.333 11.333 -81 34s-34 49.667 -34 81zM191.998 670
c0 -20.667 7.33301 -38.334 22 -53.001s32.334 -22 53.001 -22s38.334 7.33301 53.001 22s22 32.334 22 53.001s-7.33301 38.334 -22 53.001s-32.334 22 -53.001 22s-38.334 -7.33301 -53.001 -22s-22 -32.334 -22 -53.001z" />
    <glyph glyph-name="Uhungarumlaut" unicode="&#x170;" 
d="M510 520l-0.00195312 -520h-135v85h-5l-5.5 -11c-2.33301 -4.66699 -8.16602 -12.667 -17.499 -24s-19.666 -21.333 -30.999 -30s-26.5 -16.667 -45.5 -24s-39.167 -11 -60.5 -11c-123.333 0 -185 71.667 -185 215v320h140v-290c0 -45.333 7 -78.333 21 -99
s37 -31 69 -31c76.667 0 115 50 115 150v270h140zM184.998 565l-28 28l167 167l28 -28zM324.998 565l-28 28l167 167l28 -28z" />
    <glyph glyph-name="uhungarumlaut" unicode="&#x171;" 
d="M510 520l-0.00195312 -520h-135v85h-5l-5.5 -11c-2.33301 -4.66699 -8.16602 -12.667 -17.499 -24s-19.666 -21.333 -30.999 -30s-26.5 -16.667 -45.5 -24s-39.167 -11 -60.5 -11c-123.333 0 -185 71.667 -185 215v320h140v-290c0 -45.333 7 -78.333 21 -99
s37 -31 69 -31c76.667 0 115 50 115 150v270h140zM184.998 565l-28 28l167 167l28 -28zM324.998 565l-28 28l167 167l28 -28z" />
    <glyph glyph-name="Uogonek" unicode="&#x172;" 
d="M351 -110c0 23.333 8.3291 43.334 24.9961 60.001l50 50h-51v85h-5l-5.5 -11c-2.33301 -4.66699 -8.16602 -12.667 -17.499 -24s-19.666 -21.333 -30.999 -30s-26.5 -16.667 -45.5 -24s-39.167 -11 -60.5 -11c-123.333 0 -185 71.667 -185 215v320h140v-290
c0 -45.333 7 -78.333 21 -99s37 -31 69 -31c76.667 0 115 50 115 150v270h140v-520h-28l-78 -78c-8.66699 -8.66699 -13 -19.334 -13 -32.001s4.33301 -23.334 13 -32.001s19.334 -13 32.001 -13s23.334 4.33301 32.001 13s13 19.334 13 32.001h40
c0 -23.333 -8.33301 -43.333 -25 -60s-36.667 -25 -60 -25s-43.333 8.33301 -60 25s-25 36.667 -25 60z" />
    <glyph glyph-name="uogonek" unicode="&#x173;" 
d="M351 -110c0 23.333 8.3291 43.334 24.9961 60.001l50 50h-51v85h-5l-5.5 -11c-2.33301 -4.66699 -8.16602 -12.667 -17.499 -24s-19.666 -21.333 -30.999 -30s-26.5 -16.667 -45.5 -24s-39.167 -11 -60.5 -11c-123.333 0 -185 71.667 -185 215v320h140v-290
c0 -45.333 7 -78.333 21 -99s37 -31 69 -31c76.667 0 115 50 115 150v270h140v-520h-28l-78 -78c-8.66699 -8.66699 -13 -19.334 -13 -32.001s4.33301 -23.334 13 -32.001s19.334 -13 32.001 -13s23.334 4.33301 32.001 13s13 19.334 13 32.001h40
c0 -23.333 -8.33301 -43.333 -25 -60s-36.667 -25 -60 -25s-43.333 8.33301 -60 25s-25 36.667 -25 60z" />
    <glyph glyph-name="Ycircumflex" unicode="&#x176;" horiz-adv-x="550" 
d="M540 520l-184.999 -535c-21.333 -62 -47.333 -107.5 -78 -136.5s-71.334 -43.5 -122.001 -43.5c-14.667 0 -29.5 1.16699 -44.5 3.5s-26.5 4.83301 -34.5 7.5l-11 4v115c20 -6.66699 41.667 -10 65 -10s41.5 6 54.5 18s24.833 31 35.5 57l-210 520h150l127 -343l103 343
h150zM465.001 582l-26 -31l-159 134l-159 -134l-26 31l185 154z" />
    <glyph glyph-name="ycircumflex" unicode="&#x177;" horiz-adv-x="550" 
d="M540 520l-184.999 -535c-21.333 -62 -47.333 -107.5 -78 -136.5s-71.334 -43.5 -122.001 -43.5c-14.667 0 -29.5 1.16699 -44.5 3.5s-26.5 4.83301 -34.5 7.5l-11 4v115c20 -6.66699 41.667 -10 65 -10s41.5 6 54.5 18s24.833 31 35.5 57l-210 520h150l127 -343l103 343
h150zM465.001 582l-26 -31l-159 134l-159 -134l-26 31l185 154z" />
    <glyph glyph-name="Ydieresis" unicode="&#x178;" horiz-adv-x="550" 
d="M540 520l-184.999 -535c-21.333 -62 -47.333 -107.5 -78 -136.5s-71.334 -43.5 -122.001 -43.5c-14.667 0 -29.5 1.16699 -44.5 3.5s-26.5 4.83301 -34.5 7.5l-11 4v115c20 -6.66699 41.667 -10 65 -10s41.5 6 54.5 18s24.833 31 35.5 57l-210 520h150l127 -343l103 343
h150zM95.001 635c0 22 7.83301 40.833 23.5 56.5s34.5 23.5 56.5 23.5s40.833 -7.83301 56.5 -23.5s23.5 -34.5 23.5 -56.5s-7.83301 -40.833 -23.5 -56.5s-34.5 -23.5 -56.5 -23.5s-40.833 7.83301 -56.5 23.5s-23.5 34.5 -23.5 56.5zM315.001 635
c0 22 7.83301 40.833 23.5 56.5s34.5 23.5 56.5 23.5s40.833 -7.83301 56.5 -23.5s23.5 -34.5 23.5 -56.5s-7.83301 -40.833 -23.5 -56.5s-34.5 -23.5 -56.5 -23.5s-40.833 7.83301 -56.5 23.5s-23.5 34.5 -23.5 56.5z" />
    <glyph glyph-name="Zacute" unicode="&#x179;" 
d="M25 520l0.000976562 -110.001h320l-175 -170v-80h40c65.333 0 110.833 -11.333 136.5 -34s38.5 -54.667 38.5 -96c0 -35.333 -9.83301 -64.166 -29.5 -86.499s-46.5 -33.5 -80.5 -33.5c-42.667 0 -74.167 12.167 -94.5 36.5s-30.5 55.5 -30.5 93.5h-140
c0 -66.667 21.5 -122.5 64.5 -167.5s109.833 -67.5 200.5 -67.5c80 0 141.667 22.667 185 68s65 99.333 65 162c0 39.333 -6.5 73.5 -19.5 102.5s-28.833 50.333 -47.5 64s-37.334 24.5 -56.001 32.5s-34.667 12.667 -48 14l-19 2l170 160v110h-480zM235.001 564.999l-28 28
l167 167l28 -28z" />
    <glyph glyph-name="zacute" unicode="&#x17a;" 
d="M25 520l0.000976562 -110.001h320l-175 -170v-80h40c65.333 0 110.833 -11.333 136.5 -34s38.5 -54.667 38.5 -96c0 -35.333 -9.83301 -64.166 -29.5 -86.499s-46.5 -33.5 -80.5 -33.5c-42.667 0 -74.167 12.167 -94.5 36.5s-30.5 55.5 -30.5 93.5h-140
c0 -66.667 21.5 -122.5 64.5 -167.5s109.833 -67.5 200.5 -67.5c80 0 141.667 22.667 185 68s65 99.333 65 162c0 39.333 -6.5 73.5 -19.5 102.5s-28.833 50.333 -47.5 64s-37.334 24.5 -56.001 32.5s-34.667 12.667 -48 14l-19 2l170 160v110h-480zM235.001 564.999l-28 28
l167 167l28 -28z" />
    <glyph glyph-name="Zdotaccent" unicode="&#x17b;" 
d="M25 520l0.000976562 -110.001h320l-175 -170v-80h40c65.333 0 110.833 -11.333 136.5 -34s38.5 -54.667 38.5 -96c0 -35.333 -9.83301 -64.166 -29.5 -86.499s-46.5 -33.5 -80.5 -33.5c-42.667 0 -74.167 12.167 -94.5 36.5s-30.5 55.5 -30.5 93.5h-140
c0 -66.667 21.5 -122.5 64.5 -167.5s109.833 -67.5 200.5 -67.5c80 0 141.667 22.667 185 68s65 99.333 65 162c0 39.333 -6.5 73.5 -19.5 102.5s-28.833 50.333 -47.5 64s-37.334 24.5 -56.001 32.5s-34.667 12.667 -48 14l-19 2l170 160v110h-480zM185.001 634.999
c0 22 7.83301 40.833 23.5 56.5s34.5 23.5 56.5 23.5s40.833 -7.83301 56.5 -23.5s23.5 -34.5 23.5 -56.5s-7.83301 -40.833 -23.5 -56.5s-34.5 -23.5 -56.5 -23.5s-40.833 7.83301 -56.5 23.5s-23.5 34.5 -23.5 56.5z" />
    <glyph glyph-name="zdotaccent" unicode="&#x17c;" 
d="M25 520l0.000976562 -110.001h320l-175 -170v-80h40c65.333 0 110.833 -11.333 136.5 -34s38.5 -54.667 38.5 -96c0 -35.333 -9.83301 -64.166 -29.5 -86.499s-46.5 -33.5 -80.5 -33.5c-42.667 0 -74.167 12.167 -94.5 36.5s-30.5 55.5 -30.5 93.5h-140
c0 -66.667 21.5 -122.5 64.5 -167.5s109.833 -67.5 200.5 -67.5c80 0 141.667 22.667 185 68s65 99.333 65 162c0 39.333 -6.5 73.5 -19.5 102.5s-28.833 50.333 -47.5 64s-37.334 24.5 -56.001 32.5s-34.667 12.667 -48 14l-19 2l170 160v110h-480zM185.001 634.999
c0 22 7.83301 40.833 23.5 56.5s34.5 23.5 56.5 23.5s40.833 -7.83301 56.5 -23.5s23.5 -34.5 23.5 -56.5s-7.83301 -40.833 -23.5 -56.5s-34.5 -23.5 -56.5 -23.5s-40.833 7.83301 -56.5 23.5s-23.5 34.5 -23.5 56.5z" />
    <glyph glyph-name="Zcaron" unicode="&#x17d;" 
d="M25 520l0.000976562 -110.001h320l-175 -170v-80h40c65.333 0 110.833 -11.333 136.5 -34s38.5 -54.667 38.5 -96c0 -35.333 -9.83301 -64.166 -29.5 -86.499s-46.5 -33.5 -80.5 -33.5c-42.667 0 -74.167 12.167 -94.5 36.5s-30.5 55.5 -30.5 93.5h-140
c0 -66.667 21.5 -122.5 64.5 -167.5s109.833 -67.5 200.5 -67.5c80 0 141.667 22.667 185 68s65 99.333 65 162c0 39.333 -6.5 73.5 -19.5 102.5s-28.833 50.333 -47.5 64s-37.334 24.5 -56.001 32.5s-34.667 12.667 -48 14l-19 2l170 160v110h-480zM431.001 730.999l24 -31
l-185 -135l-185 135l24 31l161 -117z" />
    <glyph glyph-name="zcaron" unicode="&#x17e;" 
d="M25 520l0.000976562 -110.001h320l-175 -170v-80h40c65.333 0 110.833 -11.333 136.5 -34s38.5 -54.667 38.5 -96c0 -35.333 -9.83301 -64.166 -29.5 -86.499s-46.5 -33.5 -80.5 -33.5c-42.667 0 -74.167 12.167 -94.5 36.5s-30.5 55.5 -30.5 93.5h-140
c0 -66.667 21.5 -122.5 64.5 -167.5s109.833 -67.5 200.5 -67.5c80 0 141.667 22.667 185 68s65 99.333 65 162c0 39.333 -6.5 73.5 -19.5 102.5s-28.833 50.333 -47.5 64s-37.334 24.5 -56.001 32.5s-34.667 12.667 -48 14l-19 2l170 160v110h-480zM431.001 730.999l24 -31
l-185 -135l-185 135l24 31l161 -117z" />
    <glyph glyph-name="Scommaaccent" unicode="&#x218;" horiz-adv-x="520" 
d="M20 170h134.998c0 -2.66699 0.166992 -6 0.5 -10s2.5 -11.167 6.5 -21.5s9.5 -19.5 16.5 -27.5s18 -15.167 33 -21.5s32.833 -9.5 53.5 -9.5c34 0 58.333 6.33301 73 19s22 28 22 46c0 20 -11.333 35.333 -34 46s-50.167 18.667 -82.5 24s-64.666 12.166 -96.999 20.499
s-59.833 23.666 -82.5 45.999s-34 51.833 -34 88.5c0 46.667 20.5 85.834 61.5 117.501s95.5 47.5 163.5 47.5c38 0 71.5 -4.16699 100.5 -12.5s51.333 -18.666 67 -30.999s28.5 -26.5 38.5 -42.5s16.5 -30.167 19.5 -42.5s4.5 -24.5 4.5 -36.5h-135
c0 2 -0.166992 4.5 -0.5 7.5s-2.16602 8.5 -5.49902 16.5s-8 15.167 -14 21.5s-15.5 12 -28.5 17s-28.5 7.5 -46.5 7.5c-26.667 0 -47.5 -5.83301 -62.5 -17.5s-22.5 -25.834 -22.5 -42.501c0 -16 11.333 -28.667 34 -38s50.167 -17 82.5 -23s64.666 -13.5 96.999 -22.5
s59.833 -25 82.5 -48s34 -52.5 34 -88.5c0 -51.333 -20.833 -93.333 -62.5 -126s-99.167 -49 -172.5 -49c-38.667 0 -73.167 4.5 -103.5 13.5s-54.166 20.333 -71.499 34s-31.5 29.334 -42.5 47.001s-18.333 33.667 -22 48s-5.5 28.5 -5.5 42.5zM179.998 -115
c0 22 8.16797 40.834 24.501 56.501s36.5 23.5 60.5 23.5c28 0 50.833 -10.833 68.5 -32.5s26.5 -50.834 26.5 -87.501c0 -60 -15.167 -106.667 -45.5 -140s-71.833 -50 -124.5 -50v40c33.333 0 61.666 10 84.999 30s35 50 35 90c-13.333 -6.66699 -30 -10 -50 -10
c-22 0 -40.833 7.83301 -56.5 23.5s-23.5 34.5 -23.5 56.5z" />
    <glyph glyph-name="pi" unicode="&#x3c0;" horiz-adv-x="630" 
d="M20 480v40h590v-40h-110v-480h-40v480h-290v-480h-40v480h-110z" />
    <glyph glyph-name="afii10023" unicode="&#x401;" horiz-adv-x="550" 
d="M20 260c0 79.333 22.665 144.998 67.998 196.998s109.333 78 192 78c82 0 144.167 -25.667 186.5 -77s63.5 -117.333 63.5 -198l-1 -30h-368c6.66699 -93.333 48 -140 124 -140c16 0 30.333 2.66699 43 8s22.334 12 29.001 20s12.334 16 17.001 24s7.66699 14.667 9 20
l2 8h140c-0.666992 -5.33301 -2.16699 -12 -4.5 -20s-9 -22.667 -20 -44s-24.667 -40.166 -41 -56.499s-40.333 -31.166 -72 -44.499s-67.5 -20 -107.5 -20c-84 0 -148.333 25.833 -193 77.5s-67 117.5 -67 197.5zM74.998 634.998c0 22 7.83301 40.833 23.5 56.5
s34.5 23.5 56.5 23.5s40.833 -7.83301 56.5 -23.5s23.5 -34.5 23.5 -56.5s-7.83301 -40.833 -23.5 -56.5s-34.5 -23.5 -56.5 -23.5s-40.833 7.83301 -56.5 23.5s-23.5 34.5 -23.5 56.5zM314.998 634.998c0 22 7.83301 40.833 23.5 56.5s34.5 23.5 56.5 23.5
s40.833 -7.83301 56.5 -23.5s23.5 -34.5 23.5 -56.5s-7.83301 -40.833 -23.5 -56.5s-34.5 -23.5 -56.5 -23.5s-40.833 7.83301 -56.5 23.5s-23.5 34.5 -23.5 56.5zM279.998 429.998c-62.667 0 -101 -36.667 -115 -110h221c-10 73.333 -45.333 110 -106 110z" />
    <glyph glyph-name="afii10051" unicode="&#x402;" 
d="M290 -180l0.000976562 114.998h35c17.333 0 29.166 3.33301 35.499 10s9.5 20 9.5 40v305c0 45.333 -7 78.333 -21 99s-37 31 -69 31c-76.667 0 -115 -50 -115 -150v-270h-140v570h-95v40h95v90h140v-90h95v-40h-95v-135h5c1.33301 2.66699 3 6.33398 5 11.001
s7.5 12.667 16.5 24s18.833 21.333 29.5 30s25.334 16.667 44.001 24s38.667 11 60 11c123.333 0 185 -71.667 185 -215v-335c0 -61.333 -10.833 -104.166 -32.5 -128.499s-65.834 -36.5 -132.501 -36.5h-55z" />
    <glyph glyph-name="afii10052" unicode="&#x403;" horiz-adv-x="520" 
d="M500 170l-134.997 0.000976562c0 -2.66699 -0.166992 -6 -0.5 -10s-2.5 -11.167 -6.5 -21.5s-9.5 -19.5 -16.5 -27.5s-18 -15.167 -33 -21.5s-32.833 -9.5 -53.5 -9.5c-34 0 -58.333 6.33301 -73 19s-22 28 -22 46c0 20 11.333 35.833 34 47.5s50.167 20.834 82.5 27.501
s64.666 14.667 96.999 24s59.833 25.333 82.5 48s34 52 34 88c0 46 -20.333 83.333 -61 112s-95.334 43 -164.001 43c-36.667 0 -69.334 -4.16699 -98.001 -12.5s-51.167 -18.666 -67.5 -30.999s-29.5 -26.333 -39.5 -42s-16.667 -29.834 -20 -42.501s-5 -25 -5 -37h135
c0 2 0.166992 4.5 0.5 7.5s2.16602 8.5 5.49902 16.5s8 15.167 14 21.5s15.5 12 28.5 17s28.5 7.5 46.5 7.5c26.667 0 47.5 -5.83301 62.5 -17.5s22.5 -25.834 22.5 -42.501c0 -13.333 -8.16699 -24.5 -24.5 -33.5s-36.666 -15.833 -60.999 -20.5
s-50.833 -11.334 -79.5 -20.001s-55.167 -18.167 -79.5 -28.5s-44.666 -26.5 -60.999 -48.5s-24.5 -48.333 -24.5 -79c0 -50.667 20.667 -90.834 62 -120.501s99 -44.5 173 -44.5c38.667 0 73.167 4.5 103.5 13.5s54.166 20.333 71.499 34s31.5 29.334 42.5 47.001
s18.333 33.667 22 48s5.5 28.5 5.5 42.5zM240.003 565.001l-28 28l167 167l28 -28z" />
    <glyph glyph-name="afii10053" unicode="&#x404;" horiz-adv-x="545" 
d="M380 285v-40.002h-220c1.33301 -46.667 11.666 -84.167 30.999 -112.5s49 -42.5 89 -42.5c18.667 0 35 3.5 49 10.5s24.333 15.333 31 25s12.167 19.334 16.5 29.001s6.83301 18.167 7.5 25.5l1 10h140c0 -2.66699 -0.333008 -6.5 -1 -11.5s-3.16699 -14.667 -7.5 -29
s-9.5 -27.833 -15.5 -40.5s-15.333 -27 -28 -43s-27.167 -29.667 -43.5 -41s-37.5 -20.833 -63.5 -28.5s-54.667 -11.5 -86 -11.5c-82 0 -145.833 26 -191.5 78s-68.5 117.667 -68.5 197s22.833 145 68.5 197s109.5 78 191.5 78c42.667 0 80.334 -7 113.001 -21
s57 -31.167 73 -51.5s28.833 -40.5 38.5 -60.5s15.5 -37 17.5 -51l3 -21h-140c0 2.66699 -0.333008 6.33398 -1 11.001s-3.16699 12.667 -7.5 24s-9.83301 21.333 -16.5 30s-17 16.667 -31 24s-30.333 11 -49 11c-72 0 -111.667 -48.333 -119 -145h219z" />
    <glyph glyph-name="afii10054" unicode="&#x405;" horiz-adv-x="520" 
d="M20 170h134.998c0 -2.66699 0.166992 -6 0.5 -10s2.5 -11.167 6.5 -21.5s9.5 -19.5 16.5 -27.5s18 -15.167 33 -21.5s32.833 -9.5 53.5 -9.5c34 0 58.333 6.33301 73 19s22 28 22 46c0 20 -11.333 35.333 -34 46s-50.167 18.667 -82.5 24s-64.666 12.166 -96.999 20.499
s-59.833 23.666 -82.5 45.999s-34 51.833 -34 88.5c0 46.667 20.5 85.834 61.5 117.501s95.5 47.5 163.5 47.5c38 0 71.5 -4.16699 100.5 -12.5s51.333 -18.666 67 -30.999s28.5 -26.5 38.5 -42.5s16.5 -30.167 19.5 -42.5s4.5 -24.5 4.5 -36.5h-135
c0 2 -0.166992 4.5 -0.5 7.5s-2.16602 8.5 -5.49902 16.5s-8 15.167 -14 21.5s-15.5 12 -28.5 17s-28.5 7.5 -46.5 7.5c-26.667 0 -47.5 -5.83301 -62.5 -17.5s-22.5 -25.834 -22.5 -42.501c0 -16 11.333 -28.667 34 -38s50.167 -17 82.5 -23s64.666 -13.5 96.999 -22.5
s59.833 -25 82.5 -48s34 -52.5 34 -88.5c0 -51.333 -20.833 -93.333 -62.5 -126s-99.167 -49 -172.5 -49c-38.667 0 -73.167 4.5 -103.5 13.5s-54.166 20.333 -71.499 34s-31.5 29.334 -42.5 47.001s-18.333 33.667 -22 48s-5.5 28.5 -5.5 42.5z" />
    <glyph glyph-name="uni0406" unicode="&#x406;" horiz-adv-x="190" 
d="M165 520v-520h-140v520h140zM15 635c0 22 7.83301 40.833 23.5 56.5s34.5 23.5 56.5 23.5s40.833 -7.83301 56.5 -23.5s23.5 -34.5 23.5 -56.5s-7.83301 -40.833 -23.5 -56.5s-34.5 -23.5 -56.5 -23.5s-40.833 7.83301 -56.5 23.5s-23.5 34.5 -23.5 56.5z" />
    <glyph glyph-name="afii10056" unicode="&#x407;" horiz-adv-x="190" 
d="M165 520v-520h-140v520h140zM-85 635c0 22 7.83301 40.833 23.5 56.5s34.5 23.5 56.5 23.5s40.833 -7.83301 56.5 -23.5s23.5 -34.5 23.5 -56.5s-7.83301 -40.833 -23.5 -56.5s-34.5 -23.5 -56.5 -23.5s-40.833 7.83301 -56.5 23.5s-23.5 34.5 -23.5 56.5zM115 635
c0 22 7.83301 40.833 23.5 56.5s34.5 23.5 56.5 23.5s40.833 -7.83301 56.5 -23.5s23.5 -34.5 23.5 -56.5s-7.83301 -40.833 -23.5 -56.5s-34.5 -23.5 -56.5 -23.5s-40.833 7.83301 -56.5 23.5s-23.5 34.5 -23.5 56.5z" />
    <glyph glyph-name="afii10057" unicode="&#x408;" horiz-adv-x="190" 
d="M-55 -180l0.00195312 114.999h35c17.333 0 29.166 3.33301 35.499 10s9.5 20 9.5 40v535h140v-535c0 -61.333 -10.833 -104.166 -32.5 -128.499s-65.834 -36.5 -132.501 -36.5h-55zM15.002 634.999c0 22 7.83301 40.833 23.5 56.5s34.5 23.5 56.5 23.5
s40.833 -7.83301 56.5 -23.5s23.5 -34.5 23.5 -56.5s-7.83301 -40.833 -23.5 -56.5s-34.5 -23.5 -56.5 -23.5s-40.833 7.83301 -56.5 23.5s-23.5 34.5 -23.5 56.5z" />
    <glyph glyph-name="afii10058" unicode="&#x409;" horiz-adv-x="775" 
d="M10 0l187 520.002h158l68 -190h112c71.333 0 126.666 -14.833 165.999 -44.5s59 -69.834 59 -120.501s-19.667 -90.834 -59 -120.501s-94.666 -44.5 -165.999 -44.5h-143l-120 369l-120 -369h-142zM515 230.002h-56l47 -130h9c37.333 0 64.166 5.16699 80.499 15.5
s24.5 26.833 24.5 49.5s-8.16699 39.167 -24.5 49.5s-43.166 15.5 -80.499 15.5z" />
    <glyph glyph-name="afii10059" unicode="&#x40a;" horiz-adv-x="815" 
d="M350 0v205h-185v-205h-140v520h140v-205h185v205h140v-200h85c72 0 127.5 -14 166.5 -42s58.5 -67.333 58.5 -118s-19.5 -90 -58.5 -118s-94.5 -42 -166.5 -42h-225zM555 220h-65v-120h65c38 0 65 4.5 81 13.5s24 24.5 24 46.5s-8 37.5 -24 46.5s-43 13.5 -81 13.5z" />
    <glyph glyph-name="afii10060" unicode="&#x40b;" 
d="M-70 570l-0.000976562 39.999h95v90h140v-90h95v-40h-95v-135h5c1.33301 2.66699 3 6.33398 5 11.001s7.5 12.667 16.5 24s18.833 21.333 29.5 30s25.334 16.667 44.001 24s38.667 11 60 11c123.333 0 185 -71.667 185 -215v-320h-140v290c0 45.333 -7 78.333 -21 99
s-37 31 -69 31c-76.667 0 -115 -50 -115 -150v-270h-140v570h-95z" />
    <glyph glyph-name="afii10061" unicode="&#x40c;" horiz-adv-x="540" 
d="M25 0v520h140v-210l185 210h165l-196 -203l206 -317h-171l-132 217l-57 -59v-158h-140zM235 565l-28 28l167 167l28 -28z" />
    <glyph glyph-name="afii10062" unicode="&#x40e;" horiz-adv-x="550" 
d="M540 520l-184.999 -535c-21.333 -62 -47.333 -107.5 -78 -136.5s-71.334 -43.5 -122.001 -43.5c-14.667 0 -29.5 1.16699 -44.5 3.5s-26.5 4.83301 -34.5 7.5l-11 4v115c20 -6.66699 41.667 -10 65 -10s41.5 6 54.5 18s24.833 31 35.5 57l-210 520h150l127 -343l103 343
h150zM85.001 570v40h400v-40h-400z" />
    <glyph glyph-name="afii10145" unicode="&#x40f;" 
d="M510 520v-519.998h-135v85h-5c-2 -4 -4.83301 -9.33301 -8.5 -16s-12.667 -17.334 -27 -32.001s-29.833 -26.334 -46.5 -35.001v-182h-40v169c-16 -2.66699 -28.667 -4 -38 -4c-123.333 0 -185 71.667 -185 215v320h140v-290c0 -45.333 7 -78.333 21 -99s37 -31 69 -31
c76.667 0 115 50 115 150v270h140z" />
    <glyph glyph-name="afii10017" unicode="&#x410;" horiz-adv-x="515" 
d="M170 360l-140.003 -0.00292969c4 62 27.5 106.667 70.5 134s97.833 41 164.5 41c68.667 0 123.334 -14.167 164.001 -42.5s61 -74.166 61 -137.499v-355h-140v100h-5c-0.666992 -3.33301 -2 -7.5 -4 -12.5s-7.33301 -14.167 -16 -27.5s-18.5 -25 -29.5 -35
s-26.833 -19.167 -47.5 -27.5s-43.334 -12.5 -68.001 -12.5c-50 0 -90 11.833 -120 35.5s-45 58.5 -45 104.5c0 80.667 55.333 135 166 163c9.33301 2.66699 21.5 5.66699 36.5 9l35.5 8c8.66699 2 18.834 4.66699 30.501 8s20.834 6.83301 27.501 10.5
s13.334 7.83398 20.001 12.501s11.5 10.334 14.5 17.001s4.5 14 4.5 22c0 20.667 -7.33301 36.667 -22 48s-35.667 17 -63 17c-61.333 0 -93 -26.667 -95 -80zM349.997 261.997c-14.667 -13.333 -51.334 -27.333 -110.001 -42c-55.333 -13.333 -83 -40 -83 -80
c0 -20 6.5 -35.833 19.5 -47.5s30.833 -17.5 53.5 -17.5s42.167 6 58.5 18s28.833 27.833 37.5 47.5s14.834 39.5 18.501 59.5s5.5 40.667 5.5 62z" />
    <glyph glyph-name="afii10018" unicode="&#x411;" horiz-adv-x="575" 
d="M165 245c0 -45.333 10.333 -82.5 31 -111.5s52 -43.5 94 -43.5s73.333 14.5 94 43.5s31 66.167 31 111.5s-10.333 82.5 -31 111.5s-52 43.5 -94 43.5s-73.333 -14.5 -94 -43.5s-31 -66.167 -31 -111.5zM290 -15c-36.667 0 -70.502 5.66797 -101.502 17.001
s-59.5 29.166 -85.5 53.499s-46.333 58.666 -61 102.999s-22 96.5 -22 156.5c0 64.667 6.16699 120.834 18.5 168.501s27.833 85 46.5 112s42 48.667 70 65s55 27 81 32s55.333 7.5 88 7.5h191v-115h-203c-55.333 0 -95.666 -12.5 -120.999 -37.5
s-42.333 -65.833 -51 -122.5h5l5.5 8.5c2.33301 3.66699 8.33301 10.167 18 19.5s20.167 17.5 31.5 24.5s26.833 13.333 46.5 19s40.834 8.5 63.501 8.5c75.333 0 135 -24.667 179 -74s66 -111.333 66 -186c0 -74 -23.167 -135.833 -69.5 -185.5s-111.5 -74.5 -195.5 -74.5z
" />
    <glyph glyph-name="afii10019" unicode="&#x412;" horiz-adv-x="510" 
d="M25 0l-0.000976562 519.998h250c136.667 0 205 -46.667 205 -140c0 -25.333 -6.66699 -46.666 -20 -63.999s-26.666 -28.666 -39.999 -33.999l-20 -7v-5c2.66699 -0.666992 6.16699 -1.66699 10.5 -3s11.833 -4.83301 22.5 -10.5s20.167 -12.5 28.5 -20.5
s16 -19.667 23 -35s10.5 -32.333 10.5 -51c0 -100 -68.333 -150 -205 -150h-265zM274.999 219.998h-110v-120h120c46.667 0 70 20 70 60s-26.667 60 -80 60zM164.999 309.998h100c50 0 75 18.333 75 55s-21.667 55 -65 55h-110v-110z" />
    <glyph glyph-name="afii10020" unicode="&#x413;" horiz-adv-x="520" 
d="M365 170l134.998 -0.00195312c0 -14 -1.83301 -28.167 -5.5 -42.5s-11 -30.333 -22 -48s-25.167 -33.334 -42.5 -47.001s-41.166 -25 -71.499 -34s-64.833 -13.5 -103.5 -13.5c-74 0 -131.667 14.833 -173 44.5s-62 69.834 -62 120.501c0 30.667 8.16699 57 24.5 79
s36.666 38.167 60.999 48.5s50.833 19.833 79.5 28.5s55.167 15.334 79.5 20.001s44.666 11.5 60.999 20.5s24.5 20.167 24.5 33.5c0 16.667 -7.5 30.834 -22.5 42.501s-35.833 17.5 -62.5 17.5c-18 0 -33.5 -2.33301 -46.5 -7s-22.5 -10.5 -28.5 -17.5s-10.667 -14 -14 -21
s-5.33301 -12.833 -6 -17.5v-7h-135c0 12 1.66699 24.333 5 37s10 26.834 20 42.501s23.167 29.667 39.5 42s38.833 22.666 67.5 30.999s61.334 12.5 98.001 12.5c68.667 0 123.334 -14.333 164.001 -43s61 -66 61 -112c0 -36 -11.333 -65.333 -34 -88
s-50.167 -38.667 -82.5 -48s-64.666 -17.333 -96.999 -24s-59.833 -15.834 -82.5 -27.501s-34 -27.5 -34 -47.5c0 -18 7.33301 -33.333 22 -46s39 -19 73 -19c20.667 0 38.5 3.16699 53.5 9.5s26 13.833 33 22.5s12.5 17.334 16.5 26.001s6 16 6 22z" />
    <glyph glyph-name="afii10021" unicode="&#x414;" horiz-adv-x="570" 
d="M545 520l-0.000976562 -459.999c0 -78.667 -21.667 -140.834 -65 -186.501s-108.333 -68.5 -195 -68.5c-44.667 0 -83.667 6.16699 -117 18.5s-57.833 27.333 -73.5 45s-28 35.334 -37 53.001s-14.167 32.5 -15.5 44.5l-2 19h140c0 -2 0.333008 -4.66699 1 -8
s3.16699 -9.33301 7.5 -18s9.83301 -16.334 16.5 -23.001s17 -12.667 31 -18s30.333 -8 49 -8c43.333 0 74.166 11.667 92.499 35s27.5 58.333 27.5 105v25h-5c-1.33301 -2 -3.16602 -4.5 -5.49902 -7.5s-8.16602 -8.5 -17.499 -16.5s-19.333 -15.167 -30 -21.5
s-25.167 -12 -43.5 -17s-37.833 -7.5 -58.5 -7.5c-71.333 0 -126.666 26 -165.999 78s-59 114.333 -59 187s19.667 135 59 187s94.666 78 165.999 78c34 0 64.333 -7.16699 91 -21.5s44.667 -28.5 54 -42.5l15 -21h5v70h135zM409.999 270.001
c0 45.333 -10.833 83.333 -32.5 114s-52.5 46 -92.5 46s-70.833 -15.333 -92.5 -46s-32.5 -68.667 -32.5 -114s10.833 -83.333 32.5 -114s52.5 -46 92.5 -46s70.833 15.333 92.5 46s32.5 68.667 32.5 114z" />
    <glyph glyph-name="afii10022" unicode="&#x415;" horiz-adv-x="550" 
d="M20 260c0 79.333 22.665 144.998 67.998 196.998s109.333 78 192 78c82 0 144.167 -25.667 186.5 -77s63.5 -117.333 63.5 -198l-1 -30h-368c6.66699 -93.333 48 -140 124 -140c16 0 30.333 2.66699 43 8s22.334 12 29.001 20s12.334 16 17.001 24s7.66699 14.667 9 20
l2 8h140c-0.666992 -5.33301 -2.16699 -12 -4.5 -20s-9 -22.667 -20 -44s-24.667 -40.166 -41 -56.499s-40.333 -31.166 -72 -44.499s-67.5 -20 -107.5 -20c-84 0 -148.333 25.833 -193 77.5s-67 117.5 -67 197.5zM279.998 429.998c-62.667 0 -101 -36.667 -115 -110h221
c-10 73.333 -45.333 110 -106 110z" />
    <glyph glyph-name="afii10024" unicode="&#x416;" horiz-adv-x="870" 
d="M505 520v-207l175 207h165l-192 -206l202 -314h-171l-127 211l-52 -56v-155h-140v155l-53 56l-126 -211h-171l202 314l-192 206h165l175 -207v207h140z" />
    <glyph glyph-name="afii10025" unicode="&#x417;" 
d="M25 410v110.001h480v-110l-170 -160c5.33301 0 12.166 -0.5 20.499 -1.5s23.5 -5.66699 45.5 -14s41.333 -19.333 58 -33s31.834 -35 45.501 -64s20.5 -63.167 20.5 -102.5c0 -62.667 -21.667 -116.667 -65 -162s-105 -68 -185 -68c-90.667 0 -157.5 22.5 -200.5 67.5
s-64.5 100.833 -64.5 167.5h140c0 -38 10.167 -69.167 30.5 -93.5s51.833 -36.5 94.5 -36.5c34 0 60.833 11.167 80.5 33.5s29.5 51.166 29.5 86.499c0 41.333 -12.833 73.333 -38.5 96s-71.167 34 -136.5 34h-40v80l175 170h-320z" />
    <glyph glyph-name="afii10026" unicode="&#x418;" 
d="M510 520l-0.00195312 -520h-135v85h-5l-5.5 -11c-2.33301 -4.66699 -8.16602 -12.667 -17.499 -24s-19.666 -21.333 -30.999 -30s-26.5 -16.667 -45.5 -24s-39.167 -11 -60.5 -11c-123.333 0 -185 71.667 -185 215v320h140v-290c0 -45.333 7 -78.333 21 -99
s37 -31 69 -31c76.667 0 115 50 115 150v270h140z" />
    <glyph glyph-name="afii10027" unicode="&#x419;" 
d="M75 570v40h385v-40h-385zM510 520l-0.00195312 -520h-135v85h-5l-5.5 -11c-2.33301 -4.66699 -8.16602 -12.667 -17.499 -24s-19.666 -21.333 -30.999 -30s-26.5 -16.667 -45.5 -24s-39.167 -11 -60.5 -11c-123.333 0 -185 71.667 -185 215v320h140v-290
c0 -45.333 7 -78.333 21 -99s37 -31 69 -31c76.667 0 115 50 115 150v270h140z" />
    <glyph glyph-name="afii10028" unicode="&#x41a;" horiz-adv-x="540" 
d="M25 0v520h140v-210l185 210h165l-196 -203l206 -317h-171l-132 217l-57 -59v-158h-140z" />
    <glyph glyph-name="afii10029" unicode="&#x41b;" horiz-adv-x="552" 
d="M10 0l187 520h158l187 -520h-150l-120 369l-120 -369h-142z" />
    <glyph glyph-name="afii10030" unicode="&#x41c;" horiz-adv-x="680" 
d="M655 520v-520h-130v365h-5l-115 -365h-130l-115 365h-5v-365h-130v520h210l105 -360l105 360h210z" />
    <glyph glyph-name="afii10031" unicode="&#x41d;" horiz-adv-x="525" 
d="M360 0v205h-195v-205h-140v520h140v-205h195v205h140v-520h-140z" />
    <glyph glyph-name="afii10032" unicode="&#x41e;" horiz-adv-x="570" 
d="M160 260c0 -50.667 10.333 -91.667 31 -123s52 -47 94 -47s73.333 15.667 94 47s31 72.333 31 123s-10.333 91.667 -31 123s-52 47 -94 47s-73.333 -15.667 -94 -47s-31 -72.333 -31 -123zM20 260c0 79.333 23.5 145 70.5 197s111.833 78 194.5 78s147.5 -26 194.5 -78
s70.5 -117.667 70.5 -197s-23.5 -145 -70.5 -197s-111.833 -78 -194.5 -78s-147.5 26 -194.5 78s-70.5 117.667 -70.5 197z" />
    <glyph glyph-name="afii10033" unicode="&#x41f;" 
d="M25 0l0.00195312 520h135v-85h5l5.5 11c2.33301 4.66699 8.16602 12.667 17.499 24s19.666 21.333 30.999 30s26.5 16.667 45.5 24s39.167 11 60.5 11c123.333 0 185 -71.667 185 -215v-320h-140v290c0 45.333 -7 78.333 -21 99s-37 31 -69 31
c-76.667 0 -115 -50 -115 -150v-270h-140z" />
    <glyph glyph-name="afii10034" unicode="&#x420;" horiz-adv-x="570" 
d="M25 -180l0.00390625 699.999h135v-70h5c1.33301 2 3.16602 5 5.49902 9s8.16602 10.833 17.499 20.5s19.666 18.334 30.999 26.001s26.5 14.5 45.5 20.5s39.167 9 60.5 9c71.333 0 126.666 -26.5 165.999 -79.5s59 -118.167 59 -195.5s-19.667 -142.5 -59 -195.5
s-94.666 -79.5 -165.999 -79.5c-32.667 0 -61.834 5.83301 -87.501 17.5s-43.5 23.5 -53.5 35.5l-14 17h-5v-235h-140zM160.004 259.999c0 -50 10.667 -90.833 32 -122.5s52.333 -47.5 93 -47.5s71.667 15.833 93 47.5s32 72.5 32 122.5s-10.667 90.833 -32 122.5
s-52.333 47.5 -93 47.5s-71.667 -15.833 -93 -47.5s-32 -72.5 -32 -122.5z" />
    <glyph glyph-name="afii10035" unicode="&#x421;" horiz-adv-x="545" 
d="M20 260c0 79.333 22.832 144.998 68.499 196.998s109.5 78 191.5 78c42.667 0 80.334 -7 113.001 -21s57 -31.167 73 -51.5s28.833 -40.5 38.5 -60.5s15.5 -37 17.5 -51l3 -21h-140c0 2.66699 -0.333008 6.33398 -1 11.001s-3.16699 12.667 -7.5 24
s-9.83301 21.333 -16.5 30s-17 16.667 -31 24s-30.333 11 -49 11c-42 0 -72.5 -15.5 -91.5 -46.5s-28.5 -72.167 -28.5 -123.5s9.5 -92.5 28.5 -123.5s49.5 -46.5 91.5 -46.5c18.667 0 35 3.5 49 10.5s24.333 15.333 31 25s12.167 19.334 16.5 29.001
s6.83301 18.167 7.5 25.5l1 10h140c0 -2.66699 -0.333008 -6.5 -1 -11.5s-3.16699 -14.667 -7.5 -29s-9.5 -27.833 -15.5 -40.5s-15.333 -27 -28 -43s-27.167 -29.667 -43.5 -41s-37.5 -20.833 -63.5 -28.5s-54.667 -11.5 -86 -11.5c-82 0 -145.833 26 -191.5 78
s-68.5 117.667 -68.5 197z" />
    <glyph glyph-name="afii10036" unicode="&#x422;" horiz-adv-x="800" 
d="M330 0l-0.00195312 289.999c0 46 -5.5 79.167 -16.5 99.5s-29.833 30.5 -56.5 30.5c-61.333 0 -92 -50 -92 -150v-270h-140v520h135v-85h5c0.666992 2.66699 2 6.33398 4 11.001s7 12.667 15 24s16.833 21.333 26.5 30s23 16.667 40 24s35.167 11 54.5 11
c77.333 0 127 -33.667 149 -101l1 1h5l5.5 11c2.33301 4.66699 8 12.667 17 24s18.833 21.333 29.5 30s24.834 16.667 42.501 24s36.167 11 55.5 11c60.667 0 103.334 -19.167 128.001 -57.5s37 -90.833 37 -157.5v-320h-140v290c0 46 -5.5 79.167 -16.5 99.5
s-29.833 30.5 -56.5 30.5c-61.333 0 -92 -50 -92 -150v-270h-140z" />
    <glyph glyph-name="afii10037" unicode="&#x423;" horiz-adv-x="550" 
d="M540 520l-184.999 -535c-21.333 -62 -47.333 -107.5 -78 -136.5s-71.334 -43.5 -122.001 -43.5c-14.667 0 -29.5 1.16699 -44.5 3.5s-26.5 4.83301 -34.5 7.5l-11 4v115c20 -6.66699 41.667 -10 65 -10s41.5 6 54.5 18s24.833 31 35.5 57l-210 520h150l127 -343l103 343
h150z" />
    <glyph glyph-name="afii10038" unicode="&#x424;" horiz-adv-x="720" 
d="M430 -5v-175h-140v175c-84 0 -150 24.333 -198 73s-72 112.667 -72 192s24 143.333 72 192s114 73 198 73v175h140v-175c84 0 150 -24.333 198 -73s72 -112.667 72 -192s-24 -143.333 -72 -192s-114 -73 -198 -73zM290 95v330c-42.667 0 -75 -15 -97 -45
s-33 -70 -33 -120s11 -90 33 -120s54.333 -45 97 -45zM560 260c0 50 -11 90 -33 120s-54.333 45 -97 45v-330c42.667 0 75 15 97 45s33 70 33 120z" />
    <glyph glyph-name="afii10039" unicode="&#x425;" horiz-adv-x="570" 
d="M190 520l95 -150l95 150h165l-180 -250l195 -270h-165l-110 170l-110 -170h-165l195 270l-180 250h165z" />
    <glyph glyph-name="afii10040" unicode="&#x426;" horiz-adv-x="590" 
d="M580 180v-310h-40v310h40zM510 520l-0.00195312 -520h-135v85h-5l-5.5 -11c-2.33301 -4.66699 -8.16602 -12.667 -17.499 -24s-19.666 -21.333 -30.999 -30s-26.5 -16.667 -45.5 -24s-39.167 -11 -60.5 -11c-123.333 0 -185 71.667 -185 215v320h140v-290
c0 -45.333 7 -78.333 21 -99s37 -31 69 -31c76.667 0 115 50 115 150v270h140z" />
    <glyph glyph-name="afii10041" unicode="&#x427;" horiz-adv-x="505" 
d="M480 520v-520h-140v200h-135c-72 0 -120.833 10.5 -146.5 31.5s-38.5 60.5 -38.5 118.5v170h140v-155c0 -30 5 -48.333 15 -55s31.667 -10 65 -10h100v220h140z" />
    <glyph glyph-name="afii10042" unicode="&#x428;" horiz-adv-x="800" 
d="M470 520l0.00292969 -289.999c0 -46 5.5 -79.167 16.5 -99.5s29.833 -30.5 56.5 -30.5c61.333 0 92 50 92 150v270h140v-520h-135v85h-5c-0.666992 -2.66699 -2 -6.33398 -4 -11.001s-7 -12.667 -15 -24s-16.833 -21.333 -26.5 -30s-23 -16.667 -40 -24
s-35.167 -11 -54.5 -11c-76.667 0 -126.334 33.333 -149.001 100h-6l-5.5 -11c-2.33301 -4.66699 -8 -12.667 -17 -24s-18.833 -21.333 -29.5 -30s-24.834 -16.667 -42.501 -24s-36.167 -11 -55.5 -11c-60.667 0 -103.334 19.167 -128.001 57.5s-37 90.833 -37 157.5v320
h140v-290c0 -46 5.5 -79.167 16.5 -99.5s29.833 -30.5 56.5 -30.5c61.333 0 92 50 92 150v270h140z" />
    <glyph glyph-name="afii10043" unicode="&#x429;" horiz-adv-x="855" 
d="M470 520l0.00292969 -289.999c0 -46 5.5 -79.167 16.5 -99.5s29.833 -30.5 56.5 -30.5c61.333 0 92 50 92 150v270h140v-520h-135v85h-5c-0.666992 -2.66699 -2 -6.33398 -4 -11.001s-7 -12.667 -15 -24s-16.833 -21.333 -26.5 -30s-23 -16.667 -40 -24
s-35.167 -11 -54.5 -11c-76.667 0 -126.334 33.333 -149.001 100h-6l-5.5 -11c-2.33301 -4.66699 -8 -12.667 -17 -24s-18.833 -21.333 -29.5 -30s-24.834 -16.667 -42.501 -24s-36.167 -11 -55.5 -11c-60.667 0 -103.334 19.167 -128.001 57.5s-37 90.833 -37 157.5v320
h140v-290c0 -46 5.5 -79.167 16.5 -99.5s29.833 -30.5 56.5 -30.5c61.333 0 92 50 92 150v270h140zM845.003 180.001v-310h-40v310h40z" />
    <glyph glyph-name="afii10044" unicode="&#x42a;" horiz-adv-x="610" 
d="M15 415v105.002h270v-190h85c71.333 0 126.666 -14.833 165.999 -44.5s59 -69.834 59 -120.501s-19.667 -90.834 -59 -120.501s-94.666 -44.5 -165.999 -44.5h-225v415h-130zM350 230.002h-65v-130h65c37.333 0 64.166 5.16699 80.499 15.5s24.5 26.833 24.5 49.5
s-8.16699 39.167 -24.5 49.5s-43.166 15.5 -80.499 15.5z" />
    <glyph glyph-name="afii10045" unicode="&#x42b;" horiz-adv-x="655" 
d="M25 0v520.002h140v-190h60c71.333 0 126.666 -14.833 165.999 -44.5s59 -69.834 59 -120.501s-19.667 -90.834 -59 -120.501s-94.666 -44.5 -165.999 -44.5h-200zM205 230.002h-40v-130h40c37.333 0 64.166 5.16699 80.499 15.5s24.5 26.833 24.5 49.5
s-8.16699 39.167 -24.5 49.5s-43.166 15.5 -80.499 15.5zM630 520.002v-520h-140v520h140z" />
    <glyph glyph-name="afii10046" unicode="&#x42c;" horiz-adv-x="490" 
d="M25 0v520.002h140v-190h85c71.333 0 126.666 -14.833 165.999 -44.5s59 -69.834 59 -120.501s-19.667 -90.834 -59 -120.501s-94.666 -44.5 -165.999 -44.5h-225zM230 230.002h-65v-130h65c37.333 0 64.166 5.16699 80.499 15.5s24.5 26.833 24.5 49.5
s-8.16699 39.167 -24.5 49.5s-43.166 15.5 -80.499 15.5z" />
    <glyph glyph-name="afii10047" unicode="&#x42d;" horiz-adv-x="545" 
d="M165 245l0.00195312 40.002h219c-7.33301 96.667 -47 145 -119 145c-18.667 0 -35 -3.5 -49 -10.5s-24.5 -15.333 -31.5 -25s-12.5 -19.334 -16.5 -29.001s-6.33301 -18.167 -7 -25.5l-1 -10h-140c0 2.66699 0.333008 6.5 1 11.5s3.16699 14.667 7.5 29
s9.5 27.833 15.5 40.5s15.333 27 28 43s27.167 29.667 43.5 41s37.5 20.833 63.5 28.5s54.667 11.5 86 11.5c82 0 145.833 -26 191.5 -78s68.5 -117.667 68.5 -197s-22.833 -145 -68.5 -197s-109.5 -78 -191.5 -78c-42.667 0 -80.334 7 -113.001 21s-57 31.167 -73 51.5
s-28.833 40.5 -38.5 60.5s-15.5 37 -17.5 51l-3 21h140c0 -2.66699 0.333008 -6.33398 1 -11.001s3.16699 -12.667 7.5 -24s9.83301 -21.333 16.5 -30s17 -16.667 31 -24s30.333 -11 49 -11c40 0 69.667 14.167 89 42.5s29.666 65.833 30.999 112.5h-220z" />
    <glyph glyph-name="afii10048" unicode="&#x42e;" horiz-adv-x="760" 
d="M165 520v-205h69c9.33301 66 35.5 119.167 78.5 159.5s100.5 60.5 172.5 60.5c82 0 145 -25.833 189 -77.5s66 -117.5 66 -197.5s-22 -145.833 -66 -197.5s-107 -77.5 -189 -77.5c-72 0 -129.5 20.167 -172.5 60.5s-69.167 93.5 -78.5 159.5h-69v-205h-140v520h140z
M370 260c0 -113.333 38.333 -170 115 -170s115 56.667 115 170s-38.333 170 -115 170s-115 -56.667 -115 -170z" />
    <glyph glyph-name="afii10049" unicode="&#x42f;" horiz-adv-x="515" 
d="M490 520l0.000976562 -520.001h-140v190h-100l-83 -190h-157l106 215c-60.667 28 -91 74.667 -91 140c0 50.667 19.667 90.834 59 120.501s94.666 44.5 165.999 44.5h240zM270.001 289.999h80v130h-80c-37.333 0 -64.166 -5.16699 -80.499 -15.5
s-24.5 -26.833 -24.5 -49.5s8.16699 -39.167 24.5 -49.5s43.166 -15.5 80.499 -15.5z" />
    </font>
</defs>
</svg>
