<svg width="177" height="184" viewBox="0 0 177 184" fill="none" xmlns="http://www.w3.org/2000/svg">
<path d="M104.82 96.3336L86.4354 58.7497L70.2619 96.3336H104.82Z" fill="#959595"/>
<path fill-rule="evenodd" clip-rule="evenodd" d="M87.2913 0L0 30.4192L13.3393 143.375L87.2913 183.529L162.419 142.835L176.934 29.8782L87.2913 0ZM31.9039 139.191L86.2969 20.8268L143.316 139.529L123.896 139.191L111.939 112.151H63.1436L52.2233 138.853L31.9039 139.191Z" fill="#959595"/>
<path d="M87.3576 0.471445L177 30.3497L162.486 143.374L87.3576 184V113.226H113.146L125.103 140.266L144.524 140.604L87.5042 21.9014L87.3576 22.2205V0.471445Z" fill="#959595"/>
<path d="M87.3576 97.4082V60.4869L87.6427 59.8243L106.027 97.4082H87.3576Z" fill="#959595"/>
</svg>
