<svg width="158" height="199" viewBox="0 0 158 199" fill="none" xmlns="http://www.w3.org/2000/svg">
<path d="M47.5413 122.928C41.5669 118.3 35.1923 113.866 30.8374 107.617C21.6699 96.5985 14.6134 83.8436 9.78895 70.4381C6.87216 61.7202 5.87333 52.3745 2.11106 43.995C-1.81929 37.9069 2.78815 31.2565 9.56037 29.3222C12.5735 28.7504 17.8744 25.95 11.4754 27.954C5.73726 32.0964 5.18471 24.1892 11.0673 23.6888C15.0821 23.1643 16.5602 19.93 15.1855 17.0185C10.8742 14.2492 25.6365 11.2109 18.2076 7.08007C10.4747 -1.13703 29.0293 -2.7191 24.4507 6.61483C23.3561 13.7913 37.4205 5.2966 34.1544 13.5854C37.4726 17.5667 46.5764 14.4935 46.3479 20.0754C51.18 20.4023 52.839 24.4028 57.3702 24.7105C62.0744 26.8017 70.5936 28.4465 72.1917 33.6621C67.5286 37.2957 56.7335 26.1549 56.212 36.2153C57.6228 51.0796 57.263 66.3912 62.7847 80.5453C65.3961 89.1149 71.731 95.8604 77.4487 102.536C82.9224 109.073 90.3353 113.677 97.8925 117.551C104.52 120.628 111.665 122.667 118.889 123.95C121.818 121.744 126.99 113.542 131.558 116.998C131.779 120.889 122.491 125.125 131.122 124.695C136.195 123.188 139.709 128.553 143.884 123.712C147.73 128.199 159.871 120.849 157.134 130.017C153.432 132.369 148.035 130.948 144.329 134.184C138.218 131.177 133.353 136.87 126.586 136.152C119.073 137.477 111.427 138.01 103.811 138.021C91.3133 137.05 78.5516 136.641 66.6629 132.356C59.9633 130.44 53.4284 126.684 47.5413 122.928ZM58.0957 127.433C64.6352 130.214 71.0306 133.149 78.1988 134.037C89.5704 135.591 101.314 137.99 112.726 135.805C107.561 133.509 102.22 136.696 97.0751 134.164C90.9045 135.469 84.2818 133.828 78.0058 133.019C70.8731 129.891 63.1731 127.741 56.4934 123.677C48.1425 120.675 60.8092 127.528 63.0646 128.085C68.2819 130.999 57.3261 126.588 55.7788 125.378C51.4086 122.963 50.8522 123.468 55.3476 125.918C56.2526 126.439 57.1465 126.988 58.0957 127.433ZM45.6506 118.774C51.9897 121.086 45.6224 114.386 42.7213 114.774C41.4347 112.576 37.8053 111.187 40.3654 110.007C35.7618 111.582 35.5409 104.023 33.3781 105.104C28.5052 103.59 31.4822 98.2238 25.6762 94.9264C25.1467 91.4539 19.9101 88.4438 18.2432 83.2083C17.5062 80.5261 12.3251 72.8296 15.5066 79.9927C18.215 86.8886 22.9793 92.7994 26.9465 98.6973C30.0237 104.314 33.6623 110.189 39.268 113.693C41.1597 115.48 42.9819 118.213 45.6499 118.774H45.6506ZM27.3956 99.0364C27.6149 98.0935 28.5536 101.075 27.3956 99.0364V99.0364ZM53.244 121.543C54.6459 120.924 51.2242 120.762 53.244 121.543V121.543ZM56.6816 122.778C56.3256 121.074 55.111 123.733 56.6816 122.778V122.778ZM60.9891 124.546C63.0364 122.623 57.8274 123.334 60.9891 124.546V124.546ZM68.3699 128.596C69.6159 126.786 64.3829 127.915 68.3699 128.596V128.596ZM54.198 118.869C57.3783 116.841 50.0826 118.841 54.198 118.869V118.869ZM57.4272 120.454C57.3347 119.385 56.277 120.935 57.4272 120.454V120.454ZM73.5706 130.376C76.1669 131.99 88.7291 133.911 80.8636 131.038C79.5443 131.311 66.2781 127.342 73.5706 130.376ZM47.9428 110.722C47.6905 109.65 43.911 109.535 47.9428 110.722V110.722ZM55.4555 115.039C57.4144 113.693 51.3965 114.001 55.4555 115.039V115.039ZM61.7779 118.853C64.5868 117.812 57.2268 117.808 61.7779 118.853V118.853ZM44.8816 107.443C47.9268 109.743 57.1673 107.739 49.5451 106.071C46.0796 104.252 38.2659 103.006 43.5921 107.168L44.8816 107.443ZM66.0623 120.17C67.332 118.044 60.7403 118.955 66.0623 120.17V120.17ZM59.6266 115.136C67.0714 117.208 53.364 110.496 57.788 114.371L58.7705 114.809L59.6266 115.136ZM72.5301 122.478C79.5818 122.544 66.1587 121.52 72.5301 122.478V122.478ZM42.1694 103.427C41.8925 102.133 40.4304 103.534 42.1694 103.427V103.427ZM84.4581 129.066C84.6464 126.731 82.1579 130.806 84.4581 129.066V129.066ZM54.206 110.682C53.777 109.451 52.0025 110.631 54.206 110.682V110.682ZM42.8378 102.615C46.8857 102.374 37.2924 100.859 42.8378 102.615V102.615ZM29.3706 94.0452C28.8663 92.1327 24.9671 90.6099 29.3706 94.0452V94.0452ZM64.7241 116.135C63.9827 115.302 64.3749 116.316 64.7241 116.135V116.135ZM86.7254 129.43C86.6582 128.155 85.5274 129.91 86.7254 129.43V129.43ZM62.7767 114.154C63.1737 112.513 59.3231 113.656 62.7767 114.154V114.154ZM46.384 103.924C49.3975 103.608 41.5554 101.92 46.384 103.924V103.924ZM74.1129 120.889C78.8083 119.058 69.5368 119.997 74.1129 120.889V120.889ZM59.6916 111.251C65.1003 111.936 53.2526 107.625 58.5013 110.864L59.6916 111.251ZM78.4911 122.632C83.5445 119.662 81.8778 129.595 87.0631 123.472C92.1754 119.796 82.6468 128.017 88.9462 124.127C93.5056 121.125 100.237 125.551 104.489 126.991C107.545 126.845 110.519 129.595 113.656 127.922C119.69 126.32 101.852 125.548 106.528 122.71C101.006 124.294 96.9279 120.825 94.2109 117.341C88.0159 115.933 80.8556 112.817 77.7624 107.416C76.5001 105.392 79.5824 107.704 76.673 104.39C72.9424 101.123 71.0796 97.4105 68.5748 93.4382C65.5812 91.8676 65.229 87.2402 64.9281 93.2848C64.9527 89.4697 61.314 86.9014 60.4243 87.9667C60.4083 84.2932 64.3195 86.1355 61.5823 83.4177C60.9942 79.6103 59.0542 75.6422 58.4725 71.3417C57.5681 69.2707 58.3438 64.8328 55.3799 69.523C54.3014 74.4821 55.0233 63.432 56.7024 67.0735C58.9059 63.3571 55.9082 63.7944 55.7881 64.3077C57.2233 61.1717 56.6979 56.7211 55.4119 58.4178C56.1771 55.0916 56.6221 46.18 54.2703 47.7621C55.6962 44.2826 56.9749 31.8466 50.7792 36.59C48.2713 36.6249 43.9244 37.4858 41.8726 38.4916C48.3116 41.9871 41.2234 39.7538 38.5989 39.1973C38.2579 42.4322 35.6619 41.0358 32.4161 41.0669C37.6013 41.698 29.8914 46.2857 26.9231 44.5035C23.0603 46.3183 30.2529 50.8552 26.999 52.2592C27.4004 54.3702 21.0847 51.4946 21.5781 56.3785C17.8308 54.8233 21.0652 62.1698 22.9403 59.6848C29.3155 61.3847 27.428 65.2552 27.588 68.9351C26.5498 71.0769 22.4591 63.8976 26.6779 64.2293C23.3481 58.9064 22.9966 62.3036 20.2312 64.7771C19.5903 64.9551 27.2836 68.2957 22.4556 69.9453C26.7025 70.5924 26.8271 74.2535 27.6927 76.5695C30.2449 79.188 29.7192 73.6765 32.7775 76.8259C30.8413 74.0204 22.5353 68.9226 29.2236 70.5575C29.1868 67.7363 28.0125 65.4594 30.0643 65.5145C32.0962 61.897 27.9367 74.4386 32.5127 69.839C33.7782 69.2947 34.0955 66.2173 36.3714 70.1311C39.6765 73.3346 37.5658 75.6531 32.9014 72.7185C33.7347 75.5077 39.1399 76.5013 38.1222 80.8617C39.1991 84.6963 40.7067 83.2833 42.0205 83.0623C43.0498 86.7868 43.6363 84.0488 43.684 82.2734C48.3999 83.2689 47.2939 86.0139 48.7719 87.9312C52.0213 89.3743 44.1203 78.1429 49.6984 84.5538C55.5675 89.7729 51.9019 91.9506 46.6334 91.1149C49.9667 90.8494 51.0398 95.5534 55.2122 95.3875C59.0141 97.1703 61.5909 104.011 55.0355 101.162C52.7634 99.1424 44.7129 96.6532 51.2892 100.492C57.3555 103.261 62.18 104.915 68.0338 108.391C72.2212 111.334 74.0312 114.706 75.6185 115.373C72.0969 117.03 65.0091 114.052 70.2731 113.141C66.9875 112.552 63.2938 110.916 66.4385 114.943C69.1152 117.145 75.9149 116.911 77.1375 117.16C76.1038 119.401 74.3293 119.579 77.1772 119.752C73.9995 121.421 78.1994 121.682 78.4917 122.632H78.4911ZM71.9919 104.56C70.057 102.568 69.5563 98.8395 71.6478 102.081C72.7219 102.508 75.0822 108.178 71.9919 104.56ZM93.1611 117.799C94.3671 117.721 93.1967 118.702 93.1611 117.799V117.799ZM68.9397 99.6758C68.8626 96.6654 69.636 101.999 68.9397 99.6758V99.6758ZM66.8358 96.8905C64.3998 92.2631 69.9008 98.2001 66.8358 96.8905V96.8905ZM41.3354 79.5639C42.7661 79.188 42.0407 81.9692 41.3354 79.5639V79.5639ZM61.631 90.3925C62.5082 87.1458 62.6609 93.1154 61.631 90.3925V90.3925ZM47.2939 80.5767C46.2848 78.7862 49.4061 82.2583 47.2939 80.5767V80.5767ZM59.5952 84.459C57.2912 79.3779 61.2302 81.6813 60.1081 85.2915L59.5952 84.459ZM38.379 70.5287C37.3494 68.8605 35.6459 63.9683 36.195 62.4736C36.6877 64.9074 41.4481 72.9436 38.5265 65.8033C35.3015 59.8186 42.3858 67.7437 43.1148 69.2393C43.4557 70.7228 41.1235 68.8333 42.7018 72.3164C39.8212 68.3511 41.0028 74.5062 38.379 70.5287ZM31.8235 66.079C32.0917 62.2012 33.3224 68.7379 31.8235 66.079V66.079ZM34.7726 67.0806C36.179 64.1547 37.1563 71.1601 34.7726 67.0806V67.0806ZM27.6764 61.6767C25.2356 59.2852 23.4685 57.0845 27.792 60.1926C29.4551 60.256 24.0902 55.187 28.1934 58.583C32.5041 59.3569 30.3204 65.5472 27.6764 61.6767ZM31.4025 61.5819C32.8217 60.1974 32.1561 62.9431 31.4025 61.5819V61.5819ZM33.6985 62.3036C31.5465 58.3387 36.307 63.9686 33.6985 62.3036V62.3036ZM29.1388 58.0159C22.0432 51.7933 38.054 61.2659 30.297 59.167L29.1388 58.0159ZM49.4737 69.6453C46.4004 67.8343 48.6561 56.8834 49.7064 64.3711C52.6917 63.4198 49.5409 68.2413 51.7652 68.1939C51.4173 71.2344 50.4197 72.3288 49.4737 69.6453ZM56.9947 74.0243C57.295 70.7228 57.6276 76.2816 56.9947 74.0243V74.0243ZM55.6889 72.7499C56.0253 71.3417 55.7206 74.4111 55.6889 72.7499V72.7499ZM30.5285 55.9718C25.9697 49.7777 43.7797 62.2361 33.4504 57.5424C32.3719 57.2622 31.0702 57.1633 30.5285 55.9718ZM45.0138 63.5312C44.582 58.3156 45.9758 64.3942 45.0138 63.5312V63.5312ZM56.0087 70.4772C56.858 67.5071 56.0737 72.4428 56.0087 70.4772V70.4772ZM31.2302 53.6088C33.9393 53.0366 42.4575 58.2916 34.6359 55.1079C33.767 54.1608 31.9115 54.5908 31.2302 53.6082V53.6088ZM54.4976 65.0259C54.7874 59.6925 56.1179 61.8422 54.5098 65.7915L54.4976 65.0253V65.0259ZM33.2455 51.751C34.351 50.1565 30.3118 44.5432 33.8259 49.7383C35.3456 50.9259 38.2214 51.727 35.6815 52.2278C39.6762 55.6961 34.7082 53.1669 33.2455 51.751ZM53.3474 63.3612C54.1096 57.2859 54.0216 66.9195 53.3474 63.3612V63.3612ZM30.9373 46.141C31.7831 45.7849 31.3858 47.2485 30.9373 46.141V46.141ZM36.1828 49.2142C37.5319 46.4243 38.6706 52.3223 36.1828 49.2142V49.2142ZM50.9716 57.3131C50.9594 56.244 51.2517 58.8715 50.9716 57.3131V57.3131ZM50.114 55.4477C48.0622 50.4607 52.0258 58.0864 50.114 55.4477V55.4477ZM48.8552 52.1766C48.512 50.1168 50.0256 54.7647 48.8552 52.1766V52.1766ZM50.9069 48.8943C49.4967 46.4516 52.6869 38.124 53.0436 43.2884C51.5562 47.3126 52.6146 49.5616 53.6477 44.1644C55.5637 39.9196 53.2353 52.548 50.9069 48.8943ZM53.0147 36.5109C53.6288 35.7687 53.1514 37.4055 53.0147 36.5109V36.5109ZM49.4939 104.812C48.6599 104.094 49.6011 105.266 49.4939 104.812V104.812ZM56.746 108.422C60.7804 109.444 60.7608 107.806 57.1135 107.317C55.1546 105.523 48.9637 103.617 54.5056 107.096C54.8709 108.012 56.0289 107.988 56.746 108.422ZM42.4255 99.0556C44.645 100.69 50.7952 103.68 45.5904 99.68C47.3454 97.6711 42.2325 96.6026 43.9279 95.2578C39.6124 92.6569 40.521 92.8897 43.5476 92.9729C38.3623 90.6884 44.2964 90.8619 44.0163 89.691C42.0167 89.3035 34.0827 86.2185 38.7506 89.9433C34.0068 87.5636 37.6202 90.8305 36.1863 90.4873C31.3333 89.1854 40.5063 94.1253 35.4167 92.8983C38.1981 95.0676 42.906 98.4607 36.5907 95.1938C35.7618 96.3734 41.111 98.161 42.4249 99.0556H42.4255ZM50.0096 103.348C59.2299 106.272 45.4857 99.77 50.0096 103.348V103.348ZM88.837 126.506C88.9571 124.703 87.5782 128.044 88.837 126.506V126.506ZM92.8279 128.159C94.9555 126.132 92.9162 131.394 96.3539 127.662C96.3894 124.991 96.2495 123.414 92.4034 126.66C91.3408 127.24 90.8689 129.697 92.8279 128.16V128.159ZM29.4791 88.9894C28.8251 86.4602 24.8985 86.4711 29.4791 88.9894V88.9894ZM33.7376 91.738C32.1548 89.1546 28.0916 89.399 33.7376 91.738V91.738ZM57.9836 106.134C60.3526 108.205 68.8546 107.653 60.8575 106.391C59.6749 104.666 53.34 105.081 57.9836 106.134ZM91.3088 126.401C94.951 123.39 87.7793 127.742 91.3088 126.401V126.401ZM98.8865 131.525C98.9095 130.558 97.3159 131.947 98.8865 131.525V131.525ZM98.8987 130.172C102.933 125.967 94.9917 130.42 98.8987 130.172V130.172ZM18.9965 80.3487C15.5588 75.5199 16.8608 73.3496 13.5435 69.4045C12.9135 66.3867 7.85403 59.5458 10.927 66.7927C13.7395 71.0343 14.5728 77.5983 18.9971 80.3487H18.9965ZM97.6319 128.834C105.057 124.111 94.5874 126.779 97.6319 128.834V128.834ZM103.298 131.019C107.016 127.878 100.946 130.364 103.298 131.019V131.019ZM28.2161 83.6499C29.2787 82.0918 25.4678 83.4491 28.2161 83.6499V83.6499ZM102.116 129.528C105.714 127.244 101.287 127.595 101.463 129.736L102.116 129.528ZM53.2795 99.2215C53.1556 97.6753 51.3769 99.3518 53.2795 99.2215V99.2215ZM56.2968 100.93C55.3351 99.0207 54.8222 101.23 56.2968 100.93V100.93ZM107.89 131.071C112.501 127.796 105.097 130.443 106.924 131.694L107.89 131.071ZM106.123 130.231C109.881 127.133 102.16 131.603 106.123 130.231V130.231ZM115.145 136.144C117.667 134.483 112.081 135.607 115.145 136.144V136.144ZM30.5285 82.526C33.9063 83.2711 44.0352 90.7197 38.0614 83.0431C35.0005 82.1514 36.8359 74.7857 33.7145 76.0876C35.8102 79.5354 35.4362 80.9984 31.0366 78.8297C25.5119 76.1702 27.9319 80.1435 29.0146 81.2404C27.5391 81.5715 30.9613 82.4988 30.5282 82.5254L30.5285 82.526ZM15.1298 70.5534C15.7346 68.0869 9.5562 56.9974 12.213 64.9945C13.1703 66.6711 13.071 69.8464 15.1298 70.5534ZM43.3943 87.7096C41.6517 86.278 43.3104 87.5047 43.3943 87.7096V87.7096ZM47.6774 88.6932C47.6774 86.0808 42.9422 87.6312 47.6774 88.6932V88.6932ZM84.8221 111.744C84.113 109.96 82.0219 111.704 84.8221 111.744V111.744ZM86.6053 113.025C86.3399 112.028 85.5745 113.219 86.6053 113.025V113.025ZM101.326 122.158C102.741 121.129 99.5591 122.025 101.326 122.158V122.158ZM22.8196 72.4864C26.87 70.9431 18.4791 71.3852 22.8196 72.4864V72.4864ZM81.5519 108.914C81.5045 106.335 78.9678 109.558 81.5519 108.914V108.914ZM21.2202 68.8128C23.8206 67.9499 18.8121 68.2458 21.2202 68.8128V68.8128ZM28.7693 72.4147C28.7245 71.5668 27.9722 72.7384 28.7693 72.4147V72.4147ZM120.868 128.021C124.214 127.354 131.839 129.698 133.069 127.15C129.006 127.051 119.017 124.324 118.544 127.796L119.434 127.934L120.869 128.021H120.868ZM31.1691 73.0105C31.2302 70.3946 29.0978 72.9122 31.1691 73.0105V73.0105ZM11.3202 59.451C10.419 54.4679 7.88988 58.697 11.3202 59.451V59.451ZM16.0521 60.6229C16.1126 59.021 11.7197 59.1827 16.0521 60.6229V60.6229ZM18.7567 61.9325C17.9755 61.3088 18.1478 62.717 18.7567 61.9325V61.9325ZM35.782 72.683C36.5839 71.9568 33.8829 72.1467 35.782 72.683V72.683ZM16.9578 58.9816C16.4975 55.2184 11.4722 58.4178 16.9578 58.9816V58.9816ZM7.24832 52.7798C7.11194 51.0441 6.30231 53.4343 7.24832 52.7798V52.7798ZM8.69471 51.7075C8.45877 49.6474 7.45257 51.9672 8.69471 51.7075V51.7075ZM16.6697 56.3935C20.0436 55.0916 10.5262 53.6949 15.9804 56.1492L16.6697 56.3935ZM123.429 121.322C125.589 119.373 120.689 120.719 123.429 121.322V121.322ZM136.328 127.902C137.193 125.386 134.147 128.234 136.328 127.902V127.902ZM17.4848 52.2791C17.842 49.8417 14.8087 52.7641 17.4848 52.2791V52.2791ZM6.13457 44.792C5.52534 41.3519 5.60922 35.3114 11.4399 37.3514C3.65765 38.8739 16.8291 46.8774 15.166 40.5578C18.4394 40.7166 21.5694 38.6533 19.85 41.7809C26.3011 41.0826 30.7696 35.5756 36.9995 36.3492C41.8515 35.7145 47.1565 35.2365 52.386 33.3115C56.6851 33.0073 60.8239 28.4507 58.469 25.7482C52.6066 25.2596 46.4673 25.9813 39.9886 27.2519C32.8089 28.719 26.2857 31.5117 19.0406 32.7118C11.9758 33.6467 20.4592 35.2836 18.4353 35.6505C14.7524 36.9089 22.8311 37.7574 17.9583 39.0865C14.9496 38.5229 11.8161 37.5051 13.1021 34.3806C6.33849 35.248 0.392231 38.0094 5.73791 44.7872L6.1352 44.7907L6.13457 44.792ZM22.4389 36.6169C24.0217 30.8656 30.9332 41.3518 25.0352 37.3827C24.3335 36.8615 23.1711 36.4391 22.4389 36.6169ZM22.7466 33.8273C25.0352 32.1514 23.9612 34.7709 22.7466 33.8273V33.8273ZM25.6515 33.8757C25.8612 31.2283 32.3082 35.2759 26.7141 34.8263L25.6515 33.875V33.8757ZM29.6267 32.3016C31.0814 30.628 30.0483 33.7844 29.6267 32.3016V32.3016ZM30.645 31.6311C33.065 28.7709 44.3361 29.8038 36.0858 31.35C33.8736 29.709 32.1795 32.3167 30.645 31.6311ZM45.3577 29.3978C44.9937 21.5819 52.6703 32.1713 45.3577 29.3978V29.3978ZM49.5335 29.3738C51.0593 25.437 55.459 27.7923 50.2427 28.581C50.3541 29.0033 50.0864 30.6171 49.5335 29.3738ZM15.8396 50.259C20.3983 47.5091 10.9984 47.8729 15.8396 50.259V50.259ZM19.2126 51.1786C20.812 49.5062 15.7346 50.4997 19.2126 51.1786V51.1786ZM9.27609 44.2393C11.8804 42.2663 6.19091 43.4901 9.27609 44.2393V44.2393ZM143.94 127.185C144.016 124.896 141.948 128.214 143.94 127.185V127.185ZM130.256 117.988C130.645 115.358 128.498 118.218 130.256 117.988V117.988ZM147.702 128.072C151.345 128.085 158.741 126.955 150.815 126.959C149.569 127.15 143.567 127.11 147.702 128.072ZM22.1786 49.5641C25.1278 49.3669 26.7902 46.3641 21.605 46.5342C13.5717 45.718 28.6928 49.2449 20.5754 48.235C19.486 48.9452 22.1136 49.7614 22.1786 49.5641ZM24.7746 50.8587C24.466 48.9964 23.8607 51.8481 24.7746 50.8587V50.8587ZM27.8557 42.7709C29.134 41.2081 26.085 42.3528 27.8557 42.7709V42.7709ZM18.0466 26.6323C23.3123 24.8728 30.5083 22.8921 32.9933 27.501C30.4642 24.5069 31.9717 21.5553 34.3596 25.9384C37.7371 30.3693 39.4271 23.9228 37.2316 22.4349C39.7367 25.4962 42.5811 26.9448 38.9065 22.6292C42.9016 17.8987 30.913 23.2482 28.1886 23.1928C26.8783 23.772 14.6531 26.2618 18.0473 26.6323H18.0466ZM21.1318 20.8179C24.1337 18.5894 31.5139 22.147 26.7778 18.6003C26.3136 18.1984 16.4088 21.2912 21.1318 20.8179ZM32.0754 21.2633C35.5851 21.3501 30.5612 16.616 34.7438 18.762C34.0587 16.5533 29.8719 16.1386 27.8246 15.2555C26.6664 17.2753 30.1792 21.2912 32.0754 21.2633ZM23.051 11.483C24.2656 9.86189 20.9199 12.3078 23.051 11.483V11.483ZM27.5243 12.5358C33.185 11.7984 26.0805 10.1376 26.3808 12.4772L27.5237 12.5358H27.5243ZM19.1722 6.10572C15.1849 0.981043 26.6696 6.96608 22.6179 1.60029C19.2084 -1.07011 15.935 4.61074 19.1722 6.10572ZM70.3199 33.2289C72.1482 30.0404 62.7755 28.9284 69.0899 32.0993C69.6709 32.2894 69.5397 33.4489 70.3199 33.2289ZM33.2071 151.973C32.8028 153.546 32.5521 156.184 32.4583 159.887C32.4583 160.615 32.1257 160.979 31.4582 160.979C30.791 160.979 30.3265 160.661 30.0637 160.028C29.3491 158.316 28.6727 157.122 28.0266 156.44C27.2657 155.644 26.2534 155.163 24.9904 154.998C23.6334 154.787 20.252 154.682 14.8462 154.682C13.6082 154.682 12.7976 154.811 12.4176 155.07C12.1794 155.233 12.0606 155.585 12.0606 156.125V172.058C12.0606 172.598 12.4054 172.855 13.0947 172.832C15.2156 172.808 18.2874 172.666 22.3109 172.41C23.0978 172.315 23.6282 172.063 23.9016 171.652C24.1773 171.242 24.4452 170.183 24.7055 168.47C24.871 167.532 25.4322 167.168 26.3846 167.38C27.1933 167.544 27.5413 167.908 27.4219 168.47C26.7541 171.66 26.5383 175.81 26.7768 180.922C26.8018 181.53 26.409 181.86 25.5984 181.907C24.9306 181.977 24.5137 181.625 24.3482 180.851C23.7307 177.921 22.5791 176.355 20.9023 176.154C19.2231 175.956 16.4885 175.856 12.7032 175.856C12.2745 175.856 12.0606 176.007 12.0606 176.313V192.141C12.0606 193.314 12.4999 194.112 13.3803 194.532C14.0727 194.884 15.5607 195.201 17.8456 195.483C19.0141 195.599 19.5247 196.105 19.3838 196.994C19.2398 197.768 18.1929 198.074 16.2385 197.91C10.5947 197.463 5.93767 197.487 2.27144 197.981C1.24636 198.12 0.736058 197.71 0.736058 196.75C0.736058 196.139 1.24636 195.788 2.27144 195.694C4.60557 195.435 5.77185 193.419 5.77185 189.645V159.535C5.77185 157.989 5.49109 156.799 4.93276 155.966C4.3722 155.133 3.32983 154.376 1.80757 153.697C0.854194 153.275 0.49756 152.701 0.735423 151.973C0.854194 151.529 1.04532 151.281 1.30591 151.235C1.54409 151.164 2.17668 151.211 3.19856 151.377C4.70002 151.611 8.23755 151.729 13.8092 151.729C20.3836 151.729 26.0622 151.587 30.8502 151.306C32.4455 151.211 33.2446 151.34 33.2446 151.692C33.2446 151.787 33.2321 151.88 33.2071 151.973ZM56.374 196.623C56.374 197.561 55.8377 197.971 54.7665 197.854C51.4822 197.548 47.4085 197.594 42.5504 197.993C41.5733 198.088 40.9734 198.064 40.7454 197.925C40.5184 197.783 40.407 197.397 40.407 196.761C40.407 196.2 41.0547 195.726 42.3525 195.338C43.6523 194.952 44.2993 193.797 44.2993 191.875V160.043C44.2993 158.142 44.0192 156.747 43.4612 155.856C42.9003 154.965 41.9181 154.273 40.5136 153.782C39.7748 153.523 39.4047 153.159 39.4047 152.69C39.4047 151.987 39.9406 151.459 41.0124 151.108C42.6326 150.592 44.3121 149.796 46.0511 148.716C47.4802 147.871 48.3859 147.451 48.7652 147.451C49.6456 147.451 50.088 148.047 50.088 149.244C50.088 149.151 50.0403 150.323 49.9437 152.761C49.8742 155.082 49.8498 157.367 49.8742 159.62L50.0154 191.029C50.0154 192.46 50.373 193.498 51.0875 194.143C51.8021 194.787 53.0301 195.215 54.7665 195.426C55.8377 195.542 56.374 195.941 56.374 196.622V196.623ZM88.6843 194.549C88.6843 195.042 87.7738 195.785 85.9526 196.781C84.1297 197.778 82.6708 198.276 81.5763 198.276C80.6462 198.276 79.8257 197.832 79.1112 196.94C78.3966 196.049 77.895 195.604 77.6101 195.604C77.3959 195.604 76.2648 196.085 74.2153 197.045C72.1693 198.007 70.1079 198.489 68.036 198.489C66.0838 198.489 64.4514 197.925 63.142 196.801C61.7129 195.557 60.9984 193.869 60.9984 191.735C60.9984 187.678 65.7143 184.771 75.1459 183.013C76.7636 182.707 77.5873 182.062 77.6094 181.078L77.6821 178.826C77.8255 174.981 76.0987 173.059 72.5019 173.059C71.4775 173.059 70.5075 173.96 69.5887 175.766C68.674 177.573 67.3567 178.545 65.642 178.687C63.6898 178.873 62.7124 178.064 62.7124 176.259C62.7124 175.133 64.1658 173.822 67.0711 172.319C70.1201 170.749 73.0503 169.962 75.8605 169.962C80.6939 169.962 83.0873 172.227 83.0403 176.752L82.8962 191.242C82.8741 192.766 83.5291 193.528 84.8615 193.528C85.1243 193.528 85.6247 193.47 86.362 193.352C87.1015 193.235 87.5305 193.176 87.6499 193.176C88.3395 193.176 88.6843 193.635 88.6843 194.549ZM77.6821 186.531C77.7067 185.943 77.5675 185.555 77.2697 185.37C76.972 185.182 76.504 185.145 75.8605 185.262C70.1201 186.271 67.2497 188.112 67.2497 190.785C67.2497 193.482 68.7384 194.83 71.715 194.83C72.9063 194.83 74.1343 194.608 75.3941 194.163C76.8728 193.645 77.6101 193.025 77.6101 192.297L77.6821 186.53V186.531ZM115.244 190.502C115.244 192.988 114.271 194.965 112.332 196.43C110.391 197.896 107.742 198.628 104.383 198.628C102.145 198.628 99.9048 198.394 97.6671 197.925C95.7366 197.502 94.6178 197.116 94.3085 196.765C94.1171 196.434 94.0229 194.83 94.0229 191.945C94.0229 190.702 94.3085 190.057 94.8806 190.011C95.4517 189.94 95.9409 190.246 96.3452 190.925C98.131 193.997 101.013 195.534 104.991 195.534C108.347 195.534 110.026 194.383 110.026 192.085C110.026 191.078 109.646 190.233 108.883 189.554C108.049 188.78 106.432 187.877 104.026 186.845C100.548 185.322 98.2251 183.985 97.0591 182.835C95.7962 181.616 95.1655 179.975 95.1655 177.91C95.1655 175.377 96.1541 173.409 98.131 172.002C99.9641 170.641 102.418 169.962 105.489 169.962C107.419 169.962 109.181 170.113 110.778 170.419C112.493 170.724 113.386 171.098 113.457 171.545C113.646 172.856 114.041 174.757 114.636 177.244C114.708 177.547 114.373 177.793 113.636 177.981C112.849 178.145 112.326 178.015 112.063 177.595C110.183 174.569 107.801 173.057 104.919 173.057C101.656 173.057 100.024 174.089 100.024 176.152C100.024 177.302 100.465 178.215 101.346 178.894C102.133 179.481 103.978 180.397 106.884 181.64C109.932 182.929 112.004 184.09 113.101 185.121C114.53 186.457 115.244 188.252 115.244 190.502ZM157.272 196.658C157.272 197.478 156.711 197.913 155.592 197.959C153.925 197.983 151.744 198.1 149.055 198.311C147.721 198.569 146.768 198.406 146.197 197.82C142.434 193.834 139.241 189.659 136.621 185.297C136.408 184.923 136.135 184.735 135.8 184.735C135.395 184.735 134.694 185.087 133.694 185.791C132.572 186.399 132.014 187.268 132.014 188.391C132.014 189.19 132.036 190.338 132.086 191.841C132.134 193.34 132.513 194.324 133.227 194.793C133.728 195.124 134.885 195.38 136.693 195.568C137.812 195.709 138.373 196.12 138.373 196.799C138.373 197.339 138.283 197.674 138.104 197.8C137.927 197.929 137.455 197.959 136.693 197.888C134.311 197.678 130.288 197.796 124.62 198.24C123.19 198.357 122.416 198.181 122.297 197.712C122.25 197.549 122.225 197.314 122.225 197.009C122.225 196.284 122.952 195.731 124.406 195.358C125.716 195.028 126.37 193.516 126.37 190.82V160.078C126.37 158.155 126.18 156.819 125.797 156.069C125.274 155.107 124.177 154.356 122.51 153.817C121.726 153.561 121.332 153.197 121.332 152.728C121.332 152.046 121.893 151.519 123.011 151.145C124.811 150.552 126.528 149.736 128.119 148.717C129.43 147.874 130.24 147.451 130.548 147.451C131.526 147.451 132.014 148.06 132.014 149.281C132.014 149.115 132.002 150.278 131.977 152.762C131.951 155.061 131.94 157.359 131.943 159.657L132.014 181.675C132.014 182.285 132.18 182.588 132.513 182.588C132.87 182.588 133.419 182.285 134.158 181.675C136.135 180.15 138.564 178.157 141.444 175.695C142.017 175.109 142.302 174.64 142.302 174.288C142.302 173.656 141.338 173.208 139.41 172.952C138.576 172.856 138.182 172.4 138.228 171.579C138.301 170.759 138.718 170.407 139.479 170.524C141.196 170.759 143.697 170.889 146.981 170.913C149.269 170.934 151.543 170.947 153.806 170.947C154.543 170.971 154.913 171.404 154.913 172.249C154.913 173.045 154.329 173.48 153.163 173.551C151.327 173.619 149.601 174.029 147.984 174.781C145.721 175.788 143.302 177.559 140.73 180.092C140.541 180.233 140.444 180.409 140.444 180.619C140.444 180.947 140.849 181.733 141.66 182.976C144.637 187.432 147.447 190.795 150.09 193.071C151.781 194.501 153.364 195.216 154.84 195.216C155.937 195.216 156.616 195.292 156.877 195.445C157.14 195.598 157.272 196.002 157.272 196.658Z" fill="#959595"/>
</svg>
