<svg width="21" height="21" viewBox="0 0 21 21" fill="none" xmlns="http://www.w3.org/2000/svg">
<path d="M20.3504 4.076C20.3504 3.52371 19.9027 3.076 19.3504 3.076L18.058 3.076C17.5061 3.076 17.0586 3.5231 17.058 4.07499L17.0498 12.301C17.0489 13.1914 15.9723 13.6367 15.3427 13.0071L3.55019 1.21461C3.15967 0.824081 2.52651 0.824081 2.13598 1.2146L1.21589 2.1347C0.825363 2.52522 0.825362 3.15839 1.21589 3.54891L13.0084 15.3414C13.638 15.971 13.1927 17.0476 12.3023 17.0485L4.07628 17.0568C3.52439 17.0573 3.07728 17.5049 3.07728 18.0568L3.07728 19.3491C3.07728 19.9014 3.525 20.3491 4.07728 20.3491L19.3504 20.3491C19.9027 20.3491 20.3504 19.9014 20.3504 19.3491L20.3504 4.076Z" fill="#333F53"/>
</svg>
