<svg width="29" height="29" viewBox="0 0 29 29" fill="none" xmlns="http://www.w3.org/2000/svg">
<path d="M28.3027 4.6523C28.3027 4.10001 27.855 3.6523 27.3027 3.6523L24.6042 3.6523C24.0523 3.6523 23.6048 4.0994 23.6042 4.65129L23.591 17.8481C23.5901 18.7385 22.5135 19.1838 21.8839 18.5542L4.02331 0.693638C3.63279 0.303114 2.99962 0.303114 2.6091 0.693638L0.691782 2.61095C0.301258 3.00148 0.301257 3.63464 0.691782 4.02517L18.5524 21.8857C19.182 22.5154 18.7367 23.592 17.8462 23.5928L4.64944 23.6061C4.09755 23.6066 3.65044 24.0542 3.65044 24.6061V27.3045C3.65044 27.8568 4.09816 28.3045 4.65044 28.3045H27.3027C27.855 28.3045 28.3027 27.8568 28.3027 27.3045V4.6523Z" fill="#448FFF"/>
</svg>
