<svg width="97" height="121" viewBox="0 0 97 121" fill="none" xmlns="http://www.w3.org/2000/svg">
<path d="M44.3908 38V16.58H52.1308V38H44.3908ZM84.3034 22.64H74.6134V38H66.8734V22.64H57.1534V16.58H84.3034V22.64ZM29.9692 62.88H41.9992L43.4992 66H51.9892L41.1892 44.58H30.8692L19.9492 66H28.4392L29.9692 62.88ZM36.0592 50.7L39.4792 57.72H32.4592L35.8792 50.7H36.0592ZM74.8192 53.13C74.7392 52.57 74.4692 52.03 74.0092 51.51C73.5692 50.97 72.9292 50.53 72.0892 50.19C71.2492 49.83 70.2292 49.65 69.0292 49.65C66.8292 49.65 65.1592 50.14 64.0192 51.12C62.8792 52.1 62.3092 53.49 62.3092 55.29C62.3092 57.09 62.8792 58.48 64.0192 59.46C65.1592 60.44 66.8292 60.93 69.0292 60.93C70.8292 60.93 72.2092 60.56 73.1692 59.82C74.1292 59.08 74.6692 58.14 74.7892 57H84.0592C83.9792 60.22 82.6792 62.65 80.1592 64.29C77.6392 65.93 73.9392 66.75 69.0592 66.75C58.8992 66.75 53.8192 62.93 53.8192 55.29C53.8192 47.65 58.8992 43.83 69.0592 43.83C73.8992 43.83 77.5792 44.63 80.0992 46.23C82.6192 47.81 83.9192 50.11 83.9992 53.13H74.8192ZM49.866 80.71H33.996V77.65H50.586V72.58H26.256V94H50.886V88.81H33.996V85.36H49.866V80.71ZM74.4721 79.06C74.3121 78.2 73.8021 77.58 72.9421 77.2C72.1021 76.82 70.8821 76.63 69.2821 76.63C67.6421 76.63 66.4721 76.79 65.7721 77.11C65.0721 77.41 64.7221 77.86 64.7221 78.46C64.7221 78.94 64.9321 79.29 65.3521 79.51C65.7721 79.73 66.4921 79.89 67.5121 79.99L76.2421 80.71C78.8821 80.93 80.8621 81.56 82.1821 82.6C83.5221 83.64 84.1921 85.21 84.1921 87.31C84.1921 89.29 83.6521 90.82 82.5721 91.9C81.5121 92.98 79.9421 93.72 77.8621 94.12C75.8021 94.54 73.0721 94.75 69.6721 94.75C66.4121 94.75 63.7721 94.53 61.7521 94.09C59.7321 93.65 58.1721 92.86 57.0721 91.72C55.9921 90.58 55.4121 88.97 55.3321 86.89H64.3321C64.5521 88.03 65.1021 88.82 65.9821 89.26C66.8821 89.68 68.2121 89.89 69.9721 89.89C71.7721 89.89 73.0621 89.73 73.8421 89.41C74.6421 89.07 75.0421 88.55 75.0421 87.85C75.0421 87.27 74.8121 86.85 74.3521 86.59C73.8921 86.33 73.2021 86.16 72.2821 86.08L63.8821 85.27C61.2221 85.01 59.2221 84.4 57.8821 83.44C56.5421 82.48 55.8721 80.95 55.8721 78.85C55.8721 77.07 56.4021 75.67 57.4621 74.65C58.5421 73.61 60.0721 72.88 62.0521 72.46C64.0521 72.04 66.5521 71.83 69.5521 71.83C72.5321 71.83 75.0121 72.05 76.9921 72.49C78.9721 72.91 80.5121 73.65 81.6121 74.71C82.7321 75.77 83.3221 77.22 83.3821 79.06H74.4721Z" fill="white"/>
<path d="M44.3908 38V16.58H52.1308V38H44.3908ZM84.3034 22.64H74.6134V38H66.8734V22.64H57.1534V16.58H84.3034V22.64ZM29.9692 62.88H41.9992L43.4992 66H51.9892L41.1892 44.58H30.8692L19.9492 66H28.4392L29.9692 62.88ZM36.0592 50.7L39.4792 57.72H32.4592L35.8792 50.7H36.0592ZM74.8192 53.13C74.7392 52.57 74.4692 52.03 74.0092 51.51C73.5692 50.97 72.9292 50.53 72.0892 50.19C71.2492 49.83 70.2292 49.65 69.0292 49.65C66.8292 49.65 65.1592 50.14 64.0192 51.12C62.8792 52.1 62.3092 53.49 62.3092 55.29C62.3092 57.09 62.8792 58.48 64.0192 59.46C65.1592 60.44 66.8292 60.93 69.0292 60.93C70.8292 60.93 72.2092 60.56 73.1692 59.82C74.1292 59.08 74.6692 58.14 74.7892 57H84.0592C83.9792 60.22 82.6792 62.65 80.1592 64.29C77.6392 65.93 73.9392 66.75 69.0592 66.75C58.8992 66.75 53.8192 62.93 53.8192 55.29C53.8192 47.65 58.8992 43.83 69.0592 43.83C73.8992 43.83 77.5792 44.63 80.0992 46.23C82.6192 47.81 83.9192 50.11 83.9992 53.13H74.8192ZM49.866 80.71H33.996V77.65H50.586V72.58H26.256V94H50.886V88.81H33.996V85.36H49.866V80.71ZM74.4721 79.06C74.3121 78.2 73.8021 77.58 72.9421 77.2C72.1021 76.82 70.8821 76.63 69.2821 76.63C67.6421 76.63 66.4721 76.79 65.7721 77.11C65.0721 77.41 64.7221 77.86 64.7221 78.46C64.7221 78.94 64.9321 79.29 65.3521 79.51C65.7721 79.73 66.4921 79.89 67.5121 79.99L76.2421 80.71C78.8821 80.93 80.8621 81.56 82.1821 82.6C83.5221 83.64 84.1921 85.21 84.1921 87.31C84.1921 89.29 83.6521 90.82 82.5721 91.9C81.5121 92.98 79.9421 93.72 77.8621 94.12C75.8021 94.54 73.0721 94.75 69.6721 94.75C66.4121 94.75 63.7721 94.53 61.7521 94.09C59.7321 93.65 58.1721 92.86 57.0721 91.72C55.9921 90.58 55.4121 88.97 55.3321 86.89H64.3321C64.5521 88.03 65.1021 88.82 65.9821 89.26C66.8821 89.68 68.2121 89.89 69.9721 89.89C71.7721 89.89 73.0621 89.73 73.8421 89.41C74.6421 89.07 75.0421 88.55 75.0421 87.85C75.0421 87.27 74.8121 86.85 74.3521 86.59C73.8921 86.33 73.2021 86.16 72.2821 86.08L63.8821 85.27C61.2221 85.01 59.2221 84.4 57.8821 83.44C56.5421 82.48 55.8721 80.95 55.8721 78.85C55.8721 77.07 56.4021 75.67 57.4621 74.65C58.5421 73.61 60.0721 72.88 62.0521 72.46C64.0521 72.04 66.5521 71.83 69.5521 71.83C72.5321 71.83 75.0121 72.05 76.9921 72.49C78.9721 72.91 80.5121 73.65 81.6121 74.71C82.7321 75.77 83.3221 77.22 83.3821 79.06H74.4721Z" stroke="white"/>
<path d="M10 -4.5H86.9206C91.615 -4.5 95.4206 -0.694422 95.4206 4V110.594C95.4206 115.289 91.615 119.094 86.9206 119.094H9.99999C5.30557 119.094 1.5 115.289 1.5 110.594V4.00001C1.5 -0.694416 5.30558 -4.5 10 -4.5Z" stroke="url(#paint0_linear)" stroke-width="3"/>
<defs>
<linearGradient id="paint0_linear" x1="89.9031" y1="136.563" x2="37.9813" y2="86.9484" gradientUnits="userSpaceOnUse">
<stop stop-color="white"/>
<stop offset="1" stop-color="white" stop-opacity="0"/>
</linearGradient>
</defs>
</svg>
