<svg width="196" height="174" viewBox="0 0 196 174" fill="none" xmlns="http://www.w3.org/2000/svg">
<path d="M161.124 56.1205C159.106 55.544 156.8 54.6793 154.782 54.1028C155.071 52.6617 155.359 51.2205 155.647 49.7793C160.547 26.7205 157.376 8.27344 146.712 2.2205C136.624 -3.54421 119.906 2.50874 102.9 16.9205C101.171 18.3617 99.7294 19.8029 98 21.244C96.8471 20.0911 95.9824 19.2264 94.8294 18.3617C77.2471 2.79697 59.3765 -3.83244 48.7118 2.2205C38.3353 7.9852 35.4529 25.5676 39.7765 47.1852C40.0647 49.2028 40.6412 51.5087 41.2176 53.5264C38.6235 54.1029 36.3176 54.9676 34.0118 55.8323C13.2588 63.6146 0 74.8558 0 86.3852C0 98.4911 14.1235 110.597 35.7412 117.803C37.4706 118.379 39.2 118.956 40.9294 119.532C40.3529 121.838 39.7765 124.144 39.4882 126.45C35.1647 147.779 38.6235 164.785 48.7118 170.838C59.3765 176.891 76.9588 170.55 93.9647 155.85C95.4059 154.697 96.5588 153.544 98.2882 152.103C100.018 153.832 101.747 155.273 103.476 157.003C120.194 171.126 136.624 176.891 146.712 171.126C157.088 165.073 160.547 146.915 156.224 124.72C155.935 122.991 155.359 121.262 155.071 119.532C156.224 119.244 157.665 118.668 158.818 118.379C181.3 110.885 196 99.0675 196 86.9617C196 74.8558 182.165 63.3264 161.124 56.1205ZM108.376 23.5499C122.788 11.1558 136.335 6.25579 142.388 9.71462C149.018 13.4617 151.612 28.7381 147.288 48.3381C147 49.4911 146.712 50.9323 146.424 52.0852C137.776 50.0676 129.129 48.6264 120.194 48.0499C115.006 40.844 109.529 33.9264 103.765 27.5852C105.494 26.144 106.935 24.7028 108.376 23.5499ZM62.2588 86.6734C64.8529 81.4852 67.4471 76.297 70.6176 71.1087C73.5 65.9205 76.9588 61.0205 80.1294 56.1205C85.8941 55.544 91.9471 55.544 98 55.544C104.053 55.544 110.106 55.8323 115.871 56.1205C119.041 61.0205 122.212 65.9205 125.382 71.1087C128.553 76.297 131.147 81.4852 133.741 86.6734C131.147 91.8617 128.265 97.0499 125.382 102.526C122.5 108.003 119.041 112.903 115.871 117.515C110.106 117.803 104.053 118.091 98 118.091C91.9471 118.091 85.8941 117.803 80.1294 117.515C76.9588 112.615 73.5 107.715 70.6176 102.526C67.7353 97.0499 64.8529 91.8617 62.2588 86.6734ZM57.9353 96.4734C59.6647 99.9323 61.6824 103.103 63.4118 106.562C65.4294 110.02 67.4471 113.191 69.4647 116.65C63.1235 115.785 57.0706 114.92 51.3059 113.768C53.3235 107.715 55.3412 101.95 57.9353 96.4734ZM57.9353 76.8734C55.3412 71.1087 53.3235 65.6323 51.5941 60.1558C57.0706 59.0028 63.1235 57.8499 69.4647 56.9852C67.4471 60.1558 65.4294 63.3264 63.4118 66.7852C61.3941 70.244 59.6647 73.4146 57.9353 76.8734ZM132.588 106.273C134.606 102.815 136.624 99.3558 138.353 95.897C140.947 101.373 142.965 107.138 144.982 112.903C138.929 114.344 132.876 115.209 126.824 116.073C128.553 113.191 130.571 109.732 132.588 106.273ZM138.065 76.8734C136.335 73.4146 134.318 70.244 132.3 66.7852C130.282 63.3264 128.265 60.1558 126.247 56.9852C132.588 57.8499 138.353 58.7146 144.118 60.1558C142.676 65.9205 140.659 71.397 138.065 76.8734ZM98 33.3499C102.035 37.6734 105.782 42.2852 109.529 47.1852C105.782 46.897 101.747 46.897 98 46.897C93.9647 46.897 90.2176 46.897 86.4706 47.1852C90.2176 42.2852 94.2529 37.6734 98 33.3499ZM53.0353 9.71462C59.6647 5.96756 74.0765 11.444 89.3529 24.7028C90.2176 25.5676 91.3706 26.4323 92.2353 27.297C86.1823 33.6381 80.7059 40.5558 75.5176 47.7617C66.8706 48.6264 57.9353 49.7793 49.2882 51.797C48.7118 49.7793 48.4235 47.7617 47.8471 45.744C44.3882 27.297 46.6941 13.1734 53.0353 9.71462ZM43.2353 111.75C41.5059 111.173 40.0647 110.885 38.3353 110.309C29.9765 107.715 22.1941 103.679 15.5647 98.2028C10.6647 94.1676 8.35883 89.844 8.35883 86.6734C8.35883 79.4676 19.0235 70.5323 36.6059 64.4793C38.6235 63.6146 40.9294 63.0381 43.2353 62.4617C45.8294 70.8205 49 79.1793 52.7471 86.9617C49.2882 94.744 46.1176 103.103 43.2353 111.75ZM88.7765 149.509C82.4353 155.273 74.9412 159.885 66.8706 163.056C60.8176 165.073 55.9176 165.073 53.0353 163.632C46.9824 160.173 44.3882 146.338 47.8471 128.179C48.1353 126.162 48.7118 124.144 49.2882 121.838C57.9353 123.568 66.8706 125.009 75.8059 125.585C80.9941 132.791 86.4706 139.709 92.5235 146.338C91.0823 147.203 89.9294 148.356 88.7765 149.509ZM98.2882 139.997C94.2529 135.962 90.5059 131.062 86.4706 125.873C90.2176 126.162 93.9647 126.162 98 126.162C101.747 126.162 106.071 126.162 109.818 125.873C106.071 130.773 102.324 135.673 98.2882 139.997ZM149.018 151.526C147.865 157.868 145.559 161.903 142.676 163.632C136.624 167.091 123.365 162.479 109.241 150.373C107.512 148.932 106.071 147.491 104.341 145.762C110.394 139.132 115.871 132.215 120.771 125.009C129.706 124.144 138.641 122.991 147.288 120.973C147.576 122.703 148.153 124.144 148.441 125.585C150.171 134.232 150.459 142.879 149.018 151.526ZM156.224 110.02L152.765 111.173C149.882 102.815 146.712 94.4558 142.965 86.6734C146.712 78.8911 149.882 70.8205 152.476 62.4617C154.494 63.0381 156.512 63.6146 158.241 64.1911C176.4 70.5323 187.353 79.4676 187.353 86.6734C187.641 93.8793 175.535 103.679 156.224 110.02Z" fill="#959595"/>
<path d="M113.345 93.7697C117.061 84.7982 112.92 74.5621 104.096 70.9069C95.2713 67.2516 85.1051 71.5612 81.3889 80.5327C77.6727 89.5042 81.8138 99.7403 90.6382 103.396C99.4626 107.051 109.629 102.741 113.345 93.7697Z" fill="#959595"/>
</svg>
