<svg width="175" height="155" viewBox="0 0 175 155" fill="none" xmlns="http://www.w3.org/2000/svg">
<path d="M132 144.276C111.386 156.046 83.0428 157.256 54.5271 145.175C31.4385 135.466 12.2808 118.47 0 99.0508C5.89485 103.906 12.7721 107.791 20.1404 111.188C49.5888 124.831 79.0314 123.897 99.7512 111.223C99.738 111.209 99.729 111.201 99.7203 111.188C70.2461 88.8522 45.1932 59.7193 26.5271 35.9302C22.5956 32.0453 19.6482 27.1896 16.7008 22.82C39.2975 43.2127 75.1591 68.9445 87.9284 76.2313C60.9144 48.0675 36.842 13.1104 37.8227 14.0798C80.5609 56.8078 120.353 81.0858 120.353 81.0858C121.669 81.8195 122.685 82.4304 123.502 82.9763C124.364 80.8108 125.119 78.5624 125.755 76.2313C132.632 51.4682 124.774 23.3047 107.579 0C147.367 23.7914 170.948 68.4601 161.121 105.849C160.865 106.857 160.587 107.852 160.286 108.831C160.401 108.966 160.516 109.106 160.631 109.25C180.278 133.528 174.877 159.26 172.42 154.405C161.762 133.79 142.031 140.094 132 144.276L132 144.276Z" fill="#959595"/>
</svg>
