<svg width="329" height="81" viewBox="0 0 329 81" fill="none" xmlns="http://www.w3.org/2000/svg">
<g filter="url(#filter0_i_796)">
<path d="M0.475943 22.8053C0.634592 22.9656 0.634597 23.2861 0.951896 23.6067C0.475947 22.9656 0.317298 22.645 0.158648 22.4847C0.475947 23.2861 1.42784 24.889 2.85569 27.774C4.28353 30.4988 6.34598 34.5059 8.72573 39.154C11.1055 43.8022 13.9612 48.7709 16.9755 53.5794C19.8312 58.3878 22.8455 62.8757 25.5426 66.7225C28.2396 70.5693 30.4607 73.7749 32.0472 75.8586C33.6337 77.9422 34.427 79.0642 34.9029 79.7053C35.3788 80.3465 35.5375 80.3465 35.6961 80.3465C35.8548 80.3465 36.0134 80.3464 36.8067 79.3848C37.5999 78.5834 39.0278 76.8202 41.7248 73.4543C44.4219 70.0884 48.5468 65.28 53.1476 59.5098C57.7484 53.7397 62.8252 47.1681 67.7434 40.5966C77.421 27.4535 85.9881 13.9898 90.4302 7.25797L92.334 4.21261C94.8724 0.20557 94.8724 0.205571 94.8724 0.0452889C94.7138 -0.114993 94.5551 0.0452884 92.334 2.28923L91.2235 3.41121C89.637 5.01402 87.0986 7.57853 83.9256 10.7842C80.7526 13.9898 76.7864 17.9968 72.0269 22.8053C66.4742 28.4152 59.9695 34.9867 54.0995 40.7569C49.816 44.9242 46.0084 48.7709 43.3113 51.4957C41.7248 53.0986 40.4556 54.3808 39.5037 55.3425C36.8067 58.0673 36.648 58.2276 36.648 58.2276C36.648 58.2276 36.648 58.2276 36.1721 57.907C35.6961 57.5864 35.0615 56.785 33.6337 55.3425C32.8405 54.5411 31.8886 53.5794 30.778 52.4574C27.9223 49.4121 23.7974 45.405 19.6725 41.2377C16.8169 38.3526 13.8025 35.4676 11.2641 32.7428C8.56707 30.1783 6.34599 27.774 4.60084 26.1712L0.634602 22.3245C3.59338e-06 21.6833 -0.158651 21.523 0.158648 22.4847C0.158648 22.4847 0.158646 22.4847 0.317295 22.645L0.475943 22.8053ZM94.0792 0.0452889L93.9205 0.205571C94.0792 0.0452888 94.0792 0.0452889 94.0792 0.0452889ZM0.158648 22.4847C-1.25295e-06 22.4847 -3.68794e-06 22.4847 0.317295 22.645L0.158648 22.4847Z" fill="#B8E5FF"/>
<path d="M27.9236 15.9133C29.5101 14.1502 31.8898 13.1885 34.4282 13.1885C36.9666 13.1885 39.1877 14.3104 40.9329 15.9133C42.5194 17.6764 43.6299 20.0806 43.6299 22.6451C43.6299 25.2096 42.678 27.6138 40.9329 29.3769C39.1877 31.14 36.9666 32.1017 34.4282 32.1017C31.8898 32.1017 29.6688 30.9798 27.9236 29.3769C26.3371 27.6138 25.2266 25.2096 25.2266 22.6451C25.2266 20.0806 26.3371 17.6764 27.9236 15.9133Z" fill="#B8E5FF"/>
<path d="M115.156 60.5864V28.7696H121.125L130.798 43.8127L140.472 28.7696H146.418V60.5864H140.827V37.7777L130.798 52.7764H130.621L120.659 37.8665V60.5864H115.156Z" fill="#B8E5FF"/>
<path d="M154.606 60.5864V28.7696H176.016V33.8284H160.152V60.5864H154.606Z" fill="#B8E5FF"/>
<path d="M179.633 44.4118C179.633 40.2997 181.053 36.979 183.893 34.4496C186.748 31.9054 190.631 30.6334 195.541 30.6334V27.6381H201.088V30.6334C205.999 30.6334 209.874 31.9054 212.714 34.4496C215.569 36.9938 216.997 40.3293 216.997 44.4561C216.997 48.583 215.577 51.9333 212.737 54.5071C209.897 57.0808 206.014 58.3677 201.088 58.3677V61.8067H195.541V58.3677C190.631 58.3677 186.748 57.0808 183.893 54.5071C181.053 51.9185 179.633 48.5534 179.633 44.4118ZM185.357 44.5005C185.357 47.2961 186.26 49.4779 188.064 51.0458C189.884 52.6137 192.376 53.3977 195.541 53.3977V35.6477C192.391 35.6477 189.906 36.4317 188.086 37.9996C186.267 39.5675 185.357 41.7345 185.357 44.5005ZM201.088 53.3977C204.268 53.3977 206.761 52.6211 208.565 51.068C210.37 49.5001 211.272 47.3109 211.272 44.5005C211.272 41.7345 210.363 39.5675 208.543 37.9996C206.739 36.4317 204.254 35.6477 201.088 35.6477V53.3977Z" fill="#B8E5FF"/>
<path d="M221.856 44.678C221.856 42.4593 222.27 40.3515 223.098 38.3546C223.926 36.3429 225.065 34.5975 226.515 33.1184C227.965 31.6244 229.732 30.4411 231.818 29.5684C233.903 28.6809 236.137 28.2371 238.518 28.2371C240.915 28.2371 243.148 28.6735 245.219 29.5462C247.29 30.4041 249.043 31.5726 250.477 33.0518C251.927 34.531 253.059 36.2764 253.872 38.288C254.7 40.2997 255.115 42.4297 255.115 44.678C255.115 46.8968 254.7 49.012 253.872 51.0236C253.044 53.0353 251.905 54.7881 250.455 56.282C249.006 57.7612 247.231 58.9445 245.13 59.832C243.045 60.7047 240.811 61.1411 238.43 61.1411C235.249 61.1411 232.387 60.4015 229.843 58.9224C227.299 57.4284 225.332 55.4315 223.941 52.9317C222.551 50.432 221.856 47.6807 221.856 44.678ZM227.713 44.678C227.713 46.7341 228.164 48.6274 229.067 50.358C229.984 52.0738 231.271 53.4421 232.927 54.4627C234.599 55.4833 236.462 55.9936 238.518 55.9936C240.574 55.9936 242.423 55.4907 244.065 54.4849C245.722 53.4642 247.001 52.096 247.904 50.3802C248.806 48.6644 249.257 46.7636 249.257 44.678C249.257 42.622 248.799 40.736 247.882 39.0202C246.964 37.2896 245.67 35.914 243.999 34.8934C242.342 33.8727 240.486 33.3624 238.43 33.3624C236.374 33.3624 234.517 33.8727 232.861 34.8934C231.219 35.8992 229.947 37.26 229.044 38.9758C228.157 40.6917 227.713 42.5924 227.713 44.678Z" fill="#B8E5FF"/>
<path d="M261.86 60.5864V28.7696H267.828L277.502 43.8127L287.175 28.7696H293.122V60.5864H287.53V37.7777L277.502 52.7764H277.324L267.362 37.8665V60.5864H261.86Z" fill="#B8E5FF"/>
<path d="M299.911 44.678C299.911 42.4297 300.318 40.2997 301.131 38.288C301.945 36.2764 303.062 34.531 304.482 33.0518C305.902 31.5726 307.64 30.4041 309.696 29.5462C311.752 28.6735 313.956 28.2371 316.308 28.2371C319.044 28.2371 321.381 28.6661 323.319 29.524C325.271 30.3671 327.083 31.5874 328.755 33.1849L325.183 37.3118C323.792 36.0397 322.387 35.0635 320.967 34.383C319.547 33.7026 317.979 33.3624 316.263 33.3624C314.281 33.3624 312.484 33.8653 310.872 34.8712C309.259 35.877 308.002 37.2452 307.1 38.9758C306.212 40.6917 305.769 42.5924 305.769 44.678C305.769 47.8286 306.767 50.5059 308.764 52.7099C310.761 54.899 313.261 55.9936 316.263 55.9936C318.097 55.9936 319.702 55.6534 321.078 54.973C322.468 54.2926 323.91 53.2572 325.404 51.8667L328.999 55.5055C327.815 56.7332 326.64 57.739 325.471 58.523C324.317 59.3069 322.942 59.943 321.344 60.4311C319.761 60.9044 318.009 61.1411 316.086 61.1411C313.053 61.1411 310.295 60.4163 307.81 58.9667C305.34 57.5171 303.402 55.5351 301.997 53.0205C300.606 50.5059 299.911 47.7251 299.911 44.678Z" fill="#B8E5FF"/>
</g>
<defs>
<filter id="filter0_i_796" x="0" y="0" width="333" height="84.3464" filterUnits="userSpaceOnUse" color-interpolation-filters="sRGB">
<feFlood flood-opacity="0" result="BackgroundImageFix"/>
<feBlend mode="normal" in="SourceGraphic" in2="BackgroundImageFix" result="shape"/>
<feColorMatrix in="SourceAlpha" type="matrix" values="0 0 0 0 0 0 0 0 0 0 0 0 0 0 0 0 0 0 127 0" result="hardAlpha"/>
<feOffset dx="4" dy="4"/>
<feGaussianBlur stdDeviation="2"/>
<feComposite in2="hardAlpha" operator="arithmetic" k2="-1" k3="1"/>
<feColorMatrix type="matrix" values="0 0 0 0 0 0 0 0 0 0 0 0 0 0 0 0 0 0 0.03 0"/>
<feBlend mode="normal" in2="shape" result="effect1_innerShadow_796"/>
</filter>
</defs>
</svg>
