<svg width="235" height="13" viewBox="0 0 235 13" fill="none" xmlns="http://www.w3.org/2000/svg">
<path d="M51.2825 9.45087V7.08574H60.4964V4.84586H51.2825V2.65414H61.4271V0H51.6548C49.5981 0 48.1602 1.1368 48.1602 3.55973V12.1002H58.03C60.287 12.1002 61.6179 11.7486 61.8366 9.45087H51.2825Z" fill="#CDEDFF"/>
<path d="M163.537 0H159.717C157.087 0 154.746 0.684007 154.746 4.33526V7.70713C154.746 11.3825 157.073 12.0906 159.717 12.0906H163.537C166.189 12.0906 168.525 11.3825 168.525 7.70713V4.33526C168.525 0.66474 166.074 0 163.537 0ZM165.376 7.27842C165.376 9.04142 164.645 9.23411 163.537 9.23411H159.717C158.614 9.23411 157.897 9.04142 157.897 7.27842V4.81695C157.897 3.04913 158.614 2.89018 159.717 2.89018H163.537C164.565 2.89018 165.376 3.05876 165.376 4.81695V7.27842Z" fill="#CDEDFF"/>
<path d="M196.195 1.69075L190.205 8.12139V0H187.102V12.1002H189.08C190.304 12.1002 190.94 11.315 191.778 10.4094L197.773 3.95954V12.1002H200.876V0H198.898C197.674 0 197.036 0.785163 196.186 1.69075" fill="#CDEDFF"/>
<path d="M225.916 0C224.819 0 224.162 0.751445 223.66 1.763L218.504 12.1002H221.994L223.018 10.0241H230.463L231.51 12.1002H235L228.95 0H225.916ZM224.25 7.51927L226.708 2.54335L229.216 7.50481L224.25 7.51927Z" fill="#CDEDFF"/>
<path d="M214.074 0L214.088 4.84103H206.55L206.54 0H203.441V12.1002H206.559L206.554 7.08574H214.097L214.111 12.1002H217.229V0H214.074Z" fill="#CDEDFF"/>
<path d="M154.125 11.5607C153.659 10.6599 153.086 10 152.189 9.86994H152.118L147.204 0H144.18C143.091 0 142.435 0.741811 141.937 1.74374L137.893 9.86513C137.018 10.0096 136.437 10.6551 135.995 11.5414L135.734 12.0424V12.0809H154.39V12.0424L154.125 11.5607ZM141.347 9.86994L144.967 2.54335L148.662 9.86994H141.347Z" fill="#CDEDFF"/>
<path d="M179.786 0H176.756C175.668 0 175.021 0.741811 174.514 1.74374L169.344 12.1002H172.866L177.519 2.53372L182.415 12.1002H185.822L179.786 0Z" fill="#CDEDFF"/>
<path d="M73.4907 0H63.9883V12.1002H67.0969V8.99326H73.4907C76.7482 8.99326 77.4834 7.842 77.4834 4.44605C77.4834 1.27167 76.3945 0 73.4907 0ZM73.1184 6.18979H67.0969V2.81792H73.1184C74.3469 2.81792 74.2865 3.19846 74.2865 4.45568C74.2865 6.00674 74.3469 6.19942 73.1184 6.19942" fill="#CDEDFF"/>
<path d="M102.522 0C101.429 0 100.773 0.751445 100.27 1.75819L95.1094 12.1002H98.5995L99.628 10.0241H107.073L108.116 12.1002H111.587L105.58 0H102.522ZM100.856 7.50963L103.309 2.54335L105.812 7.50481L100.856 7.50963Z" fill="#CDEDFF"/>
<path d="M3.16436 6.77263V5.11561C3.16436 3.4104 3.48544 2.89018 4.7605 2.89018H13.5323C13.1833 0.356454 11.5964 0 9.24179 0H5.11881C2.17782 0 0 0.563584 0 4.49422V7.58188C0 11.9172 2.44307 12.1002 5.14673 12.1002H8.91138C10.3679 12.1002 11.5127 12.1002 12.555 11.2235C13.1076 10.7081 13.4612 10.0032 13.5509 9.23892H4.81169C3.38773 9.23892 3.16436 8.55492 3.16436 6.77263Z" fill="#CDEDFF"/>
<path d="M43.5814 6.01156V5.89114C45.131 5.63102 45.4149 4.63391 45.4149 3.10212C45.4149 0.452794 44.0561 0 41.7293 0H31.957V12.1002H41.8224C44.2934 12.1002 45.6289 11.6956 45.6289 8.72833C45.6289 7.21099 45.3405 6.13199 43.6047 6.00674L43.5814 6.01156ZM35.0749 2.63487H41.3198C42.204 2.63487 42.3017 2.94798 42.3017 3.66088C42.3017 4.62428 42.0364 4.82659 40.9522 4.82659H35.0516L35.0749 2.63487ZM41.0778 9.43641H35.0516V7.08093H41.1011C42.1109 7.08093 42.4692 7.23507 42.4692 8.22736C42.4692 9.21966 42.0411 9.45087 41.0359 9.45087" fill="#CDEDFF"/>
<path d="M90.6668 0L90.6808 4.84103H83.1422L83.1329 0H80.043V12.1002H83.1608L83.1468 7.08574H90.6901L90.7041 12.1002H93.822V0H90.6668Z" fill="#CDEDFF"/>
<path d="M116.885 0C113.995 0 112.897 1.27167 112.897 4.44124C112.897 7.81311 113.623 8.98362 116.885 8.98362H117.043L112.613 12.1002H117.267L121.776 8.98362H123.27V12.1002H126.388V0H116.885ZM123.27 6.18015H117.267C116.038 6.18015 116.099 5.99229 116.099 4.44124C116.099 3.18882 116.038 2.80347 117.267 2.80347H123.27V6.18015Z" fill="#CDEDFF"/>
<path d="M19.2272 9.45087V7.08574H28.4597V4.84586H19.2272V2.65414H29.3765V0H19.6042C17.5473 0 16.1094 1.1368 16.1094 3.55973V12.1002H25.9747C28.2363 12.1002 29.5672 11.7486 29.7813 9.45087H19.2272Z" fill="#CDEDFF"/>
</svg>
