<svg width="31" height="31" viewBox="0 0 31 31" fill="none" xmlns="http://www.w3.org/2000/svg">
<path fill-rule="evenodd" clip-rule="evenodd" d="M15.5 0C6.93958 0 0 6.93945 0 15.5C0 24.0024 6.84595 30.9067 15.3264 31V18.8809H12.1217V14.5176H15.3264V10.79C15.3264 7.86133 17.2198 5.17236 21.5815 5.17236C23.3475 5.17236 24.6534 5.3418 24.6534 5.3418L24.5508 9.4165C24.5508 9.4165 23.219 9.40381 21.7656 9.40381C20.1927 9.40381 19.9406 10.1284 19.9406 11.3315V14.5176H24.6758L24.4694 18.8809H19.9406V30.3545C26.337 28.4453 31 22.5171 31 15.5C31 6.93945 24.0604 0 15.5 0Z" fill="#333F53"/>
</svg>
