<svg width="31" height="31" viewBox="0 0 31 31" fill="none" xmlns="http://www.w3.org/2000/svg">
<circle cx="15.5" cy="15.5" r="15.5" fill="#333F53"/>
<path d="M15.375 24.75C13.7604 24.75 12.2435 24.3594 10.8242 23.5781L6 24.75L7.17188 19.9258C6.39062 18.5065 6 16.9896 6 15.375C6 14.099 6.2474 12.8848 6.74219 11.7324C7.23698 10.5801 7.9043 9.58398 8.74414 8.74414C9.58398 7.9043 10.5801 7.23698 11.7324 6.74219C12.8848 6.2474 14.099 6 15.375 6C16.651 6 17.8652 6.2474 19.0176 6.74219C20.1699 7.23698 21.166 7.9043 22.0059 8.74414C22.8457 9.58398 23.513 10.5801 24.0078 11.7324C24.5026 12.8848 24.75 14.099 24.75 15.375C24.75 16.651 24.5026 17.8652 24.0078 19.0176C23.513 20.1699 22.8457 21.166 22.0059 22.0059C21.166 22.8457 20.1699 23.513 19.0176 24.0078C17.8652 24.5026 16.651 24.75 15.375 24.75Z" fill="#F5FCFF"/>
<path d="M19.8056 19.9844C19.1962 20.5938 18.247 20.6836 16.9579 20.2539C15.6689 19.8242 14.4189 19.0039 13.2079 17.793C11.997 16.582 11.1767 15.332 10.747 14.043C10.3173 12.7539 10.4072 11.8047 11.0165 11.1953L12.1181 10.0938C12.2118 10 12.372 10.0117 12.5986 10.1289C12.8251 10.2461 13.0322 10.4375 13.2197 10.7031C13.4072 10.9688 13.5009 11.2344 13.5009 11.5V13L12.7509 13.8438C12.9384 14.5469 13.5439 15.4102 14.5673 16.4336C15.5908 17.457 16.454 18.0625 17.1572 18.25L18.0009 17.5H19.5009C19.7665 17.5 20.0322 17.5938 20.2978 17.7813C20.5634 17.9688 20.7548 18.1758 20.872 18.4023C20.9892 18.6289 21.0009 18.7891 20.9072 18.8828L19.8056 19.9844Z" fill="#333F53"/>
</svg>
