<svg width="31" height="31" viewBox="0 0 31 31" fill="none" xmlns="http://www.w3.org/2000/svg">
<path fill-rule="evenodd" clip-rule="evenodd" d="M31 15.5C31 24.0599 24.0599 31 15.5 31C6.94012 31 0 24.0599 0 15.5C0 6.94012 6.94012 0 15.5 0C24.0599 0 31 6.94012 31 15.5ZM16.0554 11.4429C14.548 12.0693 11.5346 13.3675 7.01633 15.336C6.28267 15.6279 5.89775 15.9133 5.86287 16.1923C5.80346 16.6651 6.39504 16.8511 7.19846 17.103C7.30825 17.1378 7.42192 17.1727 7.53817 17.2115C8.32996 17.4685 9.39429 17.7695 9.94713 17.7811C10.4496 17.7914 11.0102 17.5847 11.6289 17.1611C15.85 14.3104 18.0291 12.8702 18.166 12.8392C18.2629 12.8172 18.3972 12.7888 18.4876 12.8702C18.578 12.9502 18.569 13.1027 18.56 13.144C18.5005 13.3933 16.1833 15.5491 14.982 16.6651C14.6075 17.0125 14.3427 17.2592 14.2884 17.3161C14.167 17.4414 14.043 17.5615 13.9242 17.6765C13.1879 18.3843 12.6377 18.9165 13.9552 19.7845C14.5881 20.2017 15.0944 20.5465 15.5995 20.8901C16.151 21.266 16.7013 21.6406 17.4142 22.1082C17.5951 22.227 17.7682 22.3497 17.9374 22.4698C18.5793 22.9284 19.1567 23.3391 19.8697 23.2745C20.283 23.2358 20.7119 22.847 20.9289 21.6858C21.4417 18.9397 22.4517 12.9929 22.6855 10.5413C22.6998 10.3377 22.6911 10.1332 22.6597 9.93162C22.6409 9.76879 22.5616 9.61895 22.4375 9.51183C22.2528 9.36071 21.9661 9.32842 21.8369 9.331C21.2544 9.34133 20.3605 9.65263 16.0554 11.4429Z" fill="#333F53"/>
</svg>
